<?xml version="1.0" encoding="UTF-8" standalone="no"?>
<!-- Created with Inkscape (http://www.inkscape.org/) -->

<svg
   xmlns:dc="http://purl.org/dc/elements/1.1/"
   xmlns:cc="http://creativecommons.org/ns#"
   xmlns:rdf="http://www.w3.org/1999/02/22-rdf-syntax-ns#"
   xmlns:svg="http://www.w3.org/2000/svg"
   xmlns="http://www.w3.org/2000/svg"
   xmlns:sodipodi="http://sodipodi.sourceforge.net/DTD/sodipodi-0.dtd"
   xmlns:inkscape="http://www.inkscape.org/namespaces/inkscape"
   id="svg2"
   version="1.1"
   inkscape:version="0.48.4 r9939"
   width="517.5"
   height="516.25"
   xml:space="preserve"
   sodipodi:docname="1a_pricesNorm.pdf"><metadata
     id="metadata8"><rdf:RDF><cc:Work
         rdf:about=""><dc:format>image/svg+xml</dc:format><dc:type
           rdf:resource="http://purl.org/dc/dcmitype/StillImage" /><dc:title></dc:title></cc:Work></rdf:RDF></metadata><defs
     id="defs6"><clipPath
       clipPathUnits="userSpaceOnUse"
       id="clipPath18"><path
         d="m 0,0 414.75,0 0,414 L 0,414 0,0 z"
         id="path20" /></clipPath><clipPath
       clipPathUnits="userSpaceOnUse"
       id="clipPath26"><path
         d="m 0,0 414.75,0 0,414 L 0,414 0,0 z"
         id="path28" /></clipPath><clipPath
       clipPathUnits="userSpaceOnUse"
       id="clipPath34"><path
         d="m 0,0 414.75,0 0,414 L 0,414 0,0 z"
         id="path36" /></clipPath><clipPath
       clipPathUnits="userSpaceOnUse"
       id="clipPath44"><path
         d="m 0,0 414.75,0 0,414 L 0,414 0,0 z"
         id="path46" /></clipPath><clipPath
       clipPathUnits="userSpaceOnUse"
       id="clipPath52"><path
         d="m 0,0 414.75,0 0,414 L 0,414 0,0 z"
         id="path54" /></clipPath><clipPath
       clipPathUnits="userSpaceOnUse"
       id="clipPath60"><path
         d="m 0,0 414.75,0 0,414 L 0,414 0,0 z"
         id="path62" /></clipPath><clipPath
       clipPathUnits="userSpaceOnUse"
       id="clipPath68"><path
         d="m 43.87,78.58 356.48,0 0,306.51 -356.48,0 0,-306.51 z"
         id="path70" /></clipPath><clipPath
       clipPathUnits="userSpaceOnUse"
       id="clipPath124"><path
         d="m 0,0 414.75,0 0,414 L 0,414 0,0 z"
         id="path126" /></clipPath><clipPath
       clipPathUnits="userSpaceOnUse"
       id="clipPath132"><path
         d="m 0,0 414.75,0 0,414 L 0,414 0,0 z"
         id="path134" /></clipPath><clipPath
       clipPathUnits="userSpaceOnUse"
       id="clipPath140"><path
         d="m 0,0 414.75,0 0,414 L 0,414 0,0 z"
         id="path142" /></clipPath><clipPath
       clipPathUnits="userSpaceOnUse"
       id="clipPath164"><path
         d="m 0,0 414.75,0 0,414 L 0,414 0,0 z"
         id="path166" /></clipPath><clipPath
       clipPathUnits="userSpaceOnUse"
       id="clipPath172"><path
         d="m 0,0 414.75,0 0,414 L 0,414 0,0 z"
         id="path174" /></clipPath><clipPath
       clipPathUnits="userSpaceOnUse"
       id="clipPath188"><path
         d="m 0,0 414.75,0 0,414 L 0,414 0,0 z"
         id="path190" /></clipPath><clipPath
       clipPathUnits="userSpaceOnUse"
       id="clipPath196"><path
         d="m 0,0 414.75,0 0,414 L 0,414 0,0 z"
         id="path198" /></clipPath><clipPath
       clipPathUnits="userSpaceOnUse"
       id="clipPath204"><path
         d="m 0,0 414.75,0 0,414 L 0,414 0,0 z"
         id="path206" /></clipPath><clipPath
       clipPathUnits="userSpaceOnUse"
       id="clipPath212"><path
         d="m 0,0 414.75,0 0,414 L 0,414 0,0 z"
         id="path214" /></clipPath><clipPath
       clipPathUnits="userSpaceOnUse"
       id="clipPath220"><path
         d="m 0,0 414.75,0 0,414 L 0,414 0,0 z"
         id="path222" /></clipPath><clipPath
       clipPathUnits="userSpaceOnUse"
       id="clipPath228"><path
         d="m 0,0 414.75,0 0,414 L 0,414 0,0 z"
         id="path230" /></clipPath><clipPath
       clipPathUnits="userSpaceOnUse"
       id="clipPath246"><path
         d="m 0,0 414.75,0 0,414 L 0,414 0,0 z"
         id="path248" /></clipPath><clipPath
       clipPathUnits="userSpaceOnUse"
       id="clipPath254"><path
         d="m 0,0 414.75,0 0,414 L 0,414 0,0 z"
         id="path256" /></clipPath><clipPath
       clipPathUnits="userSpaceOnUse"
       id="clipPath282"><path
         d="m 0,0 414.75,0 0,414 L 0,414 0,0 z"
         id="path284" /></clipPath><clipPath
       clipPathUnits="userSpaceOnUse"
       id="clipPath290"><path
         d="m 0,0 414.75,0 0,414 L 0,414 0,0 z"
         id="path292" /></clipPath><clipPath
       clipPathUnits="userSpaceOnUse"
       id="clipPath298"><path
         d="m 0,0 414.75,0 0,414 L 0,414 0,0 z"
         id="path300" /></clipPath><clipPath
       clipPathUnits="userSpaceOnUse"
       id="clipPath306"><path
         d="m 0,0 414.75,0 0,414 L 0,414 0,0 z"
         id="path308" /></clipPath><clipPath
       clipPathUnits="userSpaceOnUse"
       id="clipPath314"><path
         d="m 0,0 414.75,0 0,414 L 0,414 0,0 z"
         id="path316" /></clipPath><clipPath
       clipPathUnits="userSpaceOnUse"
       id="clipPath326"><path
         d="m 0,0 414.75,0 0,414 L 0,414 0,0 z"
         id="path328" /></clipPath><clipPath
       clipPathUnits="userSpaceOnUse"
       id="clipPath334"><path
         d="m 0,0 414.75,0 0,414 L 0,414 0,0 z"
         id="path336" /></clipPath><clipPath
       clipPathUnits="userSpaceOnUse"
       id="clipPath346"><path
         d="m 0,0 414.75,0 0,414 L 0,414 0,0 z"
         id="path348" /></clipPath><clipPath
       clipPathUnits="userSpaceOnUse"
       id="clipPath354"><path
         d="m 0,0 414.75,0 0,414 L 0,414 0,0 z"
         id="path356" /></clipPath><clipPath
       clipPathUnits="userSpaceOnUse"
       id="clipPath362"><path
         d="m 0,0 414.75,0 0,414 L 0,414 0,0 z"
         id="path364" /></clipPath><clipPath
       clipPathUnits="userSpaceOnUse"
       id="clipPath370"><path
         d="m 0,0 414.75,0 0,414 L 0,414 0,0 z"
         id="path372" /></clipPath><clipPath
       clipPathUnits="userSpaceOnUse"
       id="clipPath378"><path
         d="m 0,0 414.75,0 0,414 L 0,414 0,0 z"
         id="path380" /></clipPath><clipPath
       clipPathUnits="userSpaceOnUse"
       id="clipPath386"><path
         d="m 0,0 414.75,0 0,414 L 0,414 0,0 z"
         id="path388" /></clipPath><clipPath
       clipPathUnits="userSpaceOnUse"
       id="clipPath396"><path
         d="m 0,0 414.75,0 0,414 L 0,414 0,0 z"
         id="path398" /></clipPath><clipPath
       clipPathUnits="userSpaceOnUse"
       id="clipPath404"><path
         d="m 0,0 414.75,0 0,414 L 0,414 0,0 z"
         id="path406" /></clipPath><clipPath
       clipPathUnits="userSpaceOnUse"
       id="clipPath412"><path
         d="m 0,0 414.75,0 0,414 L 0,414 0,0 z"
         id="path414" /></clipPath><clipPath
       clipPathUnits="userSpaceOnUse"
       id="clipPath420"><path
         d="m 0,0 414.75,0 0,414 L 0,414 0,0 z"
         id="path422" /></clipPath><clipPath
       clipPathUnits="userSpaceOnUse"
       id="clipPath430"><path
         d="m 0,0 414.75,0 0,414 L 0,414 0,0 z"
         id="path432" /></clipPath><clipPath
       clipPathUnits="userSpaceOnUse"
       id="clipPath438"><path
         d="m 0,0 414.75,0 0,414 L 0,414 0,0 z"
         id="path440" /></clipPath><clipPath
       clipPathUnits="userSpaceOnUse"
       id="clipPath448"><path
         d="m 0,0 414.75,0 0,414 L 0,414 0,0 z"
         id="path450" /></clipPath><clipPath
       clipPathUnits="userSpaceOnUse"
       id="clipPath456"><path
         d="m 0,0 414.75,0 0,414 L 0,414 0,0 z"
         id="path458" /></clipPath><clipPath
       clipPathUnits="userSpaceOnUse"
       id="clipPath466"><path
         d="m 0,0 414.75,0 0,414 L 0,414 0,0 z"
         id="path468" /></clipPath><clipPath
       clipPathUnits="userSpaceOnUse"
       id="clipPath474"><path
         d="m 0,0 414.75,0 0,414 L 0,414 0,0 z"
         id="path476" /></clipPath><clipPath
       clipPathUnits="userSpaceOnUse"
       id="clipPath486"><path
         d="m 0,0 414.75,0 0,414 L 0,414 0,0 z"
         id="path488" /></clipPath><clipPath
       clipPathUnits="userSpaceOnUse"
       id="clipPath494"><path
         d="m 0,0 414.75,0 0,414 L 0,414 0,0 z"
         id="path496" /></clipPath><clipPath
       clipPathUnits="userSpaceOnUse"
       id="clipPath506"><path
         d="m 0,0 414.75,0 0,414 L 0,414 0,0 z"
         id="path508" /></clipPath><clipPath
       clipPathUnits="userSpaceOnUse"
       id="clipPath514"><path
         d="m 0,0 414.75,0 0,414 L 0,414 0,0 z"
         id="path516" /></clipPath><clipPath
       clipPathUnits="userSpaceOnUse"
       id="clipPath524"><path
         d="m 0,0 414.75,0 0,414 L 0,414 0,0 z"
         id="path526" /></clipPath><clipPath
       clipPathUnits="userSpaceOnUse"
       id="clipPath532"><path
         d="m 0,0 414.75,0 0,414 L 0,414 0,0 z"
         id="path534" /></clipPath><clipPath
       clipPathUnits="userSpaceOnUse"
       id="clipPath542"><path
         d="m 0,0 414.75,0 0,414 L 0,414 0,0 z"
         id="path544" /></clipPath><clipPath
       clipPathUnits="userSpaceOnUse"
       id="clipPath550"><path
         d="m 0,0 414.75,0 0,414 L 0,414 0,0 z"
         id="path552" /></clipPath><clipPath
       clipPathUnits="userSpaceOnUse"
       id="clipPath560"><path
         d="m 0,0 414.75,0 0,414 L 0,414 0,0 z"
         id="path562" /></clipPath><clipPath
       clipPathUnits="userSpaceOnUse"
       id="clipPath568"><path
         d="m 0,0 414.75,0 0,414 L 0,414 0,0 z"
         id="path570" /></clipPath><clipPath
       clipPathUnits="userSpaceOnUse"
       id="clipPath580"><path
         d="m 0,0 414.75,0 0,414 L 0,414 0,0 z"
         id="path582" /></clipPath><clipPath
       clipPathUnits="userSpaceOnUse"
       id="clipPath588"><path
         d="m 0,0 414.75,0 0,414 L 0,414 0,0 z"
         id="path590" /></clipPath><clipPath
       clipPathUnits="userSpaceOnUse"
       id="clipPath600"><path
         d="m 0,0 414.75,0 0,414 L 0,414 0,0 z"
         id="path602" /></clipPath><clipPath
       clipPathUnits="userSpaceOnUse"
       id="clipPath608"><path
         d="m 0,0 414.75,0 0,414 L 0,414 0,0 z"
         id="path610" /></clipPath><clipPath
       clipPathUnits="userSpaceOnUse"
       id="clipPath620"><path
         d="m 0,0 414.75,0 0,414 L 0,414 0,0 z"
         id="path622" /></clipPath><clipPath
       clipPathUnits="userSpaceOnUse"
       id="clipPath628"><path
         d="m 0,0 414.75,0 0,414 L 0,414 0,0 z"
         id="path630" /></clipPath><clipPath
       clipPathUnits="userSpaceOnUse"
       id="clipPath640"><path
         d="m 0,0 414.75,0 0,414 L 0,414 0,0 z"
         id="path642" /></clipPath><clipPath
       clipPathUnits="userSpaceOnUse"
       id="clipPath648"><path
         d="m 0,0 414.75,0 0,414 L 0,414 0,0 z"
         id="path650" /></clipPath><clipPath
       clipPathUnits="userSpaceOnUse"
       id="clipPath656"><path
         d="m 0,0 414.75,0 0,414 L 0,414 0,0 z"
         id="path658" /></clipPath><clipPath
       clipPathUnits="userSpaceOnUse"
       id="clipPath664"><path
         d="m 0,0 414.75,0 0,414 L 0,414 0,0 z"
         id="path666" /></clipPath><clipPath
       clipPathUnits="userSpaceOnUse"
       id="clipPath672"><path
         d="m 0,0 414.75,0 0,414 L 0,414 0,0 z"
         id="path674" /></clipPath><clipPath
       clipPathUnits="userSpaceOnUse"
       id="clipPath680"><path
         d="m 0,0 414.75,0 0,414 L 0,414 0,0 z"
         id="path682" /></clipPath><clipPath
       clipPathUnits="userSpaceOnUse"
       id="clipPath688"><path
         d="m 0,0 414.75,0 0,414 L 0,414 0,0 z"
         id="path690" /></clipPath><clipPath
       clipPathUnits="userSpaceOnUse"
       id="clipPath696"><path
         d="m 0,0 414.75,0 0,414 L 0,414 0,0 z"
         id="path698" /></clipPath><clipPath
       clipPathUnits="userSpaceOnUse"
       id="clipPath704"><path
         d="m 0,0 414.75,0 0,414 L 0,414 0,0 z"
         id="path706" /></clipPath><clipPath
       clipPathUnits="userSpaceOnUse"
       id="clipPath712"><path
         d="m 0,0 414.75,0 0,414 L 0,414 0,0 z"
         id="path714" /></clipPath><clipPath
       clipPathUnits="userSpaceOnUse"
       id="clipPath724"><path
         d="m 0,0 414.75,0 0,414 L 0,414 0,0 z"
         id="path726" /></clipPath><clipPath
       clipPathUnits="userSpaceOnUse"
       id="clipPath732"><path
         d="m 0,0 414.75,0 0,414 L 0,414 0,0 z"
         id="path734" /></clipPath></defs><sodipodi:namedview
     pagecolor="#ffffff"
     bordercolor="#666666"
     borderopacity="1"
     objecttolerance="10"
     gridtolerance="10"
     guidetolerance="10"
     inkscape:pageopacity="0"
     inkscape:pageshadow="2"
     inkscape:window-width="640"
     inkscape:window-height="480"
     id="namedview4"
     showgrid="false"
     inkscape:zoom="0.45714286"
     inkscape:cx="258.75"
     inkscape:cy="258.125"
     inkscape:window-x="0"
     inkscape:window-y="0"
     inkscape:window-maximized="0"
     inkscape:current-layer="g10" /><g
     id="g10"
     inkscape:groupmode="layer"
     inkscape:label="1a_pricesNorm"
     transform="matrix(1.25,0,0,-1.25,0,516.25)"><g
       id="g12" /><g
       id="g14"><g
         id="g16"
         clip-path="url(#clipPath18)" /></g><g
       id="g22"><g
         id="g24"
         clip-path="url(#clipPath26)" /></g><g
       id="g30"><g
         id="g32"
         clip-path="url(#clipPath34)"><path
           d="m 0,0 414.75,0 0,414 L 0,414 0,0 z"
           style="fill:#ffffff;fill-opacity:1;fill-rule:nonzero;stroke:#ffffff;stroke-opacity:1;stroke-width:1.06;stroke-linecap:round;stroke-linejoin:round;stroke-miterlimit:10;stroke-dasharray:none"
           id="path38" /></g></g><g
       id="g40"><g
         id="g42"
         clip-path="url(#clipPath44)" /></g><g
       id="g48"><g
         id="g50"
         clip-path="url(#clipPath52)" /></g><g
       id="g56"><g
         id="g58"
         clip-path="url(#clipPath60)" /></g><g
       id="g64"><g
         id="g66"
         clip-path="url(#clipPath68)"><path
           d="m 43.87,78.58 356.48,0 0,306.51 -356.48,0 0,-306.51 z"
           style="fill:#e5e5e5;fill-opacity:1;fill-rule:nonzero;stroke:none"
           id="path72" /><path
           d="m 43.87,147.02 356.48,0"
           style="fill:none;stroke:#f2f2f2;stroke-opacity:1;stroke-width:0.53;stroke-linecap:butt;stroke-linejoin:round;stroke-miterlimit:10;stroke-dasharray:none"
           id="path74" /><path
           d="m 43.87,219.95 356.48,0"
           style="fill:none;stroke:#f2f2f2;stroke-opacity:1;stroke-width:0.53;stroke-linecap:butt;stroke-linejoin:round;stroke-miterlimit:10;stroke-dasharray:none"
           id="path76" /><path
           d="m 43.87,292.88 356.48,0"
           style="fill:none;stroke:#f2f2f2;stroke-opacity:1;stroke-width:0.53;stroke-linecap:butt;stroke-linejoin:round;stroke-miterlimit:10;stroke-dasharray:none"
           id="path78" /><path
           d="m 43.87,365.81 356.48,0"
           style="fill:none;stroke:#f2f2f2;stroke-opacity:1;stroke-width:0.53;stroke-linecap:butt;stroke-linejoin:round;stroke-miterlimit:10;stroke-dasharray:none"
           id="path80" /><path
           d="m 98.91,78.58 0,306.51"
           style="fill:none;stroke:#f2f2f2;stroke-opacity:1;stroke-width:0.53;stroke-linecap:butt;stroke-linejoin:round;stroke-miterlimit:10;stroke-dasharray:none"
           id="path82" /><path
           d="m 180.15,78.58 0,306.51"
           style="fill:none;stroke:#f2f2f2;stroke-opacity:1;stroke-width:0.53;stroke-linecap:butt;stroke-linejoin:round;stroke-miterlimit:10;stroke-dasharray:none"
           id="path84" /><path
           d="m 261.84,78.58 0,306.51"
           style="fill:none;stroke:#f2f2f2;stroke-opacity:1;stroke-width:0.53;stroke-linecap:butt;stroke-linejoin:round;stroke-miterlimit:10;stroke-dasharray:none"
           id="path86" /><path
           d="m 343.97,78.58 0,306.51"
           style="fill:none;stroke:#f2f2f2;stroke-opacity:1;stroke-width:0.53;stroke-linecap:butt;stroke-linejoin:round;stroke-miterlimit:10;stroke-dasharray:none"
           id="path88" /><path
           d="m 43.87,110.55 356.48,0"
           style="fill:none;stroke:#ffffff;stroke-opacity:1;stroke-width:1.06;stroke-linecap:butt;stroke-linejoin:round;stroke-miterlimit:10;stroke-dasharray:none"
           id="path90" /><path
           d="m 43.87,183.49 356.48,0"
           style="fill:none;stroke:#ffffff;stroke-opacity:1;stroke-width:1.06;stroke-linecap:butt;stroke-linejoin:round;stroke-miterlimit:10;stroke-dasharray:none"
           id="path92" /><path
           d="m 43.87,256.42 356.48,0"
           style="fill:none;stroke:#ffffff;stroke-opacity:1;stroke-width:1.06;stroke-linecap:butt;stroke-linejoin:round;stroke-miterlimit:10;stroke-dasharray:none"
           id="path94" /><path
           d="m 43.87,329.35 356.48,0"
           style="fill:none;stroke:#ffffff;stroke-opacity:1;stroke-width:1.06;stroke-linecap:butt;stroke-linejoin:round;stroke-miterlimit:10;stroke-dasharray:none"
           id="path96" /><path
           d="m 58.29,78.58 0,306.51"
           style="fill:none;stroke:#ffffff;stroke-opacity:1;stroke-width:1.06;stroke-linecap:butt;stroke-linejoin:round;stroke-miterlimit:10;stroke-dasharray:none"
           id="path98" /><path
           d="m 139.53,78.58 0,306.51"
           style="fill:none;stroke:#ffffff;stroke-opacity:1;stroke-width:1.06;stroke-linecap:butt;stroke-linejoin:round;stroke-miterlimit:10;stroke-dasharray:none"
           id="path100" /><path
           d="m 220.77,78.58 0,306.51"
           style="fill:none;stroke:#ffffff;stroke-opacity:1;stroke-width:1.06;stroke-linecap:butt;stroke-linejoin:round;stroke-miterlimit:10;stroke-dasharray:none"
           id="path102" /><path
           d="m 302.9,78.58 0,306.51"
           style="fill:none;stroke:#ffffff;stroke-opacity:1;stroke-width:1.06;stroke-linecap:butt;stroke-linejoin:round;stroke-miterlimit:10;stroke-dasharray:none"
           id="path104" /><path
           d="m 385.04,78.58 0,306.51"
           style="fill:none;stroke:#ffffff;stroke-opacity:1;stroke-width:1.06;stroke-linecap:butt;stroke-linejoin:round;stroke-miterlimit:10;stroke-dasharray:none"
           id="path106" /><path
           d="m 60.07,110.55 0.9,0.07 0.89,1.08 0.89,-0.93 2.68,0.82 0.89,3.25 0.89,0.12 0.9,0.86 0.89,-1.83 3.57,1.31 0.89,4.1 0.9,1.85 0.89,0.25 2.68,0.17 0.89,-0.38 0.89,3.26 0.9,-2.18 0.89,-0.6 2.68,-0.95 0.89,-0.17 0.89,3.33 0.9,0.42 0.89,5.53 2.68,-0.17 0.89,0.78 0.89,0.83 0.89,0.57 0.9,-2.66 2.68,2.61 0.89,-0.37 0.89,-2.07 0.89,4.23 0.9,0.91 3.57,0.28 0.89,-1.3 0.89,1.66 0.9,0.65 2.67,0.52 0.9,1.32 0.89,-1.86 0.89,2.4 0.9,-1.27 2.67,-1.52 0.9,-5.98 0.89,2.64 0.89,3.8 0.89,1.41 2.68,0.06 0.9,7.1 0.89,-0.47 0.89,2.37 0.89,0.45 2.68,1.59 0.9,-1.2 0.89,-0.76 0.89,-2.88 0.89,1.23 2.68,5.54 0.89,-1.14 0.9,-1.99 0.89,-0.64 0.89,1.48 2.68,3.02 0.89,-1.62 0.9,-4.12 0.89,-0.25 3.57,-4.53 0.89,-6.75 0.9,2.89 0.89,5.39 0.89,-4.94 2.68,-0.2 0.89,6.06 0.9,-1.61 0.89,-2.35 0.89,0.46 2.68,-3.31 0.89,1.44 0.89,5.34 0.9,2.65 0.89,0.97 2.68,-1.56 0.89,2.26 0.89,-1 0.9,-3.07 0.89,-6.41 2.68,0.13 0.89,-1.67 0.89,-2.61 0.9,0.97 0.89,-1.31 2.68,-4.29 0.89,-2.2 0.89,-1.67 0.9,-5.7 0.89,-2.75 2.68,5.93 0.89,0.18 0.89,0.64 0.9,0.52 0.89,-0.82 3.57,4.17 0.89,-5.45 0.89,-0.86 0.9,-9.22 2.68,0.04 0.89,2.09 0.89,8.47 0.89,-0.04 0.9,3.04 2.67,-4.78 0.9,4.36 0.89,-2.66 0.89,4.06 0.9,3.93 2.67,0.55 0.9,3.77 0.89,-0.65 0.89,-8.62 0.9,2.71 2.67,-6.08 0.9,1.79 0.89,3.39 0.89,-0.8 0.89,9.45 2.68,0.96 0.9,2.43 1.78,-1.84 0.89,-3.68 2.68,-0.64 0.9,-3.13 0.89,-0.01 0.89,-1.91 0.89,6.29 2.68,-0.9 0.89,2.87 0.9,2.6 0.89,1.06 0.89,-3.95 2.68,-3.47 0.89,-3.49 0.9,-0.12 0.89,6.32 0.89,7.41 2.68,-0.19 0.89,-1.71 0.9,-1.14 0.89,-2.94 0.89,7.42 2.68,0.92 0.89,2.03 0.9,0.25 0.89,0.17 0.89,0.88 2.68,-0.51 0.89,-0.05 0.89,0.46 0.9,2.85 0.89,0.75 2.68,0 0.89,-1.42 0.89,0.09 0.9,-3.26 0.89,2.59 2.68,-0.2 0.89,-0.33 0.89,0.34 0.9,-3.14 0.89,2.03 3.57,-0.47 0.89,-0.43 0.9,8.19 0.89,1.66 2.68,-2.53 0.89,1.28 0.89,0.86 0.89,6.69 0.9,1.65 2.68,-1.31 0.89,-0.53 0.89,0.49 0.89,-0.22 0.9,-0.04 2.68,-0.93 0.89,-4.36 0.89,-2.37 0.89,3.95 0.9,-1.85 2.67,1.09 0.9,0.36 0.89,1.5 0.89,2.97 0.9,-0.13 2.67,-1.44 0.9,-4.12 0.89,-2.54 0.89,0.08 0.89,-1.22 2.68,3.3 0.9,4.22 0.89,1.71 0.89,-1.02 0.89,-6.89 2.68,0.18 0.9,-5.92 0.89,-1.24 0.89,1.2 0.89,-0.29 4.47,0.06 0.89,4.41 0.89,-3.83 2.68,0.88 0.89,3.18 0.9,-9.67 0.89,-4.86 0.89,0.67 2.68,0.05 0.89,-1.57 0.9,-5.44 0.89,-0.62 0.89,1.87 2.68,7.72 0.89,0.26 0.9,0.92 1.78,5.17 2.68,-0.81 0.89,-2.1 0.89,3.13 0.9,1.72 0.89,0.07 2.68,-1.92 0.89,-0.69 0.89,0.64 0.9,1.33 0.89,1.18 2.68,0.14 0.89,2.65 0.89,0.18 0.9,-2.58 0.89,-1.67 2.68,4.79 0.89,4.69 0.89,-3.14 0.9,2.25 0.89,-3.86 2.68,-1 1.78,-1.95 0.9,-0.49 0.89,-4.48 2.68,6.79"
           style="fill:none;stroke:#b3b3b3;stroke-opacity:1;stroke-width:1.89;stroke-linecap:butt;stroke-linejoin:round;stroke-miterlimit:1;stroke-dasharray:none"
           id="path108" /><path
           d="m 60.07,110.55 0.9,1.97 0.89,4.07 0.89,3.87 2.68,-0.59 0.89,1.34 0.89,-0.61 0.9,-1.03 0.89,-1.41 3.57,4.34 0.89,3.92 0.9,-1.21 0.89,-6.61 2.68,6.3 0.89,-6.2 0.89,23.28 0.9,-1.81 0.89,2.36 2.68,5.08 0.89,3.07 0.89,-0.25 0.9,-0.95 0.89,4.05 2.68,3.79 0.89,4.31 0.89,6.97 0.89,14.62 0.9,0.22 2.68,8.14 0.89,6.09 0.89,-10.46 0.89,4.02 0.9,-0.08 3.57,11.3 0.89,-1.61 0.89,2.97 0.9,5.34 2.67,2.97 0.9,8.55 0.89,6.23 0.89,1.81 0.9,0.63 2.67,-10.66 0.9,-2.57 0.89,0.38 0.89,10.02 0.89,2.82 2.68,6.05 0.9,14.29 0.89,19.04 0.89,-3.56 0.89,0.01 2.68,13.76 0.9,4.32 0.89,-3.07 0.89,-2.8 0.89,-2.92 2.68,9.69 0.89,6.65 0.9,2.78 0.89,-6.87 0.89,-9.15 2.68,16.92 0.89,9.48 0.9,-4.45 0.89,8.32 3.57,2.25 0.89,-6.9 0.9,-1.99 0.89,-3.03 0.89,-15.57 2.68,-22.25 0.89,26.22 0.9,-1.2 0.89,-18.54 0.89,-12.82 2.68,-1.13 0.89,-10.13 0.89,44.08 0.9,-2.03 0.89,-4.17 2.68,-16.87 0.89,-1.64 0.89,3.42 0.9,-3.69 0.89,-14.69 2.68,3.75 0.89,-1.16 0.89,0.89 0.9,1.18 0.89,-3.37 2.68,-7.53 0.89,-4.48 0.89,-6.28 0.9,-14.16 0.89,0.24 2.68,27.4 0.89,-3.83 0.89,12.05 0.9,-4.65 0.89,-2.68 3.57,8.85 0.89,6.12 0.89,-1.28 0.9,-14.85 2.68,2.94 0.89,-1.3 0.89,7.65 0.89,0.23 0.9,7.63 2.67,-8.12 0.9,4.43 0.89,-3.55 0.89,-0.56 0.9,2.31 2.67,10.33 0.9,1.45 0.89,-1.49 0.89,-7.15 0.9,3.93 2.67,-10.05 0.9,1.12 0.89,2.19 0.89,-4.83 0.89,13.25 2.68,7.56 0.9,6.11 1.78,9.34 0.89,-3.61 2.68,7.1 0.9,-5.03 0.89,-3.35 0.89,-4.9 0.89,5.38 2.68,1.72 0.89,0.03 0.9,-0.61 0.89,7.15 0.89,-8.89 2.68,-0.42 0.89,-2.57 0.9,-23.02 0.89,-0.08 0.89,9.12 2.68,8.75 0.89,13.95 0.9,-3.5 0.89,0.87 0.89,7.01 2.68,6.08 0.89,-1.45 0.9,-0.94 0.89,3.14 0.89,0.86 2.68,7.39 0.89,1.5 0.89,-0.76 0.9,4.91 0.89,10.48 2.68,15.17 0.89,-8.09 0.89,11.41 0.9,-5.56 0.89,0.52 2.68,11.1 0.89,-0.78 0.89,-1.19 0.9,-8.55 0.89,1.23 3.57,8.66 0.89,-4.22 0.9,5.37 0.89,3.72 2.68,-15.76 0.89,-1.91 0.89,8.18 0.89,11.75 0.9,7.39 2.68,7.58 0.89,1.89 0.89,0.17 0.89,-3.02 0.9,1.23 2.68,-8.28 0.89,-15.36 0.89,-7.45 0.89,14.38 0.9,-12.67 2.67,-6.86 0.9,1.71 0.89,9.02 0.89,-4.14 0.9,-12.65 2.67,-12.85 0.9,-2.06 0.89,4.51 0.89,-11.41 0.89,1.44 2.68,4.49 0.9,13.39 0.89,-4.61 0.89,-10.67 0.89,-20.3 2.68,21.54 0.9,-18.41 0.89,3.09 0.89,-6.49 0.89,-4.93 4.47,-7.73 0.89,1.08 0.89,-17.57 2.68,6.96 0.89,-1.57 0.9,-19.87 0.89,-18.11 0.89,8.32 2.68,-3.78 0.89,0.07 0.9,-5.39 0.89,-10.08 0.89,1.84 2.68,34.04 0.89,-4.31 0.9,0.71 1.78,8.77 2.68,16.13 0.89,-4.25 0.89,-1.65 0.9,5.74 0.89,-3.65 2.68,0.82 0.89,-9.25 0.89,-33.15 0.9,7.55 0.89,-12.52 2.68,-3.06 0.89,10.35 0.89,-2.14 0.9,-8.32 0.89,-17.81 2.68,8.09 0.89,13.48 0.89,-6.79 0.9,-4.09 0.89,-2.15 2.68,0.75 1.78,-6.42 0.9,1.85 0.89,-4.89 2.68,20.19"
           style="fill:none;stroke:#2e2e2e;stroke-opacity:1;stroke-width:1.89;stroke-linecap:butt;stroke-linejoin:round;stroke-miterlimit:1;stroke-dasharray:13.24,5.68;stroke-dashoffset:0"
           id="path110" /><path
           d="m 60.07,119.9 4.1,1.51 4.11,1.47 4.1,1.41 4.1,1.36 4.1,1.29 4.11,1.23 4.1,1.15 4.1,1.08 4.1,1 4.1,0.91 4.11,0.81 4.1,0.71 4.1,0.62 4.1,0.55 4.11,0.48 4.1,0.43 4.1,0.38 4.1,0.35 4.1,0.33 4.11,0.28 4.1,0.03 4.1,-0.24 4.1,-0.42 4.11,-0.56 4.1,-0.62 4.1,-0.63 4.1,-0.57 4.1,-0.46 4.11,-0.3 4.1,-0.23 4.1,-0.36 4.1,-0.44 4.1,-0.45 4.11,-0.42 4.1,-0.32 4.1,-0.18 4.1,0 4.11,0.22 4.1,0.49 4.1,0.89 4.1,1.29 4.1,1.59 4.11,1.81 4.1,1.95 4.1,1.99 4.1,1.93 4.11,1.78 4.1,1.5 4.1,1.14 4.1,0.91 4.1,0.87 4.11,0.83 4.1,0.77 4.1,0.72 4.1,0.67 4.11,0.59 4.1,0.51 4.1,0.42 4.1,0.31 4.1,0.26 4.11,0.21 4.1,0.16 4.1,0.1 4.1,0.04 4.11,-0.01 4.1,-0.07 4.1,-0.14 4.1,-0.19 4.1,-0.26 4.11,-0.31 4.1,-0.36 4.1,-0.4 4.1,-0.46 4.11,-0.49 4.1,-0.54 4.1,-0.59 4.1,-0.63 4.1,-0.68 4.11,-0.72 0,-7.13 -4.11,1.29 -4.1,1.21 -4.1,1.13 -4.1,1.03 -4.1,0.95 -4.11,0.86 -4.1,0.76 -4.1,0.67 -4.1,0.57 -4.11,0.47 -4.1,0.38 -4.1,0.28 -4.1,0.18 -4.1,0.09 -4.11,0.01 -4.1,-0.06 -4.1,-0.13 -4.1,-0.19 -4.11,-0.25 -4.1,-0.31 -4.1,-0.35 -4.1,-0.44 -4.1,-0.53 -4.11,-0.6 -4.1,-0.69 -4.1,-0.75 -4.1,-0.82 -4.11,-0.87 -4.1,-0.9 -4.1,-0.93 -4.1,-1.12 -4.1,-1.45 -4.11,-1.71 -4.1,-1.89 -4.1,-1.96 -4.1,-1.96 -4.11,-1.86 -4.1,-1.65 -4.1,-1.34 -4.1,-0.93 -4.1,-0.48 -4.11,-0.17 -4.1,0.05 -4.1,0.23 -4.1,0.34 -4.11,0.39 -4.1,0.41 -4.1,0.37 -4.1,0.31 -4.1,0.21 -4.11,0.31 -4.1,0.51 -4.1,0.61 -4.1,0.67 -4.1,0.66 -4.11,0.58 -4.1,0.45 -4.1,0.26 -4.1,0 -4.11,-0.24 -4.1,-0.28 -4.1,-0.3 -4.1,-0.35 -4.1,-0.4 -4.11,-0.47 -4.1,-0.56 -4.1,-0.65 -4.1,-0.78 -4.11,-0.91 -4.1,-1.06 -4.1,-1.19 -4.1,-1.32 -4.1,-1.46 -4.11,-1.57 -4.1,-1.69 -4.1,-1.79 -4.1,-1.9 -4.11,-1.99 -4.1,-2.08 0,6.94 z"
           style="fill:#999999;fill-opacity:0.4;fill-rule:nonzero;stroke:none"
           id="path112" /><path
           d="m 60.07,116.43 4.1,1.8 4.11,1.73 4.1,1.65 4.1,1.58 4.1,1.49 4.11,1.4 4.1,1.3 4.1,1.2 4.1,1.1 4.1,0.98 4.11,0.86 4.1,0.74 4.1,0.64 4.1,0.56 4.11,0.47 4.1,0.42 4.1,0.36 4.1,0.33 4.1,0.3 4.11,0.26 4.1,0.01 4.1,-0.24 4.1,-0.44 4.11,-0.57 4.1,-0.64 4.1,-0.65 4.1,-0.59 4.1,-0.48 4.11,-0.31 4.1,-0.22 4.1,-0.33 4.1,-0.41 4.1,-0.43 4.11,-0.41 4.1,-0.33 4.1,-0.2 4.1,-0.03 4.11,0.2 4.1,0.48 4.1,0.91 4.1,1.32 4.1,1.62 4.11,1.84 4.1,1.95 4.1,1.98 4.1,1.9 4.11,1.75 4.1,1.48 4.1,1.13 4.1,0.92 4.1,0.88 4.11,0.85 4.1,0.79 4.1,0.74 4.1,0.68 4.11,0.6 4.1,0.51 4.1,0.43 4.1,0.34 4.1,0.28 4.11,0.23 4.1,0.17 4.1,0.12 4.1,0.05 4.11,-0.01 4.1,-0.08 4.1,-0.16 4.1,-0.24 4.1,-0.31 4.11,-0.39 4.1,-0.47 4.1,-0.54 4.1,-0.6 4.11,-0.68 4.1,-0.75 4.1,-0.81 4.1,-0.88 4.1,-0.94 4.11,-1.01"
           style="fill:none;stroke:#b3b3b3;stroke-opacity:1;stroke-width:1.06;stroke-linecap:butt;stroke-linejoin:round;stroke-miterlimit:1;stroke-dasharray:none"
           id="path114" /><path
           d="m 60.07,114.72 4.1,10.06 4.11,9.78 4.1,9.51 4.1,9.22 4.1,8.93 4.11,8.61 4.1,8.29 4.1,7.95 4.1,7.61 4.1,7.23 4.11,6.83 4.1,6.43 4.1,6.07 4.1,5.72 4.11,5.41 4.1,5.11 4.1,4.86 4.1,4.62 4.1,4.42 4.11,4.17 4.1,3.34 4.1,2.51 4.1,1.87 4.11,1.37 4.1,1.05 4.1,0.87 4.1,0.85 4.1,0.95 4.11,1.2 4.1,1.13 4.1,0.47 4.1,0 4.1,-0.24 4.11,-0.29 4.1,-0.13 4.1,0.19 4.1,0.67 4.11,1.29 4.1,2.07 4.1,3.31 4.1,4.46 4.1,5.32 4.11,5.9 4.1,6.16 4.1,6.11 4.1,5.72 4.11,4.99 4.1,3.89 4.1,2.43 4.1,1.5 4.1,1.23 4.11,0.92 4.1,0.6 4.1,0.24 4.1,-0.16 4.11,-0.61 4.1,-1.12 4.1,-1.68 4.1,-2.26 4.1,-2.66 4.11,-3.02 4.1,-3.39 4.1,-3.77 4.1,-4.17 4.11,-4.57 4.1,-4.99 4.1,-5.41 4.1,-5.84 4.1,-6.27 4.11,-6.68 4.1,-7.07 4.1,-7.44 4.1,-7.82 4.11,-8.18 4.1,-8.55 4.1,-8.92 4.1,-9.27 4.1,-9.65 4.11,-10 0,-22.83 -4.11,11.83 -4.1,11.35 -4.1,10.86 -4.1,10.36 -4.1,9.85 -4.11,9.34 -4.1,8.81 -4.1,8.28 -4.1,7.74 -4.11,7.2 -4.1,6.66 -4.1,6.1 -4.1,5.56 -4.1,5.05 -4.11,4.57 -4.1,4.11 -4.1,3.68 -4.1,3.27 -4.11,2.89 -4.1,2.52 -4.1,2.15 -4.1,1.6 -4.1,1.07 -4.11,0.56 -4.1,0.09 -4.1,-0.34 -4.1,-0.73 -4.11,-1.07 -4.1,-1.34 -4.1,-1.55 -4.1,-2.37 -4.1,-3.72 -4.11,-4.78 -4.1,-5.57 -4.1,-6.03 -4.1,-6.2 -4.11,-6.04 -4.1,-5.51 -4.1,-4.65 -4.1,-3.41 -4.1,-2.04 -4.11,-1.13 -4.1,-0.49 -4.1,-0.05 -4.1,0.18 -4.11,0.22 -4.1,0.08 -4.1,-0.21 -4.1,-0.64 -4.1,-1.19 -4.11,-1.14 -4.1,-0.82 -4.1,-0.7 -4.1,-0.73 -4.1,-0.93 -4.11,-1.29 -4.1,-1.8 -4.1,-2.45 -4.1,-3.24 -4.11,-4.03 -4.1,-4.27 -4.1,-4.49 -4.1,-4.73 -4.1,-5.04 -4.11,-5.37 -4.1,-5.75 -4.1,-6.17 -4.1,-6.64 -4.11,-7.16 -4.1,-7.7 -4.1,-8.22 -4.1,-8.74 -4.1,-9.24 -4.11,-9.71 -4.1,-10.19 -4.1,-10.63 -4.1,-11.06 -4.11,-11.47 -4.1,-11.87 0,22.21 z"
           style="fill:#999999;fill-opacity:0.4;fill-rule:nonzero;stroke:none"
           id="path116" /><path
           d="m 60.07,103.62 4.1,10.96 4.11,10.63 4.1,10.28 4.1,9.93 4.1,9.55 4.11,9.17 4.1,8.76 4.1,8.35 4.1,7.91 4.1,7.47 4.11,6.99 4.1,6.53 4.1,6.12 4.1,5.74 4.11,5.39 4.1,5.07 4.1,4.8 4.1,4.55 4.1,4.35 4.11,4.1 4.1,3.29 4.1,2.48 4.1,1.83 4.11,1.33 4.1,1 4.1,0.8 4.1,0.77 4.1,0.89 4.11,1.16 4.1,1.17 4.1,0.55 4.1,0.1 4.1,-0.16 4.11,-0.25 4.1,-0.15 4.1,0.12 4.1,0.57 4.11,1.22 4.1,2.05 4.1,3.36 4.1,4.55 4.1,5.42 4.11,5.97 4.1,6.18 4.1,6.07 4.1,5.65 4.11,4.88 4.1,3.8 4.1,2.4 4.1,1.53 4.1,1.28 4.11,1 4.1,0.67 4.1,0.29 4.1,-0.13 4.11,-0.58 4.1,-1.1 4.1,-1.64 4.1,-2.21 4.1,-2.59 4.11,-2.95 4.1,-3.33 4.1,-3.72 4.1,-4.14 4.11,-4.58 4.1,-5.02 4.1,-5.48 4.1,-5.97 4.1,-6.46 4.11,-6.95 4.1,-7.4 4.1,-7.86 4.1,-8.32 4.11,-8.75 4.1,-9.2 4.1,-9.64 4.1,-10.07 4.1,-10.5 4.11,-10.91"
           style="fill:none;stroke:#b3b3b3;stroke-opacity:1;stroke-width:1.06;stroke-linecap:butt;stroke-linejoin:round;stroke-miterlimit:1;stroke-dasharray:none"
           id="path118" /></g></g><g
       id="g120"><g
         id="g122"
         clip-path="url(#clipPath124)" /></g><g
       id="g128"><g
         id="g130"
         clip-path="url(#clipPath132)" /></g><g
       id="g136"><g
         id="g138"
         clip-path="url(#clipPath140)"><text
           transform="matrix(1,0,0,-1,20.58,108.03)"
           id="text144"><tspan
             style="fill:#7f7f7f;fill-opacity:1;fill-rule:nonzero;stroke:none;font-family:Courier New;font-variant:normal;font-weight:bold;font-size:9;writing-mode:lr;-inkscape-font-specification:Courier-Bold"
             x="0 5.4 10.8"
             y="0"
             sodipodi:role="line"
             id="tspan146">1.0</tspan></text>
<text
           transform="matrix(1,0,0,-1,20.58,180.96)"
           id="text148"><tspan
             style="fill:#7f7f7f;fill-opacity:1;fill-rule:nonzero;stroke:none;font-family:Courier New;font-variant:normal;font-weight:bold;font-size:9;writing-mode:lr;-inkscape-font-specification:Courier-Bold"
             x="0 5.4 10.8"
             y="0"
             sodipodi:role="line"
             id="tspan150">1.2</tspan></text>
<text
           transform="matrix(1,0,0,-1,20.58,253.89)"
           id="text152"><tspan
             style="fill:#7f7f7f;fill-opacity:1;fill-rule:nonzero;stroke:none;font-family:Courier New;font-variant:normal;font-weight:bold;font-size:9;writing-mode:lr;-inkscape-font-specification:Courier-Bold"
             x="0 5.4 10.8"
             y="0"
             sodipodi:role="line"
             id="tspan154">1.4</tspan></text>
<text
           transform="matrix(1,0,0,-1,20.58,326.82)"
           id="text156"><tspan
             style="fill:#7f7f7f;fill-opacity:1;fill-rule:nonzero;stroke:none;font-family:Courier New;font-variant:normal;font-weight:bold;font-size:9;writing-mode:lr;-inkscape-font-specification:Courier-Bold"
             x="0 5.4 10.8"
             y="0"
             sodipodi:role="line"
             id="tspan158">1.6</tspan></text>
</g></g><g
       id="g160"><g
         id="g162"
         clip-path="url(#clipPath164)" /></g><g
       id="g168"><g
         id="g170"
         clip-path="url(#clipPath172)"><path
           d="m 39.62,110.55 4.25,0"
           style="fill:none;stroke:#7f7f7f;stroke-opacity:1;stroke-width:1.06;stroke-linecap:butt;stroke-linejoin:round;stroke-miterlimit:10;stroke-dasharray:none"
           id="path176" /><path
           d="m 39.62,183.49 4.25,0"
           style="fill:none;stroke:#7f7f7f;stroke-opacity:1;stroke-width:1.06;stroke-linecap:butt;stroke-linejoin:round;stroke-miterlimit:10;stroke-dasharray:none"
           id="path178" /><path
           d="m 39.62,256.42 4.25,0"
           style="fill:none;stroke:#7f7f7f;stroke-opacity:1;stroke-width:1.06;stroke-linecap:butt;stroke-linejoin:round;stroke-miterlimit:10;stroke-dasharray:none"
           id="path180" /><path
           d="m 39.62,329.35 4.25,0"
           style="fill:none;stroke:#7f7f7f;stroke-opacity:1;stroke-width:1.06;stroke-linecap:butt;stroke-linejoin:round;stroke-miterlimit:10;stroke-dasharray:none"
           id="path182" /></g></g><g
       id="g184"><g
         id="g186"
         clip-path="url(#clipPath188)" /></g><g
       id="g192"><g
         id="g194"
         clip-path="url(#clipPath196)" /></g><g
       id="g200"><g
         id="g202"
         clip-path="url(#clipPath204)" /></g><g
       id="g208"><g
         id="g210"
         clip-path="url(#clipPath212)" /></g><g
       id="g216"><g
         id="g218"
         clip-path="url(#clipPath220)" /></g><g
       id="g224"><g
         id="g226"
         clip-path="url(#clipPath228)"><path
           d="m 58.29,74.33 0,4.25"
           style="fill:none;stroke:#7f7f7f;stroke-opacity:1;stroke-width:1.06;stroke-linecap:butt;stroke-linejoin:round;stroke-miterlimit:10;stroke-dasharray:none"
           id="path232" /><path
           d="m 139.53,74.33 0,4.25"
           style="fill:none;stroke:#7f7f7f;stroke-opacity:1;stroke-width:1.06;stroke-linecap:butt;stroke-linejoin:round;stroke-miterlimit:10;stroke-dasharray:none"
           id="path234" /><path
           d="m 220.77,74.33 0,4.25"
           style="fill:none;stroke:#7f7f7f;stroke-opacity:1;stroke-width:1.06;stroke-linecap:butt;stroke-linejoin:round;stroke-miterlimit:10;stroke-dasharray:none"
           id="path236" /><path
           d="m 302.9,74.33 0,4.25"
           style="fill:none;stroke:#7f7f7f;stroke-opacity:1;stroke-width:1.06;stroke-linecap:butt;stroke-linejoin:round;stroke-miterlimit:10;stroke-dasharray:none"
           id="path238" /><path
           d="m 385.04,74.33 0,4.25"
           style="fill:none;stroke:#7f7f7f;stroke-opacity:1;stroke-width:1.06;stroke-linecap:butt;stroke-linejoin:round;stroke-miterlimit:10;stroke-dasharray:none"
           id="path240" /></g></g><g
       id="g242"><g
         id="g244"
         clip-path="url(#clipPath246)" /></g><g
       id="g250"><g
         id="g252"
         clip-path="url(#clipPath254)"><text
           transform="matrix(1,0,0,-1,36.69,66.44)"
           id="text258"><tspan
             style="fill:#7f7f7f;fill-opacity:1;fill-rule:nonzero;stroke:none;font-family:Courier New;font-variant:normal;font-weight:bold;font-size:9;writing-mode:lr;-inkscape-font-specification:Courier-Bold"
             x="0 5.4 10.8 16.2 21.6 27 32.4 37.8"
             y="0"
             sodipodi:role="line"
             id="tspan260">ene 2012</tspan></text>
<text
           transform="matrix(1,0,0,-1,117.93,66.44)"
           id="text262"><tspan
             style="fill:#7f7f7f;fill-opacity:1;fill-rule:nonzero;stroke:none;font-family:Courier New;font-variant:normal;font-weight:bold;font-size:9;writing-mode:lr;-inkscape-font-specification:Courier-Bold"
             x="0 5.4 10.8 16.2 21.6 27 32.4 37.8"
             y="0"
             sodipodi:role="line"
             id="tspan264">abr 2012</tspan></text>
<text
           transform="matrix(1,0,0,-1,199.17,66.44)"
           id="text266"><tspan
             style="fill:#7f7f7f;fill-opacity:1;fill-rule:nonzero;stroke:none;font-family:Courier New;font-variant:normal;font-weight:bold;font-size:9;writing-mode:lr;-inkscape-font-specification:Courier-Bold"
             x="0 5.4 10.8 16.2 21.6 27 32.4 37.8"
             y="0"
             sodipodi:role="line"
             id="tspan268">jul 2012</tspan></text>
<text
           transform="matrix(1,0,0,-1,281.3,66.44)"
           id="text270"><tspan
             style="fill:#7f7f7f;fill-opacity:1;fill-rule:nonzero;stroke:none;font-family:Courier New;font-variant:normal;font-weight:bold;font-size:9;writing-mode:lr;-inkscape-font-specification:Courier-Bold"
             x="0 5.4 10.8 16.2 21.6 27 32.4 37.8"
             y="0"
             sodipodi:role="line"
             id="tspan272">oct 2012</tspan></text>
<text
           transform="matrix(1,0,0,-1,363.44,66.44)"
           id="text274"><tspan
             style="fill:#7f7f7f;fill-opacity:1;fill-rule:nonzero;stroke:none;font-family:Courier New;font-variant:normal;font-weight:bold;font-size:9;writing-mode:lr;-inkscape-font-specification:Courier-Bold"
             x="0 5.4 10.8 16.2 21.6 27 32.4 37.8"
             y="0"
             sodipodi:role="line"
             id="tspan276">ene 2013</tspan></text>
</g></g><g
       id="g278"><g
         id="g280"
         clip-path="url(#clipPath282)" /></g><g
       id="g286"><g
         id="g288"
         clip-path="url(#clipPath290)" /></g><g
       id="g294"><g
         id="g296"
         clip-path="url(#clipPath298)" /></g><g
       id="g302"><g
         id="g304"
         clip-path="url(#clipPath306)" /></g><g
       id="g310"><g
         id="g312"
         clip-path="url(#clipPath314)"><text
           transform="matrix(1,0,0,-1,205.61,56.65)"
           id="text318"><tspan
             style="fill:#000000;fill-opacity:1;fill-rule:nonzero;stroke:none;font-family:Courier New;font-variant:normal;font-weight:bold;font-size:11;writing-mode:lr;-inkscape-font-specification:Courier-Bold"
             x="0 6.6 13.2 19.8 26.4"
             y="0"
             sodipodi:role="line"
             id="tspan320">Fecha</tspan></text>
</g></g><g
       id="g322"><g
         id="g324"
         clip-path="url(#clipPath326)" /></g><g
       id="g330"><g
         id="g332"
         clip-path="url(#clipPath334)"><text
           transform="matrix(0,1,1,0,16.98,212.04)"
           id="text338"><tspan
             style="fill:#000000;fill-opacity:1;fill-rule:nonzero;stroke:none;font-family:Courier New;font-variant:normal;font-weight:bold;font-size:11;writing-mode:lr;-inkscape-font-specification:Courier-Bold"
             x="0 6.6 13.2 19.8 26.4 33"
             y="0"
             sodipodi:role="line"
             id="tspan340">Precio</tspan></text>
</g></g><g
       id="g342"><g
         id="g344"
         clip-path="url(#clipPath346)" /></g><g
       id="g350"><g
         id="g352"
         clip-path="url(#clipPath354)" /></g><g
       id="g358"><g
         id="g360"
         clip-path="url(#clipPath362)" /></g><g
       id="g366"><g
         id="g368"
         clip-path="url(#clipPath370)" /></g><g
       id="g374"><g
         id="g376"
         clip-path="url(#clipPath378)" /></g><g
       id="g382"><g
         id="g384"
         clip-path="url(#clipPath386)"><path
           d="m 160.08,17.23 124.06,0 0,25.78 -124.06,0 0,-25.78 z"
           style="fill:#ffffff;fill-opacity:1;fill-rule:nonzero;stroke:#000000;stroke-opacity:1;stroke-width:1.06;stroke-linecap:round;stroke-linejoin:round;stroke-miterlimit:10;stroke-dasharray:none"
           id="path390" /></g></g><g
       id="g392"><g
         id="g394"
         clip-path="url(#clipPath396)" /></g><g
       id="g400"><g
         id="g402"
         clip-path="url(#clipPath404)" /></g><g
       id="g408"><g
         id="g410"
         clip-path="url(#clipPath412)" /></g><g
       id="g416"><g
         id="g418"
         clip-path="url(#clipPath420)"><path
           d="m 168.65,21.49 17.28,0 0,17.28 -17.28,0 0,-17.28 z"
           style="fill:#f2f2f2;fill-opacity:1;fill-rule:nonzero;stroke:#ffffff;stroke-opacity:1;stroke-width:1.06;stroke-linecap:round;stroke-linejoin:round;stroke-miterlimit:10;stroke-dasharray:none"
           id="path424" /></g></g><g
       id="g426"><g
         id="g428"
         clip-path="url(#clipPath430)" /></g><g
       id="g434"><g
         id="g436"
         clip-path="url(#clipPath438)"><path
           d="m 170.38,30.13 13.82,0"
           style="fill:none;stroke:#2e2e2e;stroke-opacity:1;stroke-width:1.89;stroke-linecap:butt;stroke-linejoin:round;stroke-miterlimit:10;stroke-dasharray:none"
           id="path442" /></g></g><g
       id="g444"><g
         id="g446"
         clip-path="url(#clipPath448)" /></g><g
       id="g452"><g
         id="g454"
         clip-path="url(#clipPath456)"><path
           d="m 170.38,30.13 13.82,0"
           style="fill:none;stroke:#2e2e2e;stroke-opacity:1;stroke-width:1.89;stroke-linecap:butt;stroke-linejoin:round;stroke-miterlimit:10;stroke-dasharray:13.24,5.68;stroke-dashoffset:0"
           id="path460" /></g></g><g
       id="g462"><g
         id="g464"
         clip-path="url(#clipPath466)" /></g><g
       id="g470"><g
         id="g472"
         clip-path="url(#clipPath474)"><path
           d="m 168.65,21.49 17.28,0 0,17.28 -17.28,0 0,-17.28 z"
           style="fill:#999999;fill-opacity:0.4;fill-rule:nonzero;stroke:none"
           id="path478" /><path
           d="m 170.38,30.13 13.82,0"
           style="fill:none;stroke:#2e2e2e;stroke-opacity:1;stroke-width:1.06;stroke-linecap:butt;stroke-linejoin:round;stroke-miterlimit:10;stroke-dasharray:none"
           id="path480" /></g></g><g
       id="g482"><g
         id="g484"
         clip-path="url(#clipPath486)" /></g><g
       id="g490"><g
         id="g492"
         clip-path="url(#clipPath494)"><path
           d="m 168.65,21.49 17.28,0 0,17.28 -17.28,0 0,-17.28 z"
           style="fill:#999999;fill-opacity:0.4;fill-rule:nonzero;stroke:none"
           id="path498" /><path
           d="m 170.38,30.13 13.82,0"
           style="fill:none;stroke:#2e2e2e;stroke-opacity:1;stroke-width:1.06;stroke-linecap:butt;stroke-linejoin:round;stroke-miterlimit:10;stroke-dasharray:none"
           id="path500" /></g></g><g
       id="g502"><g
         id="g504"
         clip-path="url(#clipPath506)" /></g><g
       id="g510"><g
         id="g512"
         clip-path="url(#clipPath514)"><path
           d="m 222.65,21.49 17.28,0 0,17.28 -17.28,0 0,-17.28 z"
           style="fill:#f2f2f2;fill-opacity:1;fill-rule:nonzero;stroke:#ffffff;stroke-opacity:1;stroke-width:1.06;stroke-linecap:round;stroke-linejoin:round;stroke-miterlimit:10;stroke-dasharray:none"
           id="path518" /></g></g><g
       id="g520"><g
         id="g522"
         clip-path="url(#clipPath524)" /></g><g
       id="g528"><g
         id="g530"
         clip-path="url(#clipPath532)"><path
           d="m 224.38,30.13 13.82,0"
           style="fill:none;stroke:#b3b3b3;stroke-opacity:1;stroke-width:1.89;stroke-linecap:butt;stroke-linejoin:round;stroke-miterlimit:10;stroke-dasharray:none"
           id="path536" /></g></g><g
       id="g538"><g
         id="g540"
         clip-path="url(#clipPath542)" /></g><g
       id="g546"><g
         id="g548"
         clip-path="url(#clipPath550)"><path
           d="m 224.38,30.13 13.82,0"
           style="fill:none;stroke:#b3b3b3;stroke-opacity:1;stroke-width:1.89;stroke-linecap:butt;stroke-linejoin:round;stroke-miterlimit:10;stroke-dasharray:13.24,5.68;stroke-dashoffset:0"
           id="path554" /></g></g><g
       id="g556"><g
         id="g558"
         clip-path="url(#clipPath560)" /></g><g
       id="g564"><g
         id="g566"
         clip-path="url(#clipPath568)"><path
           d="m 222.65,21.49 17.28,0 0,17.28 -17.28,0 0,-17.28 z"
           style="fill:#999999;fill-opacity:0.4;fill-rule:nonzero;stroke:none"
           id="path572" /><path
           d="m 224.38,30.13 13.82,0"
           style="fill:none;stroke:#b3b3b3;stroke-opacity:1;stroke-width:1.06;stroke-linecap:butt;stroke-linejoin:round;stroke-miterlimit:10;stroke-dasharray:none"
           id="path574" /></g></g><g
       id="g576"><g
         id="g578"
         clip-path="url(#clipPath580)" /></g><g
       id="g584"><g
         id="g586"
         clip-path="url(#clipPath588)"><path
           d="m 222.65,21.49 17.28,0 0,17.28 -17.28,0 0,-17.28 z"
           style="fill:#999999;fill-opacity:0.4;fill-rule:nonzero;stroke:none"
           id="path592" /><path
           d="m 224.38,30.13 13.82,0"
           style="fill:none;stroke:#b3b3b3;stroke-opacity:1;stroke-width:1.06;stroke-linecap:butt;stroke-linejoin:round;stroke-miterlimit:10;stroke-dasharray:none"
           id="path594" /></g></g><g
       id="g596"><g
         id="g598"
         clip-path="url(#clipPath600)" /></g><g
       id="g604"><g
         id="g606"
         clip-path="url(#clipPath608)"><text
           transform="matrix(1,0,0,-1,188.09,27.6)"
           id="text612"><tspan
             style="fill:#000000;fill-opacity:1;fill-rule:nonzero;stroke:none;font-family:Courier New;font-variant:normal;font-weight:bold;font-size:9;writing-mode:lr;-inkscape-font-specification:Courier-Bold"
             x="0 5.4 10.8 16.2 21.6 27"
             y="0"
             sodipodi:role="line"
             id="tspan614">Acción</tspan></text>
</g></g><g
       id="g616"><g
         id="g618"
         clip-path="url(#clipPath620)" /></g><g
       id="g624"><g
         id="g626"
         clip-path="url(#clipPath628)"><text
           transform="matrix(1,0,0,-1,242.09,27.6)"
           id="text632"><tspan
             style="fill:#000000;fill-opacity:1;fill-rule:nonzero;stroke:none;font-family:Courier New;font-variant:normal;font-weight:bold;font-size:9;writing-mode:lr;-inkscape-font-specification:Courier-Bold"
             x="0 5.4 10.8 16.2 21.6 27 32.4"
             y="0"
             sodipodi:role="line"
             id="tspan634">Mercado</tspan></text>
</g></g><g
       id="g636"><g
         id="g638"
         clip-path="url(#clipPath640)" /></g><g
       id="g644"><g
         id="g646"
         clip-path="url(#clipPath648)" /></g><g
       id="g652"><g
         id="g654"
         clip-path="url(#clipPath656)" /></g><g
       id="g660"><g
         id="g662"
         clip-path="url(#clipPath664)" /></g><g
       id="g668"><g
         id="g670"
         clip-path="url(#clipPath672)" /></g><g
       id="g676"><g
         id="g678"
         clip-path="url(#clipPath680)" /></g><g
       id="g684"><g
         id="g686"
         clip-path="url(#clipPath688)" /></g><g
       id="g692"><g
         id="g694"
         clip-path="url(#clipPath696)" /></g><g
       id="g700"><g
         id="g702"
         clip-path="url(#clipPath704)" /></g><g
       id="g708"><g
         id="g710"
         clip-path="url(#clipPath712)"><text
           transform="matrix(1,0,0,-1,144.11,388.69)"
           id="text716"><tspan
             style="fill:#000000;fill-opacity:1;fill-rule:nonzero;stroke:none;font-family:Courier New;font-variant:normal;font-weight:bold;font-size:13;writing-mode:lr;-inkscape-font-specification:Courier-Bold"
             x="0 7.8 15.6 23.4 31.2 39 46.8 54.6 62.4 70.2 78 85.8 93.6 101.4 109.2 117 124.8 132.6 140.4 148.2"
             y="0"
             sodipodi:role="line"
             id="tspan718">Precios Normalizados</tspan></text>
</g></g><g
       id="g720"><g
         id="g722"
         clip-path="url(#clipPath724)" /></g><g
       id="g728"><g
         id="g730"
         clip-path="url(#clipPath732)" /></g></g></svg>