<?xml version="1.0" encoding="UTF-8" standalone="no"?>
<!-- Created with Inkscape (http://www.inkscape.org/) -->

<svg
   xmlns:dc="http://purl.org/dc/elements/1.1/"
   xmlns:cc="http://creativecommons.org/ns#"
   xmlns:rdf="http://www.w3.org/1999/02/22-rdf-syntax-ns#"
   xmlns:svg="http://www.w3.org/2000/svg"
   xmlns="http://www.w3.org/2000/svg"
   xmlns:sodipodi="http://sodipodi.sourceforge.net/DTD/sodipodi-0.dtd"
   xmlns:inkscape="http://www.inkscape.org/namespaces/inkscape"
   id="svg2"
   version="1.1"
   inkscape:version="0.48.4 r9939"
   width="517.5"
   height="516.25"
   xml:space="preserve"
   sodipodi:docname="4a_alfaMleFilt.pdf"><metadata
     id="metadata8"><rdf:RDF><cc:Work
         rdf:about=""><dc:format>image/svg+xml</dc:format><dc:type
           rdf:resource="http://purl.org/dc/dcmitype/StillImage" /><dc:title></dc:title></cc:Work></rdf:RDF></metadata><defs
     id="defs6"><clipPath
       clipPathUnits="userSpaceOnUse"
       id="clipPath18"><path
         d="m 0,0 414.75,0 0,414 L 0,414 0,0 z"
         id="path20" /></clipPath><clipPath
       clipPathUnits="userSpaceOnUse"
       id="clipPath26"><path
         d="m 0,0 414.75,0 0,414 L 0,414 0,0 z"
         id="path28" /></clipPath><clipPath
       clipPathUnits="userSpaceOnUse"
       id="clipPath34"><path
         d="m 0,0 414.75,0 0,414 L 0,414 0,0 z"
         id="path36" /></clipPath><clipPath
       clipPathUnits="userSpaceOnUse"
       id="clipPath44"><path
         d="m 0,0 414.75,0 0,414 L 0,414 0,0 z"
         id="path46" /></clipPath><clipPath
       clipPathUnits="userSpaceOnUse"
       id="clipPath52"><path
         d="m 0,0 414.75,0 0,414 L 0,414 0,0 z"
         id="path54" /></clipPath><clipPath
       clipPathUnits="userSpaceOnUse"
       id="clipPath60"><path
         d="m 0,0 414.75,0 0,414 L 0,414 0,0 z"
         id="path62" /></clipPath><clipPath
       clipPathUnits="userSpaceOnUse"
       id="clipPath68"><path
         d="m 54.67,78.58 345.68,0 0,306.51 -345.68,0 0,-306.51 z"
         id="path70" /></clipPath><clipPath
       clipPathUnits="userSpaceOnUse"
       id="clipPath122"><path
         d="m 0,0 414.75,0 0,414 L 0,414 0,0 z"
         id="path124" /></clipPath><clipPath
       clipPathUnits="userSpaceOnUse"
       id="clipPath130"><path
         d="m 0,0 414.75,0 0,414 L 0,414 0,0 z"
         id="path132" /></clipPath><clipPath
       clipPathUnits="userSpaceOnUse"
       id="clipPath138"><path
         d="m 0,0 414.75,0 0,414 L 0,414 0,0 z"
         id="path140" /></clipPath><clipPath
       clipPathUnits="userSpaceOnUse"
       id="clipPath166"><path
         d="m 0,0 414.75,0 0,414 L 0,414 0,0 z"
         id="path168" /></clipPath><clipPath
       clipPathUnits="userSpaceOnUse"
       id="clipPath174"><path
         d="m 0,0 414.75,0 0,414 L 0,414 0,0 z"
         id="path176" /></clipPath><clipPath
       clipPathUnits="userSpaceOnUse"
       id="clipPath192"><path
         d="m 0,0 414.75,0 0,414 L 0,414 0,0 z"
         id="path194" /></clipPath><clipPath
       clipPathUnits="userSpaceOnUse"
       id="clipPath200"><path
         d="m 0,0 414.75,0 0,414 L 0,414 0,0 z"
         id="path202" /></clipPath><clipPath
       clipPathUnits="userSpaceOnUse"
       id="clipPath208"><path
         d="m 0,0 414.75,0 0,414 L 0,414 0,0 z"
         id="path210" /></clipPath><clipPath
       clipPathUnits="userSpaceOnUse"
       id="clipPath216"><path
         d="m 0,0 414.75,0 0,414 L 0,414 0,0 z"
         id="path218" /></clipPath><clipPath
       clipPathUnits="userSpaceOnUse"
       id="clipPath224"><path
         d="m 0,0 414.75,0 0,414 L 0,414 0,0 z"
         id="path226" /></clipPath><clipPath
       clipPathUnits="userSpaceOnUse"
       id="clipPath232"><path
         d="m 0,0 414.75,0 0,414 L 0,414 0,0 z"
         id="path234" /></clipPath><clipPath
       clipPathUnits="userSpaceOnUse"
       id="clipPath250"><path
         d="m 0,0 414.75,0 0,414 L 0,414 0,0 z"
         id="path252" /></clipPath><clipPath
       clipPathUnits="userSpaceOnUse"
       id="clipPath258"><path
         d="m 0,0 414.75,0 0,414 L 0,414 0,0 z"
         id="path260" /></clipPath><clipPath
       clipPathUnits="userSpaceOnUse"
       id="clipPath286"><path
         d="m 0,0 414.75,0 0,414 L 0,414 0,0 z"
         id="path288" /></clipPath><clipPath
       clipPathUnits="userSpaceOnUse"
       id="clipPath294"><path
         d="m 0,0 414.75,0 0,414 L 0,414 0,0 z"
         id="path296" /></clipPath><clipPath
       clipPathUnits="userSpaceOnUse"
       id="clipPath302"><path
         d="m 0,0 414.75,0 0,414 L 0,414 0,0 z"
         id="path304" /></clipPath><clipPath
       clipPathUnits="userSpaceOnUse"
       id="clipPath310"><path
         d="m 0,0 414.75,0 0,414 L 0,414 0,0 z"
         id="path312" /></clipPath><clipPath
       clipPathUnits="userSpaceOnUse"
       id="clipPath318"><path
         d="m 0,0 414.75,0 0,414 L 0,414 0,0 z"
         id="path320" /></clipPath><clipPath
       clipPathUnits="userSpaceOnUse"
       id="clipPath330"><path
         d="m 0,0 414.75,0 0,414 L 0,414 0,0 z"
         id="path332" /></clipPath><clipPath
       clipPathUnits="userSpaceOnUse"
       id="clipPath338"><path
         d="m 0,0 414.75,0 0,414 L 0,414 0,0 z"
         id="path340" /></clipPath><clipPath
       clipPathUnits="userSpaceOnUse"
       id="clipPath350"><path
         d="m 0,0 414.75,0 0,414 L 0,414 0,0 z"
         id="path352" /></clipPath><clipPath
       clipPathUnits="userSpaceOnUse"
       id="clipPath358"><path
         d="m 0,0 414.75,0 0,414 L 0,414 0,0 z"
         id="path360" /></clipPath><clipPath
       clipPathUnits="userSpaceOnUse"
       id="clipPath366"><path
         d="m 0,0 414.75,0 0,414 L 0,414 0,0 z"
         id="path368" /></clipPath><clipPath
       clipPathUnits="userSpaceOnUse"
       id="clipPath374"><path
         d="m 0,0 414.75,0 0,414 L 0,414 0,0 z"
         id="path376" /></clipPath><clipPath
       clipPathUnits="userSpaceOnUse"
       id="clipPath382"><path
         d="m 0,0 414.75,0 0,414 L 0,414 0,0 z"
         id="path384" /></clipPath><clipPath
       clipPathUnits="userSpaceOnUse"
       id="clipPath390"><path
         d="m 0,0 414.75,0 0,414 L 0,414 0,0 z"
         id="path392" /></clipPath><clipPath
       clipPathUnits="userSpaceOnUse"
       id="clipPath400"><path
         d="m 0,0 414.75,0 0,414 L 0,414 0,0 z"
         id="path402" /></clipPath><clipPath
       clipPathUnits="userSpaceOnUse"
       id="clipPath408"><path
         d="m 0,0 414.75,0 0,414 L 0,414 0,0 z"
         id="path410" /></clipPath><clipPath
       clipPathUnits="userSpaceOnUse"
       id="clipPath416"><path
         d="m 0,0 414.75,0 0,414 L 0,414 0,0 z"
         id="path418" /></clipPath><clipPath
       clipPathUnits="userSpaceOnUse"
       id="clipPath424"><path
         d="m 0,0 414.75,0 0,414 L 0,414 0,0 z"
         id="path426" /></clipPath><clipPath
       clipPathUnits="userSpaceOnUse"
       id="clipPath434"><path
         d="m 0,0 414.75,0 0,414 L 0,414 0,0 z"
         id="path436" /></clipPath><clipPath
       clipPathUnits="userSpaceOnUse"
       id="clipPath442"><path
         d="m 0,0 414.75,0 0,414 L 0,414 0,0 z"
         id="path444" /></clipPath><clipPath
       clipPathUnits="userSpaceOnUse"
       id="clipPath452"><path
         d="m 0,0 414.75,0 0,414 L 0,414 0,0 z"
         id="path454" /></clipPath><clipPath
       clipPathUnits="userSpaceOnUse"
       id="clipPath460"><path
         d="m 0,0 414.75,0 0,414 L 0,414 0,0 z"
         id="path462" /></clipPath><clipPath
       clipPathUnits="userSpaceOnUse"
       id="clipPath470"><path
         d="m 0,0 414.75,0 0,414 L 0,414 0,0 z"
         id="path472" /></clipPath><clipPath
       clipPathUnits="userSpaceOnUse"
       id="clipPath478"><path
         d="m 0,0 414.75,0 0,414 L 0,414 0,0 z"
         id="path480" /></clipPath><clipPath
       clipPathUnits="userSpaceOnUse"
       id="clipPath488"><path
         d="m 0,0 414.75,0 0,414 L 0,414 0,0 z"
         id="path490" /></clipPath><clipPath
       clipPathUnits="userSpaceOnUse"
       id="clipPath496"><path
         d="m 0,0 414.75,0 0,414 L 0,414 0,0 z"
         id="path498" /></clipPath><clipPath
       clipPathUnits="userSpaceOnUse"
       id="clipPath506"><path
         d="m 0,0 414.75,0 0,414 L 0,414 0,0 z"
         id="path508" /></clipPath><clipPath
       clipPathUnits="userSpaceOnUse"
       id="clipPath514"><path
         d="m 0,0 414.75,0 0,414 L 0,414 0,0 z"
         id="path516" /></clipPath><clipPath
       clipPathUnits="userSpaceOnUse"
       id="clipPath524"><path
         d="m 0,0 414.75,0 0,414 L 0,414 0,0 z"
         id="path526" /></clipPath><clipPath
       clipPathUnits="userSpaceOnUse"
       id="clipPath532"><path
         d="m 0,0 414.75,0 0,414 L 0,414 0,0 z"
         id="path534" /></clipPath><clipPath
       clipPathUnits="userSpaceOnUse"
       id="clipPath542"><path
         d="m 0,0 414.75,0 0,414 L 0,414 0,0 z"
         id="path544" /></clipPath><clipPath
       clipPathUnits="userSpaceOnUse"
       id="clipPath550"><path
         d="m 0,0 414.75,0 0,414 L 0,414 0,0 z"
         id="path552" /></clipPath><clipPath
       clipPathUnits="userSpaceOnUse"
       id="clipPath560"><path
         d="m 0,0 414.75,0 0,414 L 0,414 0,0 z"
         id="path562" /></clipPath><clipPath
       clipPathUnits="userSpaceOnUse"
       id="clipPath568"><path
         d="m 0,0 414.75,0 0,414 L 0,414 0,0 z"
         id="path570" /></clipPath><clipPath
       clipPathUnits="userSpaceOnUse"
       id="clipPath580"><path
         d="m 0,0 414.75,0 0,414 L 0,414 0,0 z"
         id="path582" /></clipPath><clipPath
       clipPathUnits="userSpaceOnUse"
       id="clipPath588"><path
         d="m 0,0 414.75,0 0,414 L 0,414 0,0 z"
         id="path590" /></clipPath><clipPath
       clipPathUnits="userSpaceOnUse"
       id="clipPath600"><path
         d="m 0,0 414.75,0 0,414 L 0,414 0,0 z"
         id="path602" /></clipPath><clipPath
       clipPathUnits="userSpaceOnUse"
       id="clipPath608"><path
         d="m 0,0 414.75,0 0,414 L 0,414 0,0 z"
         id="path610" /></clipPath><clipPath
       clipPathUnits="userSpaceOnUse"
       id="clipPath616"><path
         d="m 0,0 414.75,0 0,414 L 0,414 0,0 z"
         id="path618" /></clipPath><clipPath
       clipPathUnits="userSpaceOnUse"
       id="clipPath624"><path
         d="m 0,0 414.75,0 0,414 L 0,414 0,0 z"
         id="path626" /></clipPath><clipPath
       clipPathUnits="userSpaceOnUse"
       id="clipPath632"><path
         d="m 0,0 414.75,0 0,414 L 0,414 0,0 z"
         id="path634" /></clipPath><clipPath
       clipPathUnits="userSpaceOnUse"
       id="clipPath640"><path
         d="m 0,0 414.75,0 0,414 L 0,414 0,0 z"
         id="path642" /></clipPath><clipPath
       clipPathUnits="userSpaceOnUse"
       id="clipPath648"><path
         d="m 0,0 414.75,0 0,414 L 0,414 0,0 z"
         id="path650" /></clipPath><clipPath
       clipPathUnits="userSpaceOnUse"
       id="clipPath656"><path
         d="m 0,0 414.75,0 0,414 L 0,414 0,0 z"
         id="path658" /></clipPath><clipPath
       clipPathUnits="userSpaceOnUse"
       id="clipPath664"><path
         d="m 0,0 414.75,0 0,414 L 0,414 0,0 z"
         id="path666" /></clipPath><clipPath
       clipPathUnits="userSpaceOnUse"
       id="clipPath672"><path
         d="m 0,0 414.75,0 0,414 L 0,414 0,0 z"
         id="path674" /></clipPath><clipPath
       clipPathUnits="userSpaceOnUse"
       id="clipPath684"><path
         d="m 0,0 414.75,0 0,414 L 0,414 0,0 z"
         id="path686" /></clipPath><clipPath
       clipPathUnits="userSpaceOnUse"
       id="clipPath692"><path
         d="m 0,0 414.75,0 0,414 L 0,414 0,0 z"
         id="path694" /></clipPath></defs><sodipodi:namedview
     pagecolor="#ffffff"
     bordercolor="#666666"
     borderopacity="1"
     objecttolerance="10"
     gridtolerance="10"
     guidetolerance="10"
     inkscape:pageopacity="0"
     inkscape:pageshadow="2"
     inkscape:window-width="640"
     inkscape:window-height="480"
     id="namedview4"
     showgrid="false"
     inkscape:zoom="0.45714286"
     inkscape:cx="258.75"
     inkscape:cy="258.125"
     inkscape:window-x="0"
     inkscape:window-y="0"
     inkscape:window-maximized="0"
     inkscape:current-layer="g10" /><g
     id="g10"
     inkscape:groupmode="layer"
     inkscape:label="4a_alfaMleFilt"
     transform="matrix(1.25,0,0,-1.25,0,516.25)"><g
       id="g12" /><g
       id="g14"><g
         id="g16"
         clip-path="url(#clipPath18)" /></g><g
       id="g22"><g
         id="g24"
         clip-path="url(#clipPath26)" /></g><g
       id="g30"><g
         id="g32"
         clip-path="url(#clipPath34)"><path
           d="m 0,0 414.75,0 0,414 L 0,414 0,0 z"
           style="fill:#ffffff;fill-opacity:1;fill-rule:nonzero;stroke:#ffffff;stroke-opacity:1;stroke-width:1.06;stroke-linecap:round;stroke-linejoin:round;stroke-miterlimit:10;stroke-dasharray:none"
           id="path38" /></g></g><g
       id="g40"><g
         id="g42"
         clip-path="url(#clipPath44)" /></g><g
       id="g48"><g
         id="g50"
         clip-path="url(#clipPath52)" /></g><g
       id="g56"><g
         id="g58"
         clip-path="url(#clipPath60)" /></g><g
       id="g64"><g
         id="g66"
         clip-path="url(#clipPath68)"><path
           d="m 54.67,78.58 345.68,0 0,306.51 -345.68,0 0,-306.51 z"
           style="fill:#e5e5e5;fill-opacity:1;fill-rule:nonzero;stroke:none"
           id="path72" /><path
           d="m 54.67,115.1 345.68,0"
           style="fill:none;stroke:#f2f2f2;stroke-opacity:1;stroke-width:0.53;stroke-linecap:butt;stroke-linejoin:round;stroke-miterlimit:10;stroke-dasharray:none"
           id="path74" /><path
           d="m 54.67,177.95 345.68,0"
           style="fill:none;stroke:#f2f2f2;stroke-opacity:1;stroke-width:0.53;stroke-linecap:butt;stroke-linejoin:round;stroke-miterlimit:10;stroke-dasharray:none"
           id="path76" /><path
           d="m 54.67,240.81 345.68,0"
           style="fill:none;stroke:#f2f2f2;stroke-opacity:1;stroke-width:0.53;stroke-linecap:butt;stroke-linejoin:round;stroke-miterlimit:10;stroke-dasharray:none"
           id="path78" /><path
           d="m 54.67,303.66 345.68,0"
           style="fill:none;stroke:#f2f2f2;stroke-opacity:1;stroke-width:0.53;stroke-linecap:butt;stroke-linejoin:round;stroke-miterlimit:10;stroke-dasharray:none"
           id="path80" /><path
           d="m 54.67,366.52 345.68,0"
           style="fill:none;stroke:#f2f2f2;stroke-opacity:1;stroke-width:0.53;stroke-linecap:butt;stroke-linejoin:round;stroke-miterlimit:10;stroke-dasharray:none"
           id="path82" /><path
           d="m 107.28,78.58 0,306.51"
           style="fill:none;stroke:#f2f2f2;stroke-opacity:1;stroke-width:0.53;stroke-linecap:butt;stroke-linejoin:round;stroke-miterlimit:10;stroke-dasharray:none"
           id="path84" /><path
           d="m 186.27,78.58 0,306.51"
           style="fill:none;stroke:#f2f2f2;stroke-opacity:1;stroke-width:0.53;stroke-linecap:butt;stroke-linejoin:round;stroke-miterlimit:10;stroke-dasharray:none"
           id="path86" /><path
           d="m 265.71,78.58 0,306.51"
           style="fill:none;stroke:#f2f2f2;stroke-opacity:1;stroke-width:0.53;stroke-linecap:butt;stroke-linejoin:round;stroke-miterlimit:10;stroke-dasharray:none"
           id="path88" /><path
           d="m 345.57,78.58 0,306.51"
           style="fill:none;stroke:#f2f2f2;stroke-opacity:1;stroke-width:0.53;stroke-linecap:butt;stroke-linejoin:round;stroke-miterlimit:10;stroke-dasharray:none"
           id="path90" /><path
           d="m 54.67,83.67 345.68,0"
           style="fill:none;stroke:#ffffff;stroke-opacity:1;stroke-width:1.06;stroke-linecap:butt;stroke-linejoin:round;stroke-miterlimit:10;stroke-dasharray:none"
           id="path92" /><path
           d="m 54.67,146.52 345.68,0"
           style="fill:none;stroke:#ffffff;stroke-opacity:1;stroke-width:1.06;stroke-linecap:butt;stroke-linejoin:round;stroke-miterlimit:10;stroke-dasharray:none"
           id="path94" /><path
           d="m 54.67,209.38 345.68,0"
           style="fill:none;stroke:#ffffff;stroke-opacity:1;stroke-width:1.06;stroke-linecap:butt;stroke-linejoin:round;stroke-miterlimit:10;stroke-dasharray:none"
           id="path96" /><path
           d="m 54.67,272.23 345.68,0"
           style="fill:none;stroke:#ffffff;stroke-opacity:1;stroke-width:1.06;stroke-linecap:butt;stroke-linejoin:round;stroke-miterlimit:10;stroke-dasharray:none"
           id="path98" /><path
           d="m 54.67,335.09 345.68,0"
           style="fill:none;stroke:#ffffff;stroke-opacity:1;stroke-width:1.06;stroke-linecap:butt;stroke-linejoin:round;stroke-miterlimit:10;stroke-dasharray:none"
           id="path100" /><path
           d="m 67.78,78.58 0,306.51"
           style="fill:none;stroke:#ffffff;stroke-opacity:1;stroke-width:1.06;stroke-linecap:butt;stroke-linejoin:round;stroke-miterlimit:10;stroke-dasharray:none"
           id="path102" /><path
           d="m 146.78,78.58 0,306.51"
           style="fill:none;stroke:#ffffff;stroke-opacity:1;stroke-width:1.06;stroke-linecap:butt;stroke-linejoin:round;stroke-miterlimit:10;stroke-dasharray:none"
           id="path104" /><path
           d="m 225.77,78.58 0,306.51"
           style="fill:none;stroke:#ffffff;stroke-opacity:1;stroke-width:1.06;stroke-linecap:butt;stroke-linejoin:round;stroke-miterlimit:10;stroke-dasharray:none"
           id="path106" /><path
           d="m 305.64,78.58 0,306.51"
           style="fill:none;stroke:#ffffff;stroke-opacity:1;stroke-width:1.06;stroke-linecap:butt;stroke-linejoin:round;stroke-miterlimit:10;stroke-dasharray:none"
           id="path108" /><path
           d="m 385.51,78.58 0,306.51"
           style="fill:none;stroke:#ffffff;stroke-opacity:1;stroke-width:1.06;stroke-linecap:butt;stroke-linejoin:round;stroke-miterlimit:10;stroke-dasharray:none"
           id="path110" /><path
           d="m 70.38,224.13 0.87,-0.21 0.87,-2.27 2.6,-3.02 0.87,-2.02 0.87,1.71 0.87,-1.09 0.86,7.04 3.48,6.31 0.86,8.6 0.87,-3.31 0.87,5.97 2.61,-5.17 0.86,8.6 0.87,46.5 0.87,-0.6 0.87,-1.2 2.6,-2.86 0.87,0.21 0.87,-11.53 0.87,-0.79 0.86,-5.85 2.61,-0.52 0.87,0.27 0.87,0.56 0.86,-1.43 0.87,0.51 2.61,2.99 0.86,-0.73 0.87,8.7 0.87,-2.96 0.87,-0.43 3.47,-0.97 0.87,1.48 0.87,-0.37 0.86,0.24 2.61,0.01 0.87,1.61 0.87,-3.13 0.86,-1.71 0.87,0.48 2.61,5.5 0.86,-1.94 0.87,-2.77 0.87,3.09 0.87,-0.23 2.6,-0.06 0.87,4.69 0.87,-3.98 0.87,-1.77 0.87,0.43 2.6,0.09 0.87,-0.58 0.87,1.41 0.86,1.51 0.87,-0.66 2.61,0.35 0.86,-0.88 0.87,-0.44 0.87,0.8 0.87,-1.72 2.6,3.41 0.87,-2.04 0.87,1.32 0.87,-0.08 3.47,-1.52 0.87,1.21 0.87,-3.02 0.86,-6.32 0.87,3.69 2.61,-2.45 0.86,10.46 0.87,0.02 0.87,1.03 0.87,-2.06 2.6,-0.38 0.87,-2.86 0.87,18.45 0.87,-2.07 0.87,-1.06 2.6,0.16 0.87,-1.35 0.87,0.1 0.86,-0.14 0.87,1.32 2.61,0.43 0.87,0.02 0.86,-0.24 0.87,-0.18 0.87,-0.05 2.6,0.12 0.87,0.01 0.87,-0.14 0.87,1.11 0.87,-0.08 2.6,9.55 0.87,-0.72 0.87,1.89 0.86,-1.07 0.87,-0.15 3.48,-0.02 0.86,-2.56 0.87,-0.14 0.87,-0.18 2.6,0.21 0.87,-1.91 0.87,-4.98 0.87,-0.11 0.87,0.34 2.6,0.08 0.87,-1.3 0.87,0 0.87,-2.5 0.86,-1.41 2.61,1.16 0.87,-1.43 0.86,-0.08 0.87,-1.23 0.87,-0.27 2.6,0.18 0.87,-0.45 0.87,-0.9 0.87,-0.32 0.87,-0.82 2.6,0.65 0.87,0.23 1.74,0.33 0.86,-0.01 2.61,0.49 0.87,0 0.86,-0.44 0.87,-0.11 0.87,-1.55 2.6,0.11 0.87,-0.91 0.87,-0.87 0.87,0.48 0.87,0.12 2.6,-0.05 0.87,-0.02 0.87,-1.97 0.87,-2.65 0.86,-0.45 2.61,0.56 0.87,0.41 0.86,-0.11 0.87,-0.02 0.87,-1.01 2.61,0.28 0.86,-0.51 0.87,-0.13 0.87,-0.02 0.87,-0.09 2.6,0.19 0.87,0.01 0.87,-0.09 0.87,-0.02 0.86,0.29 2.61,0.23 0.87,0.11 0.86,0.26 0.87,0.14 0.87,-0.43 2.61,0.25 0.86,-0.05 0.87,-0.13 0.87,0.22 0.87,-0.26 3.47,0.18 0.87,-0.12 0.87,-1.54 0.86,-0.01 2.61,0.39 0.87,-0.24 0.87,0.2 0.86,0.18 0.87,0.14 2.61,-0.15 0.86,0 0.87,-0.05 0.87,-0.03 0.87,0 2.6,0.02 0.87,0.64 0.87,0.08 0.87,0.82 0.86,0.11 2.61,-0.42 0.87,0.03 0.87,0.35 0.86,-0.71 0.87,-0.13 2.61,0.18 0.86,-0.33 0.87,-0.27 0.87,-0.28 0.87,0 2.6,-0.03 0.87,0.73 0.87,-0.28 0.87,0.12 0.87,0.98 2.6,0.44 0.87,0.72 0.87,-0.01 0.86,-0.31 0.87,-0.06 4.34,-0.2 0.87,-0.56 0.87,0.51 2.6,0.32 0.87,-0.47 0.87,0.71 0.87,0.44 0.87,0.51 2.6,-0.1 0.87,0.05 0.87,-0.31 0.86,-0.26 0.87,0.01 2.61,4.51 0.86,-0.14 0.87,0.04 1.74,0.14 2.6,0.35 0.87,0 0.87,-0.55 0.87,0.23 0.87,-0.09 2.6,-0.01 0.87,-0.14 0.87,-1.45 0.86,0.42 0.87,-0.66 2.61,-0.04 0.86,0.61 0.87,-0.01 0.87,0.05 0.87,0.15 2.6,0.28 0.87,0.84 0.87,-0.06 0.87,-0.31 0.87,-0.38 2.6,0 1.74,0.02 0.86,0.06 0.87,-0.26 2.61,1.66"
           style="fill:none;stroke:#2e2e2e;stroke-opacity:1;stroke-width:1.89;stroke-linecap:butt;stroke-linejoin:round;stroke-miterlimit:1;stroke-dasharray:none"
           id="path112" /><path
           d="m 70.38,355.54 0.87,-0.22 0.87,-9.09 2.6,-3.47 0.87,-16.17 0.87,1.44 0.87,-1.21 0.86,1.03 3.48,4.22 0.86,-6.02 0.87,-4.24 0.87,5.48 2.61,-5.81 0.86,7.32 0.87,42.36 0.87,-4.21 0.87,-1.46 2.6,-3.16 0.87,0.2 0.87,-16.65 0.87,-0.9 0.86,-14.4 2.61,-0.57 0.87,0.26 0.87,0.54 0.86,-1.45 0.87,-1.73 2.61,1.94 0.86,-0.78 0.87,7.72 0.87,-5.72 0.87,-0.46 3.47,-0.99 0.87,1 0.87,-0.67 0.86,0.22 2.61,-0.02 0.87,1.41 0.87,-3.85 0.86,-2.22 0.87,0.13 2.61,5.05 0.86,-5.68 0.87,-3.57 0.87,1.78 0.87,-0.37 2.6,-0.06 0.87,1.35 0.87,-4.14 0.87,-1.88 0.87,0.4 2.6,0.09 0.87,-1 0.87,1.24 0.86,0.76 0.87,-0.67 2.61,-0.88 0.86,-0.99 0.87,-0.69 0.87,0.78 0.87,-1.78 2.6,3.08 0.87,-2.25 0.87,0.56 0.87,-0.08 3.47,-2.04 0.87,0.21 0.87,-3.52 0.86,-7.49 0.87,3.34 2.61,-2.49 0.86,9.17 0.87,0.01 0.87,1.02 0.87,-2.14 2.6,-0.45 0.87,-3.04 0.87,17.5 0.87,-2.39 0.87,-1.16 2.6,0.16 0.87,-1.58 0.87,0.09 0.86,-0.2 0.87,0.91 2.61,0.37 0.87,0.01 0.86,-0.25 0.87,-0.31 0.87,-0.05 2.6,0.03 0.87,0 0.87,-0.14 0.87,0.92 0.87,-0.08 2.6,8.35 0.87,-0.8 0.87,1.75 0.86,-1.19 0.87,-0.17 3.48,-0.65 0.86,-2.68 0.87,-0.19 0.87,-0.67 2.6,0.08 0.87,-2.27 0.87,-6.45 0.87,-0.19 0.87,-0.01 2.6,0.05 0.87,-1.78 0.87,-0.01 0.87,-2.93 0.86,-1.81 2.61,1.07 0.87,-1.76 0.86,-0.11 0.87,-1.5 0.87,-0.48 2.6,0.11 0.87,-0.61 0.87,-1.17 0.87,-0.35 0.87,-1.76 2.6,0.56 0.87,0.09 1.74,0.32 0.86,-0.02 2.61,0.45 0.87,0.01 0.86,-0.5 0.87,-0.12 0.87,-2.04 2.6,0.08 0.87,-1.09 0.87,-1.03 0.87,0.4 0.87,0.12 2.6,-0.06 0.87,-0.01 0.87,-2.02 0.87,-3.11 0.86,-0.92 2.61,0.53 0.87,0.4 0.86,-0.11 0.87,-0.02 0.87,-1.44 2.61,0.24 0.86,-0.59 0.87,-0.14 0.87,-0.04 0.87,-0.12 2.6,0.19 0.87,0 0.87,-0.1 0.87,-0.08 0.86,0.28 2.61,0.23 0.87,0.11 0.86,0.25 0.87,0.12 0.87,-0.49 2.61,0.24 0.86,-0.06 0.87,-0.15 0.87,0.22 0.87,-0.33 3.47,0.18 0.87,-0.13 0.87,-1.93 0.86,-0.05 2.61,0.38 0.87,-0.25 0.87,0.19 0.86,-0.05 0.87,0.12 2.61,-0.15 0.86,0 0.87,-0.05 0.87,-0.03 0.87,0 2.6,0.02 0.87,0.59 0.87,0.08 0.87,0.71 0.86,0.11 2.61,-0.44 0.87,0.02 0.87,0.33 0.86,-0.78 0.87,-0.13 2.61,0.17 0.86,-0.37 0.87,-0.27 0.87,-0.29 0.87,0 2.6,-0.1 0.87,0.64 0.87,-0.31 0.87,0.12 0.87,0.86 2.6,0.43 0.87,0.65 0.87,-0.01 0.86,-0.32 0.87,-0.07 4.34,-0.2 0.87,-0.67 0.87,0.49 2.6,0.31 0.87,-0.53 0.87,0.53 0.87,0.42 0.87,0.49 2.6,-0.12 0.87,0.05 0.87,-0.34 0.86,-0.27 0.87,-0.03 2.61,4.24 0.86,-0.15 0.87,0.02 1.74,0.02 2.6,0.34 0.87,0 0.87,-0.62 0.87,0.21 0.87,-0.1 2.6,-0.02 0.87,-0.14 0.87,-1.46 0.86,0.39 0.87,-0.68 2.61,-0.05 0.86,0.57 0.87,-0.02 0.87,0.05 0.87,0.15 2.6,0.19 0.87,0.77 0.87,-0.08 0.87,-0.33 0.87,-0.39 2.6,-0.01 1.74,0.02 0.86,0.05 0.87,-0.27 2.61,1.5"
           style="fill:none;stroke:#b3b3b3;stroke-opacity:1;stroke-width:1.89;stroke-linecap:butt;stroke-linejoin:round;stroke-miterlimit:1;stroke-dasharray:13.24,5.68;stroke-dashoffset:0"
           id="path114" /><path
           d="m 70.38,92.72 0.87,-0.21 0.87,4.57 2.6,-2.57 0.87,12.11 0.87,2 0.87,-0.99 0.86,13.06 3.48,8.41 0.86,23.2 0.87,-2.36 0.87,6.44 2.61,-4.52 0.86,9.88 0.87,50.65 0.87,3 0.87,-0.94 2.6,-2.57 0.87,0.23 0.87,-6.4 0.87,-0.69 0.86,2.69 2.61,-0.47 0.87,0.29 0.87,0.58 0.86,-1.41 0.87,2.75 2.61,4.03 0.86,-0.66 0.87,9.67 0.87,-0.2 0.87,-0.4 3.47,-0.95 0.87,1.96 0.87,-0.08 0.86,0.26 2.61,0.04 0.87,1.83 0.87,-2.43 0.86,-1.19 0.87,0.83 2.61,5.95 0.86,1.8 0.87,-1.96 0.87,4.4 0.87,-0.11 2.6,-0.05 0.87,8.03 0.87,-3.82 0.87,-1.67 0.87,0.47 2.6,0.09 0.87,-0.17 0.87,1.6 0.86,2.24 0.87,-0.63 2.61,1.57 0.86,-0.77 0.87,-0.19 0.87,0.83 0.87,-1.67 2.6,3.73 0.87,-1.82 0.87,2.08 0.87,-0.07 3.47,-1.01 0.87,2.21 0.87,-2.51 0.86,-5.15 0.87,4.02 2.61,-2.4 0.86,11.76 0.87,0.01 0.87,1.05 0.87,-1.98 2.6,-0.31 0.87,-2.68 0.87,19.41 0.87,-1.77 0.87,-0.94 2.6,0.15 0.87,-1.11 0.87,0.09 0.86,-0.08 0.87,1.75 2.61,0.49 0.87,0.02 0.86,-0.24 0.87,-0.04 0.87,-0.05 2.6,0.22 0.87,0.01 0.87,-0.13 0.87,1.29 0.87,-0.07 2.6,10.73 0.87,-0.63 0.87,2.04 0.86,-0.96 0.87,-0.13 3.48,0.6 0.86,-2.43 0.87,-0.09 0.87,0.3 2.6,0.35 0.87,-1.56 0.87,-3.49 0.87,-0.03 0.87,0.67 2.6,0.12 0.87,-0.82 0.87,0 0.87,-2.07 0.86,-1.01 2.61,1.26 0.87,-1.09 0.86,-0.06 0.87,-0.96 0.87,-0.05 2.6,0.24 0.87,-0.29 0.87,-0.63 0.87,-0.3 0.87,0.12 2.6,0.75 0.87,0.38 1.74,0.34 0.86,-0.01 2.61,0.52 0.87,0 0.86,-0.38 0.87,-0.11 0.87,-1.05 2.6,0.14 0.87,-0.73 0.87,-0.7 0.87,0.54 0.87,0.13 2.6,-0.05 0.87,-0.01 0.87,-1.93 0.87,-2.19 0.86,0.02 2.61,0.59 0.87,0.41 0.86,-0.09 0.87,-0.03 0.87,-0.58 2.61,0.33 0.86,-0.45 0.87,-0.1 0.87,-0.01 0.87,-0.06 2.6,0.2 0.87,0.01 0.87,-0.08 0.87,0.04 0.86,0.3 2.61,0.24 0.87,0.11 0.86,0.27 0.87,0.14 0.87,-0.35 2.61,0.26 0.86,-0.05 0.87,-0.12 0.87,0.24 0.87,-0.2 3.47,0.18 0.87,-0.11 0.87,-1.15 0.86,0.02 2.61,0.4 0.87,-0.22 0.87,0.22 0.86,0.4 0.87,0.15 2.61,-0.15 0.86,0 0.87,-0.04 0.87,-0.03 0.87,0 2.6,0.02 0.87,0.68 0.87,0.09 0.87,0.92 0.86,0.12 2.61,-0.4 0.87,0.04 0.87,0.38 0.86,-0.65 0.87,-0.13 2.61,0.18 0.86,-0.29 0.87,-0.26 0.87,-0.27 0.87,0 2.6,0.04 0.87,0.83 0.87,-0.27 0.87,0.12 0.87,1.12 2.6,0.43 0.87,0.8 0.87,-0.01 0.86,-0.29 0.87,-0.06 4.34,-0.19 0.87,-0.46 0.87,0.53 2.6,0.34 0.87,-0.41 0.87,0.88 0.87,0.46 0.87,0.54 2.6,-0.09 0.87,0.05 0.87,-0.28 0.86,-0.26 0.87,0.07 2.61,4.77 0.86,-0.12 0.87,0.05 1.74,0.27 2.6,0.35 0.87,-0.01 0.87,-0.48 0.87,0.27 0.87,-0.08 2.6,-0.02 0.87,-0.13 0.87,-1.44 0.86,0.45 0.87,-0.64 2.61,-0.04 0.86,0.66 0.87,-0.01 0.87,0.07 0.87,0.15 2.6,0.36 0.87,0.91 0.87,-0.05 0.87,-0.28 0.87,-0.36 2.6,0 1.74,0.02 0.86,0.06 0.87,-0.23 2.61,1.81"
           style="fill:none;stroke:#b3b3b3;stroke-opacity:1;stroke-width:1.89;stroke-linecap:butt;stroke-linejoin:round;stroke-miterlimit:1;stroke-dasharray:13.24,5.68;stroke-dashoffset:0"
           id="path116" /></g></g><g
       id="g118"><g
         id="g120"
         clip-path="url(#clipPath122)" /></g><g
       id="g126"><g
         id="g128"
         clip-path="url(#clipPath130)" /></g><g
       id="g134"><g
         id="g136"
         clip-path="url(#clipPath138)"><text
           transform="matrix(1,0,0,-1,20.58,81.14)"
           id="text142"><tspan
             style="fill:#7f7f7f;fill-opacity:1;fill-rule:nonzero;stroke:none;font-family:Courier New;font-variant:normal;font-weight:bold;font-size:9;writing-mode:lr;-inkscape-font-specification:Courier-Bold"
             x="0 5.4 10.8 16.2 21.6"
             y="0"
             sodipodi:role="line"
             id="tspan144">−0.06</tspan></text>
<text
           transform="matrix(1,0,0,-1,20.58,144)"
           id="text146"><tspan
             style="fill:#7f7f7f;fill-opacity:1;fill-rule:nonzero;stroke:none;font-family:Courier New;font-variant:normal;font-weight:bold;font-size:9;writing-mode:lr;-inkscape-font-specification:Courier-Bold"
             x="0 5.4 10.8 16.2 21.6"
             y="0"
             sodipodi:role="line"
             id="tspan148">−0.04</tspan></text>
<text
           transform="matrix(1,0,0,-1,20.58,206.85)"
           id="text150"><tspan
             style="fill:#7f7f7f;fill-opacity:1;fill-rule:nonzero;stroke:none;font-family:Courier New;font-variant:normal;font-weight:bold;font-size:9;writing-mode:lr;-inkscape-font-specification:Courier-Bold"
             x="0 5.4 10.8 16.2 21.6"
             y="0"
             sodipodi:role="line"
             id="tspan152">−0.02</tspan></text>
<text
           transform="matrix(1,0,0,-1,25.98,269.71)"
           id="text154"><tspan
             style="fill:#7f7f7f;fill-opacity:1;fill-rule:nonzero;stroke:none;font-family:Courier New;font-variant:normal;font-weight:bold;font-size:9;writing-mode:lr;-inkscape-font-specification:Courier-Bold"
             x="0 5.4 10.8 16.2"
             y="0"
             sodipodi:role="line"
             id="tspan156">0.00</tspan></text>
<text
           transform="matrix(1,0,0,-1,25.98,332.56)"
           id="text158"><tspan
             style="fill:#7f7f7f;fill-opacity:1;fill-rule:nonzero;stroke:none;font-family:Courier New;font-variant:normal;font-weight:bold;font-size:9;writing-mode:lr;-inkscape-font-specification:Courier-Bold"
             x="0 5.4 10.8 16.2"
             y="0"
             sodipodi:role="line"
             id="tspan160">0.02</tspan></text>
</g></g><g
       id="g162"><g
         id="g164"
         clip-path="url(#clipPath166)" /></g><g
       id="g170"><g
         id="g172"
         clip-path="url(#clipPath174)"><path
           d="m 50.42,83.67 4.25,0"
           style="fill:none;stroke:#7f7f7f;stroke-opacity:1;stroke-width:1.06;stroke-linecap:butt;stroke-linejoin:round;stroke-miterlimit:10;stroke-dasharray:none"
           id="path178" /><path
           d="m 50.42,146.52 4.25,0"
           style="fill:none;stroke:#7f7f7f;stroke-opacity:1;stroke-width:1.06;stroke-linecap:butt;stroke-linejoin:round;stroke-miterlimit:10;stroke-dasharray:none"
           id="path180" /><path
           d="m 50.42,209.38 4.25,0"
           style="fill:none;stroke:#7f7f7f;stroke-opacity:1;stroke-width:1.06;stroke-linecap:butt;stroke-linejoin:round;stroke-miterlimit:10;stroke-dasharray:none"
           id="path182" /><path
           d="m 50.42,272.23 4.25,0"
           style="fill:none;stroke:#7f7f7f;stroke-opacity:1;stroke-width:1.06;stroke-linecap:butt;stroke-linejoin:round;stroke-miterlimit:10;stroke-dasharray:none"
           id="path184" /><path
           d="m 50.42,335.09 4.25,0"
           style="fill:none;stroke:#7f7f7f;stroke-opacity:1;stroke-width:1.06;stroke-linecap:butt;stroke-linejoin:round;stroke-miterlimit:10;stroke-dasharray:none"
           id="path186" /></g></g><g
       id="g188"><g
         id="g190"
         clip-path="url(#clipPath192)" /></g><g
       id="g196"><g
         id="g198"
         clip-path="url(#clipPath200)" /></g><g
       id="g204"><g
         id="g206"
         clip-path="url(#clipPath208)" /></g><g
       id="g212"><g
         id="g214"
         clip-path="url(#clipPath216)" /></g><g
       id="g220"><g
         id="g222"
         clip-path="url(#clipPath224)" /></g><g
       id="g228"><g
         id="g230"
         clip-path="url(#clipPath232)"><path
           d="m 67.78,74.33 0,4.25"
           style="fill:none;stroke:#7f7f7f;stroke-opacity:1;stroke-width:1.06;stroke-linecap:butt;stroke-linejoin:round;stroke-miterlimit:10;stroke-dasharray:none"
           id="path236" /><path
           d="m 146.78,74.33 0,4.25"
           style="fill:none;stroke:#7f7f7f;stroke-opacity:1;stroke-width:1.06;stroke-linecap:butt;stroke-linejoin:round;stroke-miterlimit:10;stroke-dasharray:none"
           id="path238" /><path
           d="m 225.77,74.33 0,4.25"
           style="fill:none;stroke:#7f7f7f;stroke-opacity:1;stroke-width:1.06;stroke-linecap:butt;stroke-linejoin:round;stroke-miterlimit:10;stroke-dasharray:none"
           id="path240" /><path
           d="m 305.64,74.33 0,4.25"
           style="fill:none;stroke:#7f7f7f;stroke-opacity:1;stroke-width:1.06;stroke-linecap:butt;stroke-linejoin:round;stroke-miterlimit:10;stroke-dasharray:none"
           id="path242" /><path
           d="m 385.51,74.33 0,4.25"
           style="fill:none;stroke:#7f7f7f;stroke-opacity:1;stroke-width:1.06;stroke-linecap:butt;stroke-linejoin:round;stroke-miterlimit:10;stroke-dasharray:none"
           id="path244" /></g></g><g
       id="g246"><g
         id="g248"
         clip-path="url(#clipPath250)" /></g><g
       id="g254"><g
         id="g256"
         clip-path="url(#clipPath258)"><text
           transform="matrix(1,0,0,-1,46.18,66.44)"
           id="text262"><tspan
             style="fill:#7f7f7f;fill-opacity:1;fill-rule:nonzero;stroke:none;font-family:Courier New;font-variant:normal;font-weight:bold;font-size:9;writing-mode:lr;-inkscape-font-specification:Courier-Bold"
             x="0 5.4 10.8 16.2 21.6 27 32.4 37.8"
             y="0"
             sodipodi:role="line"
             id="tspan264">ene 2012</tspan></text>
<text
           transform="matrix(1,0,0,-1,125.18,66.44)"
           id="text266"><tspan
             style="fill:#7f7f7f;fill-opacity:1;fill-rule:nonzero;stroke:none;font-family:Courier New;font-variant:normal;font-weight:bold;font-size:9;writing-mode:lr;-inkscape-font-specification:Courier-Bold"
             x="0 5.4 10.8 16.2 21.6 27 32.4 37.8"
             y="0"
             sodipodi:role="line"
             id="tspan268">abr 2012</tspan></text>
<text
           transform="matrix(1,0,0,-1,204.17,66.44)"
           id="text270"><tspan
             style="fill:#7f7f7f;fill-opacity:1;fill-rule:nonzero;stroke:none;font-family:Courier New;font-variant:normal;font-weight:bold;font-size:9;writing-mode:lr;-inkscape-font-specification:Courier-Bold"
             x="0 5.4 10.8 16.2 21.6 27 32.4 37.8"
             y="0"
             sodipodi:role="line"
             id="tspan272">jul 2012</tspan></text>
<text
           transform="matrix(1,0,0,-1,284.04,66.44)"
           id="text274"><tspan
             style="fill:#7f7f7f;fill-opacity:1;fill-rule:nonzero;stroke:none;font-family:Courier New;font-variant:normal;font-weight:bold;font-size:9;writing-mode:lr;-inkscape-font-specification:Courier-Bold"
             x="0 5.4 10.8 16.2 21.6 27 32.4 37.8"
             y="0"
             sodipodi:role="line"
             id="tspan276">oct 2012</tspan></text>
<text
           transform="matrix(1,0,0,-1,363.91,66.44)"
           id="text278"><tspan
             style="fill:#7f7f7f;fill-opacity:1;fill-rule:nonzero;stroke:none;font-family:Courier New;font-variant:normal;font-weight:bold;font-size:9;writing-mode:lr;-inkscape-font-specification:Courier-Bold"
             x="0 5.4 10.8 16.2 21.6 27 32.4 37.8"
             y="0"
             sodipodi:role="line"
             id="tspan280">ene 2013</tspan></text>
</g></g><g
       id="g282"><g
         id="g284"
         clip-path="url(#clipPath286)" /></g><g
       id="g290"><g
         id="g292"
         clip-path="url(#clipPath294)" /></g><g
       id="g298"><g
         id="g300"
         clip-path="url(#clipPath302)" /></g><g
       id="g306"><g
         id="g308"
         clip-path="url(#clipPath310)" /></g><g
       id="g314"><g
         id="g316"
         clip-path="url(#clipPath318)"><text
           transform="matrix(1,0,0,-1,211.01,56.65)"
           id="text322"><tspan
             style="fill:#000000;fill-opacity:1;fill-rule:nonzero;stroke:none;font-family:Courier New;font-variant:normal;font-weight:bold;font-size:11;writing-mode:lr;-inkscape-font-specification:Courier-Bold"
             x="0 6.6 13.2 19.8 26.4"
             y="0"
             sodipodi:role="line"
             id="tspan324">Fecha</tspan></text>
</g></g><g
       id="g326"><g
         id="g328"
         clip-path="url(#clipPath330)" /></g><g
       id="g334"><g
         id="g336"
         clip-path="url(#clipPath338)"><text
           transform="matrix(0,1,1,0,16.98,208.74)"
           id="text342"><tspan
             style="fill:#000000;fill-opacity:1;fill-rule:nonzero;stroke:none;font-family:Courier New;font-variant:normal;font-weight:bold;font-size:11;writing-mode:lr;-inkscape-font-specification:Courier-Bold"
             x="0 6.6 13.2 19.8 26.4 33 39.6"
             y="0"
             sodipodi:role="line"
             id="tspan344">Valores</tspan></text>
</g></g><g
       id="g346"><g
         id="g348"
         clip-path="url(#clipPath350)" /></g><g
       id="g354"><g
         id="g356"
         clip-path="url(#clipPath358)" /></g><g
       id="g362"><g
         id="g364"
         clip-path="url(#clipPath366)" /></g><g
       id="g370"><g
         id="g372"
         clip-path="url(#clipPath374)" /></g><g
       id="g378"><g
         id="g380"
         clip-path="url(#clipPath382)" /></g><g
       id="g386"><g
         id="g388"
         clip-path="url(#clipPath390)"><path
           d="m 106.08,17.23 242.86,0 0,25.78 -242.86,0 0,-25.78 z"
           style="fill:#ffffff;fill-opacity:1;fill-rule:nonzero;stroke:#000000;stroke-opacity:1;stroke-width:1.06;stroke-linecap:round;stroke-linejoin:round;stroke-miterlimit:10;stroke-dasharray:none"
           id="path394" /></g></g><g
       id="g396"><g
         id="g398"
         clip-path="url(#clipPath400)" /></g><g
       id="g404"><g
         id="g406"
         clip-path="url(#clipPath408)" /></g><g
       id="g412"><g
         id="g414"
         clip-path="url(#clipPath416)" /></g><g
       id="g420"><g
         id="g422"
         clip-path="url(#clipPath424)"><path
           d="m 114.65,21.49 17.28,0 0,17.28 -17.28,0 0,-17.28 z"
           style="fill:#f2f2f2;fill-opacity:1;fill-rule:nonzero;stroke:#ffffff;stroke-opacity:1;stroke-width:1.06;stroke-linecap:round;stroke-linejoin:round;stroke-miterlimit:10;stroke-dasharray:none"
           id="path428" /></g></g><g
       id="g430"><g
         id="g432"
         clip-path="url(#clipPath434)" /></g><g
       id="g438"><g
         id="g440"
         clip-path="url(#clipPath442)"><path
           d="m 116.38,30.13 13.82,0"
           style="fill:none;stroke:#2e2e2e;stroke-opacity:1;stroke-width:1.89;stroke-linecap:butt;stroke-linejoin:round;stroke-miterlimit:10;stroke-dasharray:none"
           id="path446" /></g></g><g
       id="g448"><g
         id="g450"
         clip-path="url(#clipPath452)" /></g><g
       id="g456"><g
         id="g458"
         clip-path="url(#clipPath460)"><path
           d="m 116.38,30.13 13.82,0"
           style="fill:none;stroke:#2e2e2e;stroke-opacity:1;stroke-width:1.89;stroke-linecap:butt;stroke-linejoin:round;stroke-miterlimit:10;stroke-dasharray:13.24,5.68;stroke-dashoffset:0"
           id="path464" /></g></g><g
       id="g466"><g
         id="g468"
         clip-path="url(#clipPath470)" /></g><g
       id="g474"><g
         id="g476"
         clip-path="url(#clipPath478)"><path
           d="m 116.38,30.13 13.82,0"
           style="fill:none;stroke:#2e2e2e;stroke-opacity:1;stroke-width:1.89;stroke-linecap:butt;stroke-linejoin:round;stroke-miterlimit:10;stroke-dasharray:13.24,5.68;stroke-dashoffset:0"
           id="path482" /></g></g><g
       id="g484"><g
         id="g486"
         clip-path="url(#clipPath488)" /></g><g
       id="g492"><g
         id="g494"
         clip-path="url(#clipPath496)"><path
           d="m 157.85,21.49 17.28,0 0,17.28 -17.28,0 0,-17.28 z"
           style="fill:#f2f2f2;fill-opacity:1;fill-rule:nonzero;stroke:#ffffff;stroke-opacity:1;stroke-width:1.06;stroke-linecap:round;stroke-linejoin:round;stroke-miterlimit:10;stroke-dasharray:none"
           id="path500" /></g></g><g
       id="g502"><g
         id="g504"
         clip-path="url(#clipPath506)" /></g><g
       id="g510"><g
         id="g512"
         clip-path="url(#clipPath514)"><path
           d="m 159.58,30.13 13.82,0"
           style="fill:none;stroke:#b3b3b3;stroke-opacity:1;stroke-width:1.89;stroke-linecap:butt;stroke-linejoin:round;stroke-miterlimit:10;stroke-dasharray:none"
           id="path518" /></g></g><g
       id="g520"><g
         id="g522"
         clip-path="url(#clipPath524)" /></g><g
       id="g528"><g
         id="g530"
         clip-path="url(#clipPath532)"><path
           d="m 159.58,30.13 13.82,0"
           style="fill:none;stroke:#b3b3b3;stroke-opacity:1;stroke-width:1.89;stroke-linecap:butt;stroke-linejoin:round;stroke-miterlimit:10;stroke-dasharray:13.24,5.68;stroke-dashoffset:0"
           id="path536" /></g></g><g
       id="g538"><g
         id="g540"
         clip-path="url(#clipPath542)" /></g><g
       id="g546"><g
         id="g548"
         clip-path="url(#clipPath550)"><path
           d="m 159.58,30.13 13.82,0"
           style="fill:none;stroke:#b3b3b3;stroke-opacity:1;stroke-width:1.89;stroke-linecap:butt;stroke-linejoin:round;stroke-miterlimit:10;stroke-dasharray:13.24,5.68;stroke-dashoffset:0"
           id="path554" /></g></g><g
       id="g556"><g
         id="g558"
         clip-path="url(#clipPath560)" /></g><g
       id="g564"><g
         id="g566"
         clip-path="url(#clipPath568)"><text
           transform="matrix(1,0,0,-1,134.09,27.6)"
           id="text572"><tspan
             style="fill:#000000;fill-opacity:1;fill-rule:nonzero;stroke:none;font-family:Courier New;font-variant:normal;font-weight:bold;font-size:9;writing-mode:lr;-inkscape-font-specification:Courier-Bold"
             x="0 5.4 10.8 16.2"
             y="0"
             sodipodi:role="line"
             id="tspan574">Alfa</tspan></text>
</g></g><g
       id="g576"><g
         id="g578"
         clip-path="url(#clipPath580)" /></g><g
       id="g584"><g
         id="g586"
         clip-path="url(#clipPath588)"><text
           transform="matrix(1,0,0,-1,177.29,27.6)"
           id="text592"><tspan
             style="fill:#000000;fill-opacity:1;fill-rule:nonzero;stroke:none;font-family:Courier New;font-variant:normal;font-weight:bold;font-size:9;writing-mode:lr;-inkscape-font-specification:Courier-Bold"
             x="0 5.4 10.8 16.2 21.6 27 32.4 37.8 43.2 48.6 54 59.4 64.8 70.2 75.6 81 86.4 91.8 97.2 102.6 108 113.4 118.8 124.2 129.6 135 140.4 145.8 151.2 156.6 162"
             y="0"
             sodipodi:role="line"
             id="tspan594">intervalos de confianza del 95%</tspan></text>
</g></g><g
       id="g596"><g
         id="g598"
         clip-path="url(#clipPath600)" /></g><g
       id="g604"><g
         id="g606"
         clip-path="url(#clipPath608)" /></g><g
       id="g612"><g
         id="g614"
         clip-path="url(#clipPath616)" /></g><g
       id="g620"><g
         id="g622"
         clip-path="url(#clipPath624)" /></g><g
       id="g628"><g
         id="g630"
         clip-path="url(#clipPath632)" /></g><g
       id="g636"><g
         id="g638"
         clip-path="url(#clipPath640)" /></g><g
       id="g644"><g
         id="g646"
         clip-path="url(#clipPath648)" /></g><g
       id="g652"><g
         id="g654"
         clip-path="url(#clipPath656)" /></g><g
       id="g660"><g
         id="g662"
         clip-path="url(#clipPath664)" /></g><g
       id="g668"><g
         id="g670"
         clip-path="url(#clipPath672)"><text
           transform="matrix(1,0,0,-1,110.51,388.69)"
           id="text676"><tspan
             style="fill:#000000;fill-opacity:1;fill-rule:nonzero;stroke:none;font-family:Courier New;font-variant:normal;font-weight:bold;font-size:13;writing-mode:lr;-inkscape-font-specification:Courier-Bold"
             x="0 7.8 15.6 23.4 31.2 39 46.8 54.6 62.4 70.2 78 85.8 93.6 101.4 109.2 117 124.8 132.6 140.4 148.2 156 163.8 171.6 179.4 187.2 195 202.8 210.6 218.4 226.2"
             y="0"
             sodipodi:role="line"
             id="tspan678">Recorrido de alfa (Filtración)</tspan></text>
</g></g><g
       id="g680"><g
         id="g682"
         clip-path="url(#clipPath684)" /></g><g
       id="g688"><g
         id="g690"
         clip-path="url(#clipPath692)" /></g></g></svg>