<?xml version="1.0" encoding="UTF-8" standalone="no"?>
<!-- Created with Inkscape (http://www.inkscape.org/) -->

<svg
   xmlns:dc="http://purl.org/dc/elements/1.1/"
   xmlns:cc="http://creativecommons.org/ns#"
   xmlns:rdf="http://www.w3.org/1999/02/22-rdf-syntax-ns#"
   xmlns:svg="http://www.w3.org/2000/svg"
   xmlns="http://www.w3.org/2000/svg"
   xmlns:sodipodi="http://sodipodi.sourceforge.net/DTD/sodipodi-0.dtd"
   xmlns:inkscape="http://www.inkscape.org/namespaces/inkscape"
   id="svg2"
   version="1.1"
   inkscape:version="0.48.4 r9939"
   width="517.5"
   height="516.25"
   xml:space="preserve"
   sodipodi:docname="4a_betaBayesSmooth.pdf"><metadata
     id="metadata8"><rdf:RDF><cc:Work
         rdf:about=""><dc:format>image/svg+xml</dc:format><dc:type
           rdf:resource="http://purl.org/dc/dcmitype/StillImage" /><dc:title></dc:title></cc:Work></rdf:RDF></metadata><defs
     id="defs6"><clipPath
       clipPathUnits="userSpaceOnUse"
       id="clipPath18"><path
         d="m 0,0 414.75,0 0,414 L 0,414 0,0 z"
         id="path20" /></clipPath><clipPath
       clipPathUnits="userSpaceOnUse"
       id="clipPath26"><path
         d="m 0,0 414.75,0 0,414 L 0,414 0,0 z"
         id="path28" /></clipPath><clipPath
       clipPathUnits="userSpaceOnUse"
       id="clipPath34"><path
         d="m 0,0 414.75,0 0,414 L 0,414 0,0 z"
         id="path36" /></clipPath><clipPath
       clipPathUnits="userSpaceOnUse"
       id="clipPath44"><path
         d="m 0,0 414.75,0 0,414 L 0,414 0,0 z"
         id="path46" /></clipPath><clipPath
       clipPathUnits="userSpaceOnUse"
       id="clipPath52"><path
         d="m 0,0 414.75,0 0,414 L 0,414 0,0 z"
         id="path54" /></clipPath><clipPath
       clipPathUnits="userSpaceOnUse"
       id="clipPath60"><path
         d="m 0,0 414.75,0 0,414 L 0,414 0,0 z"
         id="path62" /></clipPath><clipPath
       clipPathUnits="userSpaceOnUse"
       id="clipPath68"><path
         d="m 43.87,78.58 356.48,0 0,306.51 -356.48,0 0,-306.51 z"
         id="path70" /></clipPath><clipPath
       clipPathUnits="userSpaceOnUse"
       id="clipPath116"><path
         d="m 0,0 414.75,0 0,414 L 0,414 0,0 z"
         id="path118" /></clipPath><clipPath
       clipPathUnits="userSpaceOnUse"
       id="clipPath124"><path
         d="m 0,0 414.75,0 0,414 L 0,414 0,0 z"
         id="path126" /></clipPath><clipPath
       clipPathUnits="userSpaceOnUse"
       id="clipPath132"><path
         d="m 0,0 414.75,0 0,414 L 0,414 0,0 z"
         id="path134" /></clipPath><clipPath
       clipPathUnits="userSpaceOnUse"
       id="clipPath156"><path
         d="m 0,0 414.75,0 0,414 L 0,414 0,0 z"
         id="path158" /></clipPath><clipPath
       clipPathUnits="userSpaceOnUse"
       id="clipPath164"><path
         d="m 0,0 414.75,0 0,414 L 0,414 0,0 z"
         id="path166" /></clipPath><clipPath
       clipPathUnits="userSpaceOnUse"
       id="clipPath180"><path
         d="m 0,0 414.75,0 0,414 L 0,414 0,0 z"
         id="path182" /></clipPath><clipPath
       clipPathUnits="userSpaceOnUse"
       id="clipPath188"><path
         d="m 0,0 414.75,0 0,414 L 0,414 0,0 z"
         id="path190" /></clipPath><clipPath
       clipPathUnits="userSpaceOnUse"
       id="clipPath196"><path
         d="m 0,0 414.75,0 0,414 L 0,414 0,0 z"
         id="path198" /></clipPath><clipPath
       clipPathUnits="userSpaceOnUse"
       id="clipPath204"><path
         d="m 0,0 414.75,0 0,414 L 0,414 0,0 z"
         id="path206" /></clipPath><clipPath
       clipPathUnits="userSpaceOnUse"
       id="clipPath212"><path
         d="m 0,0 414.75,0 0,414 L 0,414 0,0 z"
         id="path214" /></clipPath><clipPath
       clipPathUnits="userSpaceOnUse"
       id="clipPath220"><path
         d="m 0,0 414.75,0 0,414 L 0,414 0,0 z"
         id="path222" /></clipPath><clipPath
       clipPathUnits="userSpaceOnUse"
       id="clipPath238"><path
         d="m 0,0 414.75,0 0,414 L 0,414 0,0 z"
         id="path240" /></clipPath><clipPath
       clipPathUnits="userSpaceOnUse"
       id="clipPath246"><path
         d="m 0,0 414.75,0 0,414 L 0,414 0,0 z"
         id="path248" /></clipPath><clipPath
       clipPathUnits="userSpaceOnUse"
       id="clipPath274"><path
         d="m 0,0 414.75,0 0,414 L 0,414 0,0 z"
         id="path276" /></clipPath><clipPath
       clipPathUnits="userSpaceOnUse"
       id="clipPath282"><path
         d="m 0,0 414.75,0 0,414 L 0,414 0,0 z"
         id="path284" /></clipPath><clipPath
       clipPathUnits="userSpaceOnUse"
       id="clipPath290"><path
         d="m 0,0 414.75,0 0,414 L 0,414 0,0 z"
         id="path292" /></clipPath><clipPath
       clipPathUnits="userSpaceOnUse"
       id="clipPath298"><path
         d="m 0,0 414.75,0 0,414 L 0,414 0,0 z"
         id="path300" /></clipPath><clipPath
       clipPathUnits="userSpaceOnUse"
       id="clipPath306"><path
         d="m 0,0 414.75,0 0,414 L 0,414 0,0 z"
         id="path308" /></clipPath><clipPath
       clipPathUnits="userSpaceOnUse"
       id="clipPath318"><path
         d="m 0,0 414.75,0 0,414 L 0,414 0,0 z"
         id="path320" /></clipPath><clipPath
       clipPathUnits="userSpaceOnUse"
       id="clipPath326"><path
         d="m 0,0 414.75,0 0,414 L 0,414 0,0 z"
         id="path328" /></clipPath><clipPath
       clipPathUnits="userSpaceOnUse"
       id="clipPath338"><path
         d="m 0,0 414.75,0 0,414 L 0,414 0,0 z"
         id="path340" /></clipPath><clipPath
       clipPathUnits="userSpaceOnUse"
       id="clipPath346"><path
         d="m 0,0 414.75,0 0,414 L 0,414 0,0 z"
         id="path348" /></clipPath><clipPath
       clipPathUnits="userSpaceOnUse"
       id="clipPath354"><path
         d="m 0,0 414.75,0 0,414 L 0,414 0,0 z"
         id="path356" /></clipPath><clipPath
       clipPathUnits="userSpaceOnUse"
       id="clipPath362"><path
         d="m 0,0 414.75,0 0,414 L 0,414 0,0 z"
         id="path364" /></clipPath><clipPath
       clipPathUnits="userSpaceOnUse"
       id="clipPath370"><path
         d="m 0,0 414.75,0 0,414 L 0,414 0,0 z"
         id="path372" /></clipPath><clipPath
       clipPathUnits="userSpaceOnUse"
       id="clipPath378"><path
         d="m 0,0 414.75,0 0,414 L 0,414 0,0 z"
         id="path380" /></clipPath><clipPath
       clipPathUnits="userSpaceOnUse"
       id="clipPath388"><path
         d="m 0,0 414.75,0 0,414 L 0,414 0,0 z"
         id="path390" /></clipPath><clipPath
       clipPathUnits="userSpaceOnUse"
       id="clipPath396"><path
         d="m 0,0 414.75,0 0,414 L 0,414 0,0 z"
         id="path398" /></clipPath><clipPath
       clipPathUnits="userSpaceOnUse"
       id="clipPath404"><path
         d="m 0,0 414.75,0 0,414 L 0,414 0,0 z"
         id="path406" /></clipPath><clipPath
       clipPathUnits="userSpaceOnUse"
       id="clipPath412"><path
         d="m 0,0 414.75,0 0,414 L 0,414 0,0 z"
         id="path414" /></clipPath><clipPath
       clipPathUnits="userSpaceOnUse"
       id="clipPath422"><path
         d="m 0,0 414.75,0 0,414 L 0,414 0,0 z"
         id="path424" /></clipPath><clipPath
       clipPathUnits="userSpaceOnUse"
       id="clipPath430"><path
         d="m 0,0 414.75,0 0,414 L 0,414 0,0 z"
         id="path432" /></clipPath><clipPath
       clipPathUnits="userSpaceOnUse"
       id="clipPath440"><path
         d="m 0,0 414.75,0 0,414 L 0,414 0,0 z"
         id="path442" /></clipPath><clipPath
       clipPathUnits="userSpaceOnUse"
       id="clipPath448"><path
         d="m 0,0 414.75,0 0,414 L 0,414 0,0 z"
         id="path450" /></clipPath><clipPath
       clipPathUnits="userSpaceOnUse"
       id="clipPath458"><path
         d="m 0,0 414.75,0 0,414 L 0,414 0,0 z"
         id="path460" /></clipPath><clipPath
       clipPathUnits="userSpaceOnUse"
       id="clipPath466"><path
         d="m 0,0 414.75,0 0,414 L 0,414 0,0 z"
         id="path468" /></clipPath><clipPath
       clipPathUnits="userSpaceOnUse"
       id="clipPath476"><path
         d="m 0,0 414.75,0 0,414 L 0,414 0,0 z"
         id="path478" /></clipPath><clipPath
       clipPathUnits="userSpaceOnUse"
       id="clipPath484"><path
         d="m 0,0 414.75,0 0,414 L 0,414 0,0 z"
         id="path486" /></clipPath><clipPath
       clipPathUnits="userSpaceOnUse"
       id="clipPath494"><path
         d="m 0,0 414.75,0 0,414 L 0,414 0,0 z"
         id="path496" /></clipPath><clipPath
       clipPathUnits="userSpaceOnUse"
       id="clipPath502"><path
         d="m 0,0 414.75,0 0,414 L 0,414 0,0 z"
         id="path504" /></clipPath><clipPath
       clipPathUnits="userSpaceOnUse"
       id="clipPath512"><path
         d="m 0,0 414.75,0 0,414 L 0,414 0,0 z"
         id="path514" /></clipPath><clipPath
       clipPathUnits="userSpaceOnUse"
       id="clipPath520"><path
         d="m 0,0 414.75,0 0,414 L 0,414 0,0 z"
         id="path522" /></clipPath><clipPath
       clipPathUnits="userSpaceOnUse"
       id="clipPath530"><path
         d="m 0,0 414.75,0 0,414 L 0,414 0,0 z"
         id="path532" /></clipPath><clipPath
       clipPathUnits="userSpaceOnUse"
       id="clipPath538"><path
         d="m 0,0 414.75,0 0,414 L 0,414 0,0 z"
         id="path540" /></clipPath><clipPath
       clipPathUnits="userSpaceOnUse"
       id="clipPath548"><path
         d="m 0,0 414.75,0 0,414 L 0,414 0,0 z"
         id="path550" /></clipPath><clipPath
       clipPathUnits="userSpaceOnUse"
       id="clipPath556"><path
         d="m 0,0 414.75,0 0,414 L 0,414 0,0 z"
         id="path558" /></clipPath><clipPath
       clipPathUnits="userSpaceOnUse"
       id="clipPath568"><path
         d="m 0,0 414.75,0 0,414 L 0,414 0,0 z"
         id="path570" /></clipPath><clipPath
       clipPathUnits="userSpaceOnUse"
       id="clipPath576"><path
         d="m 0,0 414.75,0 0,414 L 0,414 0,0 z"
         id="path578" /></clipPath><clipPath
       clipPathUnits="userSpaceOnUse"
       id="clipPath588"><path
         d="m 0,0 414.75,0 0,414 L 0,414 0,0 z"
         id="path590" /></clipPath><clipPath
       clipPathUnits="userSpaceOnUse"
       id="clipPath596"><path
         d="m 0,0 414.75,0 0,414 L 0,414 0,0 z"
         id="path598" /></clipPath><clipPath
       clipPathUnits="userSpaceOnUse"
       id="clipPath604"><path
         d="m 0,0 414.75,0 0,414 L 0,414 0,0 z"
         id="path606" /></clipPath><clipPath
       clipPathUnits="userSpaceOnUse"
       id="clipPath612"><path
         d="m 0,0 414.75,0 0,414 L 0,414 0,0 z"
         id="path614" /></clipPath><clipPath
       clipPathUnits="userSpaceOnUse"
       id="clipPath620"><path
         d="m 0,0 414.75,0 0,414 L 0,414 0,0 z"
         id="path622" /></clipPath><clipPath
       clipPathUnits="userSpaceOnUse"
       id="clipPath628"><path
         d="m 0,0 414.75,0 0,414 L 0,414 0,0 z"
         id="path630" /></clipPath><clipPath
       clipPathUnits="userSpaceOnUse"
       id="clipPath636"><path
         d="m 0,0 414.75,0 0,414 L 0,414 0,0 z"
         id="path638" /></clipPath><clipPath
       clipPathUnits="userSpaceOnUse"
       id="clipPath644"><path
         d="m 0,0 414.75,0 0,414 L 0,414 0,0 z"
         id="path646" /></clipPath><clipPath
       clipPathUnits="userSpaceOnUse"
       id="clipPath652"><path
         d="m 0,0 414.75,0 0,414 L 0,414 0,0 z"
         id="path654" /></clipPath><clipPath
       clipPathUnits="userSpaceOnUse"
       id="clipPath660"><path
         d="m 0,0 414.75,0 0,414 L 0,414 0,0 z"
         id="path662" /></clipPath><clipPath
       clipPathUnits="userSpaceOnUse"
       id="clipPath672"><path
         d="m 0,0 414.75,0 0,414 L 0,414 0,0 z"
         id="path674" /></clipPath><clipPath
       clipPathUnits="userSpaceOnUse"
       id="clipPath680"><path
         d="m 0,0 414.75,0 0,414 L 0,414 0,0 z"
         id="path682" /></clipPath></defs><sodipodi:namedview
     pagecolor="#ffffff"
     bordercolor="#666666"
     borderopacity="1"
     objecttolerance="10"
     gridtolerance="10"
     guidetolerance="10"
     inkscape:pageopacity="0"
     inkscape:pageshadow="2"
     inkscape:window-width="640"
     inkscape:window-height="480"
     id="namedview4"
     showgrid="false"
     inkscape:zoom="0.45714286"
     inkscape:cx="258.75"
     inkscape:cy="258.125"
     inkscape:window-x="0"
     inkscape:window-y="0"
     inkscape:window-maximized="0"
     inkscape:current-layer="g10" /><g
     id="g10"
     inkscape:groupmode="layer"
     inkscape:label="4a_betaBayesSmooth"
     transform="matrix(1.25,0,0,-1.25,0,516.25)"><g
       id="g12" /><g
       id="g14"><g
         id="g16"
         clip-path="url(#clipPath18)" /></g><g
       id="g22"><g
         id="g24"
         clip-path="url(#clipPath26)" /></g><g
       id="g30"><g
         id="g32"
         clip-path="url(#clipPath34)"><path
           d="m 0,0 414.75,0 0,414 L 0,414 0,0 z"
           style="fill:#ffffff;fill-opacity:1;fill-rule:nonzero;stroke:#ffffff;stroke-opacity:1;stroke-width:1.06;stroke-linecap:round;stroke-linejoin:round;stroke-miterlimit:10;stroke-dasharray:none"
           id="path38" /></g></g><g
       id="g40"><g
         id="g42"
         clip-path="url(#clipPath44)" /></g><g
       id="g48"><g
         id="g50"
         clip-path="url(#clipPath52)" /></g><g
       id="g56"><g
         id="g58"
         clip-path="url(#clipPath60)" /></g><g
       id="g64"><g
         id="g66"
         clip-path="url(#clipPath68)"><path
           d="m 43.87,78.58 356.48,0 0,306.51 -356.48,0 0,-306.51 z"
           style="fill:#e5e5e5;fill-opacity:1;fill-rule:nonzero;stroke:none"
           id="path72" /><path
           d="m 43.87,151.63 356.48,0"
           style="fill:none;stroke:#f2f2f2;stroke-opacity:1;stroke-width:0.53;stroke-linecap:butt;stroke-linejoin:round;stroke-miterlimit:10;stroke-dasharray:none"
           id="path74" /><path
           d="m 43.87,237.45 356.48,0"
           style="fill:none;stroke:#f2f2f2;stroke-opacity:1;stroke-width:0.53;stroke-linecap:butt;stroke-linejoin:round;stroke-miterlimit:10;stroke-dasharray:none"
           id="path76" /><path
           d="m 43.87,323.26 356.48,0"
           style="fill:none;stroke:#f2f2f2;stroke-opacity:1;stroke-width:0.53;stroke-linecap:butt;stroke-linejoin:round;stroke-miterlimit:10;stroke-dasharray:none"
           id="path78" /><path
           d="m 98.91,78.58 0,306.51"
           style="fill:none;stroke:#f2f2f2;stroke-opacity:1;stroke-width:0.53;stroke-linecap:butt;stroke-linejoin:round;stroke-miterlimit:10;stroke-dasharray:none"
           id="path80" /><path
           d="m 180.15,78.58 0,306.51"
           style="fill:none;stroke:#f2f2f2;stroke-opacity:1;stroke-width:0.53;stroke-linecap:butt;stroke-linejoin:round;stroke-miterlimit:10;stroke-dasharray:none"
           id="path82" /><path
           d="m 261.84,78.58 0,306.51"
           style="fill:none;stroke:#f2f2f2;stroke-opacity:1;stroke-width:0.53;stroke-linecap:butt;stroke-linejoin:round;stroke-miterlimit:10;stroke-dasharray:none"
           id="path84" /><path
           d="m 343.97,78.58 0,306.51"
           style="fill:none;stroke:#f2f2f2;stroke-opacity:1;stroke-width:0.53;stroke-linecap:butt;stroke-linejoin:round;stroke-miterlimit:10;stroke-dasharray:none"
           id="path86" /><path
           d="m 43.87,108.72 356.48,0"
           style="fill:none;stroke:#ffffff;stroke-opacity:1;stroke-width:1.06;stroke-linecap:butt;stroke-linejoin:round;stroke-miterlimit:10;stroke-dasharray:none"
           id="path88" /><path
           d="m 43.87,194.54 356.48,0"
           style="fill:none;stroke:#ffffff;stroke-opacity:1;stroke-width:1.06;stroke-linecap:butt;stroke-linejoin:round;stroke-miterlimit:10;stroke-dasharray:none"
           id="path90" /><path
           d="m 43.87,280.35 356.48,0"
           style="fill:none;stroke:#ffffff;stroke-opacity:1;stroke-width:1.06;stroke-linecap:butt;stroke-linejoin:round;stroke-miterlimit:10;stroke-dasharray:none"
           id="path92" /><path
           d="m 43.87,366.17 356.48,0"
           style="fill:none;stroke:#ffffff;stroke-opacity:1;stroke-width:1.06;stroke-linecap:butt;stroke-linejoin:round;stroke-miterlimit:10;stroke-dasharray:none"
           id="path94" /><path
           d="m 58.29,78.58 0,306.51"
           style="fill:none;stroke:#ffffff;stroke-opacity:1;stroke-width:1.06;stroke-linecap:butt;stroke-linejoin:round;stroke-miterlimit:10;stroke-dasharray:none"
           id="path96" /><path
           d="m 139.53,78.58 0,306.51"
           style="fill:none;stroke:#ffffff;stroke-opacity:1;stroke-width:1.06;stroke-linecap:butt;stroke-linejoin:round;stroke-miterlimit:10;stroke-dasharray:none"
           id="path98" /><path
           d="m 220.77,78.58 0,306.51"
           style="fill:none;stroke:#ffffff;stroke-opacity:1;stroke-width:1.06;stroke-linecap:butt;stroke-linejoin:round;stroke-miterlimit:10;stroke-dasharray:none"
           id="path100" /><path
           d="m 302.9,78.58 0,306.51"
           style="fill:none;stroke:#ffffff;stroke-opacity:1;stroke-width:1.06;stroke-linecap:butt;stroke-linejoin:round;stroke-miterlimit:10;stroke-dasharray:none"
           id="path102" /><path
           d="m 385.04,78.58 0,306.51"
           style="fill:none;stroke:#ffffff;stroke-opacity:1;stroke-width:1.06;stroke-linecap:butt;stroke-linejoin:round;stroke-miterlimit:10;stroke-dasharray:none"
           id="path104" /><path
           d="m 60.07,197.86 0.9,-0.19 0.89,-0.1 0.89,0.11 2.68,0.7 0.89,0.34 0.89,0.09 0.9,-0.19 0.89,-0.58 3.57,-0.73 0.89,-0.54 0.9,-0.63 0.89,-1.12 2.68,-2.3 0.89,-1.6 0.89,-2.77 0.9,-1.22 0.89,-1.48 2.68,-1.32 0.89,-0.73 0.89,-0.58 0.9,-0.95 0.89,-1.35 2.68,-1.47 0.89,-1.24 0.89,-1.1 0.89,-0.67 0.9,0.75 2.68,0.82 0.89,1.06 0.89,1.55 0.89,-0.05 0.9,-0.21 3.57,-0.59 0.89,0.44 0.89,0.06 0.9,-0.07 2.67,0.17 0.9,0.15 0.89,0.58 0.89,1.4 0.9,1.11 2.67,1.07 0.9,-0.48 0.89,-0.1 0.89,-0.48 0.89,-0.29 2.68,-0.4 0.9,-0.01 0.89,0.04 0.89,2.25 0.89,1.44 2.68,1.07 0.9,2.06 0.89,2.52 0.89,1.98 0.89,1.82 2.68,1.17 0.89,1.19 0.9,1.99 0.89,2.52 0.89,1.65 2.68,0.46 0.89,1.3 0.9,2.72 0.89,2.82 3.57,3.69 0.89,5.03 0.9,5.69 0.89,5.26 0.89,4.86 2.68,3.82 0.89,1.62 0.9,2.05 0.89,2.36 0.89,0.64 2.68,-0.58 0.89,0.23 0.89,-0.76 0.9,0.48 0.89,0.1 2.68,-0.31 0.89,-1.86 0.89,-2.19 0.9,-1.52 0.89,-1.24 2.68,-1.92 0.89,-1.51 0.89,-1.3 0.9,-0.57 0.89,-0.58 2.68,-0.72 0.89,-0.82 0.89,-0.96 0.9,-1.41 0.89,-2.43 2.68,-1.85 0.89,-1.7 0.89,-2.14 0.9,-1.23 0.89,-1.77 3.57,-2 0.89,-1.94 0.89,0.25 0.9,0.16 2.68,-0.24 0.89,-0.08 0.89,-0.37 0.89,-0.16 0.9,-0.22 2.67,-0.13 0.9,-0.43 0.89,-0.51 0.89,-0.6 0.9,-0.82 2.67,-0.96 0.9,-0.32 0.89,-0.5 0.89,-0.66 0.9,0.16 2.67,0.09 0.9,-0.32 0.89,-0.5 0.89,-0.65 0.89,-1.13 2.68,-1.07 0.9,-0.73 1.78,-0.67 0.89,0.44 2.68,0.46 0.9,1.02 0.89,0.79 0.89,0.43 0.89,0.07 2.68,0.11 0.89,0.25 0.9,0.02 0.89,-0.22 0.89,0.04 2.68,-0.52 0.89,-0.14 0.9,-0.01 0.89,-1.83 0.89,-1.7 2.68,-1.64 0.89,-1.05 0.9,0.41 0.89,0.08 0.89,0.44 2.68,0.54 0.89,0.74 0.9,0.39 0.89,0.17 0.89,0.07 2.68,-0.08 0.89,0.5 0.89,0.49 0.9,0.23 0.89,0.19 2.68,0.81 0.89,1.98 0.89,1.25 0.9,2.04 0.89,1.85 2.68,1.61 0.89,2.42 0.89,2.32 0.9,2.13 0.89,1.7 3.57,1.54 0.89,2.24 0.9,1.94 0.89,2.09 2.68,2.13 0.89,0.95 0.89,0.68 0.89,1.18 0.9,1.18 2.68,1.5 0.89,2.5 0.89,2.81 0.89,2.81 0.9,2.68 2.68,2.86 0.89,2.42 0.89,1.75 0.89,1.59 0.9,1.83 2.67,1.13 0.9,0.65 0.89,0.82 0.89,1.27 0.9,0.9 2.67,0.04 0.9,-0.76 0.89,0.22 0.89,1.47 0.89,0.69 2.68,1.22 0.9,1.21 0.89,1.44 0.89,1.07 0.89,0.46 2.68,-0.3 0.9,1.79 0.89,1.13 0.89,1.97 0.89,1.48 4.47,1.31 0.89,0.85 0.89,0.67 2.68,-0.36 0.89,0.22 0.9,-0.03 0.89,-0.35 0.89,-1.43 2.68,-0.69 0.89,-0.86 0.9,-0.33 0.89,0.74 0.89,0.03 2.68,0.05 0.89,-0.44 0.9,-0.68 1.78,-0.59 2.68,-0.56 0.89,1.4 0.89,1.62 0.9,1.38 0.89,1.66 2.68,1.53 0.89,2.3 0.89,1.79 0.9,-0.65 0.89,-0.14 2.68,-1.06 0.89,-1.16 0.89,-0.7 0.9,-0.72 0.89,-0.89 2.68,-2.45 0.89,-2.36 0.89,-2.05 0.9,-1.95 0.89,-2.38 2.68,-1.43 1.78,-0.94 0.9,-1.15 0.89,-0.68 2.68,-0.04"
           style="fill:none;stroke:#2e2e2e;stroke-opacity:1;stroke-width:1.89;stroke-linecap:butt;stroke-linejoin:round;stroke-miterlimit:1;stroke-dasharray:none"
           id="path106" /><path
           d="m 60.07,303.21 0.9,-3.1 0.89,-2.6 0.89,-2.16 2.68,-1.09 0.89,-1.25 0.89,-1.57 0.9,-1.62 0.89,-1.9 3.57,-1.63 0.89,-1.43 0.9,-1.69 0.89,-2.2 2.68,-3.23 0.89,-2.38 0.89,-3.34 0.9,-1.93 0.89,-1.83 2.68,-1.54 0.89,-0.8 0.89,-0.62 0.9,-1.19 0.89,-1.62 2.68,-2 0.89,-1.72 0.89,-1.6 0.89,-1.2 0.9,0.25 2.68,0.68 0.89,0.74 0.89,1.29 0.89,-0.07 0.9,-0.49 3.57,-0.94 0.89,0.12 0.89,-0.09 0.9,-0.35 2.67,-0.18 0.9,-0.27 0.89,0.01 0.89,1.03 0.9,0.55 2.67,0.6 0.9,-0.81 0.89,0.37 0.89,-0.26 0.89,-0.34 2.68,-0.61 0.9,-0.23 0.89,-0.53 0.89,1.81 0.89,0.84 2.68,0.5 0.9,1.39 0.89,2.08 0.89,1.64 0.89,1.85 2.68,1.08 0.89,0.72 0.9,1.6 0.89,2.32 0.89,1.45 2.68,0.07 0.89,0.62 0.9,2.16 0.89,2.71 3.57,3.49 0.89,5.21 0.9,6.62 0.89,5.83 0.89,5.03 2.68,4.48 0.89,2.2 0.9,2.22 0.89,2.6 0.89,1.04 2.68,-0.32 0.89,0.78 0.89,-0.4 0.9,0.48 0.89,-0.15 2.68,-0.72 0.89,-2.23 0.89,-2.81 0.9,-2.17 0.89,-1.69 2.68,-1.7 0.89,-1.46 0.89,-1.25 0.9,-0.42 0.89,-0.67 2.68,-0.84 0.89,-0.63 0.89,-0.73 0.9,-1.22 0.89,-1.71 2.68,-1.03 0.89,-1.24 0.89,-1.81 0.9,-1.09 0.89,-1.8 3.57,-2.07 0.89,-2.36 0.89,0.32 0.9,0.11 2.68,0.86 0.89,0.84 0.89,0.26 0.89,0.28 0.9,0.12 2.67,-0.07 0.9,0.1 0.89,-0.28 0.89,-0.19 0.9,-0.7 2.67,-1.12 0.9,-0.63 0.89,-1.1 0.89,-1.32 0.9,0.68 2.67,0.34 0.9,0.63 0.89,0.24 0.89,-0.19 0.89,-0.69 2.68,-0.74 0.9,-0.55 1.78,-0.72 0.89,0.5 2.68,0.84 0.9,1.34 0.89,1.35 0.89,0.88 0.89,0.62 2.68,0.43 0.89,0.55 0.9,0.09 0.89,-0.37 0.89,-0.26 2.68,-0.48 0.89,0.16 0.9,0.54 0.89,-1.35 0.89,-1.44 2.68,-1.57 0.89,-1.02 0.9,0.53 0.89,0.25 0.89,0.87 2.68,0.77 0.89,0.87 0.9,0.37 0.89,0.1 0.89,0 2.68,-0.22 0.89,0.38 0.89,0.39 0.9,0.14 0.89,-0.08 2.68,0.51 0.89,1.71 0.89,1.16 0.9,1.93 0.89,2.08 2.68,1.65 0.89,2.44 0.89,2.34 0.9,2.08 0.89,1.96 3.57,1.62 0.89,2.31 0.9,1.99 0.89,1.97 2.68,1.86 0.89,0.95 0.89,0.56 0.89,1 0.9,0.74 2.68,0.97 0.89,2.14 0.89,2.5 0.89,2.45 0.9,2.33 2.68,2.49 0.89,2.07 0.89,1.85 0.89,1.84 0.9,1.81 2.67,1.2 0.9,0.57 0.89,0.64 0.89,0.91 0.9,0.29 2.67,-0.61 0.9,-1.34 0.89,0.03 0.89,1.44 0.89,0.56 2.68,1.09 0.9,0.8 0.89,0.73 0.89,0.16 0.89,-0.44 2.68,-0.42 0.9,1.53 0.89,1.48 0.89,2.31 0.89,1.64 4.47,1.39 0.89,0.79 0.89,0.28 2.68,-0.47 0.89,-0.08 0.9,-0.65 0.89,0.23 0.89,-0.48 2.68,0.07 0.89,-0.25 0.9,0.3 0.89,1.9 0.89,1.14 2.68,0.94 0.89,0.25 0.9,-0.05 1.78,-0.05 2.68,-0.29 0.89,1.74 0.89,2.15 0.9,1.69 0.89,1.84 2.68,1.68 0.89,2.63 0.89,2.18 0.9,-0.33 0.89,0.07 2.68,-0.93 0.89,-1.04 0.89,-0.75 0.9,-0.73 0.89,-0.54 2.68,-1.86 0.89,-1.98 0.89,-1.85 0.9,-1.23 0.89,-1.72 2.68,-0.14 1.78,0.63 0.9,0.84 0.89,1.54 2.68,3.08"
           style="fill:none;stroke:#b3b3b3;stroke-opacity:1;stroke-width:1.89;stroke-linecap:butt;stroke-linejoin:round;stroke-miterlimit:1;stroke-dasharray:13.24,5.68;stroke-dashoffset:0"
           id="path108" /><path
           d="m 60.07,92.51 0.9,2.71 0.89,2.4 0.89,2.39 2.68,2.49 0.89,1.94 0.89,1.74 0.9,1.24 0.89,0.74 3.57,0.17 0.89,0.35 0.9,0.42 0.89,-0.03 2.68,-1.36 0.89,-0.83 0.89,-2.21 0.9,-0.5 0.89,-1.13 2.68,-1.1 0.89,-0.67 0.89,-0.54 0.9,-0.69 0.89,-1.08 2.68,-0.94 0.89,-0.77 0.89,-0.6 0.89,-0.15 0.9,1.27 2.68,0.95 0.89,1.37 0.89,1.83 0.89,-0.04 0.9,0.07 3.57,-0.25 0.89,0.77 0.89,0.21 0.9,0.22 2.67,0.51 0.9,0.58 0.89,1.14 0.89,1.77 0.9,1.68 2.67,1.53 0.9,-0.16 0.89,-0.57 0.89,-0.7 0.89,-0.22 2.68,-0.2 0.9,0.21 0.89,0.61 0.89,2.69 0.89,2.03 2.68,1.66 0.9,2.71 0.89,2.97 0.89,2.33 0.89,1.79 2.68,1.26 0.89,1.65 0.9,2.38 0.89,2.72 0.89,1.85 2.68,0.84 0.89,1.99 0.9,3.28 0.89,2.93 3.57,3.88 0.89,4.85 0.9,4.78 0.89,4.68 0.89,4.69 2.68,3.15 0.89,1.06 0.9,1.87 0.89,2.12 0.89,0.25 2.68,-0.85 0.89,-0.32 0.89,-1.12 0.9,0.47 0.89,0.36 2.68,0.11 0.89,-1.5 0.89,-1.57 0.9,-0.87 0.89,-0.79 2.68,-2.14 0.89,-1.57 0.89,-1.34 0.9,-0.72 0.89,-0.5 2.68,-0.6 0.89,-1 0.89,-1.18 0.9,-1.61 0.89,-3.14 2.68,-2.67 0.89,-2.17 0.89,-2.47 0.9,-1.37 0.89,-1.74 3.57,-1.93 0.89,-1.52 0.89,0.18 0.9,0.2 2.68,-1.33 0.89,-0.99 0.89,-1.01 0.89,-0.6 0.9,-0.56 2.67,-0.19 0.9,-0.96 0.89,-0.75 0.89,-1.01 0.9,-0.94 2.67,-0.79 0.9,0 0.89,0.1 0.89,-0.02 0.9,-0.36 2.67,-0.16 0.9,-1.27 0.89,-1.22 0.89,-1.11 0.89,-1.58 2.68,-1.39 0.9,-0.91 1.78,-0.63 0.89,0.37 2.68,0.09 0.9,0.7 0.89,0.24 0.89,-0.03 0.89,-0.48 2.68,-0.21 0.89,-0.05 0.9,-0.05 0.89,-0.07 0.89,0.34 2.68,-0.56 0.89,-0.44 0.9,-0.57 0.89,-2.3 0.89,-1.95 2.68,-1.72 0.89,-1.08 0.9,0.29 0.89,-0.1 0.89,0.02 2.68,0.3 0.89,0.61 0.9,0.43 0.89,0.22 0.89,0.14 2.68,0.08 0.89,0.6 0.89,0.59 0.9,0.34 0.89,0.46 2.68,1.1 0.89,2.25 0.89,1.35 0.9,2.14 0.89,1.62 2.68,1.57 0.89,2.4 0.89,2.31 0.9,2.17 0.89,1.44 3.57,1.47 0.89,2.17 0.9,1.87 0.89,2.22 2.68,2.39 0.89,0.97 0.89,0.8 0.89,1.35 0.9,1.62 2.68,2.02 0.89,2.88 0.89,3.12 0.89,3.16 0.9,3.03 2.68,3.24 0.89,2.75 0.89,1.65 0.89,1.35 0.9,1.86 2.67,1.05 0.9,0.73 0.89,1 0.89,1.63 0.9,1.51 2.67,0.69 0.9,-0.19 0.89,0.42 0.89,1.5 0.89,0.82 2.68,1.35 0.9,1.61 0.89,2.17 0.89,1.98 0.89,1.35 2.68,-0.17 0.9,2.04 0.89,0.79 0.89,1.62 0.89,1.32 4.47,1.23 0.89,0.91 0.89,1.07 2.68,-0.27 0.89,0.54 0.9,0.58 0.89,-0.92 0.89,-2.39 2.68,-1.45 0.89,-1.47 0.9,-0.95 0.89,-0.42 0.89,-1.09 2.68,-0.85 0.89,-1.13 0.9,-1.3 1.78,-1.13 2.68,-0.83 0.89,1.07 0.89,1.09 0.9,1.06 0.89,1.48 2.68,1.39 0.89,1.96 0.89,1.4 0.9,-0.97 0.89,-0.34 2.68,-1.19 0.89,-1.28 0.89,-0.67 0.9,-0.7 0.89,-1.24 2.68,-3.03 0.89,-2.75 0.89,-2.26 0.9,-2.67 0.89,-3.03 2.68,-2.73 1.78,-2.5 0.9,-3.13 0.89,-2.91 2.68,-3.17"
           style="fill:none;stroke:#b3b3b3;stroke-opacity:1;stroke-width:1.89;stroke-linecap:butt;stroke-linejoin:round;stroke-miterlimit:1;stroke-dasharray:13.24,5.68;stroke-dashoffset:0"
           id="path110" /></g></g><g
       id="g112"><g
         id="g114"
         clip-path="url(#clipPath116)" /></g><g
       id="g120"><g
         id="g122"
         clip-path="url(#clipPath124)" /></g><g
       id="g128"><g
         id="g130"
         clip-path="url(#clipPath132)"><text
           transform="matrix(1,0,0,-1,20.58,106.2)"
           id="text136"><tspan
             style="fill:#7f7f7f;fill-opacity:1;fill-rule:nonzero;stroke:none;font-family:Courier New;font-variant:normal;font-weight:bold;font-size:9;writing-mode:lr;-inkscape-font-specification:Courier-Bold"
             x="0 5.4 10.8"
             y="0"
             sodipodi:role="line"
             id="tspan138">0.5</tspan></text>
<text
           transform="matrix(1,0,0,-1,20.58,192.01)"
           id="text140"><tspan
             style="fill:#7f7f7f;fill-opacity:1;fill-rule:nonzero;stroke:none;font-family:Courier New;font-variant:normal;font-weight:bold;font-size:9;writing-mode:lr;-inkscape-font-specification:Courier-Bold"
             x="0 5.4 10.8"
             y="0"
             sodipodi:role="line"
             id="tspan142">1.0</tspan></text>
<text
           transform="matrix(1,0,0,-1,20.58,277.82)"
           id="text144"><tspan
             style="fill:#7f7f7f;fill-opacity:1;fill-rule:nonzero;stroke:none;font-family:Courier New;font-variant:normal;font-weight:bold;font-size:9;writing-mode:lr;-inkscape-font-specification:Courier-Bold"
             x="0 5.4 10.8"
             y="0"
             sodipodi:role="line"
             id="tspan146">1.5</tspan></text>
<text
           transform="matrix(1,0,0,-1,20.58,363.64)"
           id="text148"><tspan
             style="fill:#7f7f7f;fill-opacity:1;fill-rule:nonzero;stroke:none;font-family:Courier New;font-variant:normal;font-weight:bold;font-size:9;writing-mode:lr;-inkscape-font-specification:Courier-Bold"
             x="0 5.4 10.8"
             y="0"
             sodipodi:role="line"
             id="tspan150">2.0</tspan></text>
</g></g><g
       id="g152"><g
         id="g154"
         clip-path="url(#clipPath156)" /></g><g
       id="g160"><g
         id="g162"
         clip-path="url(#clipPath164)"><path
           d="m 39.62,108.72 4.25,0"
           style="fill:none;stroke:#7f7f7f;stroke-opacity:1;stroke-width:1.06;stroke-linecap:butt;stroke-linejoin:round;stroke-miterlimit:10;stroke-dasharray:none"
           id="path168" /><path
           d="m 39.62,194.54 4.25,0"
           style="fill:none;stroke:#7f7f7f;stroke-opacity:1;stroke-width:1.06;stroke-linecap:butt;stroke-linejoin:round;stroke-miterlimit:10;stroke-dasharray:none"
           id="path170" /><path
           d="m 39.62,280.35 4.25,0"
           style="fill:none;stroke:#7f7f7f;stroke-opacity:1;stroke-width:1.06;stroke-linecap:butt;stroke-linejoin:round;stroke-miterlimit:10;stroke-dasharray:none"
           id="path172" /><path
           d="m 39.62,366.17 4.25,0"
           style="fill:none;stroke:#7f7f7f;stroke-opacity:1;stroke-width:1.06;stroke-linecap:butt;stroke-linejoin:round;stroke-miterlimit:10;stroke-dasharray:none"
           id="path174" /></g></g><g
       id="g176"><g
         id="g178"
         clip-path="url(#clipPath180)" /></g><g
       id="g184"><g
         id="g186"
         clip-path="url(#clipPath188)" /></g><g
       id="g192"><g
         id="g194"
         clip-path="url(#clipPath196)" /></g><g
       id="g200"><g
         id="g202"
         clip-path="url(#clipPath204)" /></g><g
       id="g208"><g
         id="g210"
         clip-path="url(#clipPath212)" /></g><g
       id="g216"><g
         id="g218"
         clip-path="url(#clipPath220)"><path
           d="m 58.29,74.33 0,4.25"
           style="fill:none;stroke:#7f7f7f;stroke-opacity:1;stroke-width:1.06;stroke-linecap:butt;stroke-linejoin:round;stroke-miterlimit:10;stroke-dasharray:none"
           id="path224" /><path
           d="m 139.53,74.33 0,4.25"
           style="fill:none;stroke:#7f7f7f;stroke-opacity:1;stroke-width:1.06;stroke-linecap:butt;stroke-linejoin:round;stroke-miterlimit:10;stroke-dasharray:none"
           id="path226" /><path
           d="m 220.77,74.33 0,4.25"
           style="fill:none;stroke:#7f7f7f;stroke-opacity:1;stroke-width:1.06;stroke-linecap:butt;stroke-linejoin:round;stroke-miterlimit:10;stroke-dasharray:none"
           id="path228" /><path
           d="m 302.9,74.33 0,4.25"
           style="fill:none;stroke:#7f7f7f;stroke-opacity:1;stroke-width:1.06;stroke-linecap:butt;stroke-linejoin:round;stroke-miterlimit:10;stroke-dasharray:none"
           id="path230" /><path
           d="m 385.04,74.33 0,4.25"
           style="fill:none;stroke:#7f7f7f;stroke-opacity:1;stroke-width:1.06;stroke-linecap:butt;stroke-linejoin:round;stroke-miterlimit:10;stroke-dasharray:none"
           id="path232" /></g></g><g
       id="g234"><g
         id="g236"
         clip-path="url(#clipPath238)" /></g><g
       id="g242"><g
         id="g244"
         clip-path="url(#clipPath246)"><text
           transform="matrix(1,0,0,-1,36.69,66.44)"
           id="text250"><tspan
             style="fill:#7f7f7f;fill-opacity:1;fill-rule:nonzero;stroke:none;font-family:Courier New;font-variant:normal;font-weight:bold;font-size:9;writing-mode:lr;-inkscape-font-specification:Courier-Bold"
             x="0 5.4 10.8 16.2 21.6 27 32.4 37.8"
             y="0"
             sodipodi:role="line"
             id="tspan252">ene 2012</tspan></text>
<text
           transform="matrix(1,0,0,-1,117.93,66.44)"
           id="text254"><tspan
             style="fill:#7f7f7f;fill-opacity:1;fill-rule:nonzero;stroke:none;font-family:Courier New;font-variant:normal;font-weight:bold;font-size:9;writing-mode:lr;-inkscape-font-specification:Courier-Bold"
             x="0 5.4 10.8 16.2 21.6 27 32.4 37.8"
             y="0"
             sodipodi:role="line"
             id="tspan256">abr 2012</tspan></text>
<text
           transform="matrix(1,0,0,-1,199.17,66.44)"
           id="text258"><tspan
             style="fill:#7f7f7f;fill-opacity:1;fill-rule:nonzero;stroke:none;font-family:Courier New;font-variant:normal;font-weight:bold;font-size:9;writing-mode:lr;-inkscape-font-specification:Courier-Bold"
             x="0 5.4 10.8 16.2 21.6 27 32.4 37.8"
             y="0"
             sodipodi:role="line"
             id="tspan260">jul 2012</tspan></text>
<text
           transform="matrix(1,0,0,-1,281.3,66.44)"
           id="text262"><tspan
             style="fill:#7f7f7f;fill-opacity:1;fill-rule:nonzero;stroke:none;font-family:Courier New;font-variant:normal;font-weight:bold;font-size:9;writing-mode:lr;-inkscape-font-specification:Courier-Bold"
             x="0 5.4 10.8 16.2 21.6 27 32.4 37.8"
             y="0"
             sodipodi:role="line"
             id="tspan264">oct 2012</tspan></text>
<text
           transform="matrix(1,0,0,-1,363.44,66.44)"
           id="text266"><tspan
             style="fill:#7f7f7f;fill-opacity:1;fill-rule:nonzero;stroke:none;font-family:Courier New;font-variant:normal;font-weight:bold;font-size:9;writing-mode:lr;-inkscape-font-specification:Courier-Bold"
             x="0 5.4 10.8 16.2 21.6 27 32.4 37.8"
             y="0"
             sodipodi:role="line"
             id="tspan268">ene 2013</tspan></text>
</g></g><g
       id="g270"><g
         id="g272"
         clip-path="url(#clipPath274)" /></g><g
       id="g278"><g
         id="g280"
         clip-path="url(#clipPath282)" /></g><g
       id="g286"><g
         id="g288"
         clip-path="url(#clipPath290)" /></g><g
       id="g294"><g
         id="g296"
         clip-path="url(#clipPath298)" /></g><g
       id="g302"><g
         id="g304"
         clip-path="url(#clipPath306)"><text
           transform="matrix(1,0,0,-1,205.61,56.65)"
           id="text310"><tspan
             style="fill:#000000;fill-opacity:1;fill-rule:nonzero;stroke:none;font-family:Courier New;font-variant:normal;font-weight:bold;font-size:11;writing-mode:lr;-inkscape-font-specification:Courier-Bold"
             x="0 6.6 13.2 19.8 26.4"
             y="0"
             sodipodi:role="line"
             id="tspan312">Fecha</tspan></text>
</g></g><g
       id="g314"><g
         id="g316"
         clip-path="url(#clipPath318)" /></g><g
       id="g322"><g
         id="g324"
         clip-path="url(#clipPath326)"><text
           transform="matrix(0,1,1,0,16.98,208.74)"
           id="text330"><tspan
             style="fill:#000000;fill-opacity:1;fill-rule:nonzero;stroke:none;font-family:Courier New;font-variant:normal;font-weight:bold;font-size:11;writing-mode:lr;-inkscape-font-specification:Courier-Bold"
             x="0 6.6 13.2 19.8 26.4 33 39.6"
             y="0"
             sodipodi:role="line"
             id="tspan332">Valores</tspan></text>
</g></g><g
       id="g334"><g
         id="g336"
         clip-path="url(#clipPath338)" /></g><g
       id="g342"><g
         id="g344"
         clip-path="url(#clipPath346)" /></g><g
       id="g350"><g
         id="g352"
         clip-path="url(#clipPath354)" /></g><g
       id="g358"><g
         id="g360"
         clip-path="url(#clipPath362)" /></g><g
       id="g366"><g
         id="g368"
         clip-path="url(#clipPath370)" /></g><g
       id="g374"><g
         id="g376"
         clip-path="url(#clipPath378)"><path
           d="m 100.68,17.23 242.86,0 0,25.78 -242.86,0 0,-25.78 z"
           style="fill:#ffffff;fill-opacity:1;fill-rule:nonzero;stroke:#000000;stroke-opacity:1;stroke-width:1.06;stroke-linecap:round;stroke-linejoin:round;stroke-miterlimit:10;stroke-dasharray:none"
           id="path382" /></g></g><g
       id="g384"><g
         id="g386"
         clip-path="url(#clipPath388)" /></g><g
       id="g392"><g
         id="g394"
         clip-path="url(#clipPath396)" /></g><g
       id="g400"><g
         id="g402"
         clip-path="url(#clipPath404)" /></g><g
       id="g408"><g
         id="g410"
         clip-path="url(#clipPath412)"><path
           d="m 109.25,21.49 17.28,0 0,17.28 -17.28,0 0,-17.28 z"
           style="fill:#f2f2f2;fill-opacity:1;fill-rule:nonzero;stroke:#ffffff;stroke-opacity:1;stroke-width:1.06;stroke-linecap:round;stroke-linejoin:round;stroke-miterlimit:10;stroke-dasharray:none"
           id="path416" /></g></g><g
       id="g418"><g
         id="g420"
         clip-path="url(#clipPath422)" /></g><g
       id="g426"><g
         id="g428"
         clip-path="url(#clipPath430)"><path
           d="m 110.98,30.13 13.82,0"
           style="fill:none;stroke:#2e2e2e;stroke-opacity:1;stroke-width:1.89;stroke-linecap:butt;stroke-linejoin:round;stroke-miterlimit:10;stroke-dasharray:none"
           id="path434" /></g></g><g
       id="g436"><g
         id="g438"
         clip-path="url(#clipPath440)" /></g><g
       id="g444"><g
         id="g446"
         clip-path="url(#clipPath448)"><path
           d="m 110.98,30.13 13.82,0"
           style="fill:none;stroke:#2e2e2e;stroke-opacity:1;stroke-width:1.89;stroke-linecap:butt;stroke-linejoin:round;stroke-miterlimit:10;stroke-dasharray:13.24,5.68;stroke-dashoffset:0"
           id="path452" /></g></g><g
       id="g454"><g
         id="g456"
         clip-path="url(#clipPath458)" /></g><g
       id="g462"><g
         id="g464"
         clip-path="url(#clipPath466)"><path
           d="m 110.98,30.13 13.82,0"
           style="fill:none;stroke:#2e2e2e;stroke-opacity:1;stroke-width:1.89;stroke-linecap:butt;stroke-linejoin:round;stroke-miterlimit:10;stroke-dasharray:13.24,5.68;stroke-dashoffset:0"
           id="path470" /></g></g><g
       id="g472"><g
         id="g474"
         clip-path="url(#clipPath476)" /></g><g
       id="g480"><g
         id="g482"
         clip-path="url(#clipPath484)"><path
           d="m 152.45,21.49 17.28,0 0,17.28 -17.28,0 0,-17.28 z"
           style="fill:#f2f2f2;fill-opacity:1;fill-rule:nonzero;stroke:#ffffff;stroke-opacity:1;stroke-width:1.06;stroke-linecap:round;stroke-linejoin:round;stroke-miterlimit:10;stroke-dasharray:none"
           id="path488" /></g></g><g
       id="g490"><g
         id="g492"
         clip-path="url(#clipPath494)" /></g><g
       id="g498"><g
         id="g500"
         clip-path="url(#clipPath502)"><path
           d="m 154.18,30.13 13.82,0"
           style="fill:none;stroke:#b3b3b3;stroke-opacity:1;stroke-width:1.89;stroke-linecap:butt;stroke-linejoin:round;stroke-miterlimit:10;stroke-dasharray:none"
           id="path506" /></g></g><g
       id="g508"><g
         id="g510"
         clip-path="url(#clipPath512)" /></g><g
       id="g516"><g
         id="g518"
         clip-path="url(#clipPath520)"><path
           d="m 154.18,30.13 13.82,0"
           style="fill:none;stroke:#b3b3b3;stroke-opacity:1;stroke-width:1.89;stroke-linecap:butt;stroke-linejoin:round;stroke-miterlimit:10;stroke-dasharray:13.24,5.68;stroke-dashoffset:0"
           id="path524" /></g></g><g
       id="g526"><g
         id="g528"
         clip-path="url(#clipPath530)" /></g><g
       id="g534"><g
         id="g536"
         clip-path="url(#clipPath538)"><path
           d="m 154.18,30.13 13.82,0"
           style="fill:none;stroke:#b3b3b3;stroke-opacity:1;stroke-width:1.89;stroke-linecap:butt;stroke-linejoin:round;stroke-miterlimit:10;stroke-dasharray:13.24,5.68;stroke-dashoffset:0"
           id="path542" /></g></g><g
       id="g544"><g
         id="g546"
         clip-path="url(#clipPath548)" /></g><g
       id="g552"><g
         id="g554"
         clip-path="url(#clipPath556)"><text
           transform="matrix(1,0,0,-1,128.69,27.6)"
           id="text560"><tspan
             style="fill:#000000;fill-opacity:1;fill-rule:nonzero;stroke:none;font-family:Courier New;font-variant:normal;font-weight:bold;font-size:9;writing-mode:lr;-inkscape-font-specification:Courier-Bold"
             x="0 5.4 10.8 16.2"
             y="0"
             sodipodi:role="line"
             id="tspan562">Beta</tspan></text>
</g></g><g
       id="g564"><g
         id="g566"
         clip-path="url(#clipPath568)" /></g><g
       id="g572"><g
         id="g574"
         clip-path="url(#clipPath576)"><text
           transform="matrix(1,0,0,-1,171.89,27.6)"
           id="text580"><tspan
             style="fill:#000000;fill-opacity:1;fill-rule:nonzero;stroke:none;font-family:Courier New;font-variant:normal;font-weight:bold;font-size:9;writing-mode:lr;-inkscape-font-specification:Courier-Bold"
             x="0 5.4 10.8 16.2 21.6 27 32.4 37.8 43.2 48.6 54 59.4 64.8 70.2 75.6 81 86.4 91.8 97.2 102.6 108 113.4 118.8 124.2 129.6 135 140.4 145.8 151.2 156.6 162"
             y="0"
             sodipodi:role="line"
             id="tspan582">intervalos de confianza del 95%</tspan></text>
</g></g><g
       id="g584"><g
         id="g586"
         clip-path="url(#clipPath588)" /></g><g
       id="g592"><g
         id="g594"
         clip-path="url(#clipPath596)" /></g><g
       id="g600"><g
         id="g602"
         clip-path="url(#clipPath604)" /></g><g
       id="g608"><g
         id="g610"
         clip-path="url(#clipPath612)" /></g><g
       id="g616"><g
         id="g618"
         clip-path="url(#clipPath620)" /></g><g
       id="g624"><g
         id="g626"
         clip-path="url(#clipPath628)" /></g><g
       id="g632"><g
         id="g634"
         clip-path="url(#clipPath636)" /></g><g
       id="g640"><g
         id="g642"
         clip-path="url(#clipPath644)" /></g><g
       id="g648"><g
         id="g650"
         clip-path="url(#clipPath652)" /></g><g
       id="g656"><g
         id="g658"
         clip-path="url(#clipPath660)"><text
           transform="matrix(1,0,0,-1,93.41,388.69)"
           id="text664"><tspan
             style="fill:#000000;fill-opacity:1;fill-rule:nonzero;stroke:none;font-family:Courier New;font-variant:normal;font-weight:bold;font-size:13;writing-mode:lr;-inkscape-font-specification:Courier-Bold"
             x="0 7.8 15.6 23.4 31.2 39 46.8 54.6 62.4 70.2 78 85.8 93.6 101.4 109.2 117 124.8 132.6 140.4 148.2 156 163.8 171.6 179.4 187.2 195 202.8 210.6 218.4 226.2 234 241.8 249.6"
             y="0"
             sodipodi:role="line"
             id="tspan666">Recorrido de beta (Suavizamiento)</tspan></text>
</g></g><g
       id="g668"><g
         id="g670"
         clip-path="url(#clipPath672)" /></g><g
       id="g676"><g
         id="g678"
         clip-path="url(#clipPath680)" /></g></g></svg>