<?xml version="1.0" encoding="UTF-8" standalone="no"?>
<!-- Created with Inkscape (http://www.inkscape.org/) -->

<svg
   xmlns:dc="http://purl.org/dc/elements/1.1/"
   xmlns:cc="http://creativecommons.org/ns#"
   xmlns:rdf="http://www.w3.org/1999/02/22-rdf-syntax-ns#"
   xmlns:svg="http://www.w3.org/2000/svg"
   xmlns="http://www.w3.org/2000/svg"
   xmlns:sodipodi="http://sodipodi.sourceforge.net/DTD/sodipodi-0.dtd"
   xmlns:inkscape="http://www.inkscape.org/namespaces/inkscape"
   id="svg2"
   version="1.1"
   inkscape:version="0.48.4 r9939"
   width="517.5"
   height="516.25"
   xml:space="preserve"
   sodipodi:docname="1b_betasSmooth.pdf"><metadata
     id="metadata8"><rdf:RDF><cc:Work
         rdf:about=""><dc:format>image/svg+xml</dc:format><dc:type
           rdf:resource="http://purl.org/dc/dcmitype/StillImage" /><dc:title></dc:title></cc:Work></rdf:RDF></metadata><defs
     id="defs6"><clipPath
       clipPathUnits="userSpaceOnUse"
       id="clipPath18"><path
         d="m 0,0 414.75,0 0,414 L 0,414 0,0 z"
         id="path20" /></clipPath><clipPath
       clipPathUnits="userSpaceOnUse"
       id="clipPath26"><path
         d="m 0,0 414.75,0 0,414 L 0,414 0,0 z"
         id="path28" /></clipPath><clipPath
       clipPathUnits="userSpaceOnUse"
       id="clipPath34"><path
         d="m 0,0 414.75,0 0,414 L 0,414 0,0 z"
         id="path36" /></clipPath><clipPath
       clipPathUnits="userSpaceOnUse"
       id="clipPath44"><path
         d="m 0,0 414.75,0 0,414 L 0,414 0,0 z"
         id="path46" /></clipPath><clipPath
       clipPathUnits="userSpaceOnUse"
       id="clipPath52"><path
         d="m 0,0 414.75,0 0,414 L 0,414 0,0 z"
         id="path54" /></clipPath><clipPath
       clipPathUnits="userSpaceOnUse"
       id="clipPath60"><path
         d="m 0,0 414.75,0 0,414 L 0,414 0,0 z"
         id="path62" /></clipPath><clipPath
       clipPathUnits="userSpaceOnUse"
       id="clipPath68"><path
         d="m 43.87,78.58 356.48,0 0,306.51 -356.48,0 0,-306.51 z"
         id="path70" /></clipPath><clipPath
       clipPathUnits="userSpaceOnUse"
       id="clipPath118"><path
         d="m 0,0 414.75,0 0,414 L 0,414 0,0 z"
         id="path120" /></clipPath><clipPath
       clipPathUnits="userSpaceOnUse"
       id="clipPath126"><path
         d="m 0,0 414.75,0 0,414 L 0,414 0,0 z"
         id="path128" /></clipPath><clipPath
       clipPathUnits="userSpaceOnUse"
       id="clipPath134"><path
         d="m 0,0 414.75,0 0,414 L 0,414 0,0 z"
         id="path136" /></clipPath><clipPath
       clipPathUnits="userSpaceOnUse"
       id="clipPath158"><path
         d="m 0,0 414.75,0 0,414 L 0,414 0,0 z"
         id="path160" /></clipPath><clipPath
       clipPathUnits="userSpaceOnUse"
       id="clipPath166"><path
         d="m 0,0 414.75,0 0,414 L 0,414 0,0 z"
         id="path168" /></clipPath><clipPath
       clipPathUnits="userSpaceOnUse"
       id="clipPath182"><path
         d="m 0,0 414.75,0 0,414 L 0,414 0,0 z"
         id="path184" /></clipPath><clipPath
       clipPathUnits="userSpaceOnUse"
       id="clipPath190"><path
         d="m 0,0 414.75,0 0,414 L 0,414 0,0 z"
         id="path192" /></clipPath><clipPath
       clipPathUnits="userSpaceOnUse"
       id="clipPath198"><path
         d="m 0,0 414.75,0 0,414 L 0,414 0,0 z"
         id="path200" /></clipPath><clipPath
       clipPathUnits="userSpaceOnUse"
       id="clipPath206"><path
         d="m 0,0 414.75,0 0,414 L 0,414 0,0 z"
         id="path208" /></clipPath><clipPath
       clipPathUnits="userSpaceOnUse"
       id="clipPath214"><path
         d="m 0,0 414.75,0 0,414 L 0,414 0,0 z"
         id="path216" /></clipPath><clipPath
       clipPathUnits="userSpaceOnUse"
       id="clipPath222"><path
         d="m 0,0 414.75,0 0,414 L 0,414 0,0 z"
         id="path224" /></clipPath><clipPath
       clipPathUnits="userSpaceOnUse"
       id="clipPath240"><path
         d="m 0,0 414.75,0 0,414 L 0,414 0,0 z"
         id="path242" /></clipPath><clipPath
       clipPathUnits="userSpaceOnUse"
       id="clipPath248"><path
         d="m 0,0 414.75,0 0,414 L 0,414 0,0 z"
         id="path250" /></clipPath><clipPath
       clipPathUnits="userSpaceOnUse"
       id="clipPath276"><path
         d="m 0,0 414.75,0 0,414 L 0,414 0,0 z"
         id="path278" /></clipPath><clipPath
       clipPathUnits="userSpaceOnUse"
       id="clipPath284"><path
         d="m 0,0 414.75,0 0,414 L 0,414 0,0 z"
         id="path286" /></clipPath><clipPath
       clipPathUnits="userSpaceOnUse"
       id="clipPath292"><path
         d="m 0,0 414.75,0 0,414 L 0,414 0,0 z"
         id="path294" /></clipPath><clipPath
       clipPathUnits="userSpaceOnUse"
       id="clipPath300"><path
         d="m 0,0 414.75,0 0,414 L 0,414 0,0 z"
         id="path302" /></clipPath><clipPath
       clipPathUnits="userSpaceOnUse"
       id="clipPath308"><path
         d="m 0,0 414.75,0 0,414 L 0,414 0,0 z"
         id="path310" /></clipPath><clipPath
       clipPathUnits="userSpaceOnUse"
       id="clipPath320"><path
         d="m 0,0 414.75,0 0,414 L 0,414 0,0 z"
         id="path322" /></clipPath><clipPath
       clipPathUnits="userSpaceOnUse"
       id="clipPath328"><path
         d="m 0,0 414.75,0 0,414 L 0,414 0,0 z"
         id="path330" /></clipPath><clipPath
       clipPathUnits="userSpaceOnUse"
       id="clipPath340"><path
         d="m 0,0 414.75,0 0,414 L 0,414 0,0 z"
         id="path342" /></clipPath><clipPath
       clipPathUnits="userSpaceOnUse"
       id="clipPath348"><path
         d="m 0,0 414.75,0 0,414 L 0,414 0,0 z"
         id="path350" /></clipPath><clipPath
       clipPathUnits="userSpaceOnUse"
       id="clipPath356"><path
         d="m 0,0 414.75,0 0,414 L 0,414 0,0 z"
         id="path358" /></clipPath><clipPath
       clipPathUnits="userSpaceOnUse"
       id="clipPath364"><path
         d="m 0,0 414.75,0 0,414 L 0,414 0,0 z"
         id="path366" /></clipPath><clipPath
       clipPathUnits="userSpaceOnUse"
       id="clipPath372"><path
         d="m 0,0 414.75,0 0,414 L 0,414 0,0 z"
         id="path374" /></clipPath><clipPath
       clipPathUnits="userSpaceOnUse"
       id="clipPath380"><path
         d="m 0,0 414.75,0 0,414 L 0,414 0,0 z"
         id="path382" /></clipPath><clipPath
       clipPathUnits="userSpaceOnUse"
       id="clipPath390"><path
         d="m 0,0 414.75,0 0,414 L 0,414 0,0 z"
         id="path392" /></clipPath><clipPath
       clipPathUnits="userSpaceOnUse"
       id="clipPath398"><path
         d="m 0,0 414.75,0 0,414 L 0,414 0,0 z"
         id="path400" /></clipPath><clipPath
       clipPathUnits="userSpaceOnUse"
       id="clipPath410"><path
         d="m 0,0 414.75,0 0,414 L 0,414 0,0 z"
         id="path412" /></clipPath><clipPath
       clipPathUnits="userSpaceOnUse"
       id="clipPath418"><path
         d="m 0,0 414.75,0 0,414 L 0,414 0,0 z"
         id="path420" /></clipPath><clipPath
       clipPathUnits="userSpaceOnUse"
       id="clipPath428"><path
         d="m 0,0 414.75,0 0,414 L 0,414 0,0 z"
         id="path430" /></clipPath><clipPath
       clipPathUnits="userSpaceOnUse"
       id="clipPath436"><path
         d="m 0,0 414.75,0 0,414 L 0,414 0,0 z"
         id="path438" /></clipPath><clipPath
       clipPathUnits="userSpaceOnUse"
       id="clipPath446"><path
         d="m 0,0 414.75,0 0,414 L 0,414 0,0 z"
         id="path448" /></clipPath><clipPath
       clipPathUnits="userSpaceOnUse"
       id="clipPath454"><path
         d="m 0,0 414.75,0 0,414 L 0,414 0,0 z"
         id="path456" /></clipPath><clipPath
       clipPathUnits="userSpaceOnUse"
       id="clipPath464"><path
         d="m 0,0 414.75,0 0,414 L 0,414 0,0 z"
         id="path466" /></clipPath><clipPath
       clipPathUnits="userSpaceOnUse"
       id="clipPath472"><path
         d="m 0,0 414.75,0 0,414 L 0,414 0,0 z"
         id="path474" /></clipPath><clipPath
       clipPathUnits="userSpaceOnUse"
       id="clipPath482"><path
         d="m 0,0 414.75,0 0,414 L 0,414 0,0 z"
         id="path484" /></clipPath><clipPath
       clipPathUnits="userSpaceOnUse"
       id="clipPath490"><path
         d="m 0,0 414.75,0 0,414 L 0,414 0,0 z"
         id="path492" /></clipPath><clipPath
       clipPathUnits="userSpaceOnUse"
       id="clipPath500"><path
         d="m 0,0 414.75,0 0,414 L 0,414 0,0 z"
         id="path502" /></clipPath><clipPath
       clipPathUnits="userSpaceOnUse"
       id="clipPath508"><path
         d="m 0,0 414.75,0 0,414 L 0,414 0,0 z"
         id="path510" /></clipPath><clipPath
       clipPathUnits="userSpaceOnUse"
       id="clipPath518"><path
         d="m 0,0 414.75,0 0,414 L 0,414 0,0 z"
         id="path520" /></clipPath><clipPath
       clipPathUnits="userSpaceOnUse"
       id="clipPath526"><path
         d="m 0,0 414.75,0 0,414 L 0,414 0,0 z"
         id="path528" /></clipPath><clipPath
       clipPathUnits="userSpaceOnUse"
       id="clipPath538"><path
         d="m 0,0 414.75,0 0,414 L 0,414 0,0 z"
         id="path540" /></clipPath><clipPath
       clipPathUnits="userSpaceOnUse"
       id="clipPath546"><path
         d="m 0,0 414.75,0 0,414 L 0,414 0,0 z"
         id="path548" /></clipPath><clipPath
       clipPathUnits="userSpaceOnUse"
       id="clipPath558"><path
         d="m 0,0 414.75,0 0,414 L 0,414 0,0 z"
         id="path560" /></clipPath><clipPath
       clipPathUnits="userSpaceOnUse"
       id="clipPath566"><path
         d="m 0,0 414.75,0 0,414 L 0,414 0,0 z"
         id="path568" /></clipPath><clipPath
       clipPathUnits="userSpaceOnUse"
       id="clipPath578"><path
         d="m 0,0 414.75,0 0,414 L 0,414 0,0 z"
         id="path580" /></clipPath><clipPath
       clipPathUnits="userSpaceOnUse"
       id="clipPath586"><path
         d="m 0,0 414.75,0 0,414 L 0,414 0,0 z"
         id="path588" /></clipPath><clipPath
       clipPathUnits="userSpaceOnUse"
       id="clipPath594"><path
         d="m 0,0 414.75,0 0,414 L 0,414 0,0 z"
         id="path596" /></clipPath><clipPath
       clipPathUnits="userSpaceOnUse"
       id="clipPath602"><path
         d="m 0,0 414.75,0 0,414 L 0,414 0,0 z"
         id="path604" /></clipPath><clipPath
       clipPathUnits="userSpaceOnUse"
       id="clipPath610"><path
         d="m 0,0 414.75,0 0,414 L 0,414 0,0 z"
         id="path612" /></clipPath><clipPath
       clipPathUnits="userSpaceOnUse"
       id="clipPath618"><path
         d="m 0,0 414.75,0 0,414 L 0,414 0,0 z"
         id="path620" /></clipPath><clipPath
       clipPathUnits="userSpaceOnUse"
       id="clipPath626"><path
         d="m 0,0 414.75,0 0,414 L 0,414 0,0 z"
         id="path628" /></clipPath><clipPath
       clipPathUnits="userSpaceOnUse"
       id="clipPath634"><path
         d="m 0,0 414.75,0 0,414 L 0,414 0,0 z"
         id="path636" /></clipPath><clipPath
       clipPathUnits="userSpaceOnUse"
       id="clipPath642"><path
         d="m 0,0 414.75,0 0,414 L 0,414 0,0 z"
         id="path644" /></clipPath><clipPath
       clipPathUnits="userSpaceOnUse"
       id="clipPath650"><path
         d="m 0,0 414.75,0 0,414 L 0,414 0,0 z"
         id="path652" /></clipPath><clipPath
       clipPathUnits="userSpaceOnUse"
       id="clipPath662"><path
         d="m 0,0 414.75,0 0,414 L 0,414 0,0 z"
         id="path664" /></clipPath><clipPath
       clipPathUnits="userSpaceOnUse"
       id="clipPath670"><path
         d="m 0,0 414.75,0 0,414 L 0,414 0,0 z"
         id="path672" /></clipPath></defs><sodipodi:namedview
     pagecolor="#ffffff"
     bordercolor="#666666"
     borderopacity="1"
     objecttolerance="10"
     gridtolerance="10"
     guidetolerance="10"
     inkscape:pageopacity="0"
     inkscape:pageshadow="2"
     inkscape:window-width="640"
     inkscape:window-height="480"
     id="namedview4"
     showgrid="false"
     inkscape:zoom="0.45714286"
     inkscape:cx="258.75"
     inkscape:cy="258.125"
     inkscape:window-x="0"
     inkscape:window-y="0"
     inkscape:window-maximized="0"
     inkscape:current-layer="g10" /><g
     id="g10"
     inkscape:groupmode="layer"
     inkscape:label="1b_betasSmooth"
     transform="matrix(1.25,0,0,-1.25,0,516.25)"><g
       id="g12" /><g
       id="g14"><g
         id="g16"
         clip-path="url(#clipPath18)" /></g><g
       id="g22"><g
         id="g24"
         clip-path="url(#clipPath26)" /></g><g
       id="g30"><g
         id="g32"
         clip-path="url(#clipPath34)"><path
           d="m 0,0 414.75,0 0,414 L 0,414 0,0 z"
           style="fill:#ffffff;fill-opacity:1;fill-rule:nonzero;stroke:#ffffff;stroke-opacity:1;stroke-width:1.06;stroke-linecap:round;stroke-linejoin:round;stroke-miterlimit:10;stroke-dasharray:none"
           id="path38" /></g></g><g
       id="g40"><g
         id="g42"
         clip-path="url(#clipPath44)" /></g><g
       id="g48"><g
         id="g50"
         clip-path="url(#clipPath52)" /></g><g
       id="g56"><g
         id="g58"
         clip-path="url(#clipPath60)" /></g><g
       id="g64"><g
         id="g66"
         clip-path="url(#clipPath68)"><path
           d="m 43.87,78.58 356.48,0 0,306.51 -356.48,0 0,-306.51 z"
           style="fill:#e5e5e5;fill-opacity:1;fill-rule:nonzero;stroke:none"
           id="path72" /><path
           d="m 43.87,96.36 356.48,0"
           style="fill:none;stroke:#f2f2f2;stroke-opacity:1;stroke-width:0.53;stroke-linecap:butt;stroke-linejoin:round;stroke-miterlimit:10;stroke-dasharray:none"
           id="path74" /><path
           d="m 43.87,178.18 356.48,0"
           style="fill:none;stroke:#f2f2f2;stroke-opacity:1;stroke-width:0.53;stroke-linecap:butt;stroke-linejoin:round;stroke-miterlimit:10;stroke-dasharray:none"
           id="path76" /><path
           d="m 43.87,259.99 356.48,0"
           style="fill:none;stroke:#f2f2f2;stroke-opacity:1;stroke-width:0.53;stroke-linecap:butt;stroke-linejoin:round;stroke-miterlimit:10;stroke-dasharray:none"
           id="path78" /><path
           d="m 43.87,341.81 356.48,0"
           style="fill:none;stroke:#f2f2f2;stroke-opacity:1;stroke-width:0.53;stroke-linecap:butt;stroke-linejoin:round;stroke-miterlimit:10;stroke-dasharray:none"
           id="path80" /><path
           d="m 98.91,78.58 0,306.51"
           style="fill:none;stroke:#f2f2f2;stroke-opacity:1;stroke-width:0.53;stroke-linecap:butt;stroke-linejoin:round;stroke-miterlimit:10;stroke-dasharray:none"
           id="path82" /><path
           d="m 180.15,78.58 0,306.51"
           style="fill:none;stroke:#f2f2f2;stroke-opacity:1;stroke-width:0.53;stroke-linecap:butt;stroke-linejoin:round;stroke-miterlimit:10;stroke-dasharray:none"
           id="path84" /><path
           d="m 261.84,78.58 0,306.51"
           style="fill:none;stroke:#f2f2f2;stroke-opacity:1;stroke-width:0.53;stroke-linecap:butt;stroke-linejoin:round;stroke-miterlimit:10;stroke-dasharray:none"
           id="path86" /><path
           d="m 343.97,78.58 0,306.51"
           style="fill:none;stroke:#f2f2f2;stroke-opacity:1;stroke-width:0.53;stroke-linecap:butt;stroke-linejoin:round;stroke-miterlimit:10;stroke-dasharray:none"
           id="path88" /><path
           d="m 43.87,137.27 356.48,0"
           style="fill:none;stroke:#ffffff;stroke-opacity:1;stroke-width:1.06;stroke-linecap:butt;stroke-linejoin:round;stroke-miterlimit:10;stroke-dasharray:none"
           id="path90" /><path
           d="m 43.87,219.08 356.48,0"
           style="fill:none;stroke:#ffffff;stroke-opacity:1;stroke-width:1.06;stroke-linecap:butt;stroke-linejoin:round;stroke-miterlimit:10;stroke-dasharray:none"
           id="path92" /><path
           d="m 43.87,300.9 356.48,0"
           style="fill:none;stroke:#ffffff;stroke-opacity:1;stroke-width:1.06;stroke-linecap:butt;stroke-linejoin:round;stroke-miterlimit:10;stroke-dasharray:none"
           id="path94" /><path
           d="m 43.87,382.71 356.48,0"
           style="fill:none;stroke:#ffffff;stroke-opacity:1;stroke-width:1.06;stroke-linecap:butt;stroke-linejoin:round;stroke-miterlimit:10;stroke-dasharray:none"
           id="path96" /><path
           d="m 58.29,78.58 0,306.51"
           style="fill:none;stroke:#ffffff;stroke-opacity:1;stroke-width:1.06;stroke-linecap:butt;stroke-linejoin:round;stroke-miterlimit:10;stroke-dasharray:none"
           id="path98" /><path
           d="m 139.53,78.58 0,306.51"
           style="fill:none;stroke:#ffffff;stroke-opacity:1;stroke-width:1.06;stroke-linecap:butt;stroke-linejoin:round;stroke-miterlimit:10;stroke-dasharray:none"
           id="path100" /><path
           d="m 220.77,78.58 0,306.51"
           style="fill:none;stroke:#ffffff;stroke-opacity:1;stroke-width:1.06;stroke-linecap:butt;stroke-linejoin:round;stroke-miterlimit:10;stroke-dasharray:none"
           id="path102" /><path
           d="m 302.9,78.58 0,306.51"
           style="fill:none;stroke:#ffffff;stroke-opacity:1;stroke-width:1.06;stroke-linecap:butt;stroke-linejoin:round;stroke-miterlimit:10;stroke-dasharray:none"
           id="path104" /><path
           d="m 385.04,78.58 0,306.51"
           style="fill:none;stroke:#ffffff;stroke-opacity:1;stroke-width:1.06;stroke-linecap:butt;stroke-linejoin:round;stroke-miterlimit:10;stroke-dasharray:none"
           id="path106" /><path
           d="m 60.07,199.01 0.9,-0.08 0.89,1.37 0.89,1.74 2.68,2.43 0.89,1.81 0.89,1.58 0.9,1.03 0.89,0.65 3.57,0.97 0.89,0.98 0.9,0.43 0.89,-0.34 2.68,0.78 0.89,1.49 0.89,0.24 0.9,1.18 0.89,0.76 2.68,-0.13 0.89,0.74 0.89,0.74 0.9,0.38 0.89,0.11 2.68,-0.01 0.89,0.1 0.89,0.13 0.89,0.55 0.9,0.73 2.68,-0.21 0.89,-0.11 0.89,1.22 0.89,0.67 0.9,0.84 3.57,1.17 0.89,2.27 0.89,2.41 0.9,1.82 2.67,1.69 0.9,1.53 0.89,1.97 0.89,2.28 0.9,2.29 2.67,2.49 0.9,1.66 0.89,2.19 0.89,1.82 0.89,1.97 2.68,1.84 0.9,2.39 0.89,2.46 0.89,3.43 0.89,2.62 2.68,1.53 0.9,1.76 0.89,1.07 0.89,0.54 0.89,0.79 2.68,0.73 0.89,0.81 0.9,1.48 0.89,1.76 0.89,1.38 2.68,1.12 0.89,1.16 0.9,2.36 0.89,1.2 3.57,2.49 0.89,2.57 0.9,2.52 0.89,2.38 0.89,2.24 2.68,2.32 0.89,1.73 0.9,1.88 0.89,0.47 0.89,-0.19 2.68,0.04 0.89,0.95 0.89,0.16 0.9,0.76 0.89,0.48 2.68,0.12 0.89,-0.46 0.89,-0.75 0.9,-0.69 0.89,0.29 2.68,-0.08 0.89,-0.55 0.89,-0.55 0.9,0.36 0.89,0.1 2.68,1.14 0.89,-0.37 0.89,-0.6 0.9,-0.77 0.89,0.15 2.68,-1.51 0.89,-1.44 0.89,-1.06 0.9,-1.25 0.89,-1.45 3.57,-1.55 0.89,-1.45 0.89,0.18 0.9,0.06 2.68,0.2 0.89,0.2 0.89,-0.07 0.89,-0.01 0.9,-0.11 2.67,-0.18 0.9,-0.11 0.89,-0.17 0.89,0.02 0.9,-0.05 2.67,0.05 0.9,0.03 0.89,0.09 0.89,0.06 0.9,0.39 2.67,0.5 0.9,-0.07 0.89,0.04 0.89,-0.14 0.89,-0.4 2.68,-0.22 0.9,-0.09 1.78,-0.12 0.89,0.72 2.68,0.47 0.9,0.68 0.89,0.24 0.89,-0.21 0.89,-0.73 2.68,-0.74 0.89,-0.45 0.9,-0.45 0.89,-0.35 0.89,-0.15 2.68,-1.43 0.89,-1.71 0.9,-0.9 0.89,-2.1 0.89,-2 2.68,-1.93 0.89,-1.53 0.9,-0.7 0.89,-1.2 0.89,-0.66 2.68,-0.62 0.89,-0.51 0.9,-0.74 0.89,-0.74 0.89,-0.39 2.68,0.77 0.89,1.25 0.89,1.6 0.9,1.47 0.89,1.46 2.68,1.77 0.89,2.35 0.89,2.11 0.9,2.38 0.89,2.21 2.68,2.17 0.89,2.83 0.89,3.01 0.9,2.75 0.89,2.77 3.57,2.98 0.89,2.54 0.9,2.07 0.89,2.01 2.68,1.66 0.89,1.31 0.89,1.18 0.89,1.05 0.9,1.03 2.68,1.15 0.89,1.99 0.89,1.76 0.89,1.82 0.9,2.33 2.68,2.41 0.89,1.41 0.89,1.81 0.89,1.85 0.9,1.65 2.67,1.19 0.9,1.05 0.89,1.15 0.89,1.15 0.9,1.01 2.67,0.89 0.9,0.76 0.89,1.44 0.89,1.98 0.89,1.55 2.68,2.29 0.9,2.6 0.89,2.54 0.89,2.26 0.89,2.32 2.68,1.9 0.9,2.62 0.89,0.05 0.89,0.8 0.89,0.6 4.47,0.68 0.89,0.81 0.89,0.97 2.68,0.51 0.89,0.61 0.9,0.55 0.89,0.37 0.89,0.45 2.68,0.91 0.89,0.09 0.9,-1.19 0.89,-0.37 0.89,-0.8 2.68,-0.79 0.89,-0.85 0.9,-0.67 1.78,-0.54 2.68,-0.44 0.89,0.08 0.89,-0.21 0.9,-0.18 0.89,-0.2 2.68,-0.28 0.89,0.54 0.89,-0.23 0.9,-1.01 0.89,-1.02 2.68,-1.59 0.89,-1.44 0.89,-1.08 0.9,-0.83 0.89,-0.74 2.68,-2.12 0.89,-2.03 0.89,-1.68 0.9,-1.57 0.89,-1.58 2.68,-0.31 1.78,-0.82 0.9,-0.76 0.89,-0.34 2.68,0"
           style="fill:none;stroke:#000000;stroke-opacity:1;stroke-width:2.13;stroke-linecap:butt;stroke-linejoin:round;stroke-miterlimit:1;stroke-dasharray:none"
           id="path108" /><path
           d="m 60.07,222.01 0.9,-0.04 0.89,0.57 0.89,0.73 2.68,1.01 0.89,0.75 0.89,0.66 0.9,0.43 0.89,0.27 3.57,0.4 0.89,0.41 0.9,0.18 0.89,-0.14 2.68,0.32 0.89,0.62 0.89,0.11 0.9,0.48 0.89,0.32 2.68,-0.05 0.89,0.31 0.89,0.3 0.9,0.16 0.89,0.05 2.68,0 0.89,0.04 0.89,0.05 0.89,0.23 0.9,0.31 2.68,-0.09 0.89,-0.05 0.89,0.51 0.89,0.28 0.9,0.35 3.57,0.49 0.89,0.94 0.89,1.01 0.9,0.75 2.67,0.71 0.9,0.63 0.89,0.82 0.89,0.95 0.9,0.95 2.67,1.05 0.9,0.69 0.89,0.9 0.89,0.77 0.89,0.81 2.68,0.77 0.9,0.99 0.89,1.03 0.89,1.43 0.89,1.09 2.68,0.64 0.9,0.73 0.89,0.44 0.89,0.23 0.89,0.33 2.68,0.3 0.89,0.34 0.9,0.61 0.89,0.74 0.89,0.57 2.68,0.47 0.89,0.48 0.9,0.98 0.89,0.5 3.57,1.04 0.89,1.07 0.9,1.04 0.89,1 0.89,0.93 2.68,0.96 0.89,0.72 0.9,0.79 0.89,0.19 0.89,-0.08 2.68,0.02 0.89,0.4 0.89,0.06 0.9,0.32 0.89,0.2 2.68,0.05 0.89,-0.19 0.89,-0.31 0.9,-0.29 0.89,0.12 2.68,-0.03 0.89,-0.23 0.89,-0.23 0.9,0.15 0.89,0.04 2.68,0.48 0.89,-0.16 0.89,-0.25 0.9,-0.32 0.89,0.07 2.68,-0.63 0.89,-0.6 0.89,-0.44 0.9,-0.52 0.89,-0.61 3.57,-0.64 0.89,-0.61 0.89,0.08 0.9,0.03 2.68,0.08 0.89,0.08 0.89,-0.03 0.89,0 0.9,-0.04 2.67,-0.08 0.9,-0.05 0.89,-0.07 0.89,0.01 0.9,-0.02 2.67,0.02 0.9,0.02 0.89,0.03 0.89,0.03 0.9,0.16 2.67,0.21 0.9,-0.03 0.89,0.02 0.89,-0.06 0.89,-0.17 2.68,-0.09 0.9,-0.04 1.78,-0.05 0.89,0.3 2.68,0.2 0.9,0.28 0.89,0.1 0.89,-0.08 0.89,-0.31 2.68,-0.31 0.89,-0.18 0.9,-0.19 0.89,-0.15 0.89,-0.06 2.68,-0.6 0.89,-0.7 0.9,-0.38 0.89,-0.88 0.89,-0.83 2.68,-0.8 0.89,-0.64 0.9,-0.29 0.89,-0.5 0.89,-0.28 2.68,-0.25 0.89,-0.22 0.9,-0.3 0.89,-0.31 0.89,-0.16 2.68,0.31 0.89,0.53 0.89,0.66 0.9,0.61 0.89,0.61 2.68,0.74 0.89,0.98 0.89,0.87 0.9,0.99 0.89,0.92 2.68,0.91 0.89,1.17 0.89,1.26 0.9,1.14 0.89,1.15 3.57,1.24 0.89,1.06 0.9,0.86 0.89,0.84 2.68,0.69 0.89,0.54 0.89,0.49 0.89,0.44 0.9,0.42 2.68,0.48 0.89,0.83 0.89,0.73 0.89,0.76 0.9,0.97 2.68,1 0.89,0.59 0.89,0.76 0.89,0.76 0.9,0.69 2.67,0.49 0.9,0.44 0.89,0.48 0.89,0.48 0.9,0.42 2.67,0.37 0.9,0.31 0.89,0.6 0.89,0.83 0.89,0.64 2.68,0.95 0.9,1.09 0.89,1.05 0.89,0.94 0.89,0.97 2.68,0.78 0.9,1.1 0.89,0.02 0.89,0.33 0.89,0.25 4.47,0.28 0.89,0.34 0.89,0.4 2.68,0.21 0.89,0.26 0.9,0.23 0.89,0.15 0.89,0.19 2.68,0.38 0.89,0.04 0.9,-0.5 0.89,-0.16 0.89,-0.33 2.68,-0.33 0.89,-0.35 0.9,-0.28 1.78,-0.22 2.68,-0.19 0.89,0.04 0.89,-0.09 0.9,-0.08 0.89,-0.08 2.68,-0.12 0.89,0.23 0.89,-0.1 0.9,-0.42 0.89,-0.42 2.68,-0.67 0.89,-0.6 0.89,-0.44 0.9,-0.35 0.89,-0.31 2.68,-0.88 0.89,-0.85 0.89,-0.69 0.9,-0.66 0.89,-0.66 2.68,-0.12 1.78,-0.34 0.9,-0.32 0.89,-0.14 2.68,0"
           style="fill:none;stroke:#000000;stroke-opacity:1;stroke-width:2.13;stroke-linecap:butt;stroke-linejoin:round;stroke-miterlimit:1;stroke-dasharray:4.25,4.25;stroke-dashoffset:0"
           id="path110" /><path
           d="m 60.07,239.71 0.9,0.07 0.89,-1.17 0.89,-1.49 2.68,-2.07 0.89,-1.55 0.89,-1.35 0.9,-0.89 0.89,-0.55 3.57,-0.83 0.89,-0.84 0.9,-0.37 0.89,0.3 2.68,-0.67 0.89,-1.28 0.89,-0.21 0.9,-1 0.89,-0.65 2.68,0.11 0.89,-0.64 0.89,-0.63 0.9,-0.33 0.89,-0.09 2.68,0.01 0.89,-0.08 0.89,-0.11 0.89,-0.47 0.9,-0.63 2.68,0.18 0.89,0.1 0.89,-1.05 0.89,-0.57 0.9,-0.72 3.57,-1 0.89,-1.95 0.89,-2.05 0.9,-1.56 2.67,-1.44 0.9,-1.32 0.89,-1.68 0.89,-1.95 0.9,-1.95 2.67,-2.14 0.9,-1.42 0.89,-1.86 0.89,-1.57 0.89,-1.68 2.68,-1.57 0.9,-2.04 0.89,-2.11 0.89,-2.93 0.89,-2.24 2.68,-1.31 0.9,-1.5 0.89,-0.92 0.89,-0.46 0.89,-0.68 2.68,-0.62 0.89,-0.69 0.9,-1.27 0.89,-1.5 0.89,-1.18 2.68,-0.96 0.89,-1 0.9,-2.01 0.89,-1.03 3.57,-2.12 0.89,-2.21 0.9,-2.15 0.89,-2.03 0.89,-1.92 2.68,-1.98 0.89,-1.48 0.9,-1.61 0.89,-0.4 0.89,0.16 2.68,-0.04 0.89,-0.81 0.89,-0.13 0.9,-0.65 0.89,-0.41 2.68,-0.1 0.89,0.39 0.89,0.64 0.9,0.59 0.89,-0.25 2.68,0.07 0.89,0.47 0.89,0.47 0.9,-0.31 0.89,-0.09 2.68,-0.97 0.89,0.32 0.89,0.51 0.9,0.66 0.89,-0.13 2.68,1.29 0.89,1.23 0.89,0.91 0.9,1.06 0.89,1.25 3.57,1.32 0.89,1.25 0.89,-0.16 0.9,-0.05 2.68,-0.17 0.89,-0.18 0.89,0.07 0.89,0 0.9,0.1 2.67,0.15 0.9,0.1 0.89,0.14 0.89,-0.02 0.9,0.05 2.67,-0.05 0.9,-0.02 0.89,-0.08 0.89,-0.05 0.9,-0.33 2.67,-0.43 0.9,0.06 0.89,-0.03 0.89,0.11 0.89,0.35 2.68,0.19 0.9,0.07 1.78,0.1 0.89,-0.61 2.68,-0.41 0.9,-0.58 0.89,-0.2 0.89,0.18 0.89,0.62 2.68,0.64 0.89,0.38 0.9,0.38 0.89,0.31 0.89,0.12 2.68,1.23 0.89,1.45 0.9,0.78 0.89,1.8 0.89,1.7 2.68,1.65 0.89,1.31 0.9,0.6 0.89,1.02 0.89,0.57 2.68,0.53 0.89,0.44 0.9,0.63 0.89,0.63 0.89,0.33 2.68,-0.65 0.89,-1.07 0.89,-1.37 0.9,-1.26 0.89,-1.24 2.68,-1.51 0.89,-2.02 0.89,-1.8 0.9,-2.03 0.89,-1.89 2.68,-1.86 0.89,-2.42 0.89,-2.58 0.9,-2.35 0.89,-2.37 3.57,-2.54 0.89,-2.17 0.9,-1.77 0.89,-1.72 2.68,-1.42 0.89,-1.12 0.89,-1.01 0.89,-0.9 0.9,-0.88 2.68,-0.98 0.89,-1.7 0.89,-1.5 0.89,-1.56 0.9,-2 2.68,-2.06 0.89,-1.2 0.89,-1.55 0.89,-1.58 0.9,-1.41 2.67,-1.02 0.9,-0.9 0.89,-0.98 0.89,-0.99 0.9,-0.86 2.67,-0.76 0.9,-0.64 0.89,-1.24 0.89,-1.7 0.89,-1.31 2.68,-1.96 0.9,-2.23 0.89,-2.17 0.89,-1.93 0.89,-1.98 2.68,-1.63 0.9,-2.24 0.89,-0.04 0.89,-0.69 0.89,-0.51 4.47,-0.58 0.89,-0.69 0.89,-0.83 2.68,-0.44 0.89,-0.52 0.9,-0.47 0.89,-0.31 0.89,-0.39 2.68,-0.78 0.89,-0.08 0.9,1.02 0.89,0.32 0.89,0.68 2.68,0.68 0.89,0.73 0.9,0.57 1.78,0.46 2.68,0.37 0.89,-0.06 0.89,0.18 0.9,0.15 0.89,0.17 2.68,0.24 0.89,-0.46 0.89,0.19 0.9,0.87 0.89,0.87 2.68,1.36 0.89,1.23 0.89,0.92 0.9,0.72 0.89,0.63 2.68,1.81 0.89,1.74 0.89,1.43 0.9,1.35 0.89,1.35 2.68,0.26 1.78,0.7 0.9,0.65 0.89,0.29 2.68,0"
           style="fill:none;stroke:#000000;stroke-opacity:1;stroke-width:2.13;stroke-linecap:butt;stroke-linejoin:round;stroke-miterlimit:1;stroke-dasharray:8.5,4.25;stroke-dashoffset:0"
           id="path112" /></g></g><g
       id="g114"><g
         id="g116"
         clip-path="url(#clipPath118)" /></g><g
       id="g122"><g
         id="g124"
         clip-path="url(#clipPath126)" /></g><g
       id="g130"><g
         id="g132"
         clip-path="url(#clipPath134)"><text
           transform="matrix(1,0,0,-1,20.58,134.74)"
           id="text138"><tspan
             style="fill:#7f7f7f;fill-opacity:1;fill-rule:nonzero;stroke:none;font-family:Courier New;font-variant:normal;font-weight:bold;font-size:9;writing-mode:lr;-inkscape-font-specification:Courier-Bold"
             x="0 5.4 10.8"
             y="0"
             sodipodi:role="line"
             id="tspan140">0.6</tspan></text>
<text
           transform="matrix(1,0,0,-1,20.58,216.56)"
           id="text142"><tspan
             style="fill:#7f7f7f;fill-opacity:1;fill-rule:nonzero;stroke:none;font-family:Courier New;font-variant:normal;font-weight:bold;font-size:9;writing-mode:lr;-inkscape-font-specification:Courier-Bold"
             x="0 5.4 10.8"
             y="0"
             sodipodi:role="line"
             id="tspan144">0.9</tspan></text>
<text
           transform="matrix(1,0,0,-1,20.58,298.37)"
           id="text146"><tspan
             style="fill:#7f7f7f;fill-opacity:1;fill-rule:nonzero;stroke:none;font-family:Courier New;font-variant:normal;font-weight:bold;font-size:9;writing-mode:lr;-inkscape-font-specification:Courier-Bold"
             x="0 5.4 10.8"
             y="0"
             sodipodi:role="line"
             id="tspan148">1.2</tspan></text>
<text
           transform="matrix(1,0,0,-1,20.58,380.19)"
           id="text150"><tspan
             style="fill:#7f7f7f;fill-opacity:1;fill-rule:nonzero;stroke:none;font-family:Courier New;font-variant:normal;font-weight:bold;font-size:9;writing-mode:lr;-inkscape-font-specification:Courier-Bold"
             x="0 5.4 10.8"
             y="0"
             sodipodi:role="line"
             id="tspan152">1.5</tspan></text>
</g></g><g
       id="g154"><g
         id="g156"
         clip-path="url(#clipPath158)" /></g><g
       id="g162"><g
         id="g164"
         clip-path="url(#clipPath166)"><path
           d="m 39.62,137.27 4.25,0"
           style="fill:none;stroke:#7f7f7f;stroke-opacity:1;stroke-width:1.06;stroke-linecap:butt;stroke-linejoin:round;stroke-miterlimit:10;stroke-dasharray:none"
           id="path170" /><path
           d="m 39.62,219.08 4.25,0"
           style="fill:none;stroke:#7f7f7f;stroke-opacity:1;stroke-width:1.06;stroke-linecap:butt;stroke-linejoin:round;stroke-miterlimit:10;stroke-dasharray:none"
           id="path172" /><path
           d="m 39.62,300.9 4.25,0"
           style="fill:none;stroke:#7f7f7f;stroke-opacity:1;stroke-width:1.06;stroke-linecap:butt;stroke-linejoin:round;stroke-miterlimit:10;stroke-dasharray:none"
           id="path174" /><path
           d="m 39.62,382.71 4.25,0"
           style="fill:none;stroke:#7f7f7f;stroke-opacity:1;stroke-width:1.06;stroke-linecap:butt;stroke-linejoin:round;stroke-miterlimit:10;stroke-dasharray:none"
           id="path176" /></g></g><g
       id="g178"><g
         id="g180"
         clip-path="url(#clipPath182)" /></g><g
       id="g186"><g
         id="g188"
         clip-path="url(#clipPath190)" /></g><g
       id="g194"><g
         id="g196"
         clip-path="url(#clipPath198)" /></g><g
       id="g202"><g
         id="g204"
         clip-path="url(#clipPath206)" /></g><g
       id="g210"><g
         id="g212"
         clip-path="url(#clipPath214)" /></g><g
       id="g218"><g
         id="g220"
         clip-path="url(#clipPath222)"><path
           d="m 58.29,74.33 0,4.25"
           style="fill:none;stroke:#7f7f7f;stroke-opacity:1;stroke-width:1.06;stroke-linecap:butt;stroke-linejoin:round;stroke-miterlimit:10;stroke-dasharray:none"
           id="path226" /><path
           d="m 139.53,74.33 0,4.25"
           style="fill:none;stroke:#7f7f7f;stroke-opacity:1;stroke-width:1.06;stroke-linecap:butt;stroke-linejoin:round;stroke-miterlimit:10;stroke-dasharray:none"
           id="path228" /><path
           d="m 220.77,74.33 0,4.25"
           style="fill:none;stroke:#7f7f7f;stroke-opacity:1;stroke-width:1.06;stroke-linecap:butt;stroke-linejoin:round;stroke-miterlimit:10;stroke-dasharray:none"
           id="path230" /><path
           d="m 302.9,74.33 0,4.25"
           style="fill:none;stroke:#7f7f7f;stroke-opacity:1;stroke-width:1.06;stroke-linecap:butt;stroke-linejoin:round;stroke-miterlimit:10;stroke-dasharray:none"
           id="path232" /><path
           d="m 385.04,74.33 0,4.25"
           style="fill:none;stroke:#7f7f7f;stroke-opacity:1;stroke-width:1.06;stroke-linecap:butt;stroke-linejoin:round;stroke-miterlimit:10;stroke-dasharray:none"
           id="path234" /></g></g><g
       id="g236"><g
         id="g238"
         clip-path="url(#clipPath240)" /></g><g
       id="g244"><g
         id="g246"
         clip-path="url(#clipPath248)"><text
           transform="matrix(1,0,0,-1,36.69,66.44)"
           id="text252"><tspan
             style="fill:#7f7f7f;fill-opacity:1;fill-rule:nonzero;stroke:none;font-family:Courier New;font-variant:normal;font-weight:bold;font-size:9;writing-mode:lr;-inkscape-font-specification:Courier-Bold"
             x="0 5.4 10.8 16.2 21.6 27 32.4 37.8"
             y="0"
             sodipodi:role="line"
             id="tspan254">ene 2012</tspan></text>
<text
           transform="matrix(1,0,0,-1,117.93,66.44)"
           id="text256"><tspan
             style="fill:#7f7f7f;fill-opacity:1;fill-rule:nonzero;stroke:none;font-family:Courier New;font-variant:normal;font-weight:bold;font-size:9;writing-mode:lr;-inkscape-font-specification:Courier-Bold"
             x="0 5.4 10.8 16.2 21.6 27 32.4 37.8"
             y="0"
             sodipodi:role="line"
             id="tspan258">abr 2012</tspan></text>
<text
           transform="matrix(1,0,0,-1,199.17,66.44)"
           id="text260"><tspan
             style="fill:#7f7f7f;fill-opacity:1;fill-rule:nonzero;stroke:none;font-family:Courier New;font-variant:normal;font-weight:bold;font-size:9;writing-mode:lr;-inkscape-font-specification:Courier-Bold"
             x="0 5.4 10.8 16.2 21.6 27 32.4 37.8"
             y="0"
             sodipodi:role="line"
             id="tspan262">jul 2012</tspan></text>
<text
           transform="matrix(1,0,0,-1,281.3,66.44)"
           id="text264"><tspan
             style="fill:#7f7f7f;fill-opacity:1;fill-rule:nonzero;stroke:none;font-family:Courier New;font-variant:normal;font-weight:bold;font-size:9;writing-mode:lr;-inkscape-font-specification:Courier-Bold"
             x="0 5.4 10.8 16.2 21.6 27 32.4 37.8"
             y="0"
             sodipodi:role="line"
             id="tspan266">oct 2012</tspan></text>
<text
           transform="matrix(1,0,0,-1,363.44,66.44)"
           id="text268"><tspan
             style="fill:#7f7f7f;fill-opacity:1;fill-rule:nonzero;stroke:none;font-family:Courier New;font-variant:normal;font-weight:bold;font-size:9;writing-mode:lr;-inkscape-font-specification:Courier-Bold"
             x="0 5.4 10.8 16.2 21.6 27 32.4 37.8"
             y="0"
             sodipodi:role="line"
             id="tspan270">ene 2013</tspan></text>
</g></g><g
       id="g272"><g
         id="g274"
         clip-path="url(#clipPath276)" /></g><g
       id="g280"><g
         id="g282"
         clip-path="url(#clipPath284)" /></g><g
       id="g288"><g
         id="g290"
         clip-path="url(#clipPath292)" /></g><g
       id="g296"><g
         id="g298"
         clip-path="url(#clipPath300)" /></g><g
       id="g304"><g
         id="g306"
         clip-path="url(#clipPath308)"><text
           transform="matrix(1,0,0,-1,205.61,56.65)"
           id="text312"><tspan
             style="fill:#000000;fill-opacity:1;fill-rule:nonzero;stroke:none;font-family:Courier New;font-variant:normal;font-weight:bold;font-size:11;writing-mode:lr;-inkscape-font-specification:Courier-Bold"
             x="0 6.6 13.2 19.8 26.4"
             y="0"
             sodipodi:role="line"
             id="tspan314">Fecha</tspan></text>
</g></g><g
       id="g316"><g
         id="g318"
         clip-path="url(#clipPath320)" /></g><g
       id="g324"><g
         id="g326"
         clip-path="url(#clipPath328)"><text
           transform="matrix(0,1,1,0,16.98,208.74)"
           id="text332"><tspan
             style="fill:#000000;fill-opacity:1;fill-rule:nonzero;stroke:none;font-family:Courier New;font-variant:normal;font-weight:bold;font-size:11;writing-mode:lr;-inkscape-font-specification:Courier-Bold"
             x="0 6.6 13.2 19.8 26.4 33 39.6"
             y="0"
             sodipodi:role="line"
             id="tspan334">Valores</tspan></text>
</g></g><g
       id="g336"><g
         id="g338"
         clip-path="url(#clipPath340)" /></g><g
       id="g344"><g
         id="g346"
         clip-path="url(#clipPath348)" /></g><g
       id="g352"><g
         id="g354"
         clip-path="url(#clipPath356)" /></g><g
       id="g360"><g
         id="g362"
         clip-path="url(#clipPath364)" /></g><g
       id="g368"><g
         id="g370"
         clip-path="url(#clipPath372)" /></g><g
       id="g376"><g
         id="g378"
         clip-path="url(#clipPath380)"><path
           d="m 130.38,17.23 183.46,0 0,25.78 -183.46,0 0,-25.78 z"
           style="fill:#ffffff;fill-opacity:1;fill-rule:nonzero;stroke:#000000;stroke-opacity:1;stroke-width:1.06;stroke-linecap:round;stroke-linejoin:round;stroke-miterlimit:10;stroke-dasharray:none"
           id="path384" /></g></g><g
       id="g386"><g
         id="g388"
         clip-path="url(#clipPath390)" /></g><g
       id="g394"><g
         id="g396"
         clip-path="url(#clipPath398)"><text
           transform="matrix(1,0,0,-1,134.63,27.6)"
           id="text402"><tspan
             style="fill:#000000;fill-opacity:1;fill-rule:nonzero;stroke:none;font-family:Courier New;font-variant:normal;font-weight:bold;font-size:9;writing-mode:lr;-inkscape-font-specification:Courier-Bold"
             x="0 5.4 10.8 16.2 21.6 27 32.4 37.8"
             y="0"
             sodipodi:role="line"
             id="tspan404">variable</tspan></text>
</g></g><g
       id="g406"><g
         id="g408"
         clip-path="url(#clipPath410)" /></g><g
       id="g414"><g
         id="g416"
         clip-path="url(#clipPath418)"><path
           d="m 182.15,21.49 17.28,0 0,17.28 -17.28,0 0,-17.28 z"
           style="fill:#f2f2f2;fill-opacity:1;fill-rule:nonzero;stroke:#ffffff;stroke-opacity:1;stroke-width:1.06;stroke-linecap:round;stroke-linejoin:round;stroke-miterlimit:10;stroke-dasharray:none"
           id="path422" /></g></g><g
       id="g424"><g
         id="g426"
         clip-path="url(#clipPath428)" /></g><g
       id="g432"><g
         id="g434"
         clip-path="url(#clipPath436)"><path
           d="m 183.88,30.13 13.82,0"
           style="fill:none;stroke:#000000;stroke-opacity:1;stroke-width:2.13;stroke-linecap:butt;stroke-linejoin:round;stroke-miterlimit:10;stroke-dasharray:none"
           id="path440" /></g></g><g
       id="g442"><g
         id="g444"
         clip-path="url(#clipPath446)" /></g><g
       id="g450"><g
         id="g452"
         clip-path="url(#clipPath454)"><path
           d="m 225.35,21.49 17.28,0 0,17.28 -17.28,0 0,-17.28 z"
           style="fill:#f2f2f2;fill-opacity:1;fill-rule:nonzero;stroke:#ffffff;stroke-opacity:1;stroke-width:1.06;stroke-linecap:round;stroke-linejoin:round;stroke-miterlimit:10;stroke-dasharray:none"
           id="path458" /></g></g><g
       id="g460"><g
         id="g462"
         clip-path="url(#clipPath464)" /></g><g
       id="g468"><g
         id="g470"
         clip-path="url(#clipPath472)"><path
           d="m 227.08,30.13 13.82,0"
           style="fill:none;stroke:#000000;stroke-opacity:1;stroke-width:2.13;stroke-linecap:butt;stroke-linejoin:round;stroke-miterlimit:10;stroke-dasharray:4.25,4.25;stroke-dashoffset:0"
           id="path476" /></g></g><g
       id="g478"><g
         id="g480"
         clip-path="url(#clipPath482)" /></g><g
       id="g486"><g
         id="g488"
         clip-path="url(#clipPath490)"><path
           d="m 268.55,21.49 17.28,0 0,17.28 -17.28,0 0,-17.28 z"
           style="fill:#f2f2f2;fill-opacity:1;fill-rule:nonzero;stroke:#ffffff;stroke-opacity:1;stroke-width:1.06;stroke-linecap:round;stroke-linejoin:round;stroke-miterlimit:10;stroke-dasharray:none"
           id="path494" /></g></g><g
       id="g496"><g
         id="g498"
         clip-path="url(#clipPath500)" /></g><g
       id="g504"><g
         id="g506"
         clip-path="url(#clipPath508)"><path
           d="m 270.28,30.13 13.82,0"
           style="fill:none;stroke:#000000;stroke-opacity:1;stroke-width:2.13;stroke-linecap:butt;stroke-linejoin:round;stroke-miterlimit:10;stroke-dasharray:8.5,4.25;stroke-dashoffset:0"
           id="path512" /></g></g><g
       id="g514"><g
         id="g516"
         clip-path="url(#clipPath518)" /></g><g
       id="g522"><g
         id="g524"
         clip-path="url(#clipPath526)"><text
           transform="matrix(1,0,0,-1,201.59,27.6)"
           id="text530"><tspan
             style="fill:#000000;fill-opacity:1;fill-rule:nonzero;stroke:none;font-family:Courier New;font-variant:normal;font-weight:bold;font-size:9;writing-mode:lr;-inkscape-font-specification:Courier-Bold"
             x="0 5.4 10.8 16.2"
             y="0"
             sodipodi:role="line"
             id="tspan532">AAPL</tspan></text>
</g></g><g
       id="g534"><g
         id="g536"
         clip-path="url(#clipPath538)" /></g><g
       id="g542"><g
         id="g544"
         clip-path="url(#clipPath546)"><text
           transform="matrix(1,0,0,-1,244.79,27.6)"
           id="text550"><tspan
             style="fill:#000000;fill-opacity:1;fill-rule:nonzero;stroke:none;font-family:Courier New;font-variant:normal;font-weight:bold;font-size:9;writing-mode:lr;-inkscape-font-specification:Courier-Bold"
             x="0 5.4 10.8 16.2"
             y="0"
             sodipodi:role="line"
             id="tspan552">MSFT</tspan></text>
</g></g><g
       id="g554"><g
         id="g556"
         clip-path="url(#clipPath558)" /></g><g
       id="g562"><g
         id="g564"
         clip-path="url(#clipPath566)"><text
           transform="matrix(1,0,0,-1,287.99,27.6)"
           id="text570"><tspan
             style="fill:#000000;fill-opacity:1;fill-rule:nonzero;stroke:none;font-family:Courier New;font-variant:normal;font-weight:bold;font-size:9;writing-mode:lr;-inkscape-font-specification:Courier-Bold"
             x="0 5.4 10.8 16.2"
             y="0"
             sodipodi:role="line"
             id="tspan572">YHOO</tspan></text>
</g></g><g
       id="g574"><g
         id="g576"
         clip-path="url(#clipPath578)" /></g><g
       id="g582"><g
         id="g584"
         clip-path="url(#clipPath586)" /></g><g
       id="g590"><g
         id="g592"
         clip-path="url(#clipPath594)" /></g><g
       id="g598"><g
         id="g600"
         clip-path="url(#clipPath602)" /></g><g
       id="g606"><g
         id="g608"
         clip-path="url(#clipPath610)" /></g><g
       id="g614"><g
         id="g616"
         clip-path="url(#clipPath618)" /></g><g
       id="g622"><g
         id="g624"
         clip-path="url(#clipPath626)" /></g><g
       id="g630"><g
         id="g632"
         clip-path="url(#clipPath634)" /></g><g
       id="g638"><g
         id="g640"
         clip-path="url(#clipPath642)" /></g><g
       id="g646"><g
         id="g648"
         clip-path="url(#clipPath650)"><text
           transform="matrix(1,0,0,-1,155.81,388.69)"
           id="text654"><tspan
             style="fill:#000000;fill-opacity:1;fill-rule:nonzero;stroke:none;font-family:Courier New;font-variant:normal;font-weight:bold;font-size:13;writing-mode:lr;-inkscape-font-specification:Courier-Bold"
             x="0 7.8 15.6 23.4 31.2 39 46.8 54.6 62.4 70.2 78 85.8 93.6 101.4 109.2 117 124.8"
             y="0"
             sodipodi:role="line"
             id="tspan656">Betas (Smoothing)</tspan></text>
</g></g><g
       id="g658"><g
         id="g660"
         clip-path="url(#clipPath662)" /></g><g
       id="g666"><g
         id="g668"
         clip-path="url(#clipPath670)" /></g></g></svg>