<?xml version="1.0" encoding="UTF-8" standalone="no"?>
<!-- Created with Inkscape (http://www.inkscape.org/) -->

<svg
   xmlns:dc="http://purl.org/dc/elements/1.1/"
   xmlns:cc="http://creativecommons.org/ns#"
   xmlns:rdf="http://www.w3.org/1999/02/22-rdf-syntax-ns#"
   xmlns:svg="http://www.w3.org/2000/svg"
   xmlns="http://www.w3.org/2000/svg"
   xmlns:sodipodi="http://sodipodi.sourceforge.net/DTD/sodipodi-0.dtd"
   xmlns:inkscape="http://www.inkscape.org/namespaces/inkscape"
   id="svg2"
   version="1.1"
   inkscape:version="0.48.4 r9939"
   width="517.5"
   height="517.5"
   xml:space="preserve"
   sodipodi:docname="dV_GelmanRubin.pdf"><metadata
     id="metadata8"><rdf:RDF><cc:Work
         rdf:about=""><dc:format>image/svg+xml</dc:format><dc:type
           rdf:resource="http://purl.org/dc/dcmitype/StillImage" /><dc:title></dc:title></cc:Work></rdf:RDF></metadata><defs
     id="defs6"><clipPath
       clipPathUnits="userSpaceOnUse"
       id="clipPath18"><path
         d="m 59.04,73.44 325.47,0 0,281.52 -325.47,0 0,-281.52 z"
         id="path20" /></clipPath><clipPath
       clipPathUnits="userSpaceOnUse"
       id="clipPath28"><path
         d="m 0,0 414.75,0 0,414 L 0,414 0,0 z"
         id="path30" /></clipPath><clipPath
       clipPathUnits="userSpaceOnUse"
       id="clipPath96"><path
         d="m 0,0 414.75,0 0,414 L 0,414 0,0 z"
         id="path98" /></clipPath><clipPath
       clipPathUnits="userSpaceOnUse"
       id="clipPath116"><path
         d="m 59.04,73.44 325.47,0 0,281.52 -325.47,0 0,-281.52 z"
         id="path118" /></clipPath></defs><sodipodi:namedview
     pagecolor="#ffffff"
     bordercolor="#666666"
     borderopacity="1"
     objecttolerance="10"
     gridtolerance="10"
     guidetolerance="10"
     inkscape:pageopacity="0"
     inkscape:pageshadow="2"
     inkscape:window-width="640"
     inkscape:window-height="480"
     id="namedview4"
     showgrid="false"
     inkscape:zoom="0.45603865"
     inkscape:cx="258.75"
     inkscape:cy="258.75"
     inkscape:window-x="0"
     inkscape:window-y="0"
     inkscape:window-maximized="0"
     inkscape:current-layer="g10" /><g
     id="g10"
     inkscape:groupmode="layer"
     inkscape:label="dV_GelmanRubin"
     transform="matrix(1.25,0,0,-1.25,0,517.5)"><g
       id="g12" /><g
       id="g14"><g
         id="g16"
         clip-path="url(#clipPath18)"><path
           d="m 71.09,163.25 6.03,-63.47 6.03,-10.89 6.03,9.07 6.03,-7.5 6.03,2.49 6.03,-3.95 6.03,-1.66 6.02,3.78 6.03,-0.37 6.03,-1.13 6.03,3.82 6.03,-5.79 6.03,1.39 6.03,-2.31 6.03,-1.29 6.02,-0.78 6.03,-0.32 6.03,1.55 6.03,0.05 6.03,-0.34 6.03,0 6.03,-1.66 6.03,-0.07 6.02,0.96 6.03,1.83 6.03,0.1 6.03,0.06 6.03,0.48 6.03,-0.04 6.03,1.98 6.03,-0.25 6.02,0.89 6.03,0.48 6.03,-0.59 6.03,0.23 6.03,-0.34 6.03,0.02 6.03,0.52 6.03,-0.4 6.02,-1.03 6.03,0.44 6.03,0.01 6.03,-0.93 6.03,0.36 6.03,0.66 6.03,0.58 6.03,-0.1 6.02,-0.27 6.03,-0.16 5.96,0.89"
           style="fill:none;stroke:#000000;stroke-opacity:1;stroke-width:0.75;stroke-linecap:round;stroke-linejoin:round;stroke-miterlimit:10;stroke-dasharray:none"
           id="path22" /></g></g><g
       id="g24"><g
         id="g26"
         clip-path="url(#clipPath28)"><path
           d="m 67.2,73.44 305.26,0"
           style="fill:none;stroke:#000000;stroke-opacity:1;stroke-width:0.75;stroke-linecap:round;stroke-linejoin:round;stroke-miterlimit:10;stroke-dasharray:none"
           id="path32" /><path
           d="m 67.2,73.44 0,-7.2"
           style="fill:none;stroke:#000000;stroke-opacity:1;stroke-width:0.75;stroke-linecap:round;stroke-linejoin:round;stroke-miterlimit:10;stroke-dasharray:none"
           id="path34" /><path
           d="m 143.52,73.44 0,-7.2"
           style="fill:none;stroke:#000000;stroke-opacity:1;stroke-width:0.75;stroke-linecap:round;stroke-linejoin:round;stroke-miterlimit:10;stroke-dasharray:none"
           id="path36" /><path
           d="m 219.83,73.44 0,-7.2"
           style="fill:none;stroke:#000000;stroke-opacity:1;stroke-width:0.75;stroke-linecap:round;stroke-linejoin:round;stroke-miterlimit:10;stroke-dasharray:none"
           id="path38" /><path
           d="m 296.14,73.44 0,-7.2"
           style="fill:none;stroke:#000000;stroke-opacity:1;stroke-width:0.75;stroke-linecap:round;stroke-linejoin:round;stroke-miterlimit:10;stroke-dasharray:none"
           id="path40" /><path
           d="m 372.46,73.44 0,-7.2"
           style="fill:none;stroke:#000000;stroke-opacity:1;stroke-width:0.75;stroke-linecap:round;stroke-linejoin:round;stroke-miterlimit:10;stroke-dasharray:none"
           id="path42" /><text
           transform="matrix(1,0,0,-1,63.87,47.52)"
           id="text44"><tspan
             style="fill:#000000;fill-opacity:1;fill-rule:nonzero;stroke:none;font-family:Helvetica;font-variant:normal;font-weight:normal;font-size:12;writing-mode:lr;-inkscape-font-specification:Helvetica"
             x="0"
             y="0"
             id="tspan46">0</tspan></text>
<text
           transform="matrix(1,0,0,-1,130.17,47.52)"
           id="text48"><tspan
             style="fill:#000000;fill-opacity:1;fill-rule:nonzero;stroke:none;font-family:Helvetica;font-variant:normal;font-weight:normal;font-size:12;writing-mode:lr;-inkscape-font-specification:Helvetica"
             x="0 6.672 13.344 20.016"
             y="0"
             sodipodi:role="line"
             id="tspan50">1000</tspan></text>
<text
           transform="matrix(1,0,0,-1,206.49,47.52)"
           id="text52"><tspan
             style="fill:#000000;fill-opacity:1;fill-rule:nonzero;stroke:none;font-family:Helvetica;font-variant:normal;font-weight:normal;font-size:12;writing-mode:lr;-inkscape-font-specification:Helvetica"
             x="0 6.672 13.344 20.016"
             y="0"
             sodipodi:role="line"
             id="tspan54">2000</tspan></text>
<text
           transform="matrix(1,0,0,-1,282.8,47.52)"
           id="text56"><tspan
             style="fill:#000000;fill-opacity:1;fill-rule:nonzero;stroke:none;font-family:Helvetica;font-variant:normal;font-weight:normal;font-size:12;writing-mode:lr;-inkscape-font-specification:Helvetica"
             x="0 6.672 13.344 20.016"
             y="0"
             sodipodi:role="line"
             id="tspan58">3000</tspan></text>
<text
           transform="matrix(1,0,0,-1,359.11,47.52)"
           id="text60"><tspan
             style="fill:#000000;fill-opacity:1;fill-rule:nonzero;stroke:none;font-family:Helvetica;font-variant:normal;font-weight:normal;font-size:12;writing-mode:lr;-inkscape-font-specification:Helvetica"
             x="0 6.672 13.344 20.016"
             y="0"
             sodipodi:role="line"
             id="tspan62">4000</tspan></text>
<path
           d="m 59.04,131.43 0,174.04"
           style="fill:none;stroke:#000000;stroke-opacity:1;stroke-width:0.75;stroke-linecap:round;stroke-linejoin:round;stroke-miterlimit:10;stroke-dasharray:none"
           id="path64" /><path
           d="m 59.04,131.43 -7.2,0"
           style="fill:none;stroke:#000000;stroke-opacity:1;stroke-width:0.75;stroke-linecap:round;stroke-linejoin:round;stroke-miterlimit:10;stroke-dasharray:none"
           id="path66" /><path
           d="m 59.04,189.44 -7.2,0"
           style="fill:none;stroke:#000000;stroke-opacity:1;stroke-width:0.75;stroke-linecap:round;stroke-linejoin:round;stroke-miterlimit:10;stroke-dasharray:none"
           id="path68" /><path
           d="m 59.04,247.46 -7.2,0"
           style="fill:none;stroke:#000000;stroke-opacity:1;stroke-width:0.75;stroke-linecap:round;stroke-linejoin:round;stroke-miterlimit:10;stroke-dasharray:none"
           id="path70" /><path
           d="m 59.04,305.47 -7.2,0"
           style="fill:none;stroke:#000000;stroke-opacity:1;stroke-width:0.75;stroke-linecap:round;stroke-linejoin:round;stroke-miterlimit:10;stroke-dasharray:none"
           id="path72" /><text
           transform="matrix(0,1,1,0,41.76,123.09)"
           id="text74"><tspan
             style="fill:#000000;fill-opacity:1;fill-rule:nonzero;stroke:none;font-family:Helvetica;font-variant:normal;font-weight:normal;font-size:12;writing-mode:lr;-inkscape-font-specification:Helvetica"
             x="0 6.672 10.008"
             y="0"
             sodipodi:role="line"
             id="tspan76">1.1</tspan></text>
<text
           transform="matrix(0,1,1,0,41.76,181.1)"
           id="text78"><tspan
             style="fill:#000000;fill-opacity:1;fill-rule:nonzero;stroke:none;font-family:Helvetica;font-variant:normal;font-weight:normal;font-size:12;writing-mode:lr;-inkscape-font-specification:Helvetica"
             x="0 6.672 10.008"
             y="0"
             sodipodi:role="line"
             id="tspan80">1.2</tspan></text>
<text
           transform="matrix(0,1,1,0,41.76,239.12)"
           id="text82"><tspan
             style="fill:#000000;fill-opacity:1;fill-rule:nonzero;stroke:none;font-family:Helvetica;font-variant:normal;font-weight:normal;font-size:12;writing-mode:lr;-inkscape-font-specification:Helvetica"
             x="0 6.672 10.008"
             y="0"
             sodipodi:role="line"
             id="tspan84">1.3</tspan></text>
<text
           transform="matrix(0,1,1,0,41.76,297.13)"
           id="text86"><tspan
             style="fill:#000000;fill-opacity:1;fill-rule:nonzero;stroke:none;font-family:Helvetica;font-variant:normal;font-weight:normal;font-size:12;writing-mode:lr;-inkscape-font-specification:Helvetica"
             x="0 6.672 10.008"
             y="0"
             sodipodi:role="line"
             id="tspan88">1.4</tspan></text>
<path
           d="m 59.04,73.44 325.47,0 0,281.52 -325.47,0 0,-281.52"
           style="fill:none;stroke:#000000;stroke-opacity:1;stroke-width:0.75;stroke-linecap:round;stroke-linejoin:round;stroke-miterlimit:10;stroke-dasharray:none"
           id="path90" /></g></g><g
       id="g92"><g
         id="g94"
         clip-path="url(#clipPath96)"><text
           transform="matrix(1,0,0,-1,217.11,379.45)"
           id="text100"><tspan
             style="fill:#000000;fill-opacity:1;fill-rule:nonzero;stroke:none;font-family:Helvetica;font-variant:normal;font-weight:bold;font-size:14;writing-mode:lr;-inkscape-font-specification:Helvetica-Bold"
             x="0"
             y="0"
             id="tspan102">V</tspan></text>
<text
           transform="matrix(1,0,0,-1,198.83,18.72)"
           id="text104"><tspan
             style="fill:#000000;fill-opacity:1;fill-rule:nonzero;stroke:none;font-family:Helvetica;font-variant:normal;font-weight:normal;font-size:12;writing-mode:lr;-inkscape-font-specification:Helvetica"
             x="0 3.336 6.672 13.344 17.22 23.892 29.892 32.556 39.228"
             y="0"
             sodipodi:role="line"
             id="tspan106">Iteración</tspan></text>
<text
           transform="matrix(0,1,1,0,12.96,178.73)"
           id="text108"><tspan
             style="fill:#000000;fill-opacity:1;fill-rule:nonzero;stroke:none;font-family:Helvetica;font-variant:normal;font-weight:normal;font-size:12;writing-mode:lr;-inkscape-font-specification:Helvetica"
             x="0 8.004 14.676 18.852 21.516 28.188 34.188 37.524 44.256 50.928 56.928 60.264 66.936"
             y="0"
             sodipodi:role="line"
             id="tspan110">Shrink Factor</tspan></text>
</g></g><g
       id="g112"><g
         id="g114"
         clip-path="url(#clipPath116)"><path
           d="m 71.09,344.53 6.03,-191.7 6.03,-30.45 6.03,23.73 6.03,-19.57 6.03,3.53 6.03,-11.54 6.03,-4.62 6.02,9.6 6.03,-0.78 6.03,-1.98 6.03,8.93 6.03,-15.91 6.03,3.7 6.03,-6.06 6.03,-3.2 6.02,-1.42 6.03,-1.35 6.03,4.4 6.03,0.39 6.03,-1.25 6.03,0.36 6.03,-4.57 6.03,-0.05 6.02,3.08 6.03,5.44 6.03,0.45 6.03,-0.01 6.03,1.48 6.03,-0.18 6.03,5.92 6.03,-0.76 6.02,2.52 6.03,1.3 6.03,-1.52 6.03,0.56 6.03,-0.96 6.03,0.03 6.03,1.42 6.03,-1.11 6.02,-2.95 6.03,1.27 6.03,-0.05 6.03,-2.58 6.03,0.98 6.03,1.86 6.03,1.49 6.03,-0.31 6.02,-0.91 6.03,-0.64 5.96,2.49"
           style="fill:none;stroke:#ff0000;stroke-opacity:1;stroke-width:0.75;stroke-linecap:round;stroke-linejoin:round;stroke-miterlimit:10;stroke-dasharray:2.25,3.75;stroke-dashoffset:0"
           id="path120" /><path
           d="m 59.04,73.41 325.47,0"
           style="fill:none;stroke:#000000;stroke-opacity:1;stroke-width:0.75;stroke-linecap:round;stroke-linejoin:round;stroke-miterlimit:10;stroke-dasharray:none"
           id="path122" /><path
           d="m 295.66,330.13 21.6,0"
           style="fill:none;stroke:#000000;stroke-opacity:1;stroke-width:0.75;stroke-linecap:butt;stroke-linejoin:round;stroke-miterlimit:10;stroke-dasharray:none"
           id="path124" /><path
           d="m 295.66,315.73 21.6,0"
           style="fill:none;stroke:#ff0000;stroke-opacity:1;stroke-width:0.75;stroke-linecap:butt;stroke-linejoin:round;stroke-miterlimit:10;stroke-dasharray:3,3;stroke-dashoffset:0"
           id="path126" /><text
           transform="matrix(1,0,0,-1,328.06,325.83)"
           id="text128"><tspan
             style="fill:#000000;fill-opacity:1;fill-rule:nonzero;stroke:none;font-family:Helvetica;font-variant:normal;font-weight:normal;font-size:12;writing-mode:lr;-inkscape-font-specification:Helvetica"
             x="0 9.996 16.668 23.34 26.004 32.676"
             y="0"
             sodipodi:role="line"
             id="tspan130">median</tspan></text>
<text
           transform="matrix(1,0,0,-1,328.06,311.43)"
           id="text132"><tspan
             style="fill:#000000;fill-opacity:1;fill-rule:nonzero;stroke:none;font-family:Helvetica;font-variant:normal;font-weight:normal;font-size:12;writing-mode:lr;-inkscape-font-specification:Helvetica"
             x="0 6.672 13.344 16.68 23.352"
             y="0"
             sodipodi:role="line"
             id="tspan134">97.5%</tspan></text>
</g></g></g></svg>