<?xml version="1.0" encoding="UTF-8" standalone="no"?>
<!-- Created with Inkscape (http://www.inkscape.org/) -->

<svg
   xmlns:dc="http://purl.org/dc/elements/1.1/"
   xmlns:cc="http://creativecommons.org/ns#"
   xmlns:rdf="http://www.w3.org/1999/02/22-rdf-syntax-ns#"
   xmlns:svg="http://www.w3.org/2000/svg"
   xmlns="http://www.w3.org/2000/svg"
   xmlns:sodipodi="http://sodipodi.sourceforge.net/DTD/sodipodi-0.dtd"
   xmlns:inkscape="http://www.inkscape.org/namespaces/inkscape"
   id="svg2"
   version="1.1"
   inkscape:version="0.48.4 r9939"
   width="517.5"
   height="517.5"
   xml:space="preserve"
   sodipodi:docname="dW_GelmanRubin.pdf"><metadata
     id="metadata8"><rdf:RDF><cc:Work
         rdf:about=""><dc:format>image/svg+xml</dc:format><dc:type
           rdf:resource="http://purl.org/dc/dcmitype/StillImage" /><dc:title></dc:title></cc:Work></rdf:RDF></metadata><defs
     id="defs6"><clipPath
       clipPathUnits="userSpaceOnUse"
       id="clipPath18"><path
         d="m 59.04,73.44 118.1,0 0,281.52 -118.1,0 0,-281.52 z"
         id="path20" /></clipPath><clipPath
       clipPathUnits="userSpaceOnUse"
       id="clipPath26"><path
         d="m 59.04,73.44 118.1,0 0,281.52 -118.1,0 0,-281.52 z"
         id="path28" /></clipPath><clipPath
       clipPathUnits="userSpaceOnUse"
       id="clipPath42"><path
         d="m 0,0 414.75,0 0,414 L 0,414 0,0 z"
         id="path44" /></clipPath><clipPath
       clipPathUnits="userSpaceOnUse"
       id="clipPath114"><path
         d="m 0,0 207.38,0 0,414 L 0,414 0,0 z"
         id="path116" /></clipPath><clipPath
       clipPathUnits="userSpaceOnUse"
       id="clipPath130"><path
         d="m 59.04,73.44 118.1,0 0,281.52 -118.1,0 0,-281.52 z"
         id="path132" /></clipPath><clipPath
       clipPathUnits="userSpaceOnUse"
       id="clipPath160"><path
         d="m 0,0 207.38,0 0,414 L 0,414 0,0 z"
         id="path162" /></clipPath><clipPath
       clipPathUnits="userSpaceOnUse"
       id="clipPath172"><path
         d="m 266.41,73.44 118.1,0 0,281.52 -118.1,0 0,-281.52 z"
         id="path174" /></clipPath><clipPath
       clipPathUnits="userSpaceOnUse"
       id="clipPath180"><path
         d="m 266.41,73.44 118.1,0 0,281.52 -118.1,0 0,-281.52 z"
         id="path182" /></clipPath><clipPath
       clipPathUnits="userSpaceOnUse"
       id="clipPath190"><path
         d="m 0,0 414.75,0 0,414 L 0,414 0,0 z"
         id="path192" /></clipPath><clipPath
       clipPathUnits="userSpaceOnUse"
       id="clipPath256"><path
         d="m 207.38,0 207.38,0 0,414 -207.38,0 0,-414 z"
         id="path258" /></clipPath><clipPath
       clipPathUnits="userSpaceOnUse"
       id="clipPath272"><path
         d="m 266.41,73.44 118.1,0 0,281.52 -118.1,0 0,-281.52 z"
         id="path274" /></clipPath><clipPath
       clipPathUnits="userSpaceOnUse"
       id="clipPath296"><path
         d="m 207.38,0 207.38,0 0,414 -207.38,0 0,-414 z"
         id="path298" /></clipPath></defs><sodipodi:namedview
     pagecolor="#ffffff"
     bordercolor="#666666"
     borderopacity="1"
     objecttolerance="10"
     gridtolerance="10"
     guidetolerance="10"
     inkscape:pageopacity="0"
     inkscape:pageshadow="2"
     inkscape:window-width="640"
     inkscape:window-height="480"
     id="namedview4"
     showgrid="false"
     inkscape:zoom="0.45603865"
     inkscape:cx="258.75"
     inkscape:cy="258.75"
     inkscape:window-x="0"
     inkscape:window-y="0"
     inkscape:window-maximized="0"
     inkscape:current-layer="g10" /><g
     id="g10"
     inkscape:groupmode="layer"
     inkscape:label="dW_GelmanRubin"
     transform="matrix(1.25,0,0,-1.25,0,517.5)"><g
       id="g12" /><g
       id="g14"><g
         id="g16"
         clip-path="url(#clipPath18)" /></g><g
       id="g22"><g
         id="g24"
         clip-path="url(#clipPath26)"><path
           d="m 63.41,154.44 2.19,-23.18 2.19,-9.72 2.19,-15.89 2.18,9.24 2.19,5.74 2.19,1.21 2.19,1.79 2.18,-11.03 2.19,8.04 2.19,-6.32 2.19,-30.45 2.18,59.35 2.19,-28.35 2.19,-11.89 2.19,25.55 2.18,-18.07 2.19,-17.33 2.19,0.11 2.19,46.42 2.18,-28.08 2.19,57.89 2.19,-44.13 2.19,-1.76 2.18,-24.1 2.19,25.5 2.19,-14.71 2.19,36.83"
           style="fill:none;stroke:#000000;stroke-opacity:1;stroke-width:0.75;stroke-linecap:round;stroke-linejoin:round;stroke-miterlimit:10;stroke-dasharray:none"
           id="path30" /><path
           d="m 126.85,92.86 2.19,67.71 2.19,-22.21 2.18,-48.69 2.19,16.68"
           style="fill:none;stroke:#000000;stroke-opacity:1;stroke-width:0.75;stroke-linecap:round;stroke-linejoin:round;stroke-miterlimit:10;stroke-dasharray:none"
           id="path32" /><path
           d="m 139.98,122.07 2.18,34.41 2.19,-30.8 2.19,-3.28 2.19,2.96 2.18,-18.26 2.19,30.38 2.19,-22.77 2.19,-2.68 2.18,12.18"
           style="fill:none;stroke:#000000;stroke-opacity:1;stroke-width:0.75;stroke-linecap:round;stroke-linejoin:round;stroke-miterlimit:10;stroke-dasharray:none"
           id="path34" /><path
           d="m 164.04,129.95 2.19,177.68 2.18,-181.64 2.19,218.47 2.16,-217.64"
           style="fill:none;stroke:#000000;stroke-opacity:1;stroke-width:0.75;stroke-linecap:round;stroke-linejoin:round;stroke-miterlimit:10;stroke-dasharray:none"
           id="path36" /></g></g><g
       id="g38"><g
         id="g40"
         clip-path="url(#clipPath42)"><path
           d="m 62,73.44 110.76,0"
           style="fill:none;stroke:#000000;stroke-opacity:1;stroke-width:0.75;stroke-linecap:round;stroke-linejoin:round;stroke-miterlimit:10;stroke-dasharray:none"
           id="path46" /><path
           d="m 62,73.44 0,-7.2"
           style="fill:none;stroke:#000000;stroke-opacity:1;stroke-width:0.75;stroke-linecap:round;stroke-linejoin:round;stroke-miterlimit:10;stroke-dasharray:none"
           id="path48" /><path
           d="m 89.69,73.44 0,-7.2"
           style="fill:none;stroke:#000000;stroke-opacity:1;stroke-width:0.75;stroke-linecap:round;stroke-linejoin:round;stroke-miterlimit:10;stroke-dasharray:none"
           id="path50" /><path
           d="m 117.38,73.44 0,-7.2"
           style="fill:none;stroke:#000000;stroke-opacity:1;stroke-width:0.75;stroke-linecap:round;stroke-linejoin:round;stroke-miterlimit:10;stroke-dasharray:none"
           id="path52" /><path
           d="m 145.07,73.44 0,-7.2"
           style="fill:none;stroke:#000000;stroke-opacity:1;stroke-width:0.75;stroke-linecap:round;stroke-linejoin:round;stroke-miterlimit:10;stroke-dasharray:none"
           id="path54" /><path
           d="m 172.76,73.44 0,-7.2"
           style="fill:none;stroke:#000000;stroke-opacity:1;stroke-width:0.75;stroke-linecap:round;stroke-linejoin:round;stroke-miterlimit:10;stroke-dasharray:none"
           id="path56" /><text
           transform="matrix(1,0,0,-1,58.67,47.52)"
           id="text58"><tspan
             style="fill:#000000;fill-opacity:1;fill-rule:nonzero;stroke:none;font-family:Helvetica;font-variant:normal;font-weight:normal;font-size:12;writing-mode:lr;-inkscape-font-specification:Helvetica"
             x="0"
             y="0"
             id="tspan60">0</tspan></text>
<text
           transform="matrix(1,0,0,-1,76.35,47.52)"
           id="text62"><tspan
             style="fill:#000000;fill-opacity:1;fill-rule:nonzero;stroke:none;font-family:Helvetica;font-variant:normal;font-weight:normal;font-size:12;writing-mode:lr;-inkscape-font-specification:Helvetica"
             x="0 6.672 13.344 20.016"
             y="0"
             sodipodi:role="line"
             id="tspan64">1000</tspan></text>
<text
           transform="matrix(1,0,0,-1,131.73,47.52)"
           id="text66"><tspan
             style="fill:#000000;fill-opacity:1;fill-rule:nonzero;stroke:none;font-family:Helvetica;font-variant:normal;font-weight:normal;font-size:12;writing-mode:lr;-inkscape-font-specification:Helvetica"
             x="0 6.672 13.344 20.016"
             y="0"
             sodipodi:role="line"
             id="tspan68">3000</tspan></text>
<path
           d="m 59.04,97.12 0,228.87"
           style="fill:none;stroke:#000000;stroke-opacity:1;stroke-width:0.75;stroke-linecap:round;stroke-linejoin:round;stroke-miterlimit:10;stroke-dasharray:none"
           id="path70" /><path
           d="m 59.04,97.12 -7.2,0"
           style="fill:none;stroke:#000000;stroke-opacity:1;stroke-width:0.75;stroke-linecap:round;stroke-linejoin:round;stroke-miterlimit:10;stroke-dasharray:none"
           id="path72" /><path
           d="m 59.04,142.89 -7.2,0"
           style="fill:none;stroke:#000000;stroke-opacity:1;stroke-width:0.75;stroke-linecap:round;stroke-linejoin:round;stroke-miterlimit:10;stroke-dasharray:none"
           id="path74" /><path
           d="m 59.04,188.66 -7.2,0"
           style="fill:none;stroke:#000000;stroke-opacity:1;stroke-width:0.75;stroke-linecap:round;stroke-linejoin:round;stroke-miterlimit:10;stroke-dasharray:none"
           id="path76" /><path
           d="m 59.04,234.44 -7.2,0"
           style="fill:none;stroke:#000000;stroke-opacity:1;stroke-width:0.75;stroke-linecap:round;stroke-linejoin:round;stroke-miterlimit:10;stroke-dasharray:none"
           id="path78" /><path
           d="m 59.04,280.21 -7.2,0"
           style="fill:none;stroke:#000000;stroke-opacity:1;stroke-width:0.75;stroke-linecap:round;stroke-linejoin:round;stroke-miterlimit:10;stroke-dasharray:none"
           id="path80" /><path
           d="m 59.04,325.99 -7.2,0"
           style="fill:none;stroke:#000000;stroke-opacity:1;stroke-width:0.75;stroke-linecap:round;stroke-linejoin:round;stroke-miterlimit:10;stroke-dasharray:none"
           id="path82" /><text
           transform="matrix(0,1,1,0,41.76,88.78)"
           id="text84"><tspan
             style="fill:#000000;fill-opacity:1;fill-rule:nonzero;stroke:none;font-family:Helvetica;font-variant:normal;font-weight:normal;font-size:12;writing-mode:lr;-inkscape-font-specification:Helvetica"
             x="0 6.672 10.008"
             y="0"
             sodipodi:role="line"
             id="tspan86">1.5</tspan></text>
<text
           transform="matrix(0,1,1,0,41.76,134.55)"
           id="text88"><tspan
             style="fill:#000000;fill-opacity:1;fill-rule:nonzero;stroke:none;font-family:Helvetica;font-variant:normal;font-weight:normal;font-size:12;writing-mode:lr;-inkscape-font-specification:Helvetica"
             x="0 6.672 10.008"
             y="0"
             sodipodi:role="line"
             id="tspan90">2.0</tspan></text>
<text
           transform="matrix(0,1,1,0,41.76,180.32)"
           id="text92"><tspan
             style="fill:#000000;fill-opacity:1;fill-rule:nonzero;stroke:none;font-family:Helvetica;font-variant:normal;font-weight:normal;font-size:12;writing-mode:lr;-inkscape-font-specification:Helvetica"
             x="0 6.672 10.008"
             y="0"
             sodipodi:role="line"
             id="tspan94">2.5</tspan></text>
<text
           transform="matrix(0,1,1,0,41.76,226.1)"
           id="text96"><tspan
             style="fill:#000000;fill-opacity:1;fill-rule:nonzero;stroke:none;font-family:Helvetica;font-variant:normal;font-weight:normal;font-size:12;writing-mode:lr;-inkscape-font-specification:Helvetica"
             x="0 6.672 10.008"
             y="0"
             sodipodi:role="line"
             id="tspan98">3.0</tspan></text>
<text
           transform="matrix(0,1,1,0,41.76,271.87)"
           id="text100"><tspan
             style="fill:#000000;fill-opacity:1;fill-rule:nonzero;stroke:none;font-family:Helvetica;font-variant:normal;font-weight:normal;font-size:12;writing-mode:lr;-inkscape-font-specification:Helvetica"
             x="0 6.672 10.008"
             y="0"
             sodipodi:role="line"
             id="tspan102">3.5</tspan></text>
<text
           transform="matrix(0,1,1,0,41.76,317.65)"
           id="text104"><tspan
             style="fill:#000000;fill-opacity:1;fill-rule:nonzero;stroke:none;font-family:Helvetica;font-variant:normal;font-weight:normal;font-size:12;writing-mode:lr;-inkscape-font-specification:Helvetica"
             x="0 6.672 10.008"
             y="0"
             sodipodi:role="line"
             id="tspan106">4.0</tspan></text>
<path
           d="m 59.04,73.44 118.09,0 0,281.52 -118.09,0 0,-281.52"
           style="fill:none;stroke:#000000;stroke-opacity:1;stroke-width:0.75;stroke-linecap:round;stroke-linejoin:round;stroke-miterlimit:10;stroke-dasharray:none"
           id="path108" /></g></g><g
       id="g110"><g
         id="g112"
         clip-path="url(#clipPath114)"><text
           transform="matrix(1,0,0,-1,95.14,18.72)"
           id="text118"><tspan
             style="fill:#000000;fill-opacity:1;fill-rule:nonzero;stroke:none;font-family:Helvetica;font-variant:normal;font-weight:normal;font-size:12;writing-mode:lr;-inkscape-font-specification:Helvetica"
             x="0 3.336 6.672 13.344 17.22 23.892 29.892 32.556 39.228"
             y="0"
             sodipodi:role="line"
             id="tspan120">Iteración</tspan></text>
<text
           transform="matrix(0,1,1,0,12.96,178.73)"
           id="text122"><tspan
             style="fill:#000000;fill-opacity:1;fill-rule:nonzero;stroke:none;font-family:Helvetica;font-variant:normal;font-weight:normal;font-size:12;writing-mode:lr;-inkscape-font-specification:Helvetica"
             x="0 8.004 14.676 18.852 21.516 28.188 34.188 37.524 44.256 50.928 56.928 60.264 66.936"
             y="0"
             sodipodi:role="line"
             id="tspan124">Shrink Factor</tspan></text>
</g></g><g
       id="g126"><g
         id="g128"
         clip-path="url(#clipPath130)"><path
           d="m 63.41,164.48 2.19,-32.51 2.19,-8.91 2.19,-13.82 2.18,8.04 2.19,3.74 2.19,1.18 2.19,2.24 2.18,-11.06 2.19,7.92 2.19,-6.41 2.19,-30.56 2.18,59.18 2.19,-28.28 2.19,-12.12 2.19,25.44 2.18,-18.03 2.19,-17.28 2.19,0.04 2.19,46.47 2.18,-28.09 2.19,58.06 2.19,-44.01 2.19,-1.67 2.18,-24.15 2.19,25.54 2.19,-14.88 2.19,37.05"
           style="fill:none;stroke:#ff0000;stroke-opacity:1;stroke-width:0.75;stroke-linecap:round;stroke-linejoin:round;stroke-miterlimit:10;stroke-dasharray:2.25,3.75;stroke-dashoffset:0"
           id="path134" /><path
           d="m 126.85,93.13 2.19,67.84 2.19,-22.39 2.18,-48.8 2.19,16.66"
           style="fill:none;stroke:#ff0000;stroke-opacity:1;stroke-width:0.75;stroke-linecap:round;stroke-linejoin:round;stroke-miterlimit:10;stroke-dasharray:2.25,3.75;stroke-dashoffset:0"
           id="path136" /><path
           d="m 139.98,122.16 2.18,34.38 2.19,-30.84 2.19,-3.28 2.19,2.97 2.18,-18.27 2.19,30.38 2.19,-22.77 2.19,-2.65 2.18,12.14"
           style="fill:none;stroke:#ff0000;stroke-opacity:1;stroke-width:0.75;stroke-linecap:round;stroke-linejoin:round;stroke-miterlimit:10;stroke-dasharray:2.25,3.75;stroke-dashoffset:0"
           id="path138" /><path
           d="m 164.04,129.97 2.19,177.68 2.18,-181.64 2.19,218.52 2.16,-217.7"
           style="fill:none;stroke:#ff0000;stroke-opacity:1;stroke-width:0.75;stroke-linecap:round;stroke-linejoin:round;stroke-miterlimit:10;stroke-dasharray:2.25,3.75;stroke-dashoffset:0"
           id="path140" /><path
           d="m 59.04,51.34 118.1,0"
           style="fill:none;stroke:#000000;stroke-opacity:1;stroke-width:0.75;stroke-linecap:round;stroke-linejoin:round;stroke-miterlimit:10;stroke-dasharray:none"
           id="path142" /><path
           d="m 95.96,330.13 21.6,0"
           style="fill:none;stroke:#000000;stroke-opacity:1;stroke-width:0.75;stroke-linecap:butt;stroke-linejoin:round;stroke-miterlimit:10;stroke-dasharray:none"
           id="path144" /><path
           d="m 95.96,315.73 21.6,0"
           style="fill:none;stroke:#ff0000;stroke-opacity:1;stroke-width:0.75;stroke-linecap:butt;stroke-linejoin:round;stroke-miterlimit:10;stroke-dasharray:3,3;stroke-dashoffset:0"
           id="path146" /><text
           transform="matrix(1,0,0,-1,128.36,325.83)"
           id="text148"><tspan
             style="fill:#000000;fill-opacity:1;fill-rule:nonzero;stroke:none;font-family:Helvetica;font-variant:normal;font-weight:normal;font-size:12;writing-mode:lr;-inkscape-font-specification:Helvetica"
             x="0 9.996 16.668 23.34 26.004 32.676"
             y="0"
             sodipodi:role="line"
             id="tspan150">median</tspan></text>
<text
           transform="matrix(1,0,0,-1,128.36,311.43)"
           id="text152"><tspan
             style="fill:#000000;fill-opacity:1;fill-rule:nonzero;stroke:none;font-family:Helvetica;font-variant:normal;font-weight:normal;font-size:12;writing-mode:lr;-inkscape-font-specification:Helvetica"
             x="0 6.672 13.344 16.68 23.352"
             y="0"
             sodipodi:role="line"
             id="tspan154">97.5%</tspan></text>
</g></g><g
       id="g156"><g
         id="g158"
         clip-path="url(#clipPath160)"><text
           transform="matrix(1,0,0,-1,106.2,379.45)"
           id="text164"><tspan
             style="fill:#000000;fill-opacity:1;fill-rule:nonzero;stroke:none;font-family:Helvetica;font-variant:normal;font-weight:bold;font-size:14;writing-mode:lr;-inkscape-font-specification:Helvetica-Bold"
             x="0 12.096 15.988"
             y="0"
             sodipodi:role="line"
             id="tspan166">W.1</tspan></text>
</g></g><g
       id="g168"><g
         id="g170"
         clip-path="url(#clipPath172)" /></g><g
       id="g176"><g
         id="g178"
         clip-path="url(#clipPath180)"><path
           d="m 270.79,135.58 2.19,-31.75 2.18,-19.15 2.19,8.02 2.19,-3.15 2.19,-1.35 2.18,-4.33 2.19,2.55 2.19,3.1 2.19,-0.07 2.18,-1.42 2.19,1.24 2.19,-0.62 2.19,0.57 2.18,1.43 2.19,-0.66 2.19,0.54 2.19,-0.15 2.18,0.1 2.19,2.61 2.19,0.03 2.19,0.61 2.18,2.37 2.19,-0.61 2.19,-0.91 2.19,1.88 2.18,-1.41 2.19,-0.26 2.19,-0.05 2.19,0.02 2.18,-1.09 2.19,0.31 2.19,0.76 2.19,-0.02 2.18,-0.96 2.19,-1.07 2.19,-1.03 2.19,-0.51 2.18,-1.38 2.19,0.05 2.19,0.32 2.19,0.03 2.18,0.3 2.19,0.46 2.19,0.04 2.19,0.49 2.18,0.44 2.19,-0.19 2.19,0.78 2.19,-0.21 2.16,0.56"
           style="fill:none;stroke:#000000;stroke-opacity:1;stroke-width:0.75;stroke-linecap:round;stroke-linejoin:round;stroke-miterlimit:10;stroke-dasharray:none"
           id="path184" /></g></g><g
       id="g186"><g
         id="g188"
         clip-path="url(#clipPath190)"><path
           d="m 269.38,73.44 110.76,0"
           style="fill:none;stroke:#000000;stroke-opacity:1;stroke-width:0.75;stroke-linecap:round;stroke-linejoin:round;stroke-miterlimit:10;stroke-dasharray:none"
           id="path194" /><path
           d="m 269.38,73.44 0,-7.2"
           style="fill:none;stroke:#000000;stroke-opacity:1;stroke-width:0.75;stroke-linecap:round;stroke-linejoin:round;stroke-miterlimit:10;stroke-dasharray:none"
           id="path196" /><path
           d="m 297.07,73.44 0,-7.2"
           style="fill:none;stroke:#000000;stroke-opacity:1;stroke-width:0.75;stroke-linecap:round;stroke-linejoin:round;stroke-miterlimit:10;stroke-dasharray:none"
           id="path198" /><path
           d="m 324.76,73.44 0,-7.2"
           style="fill:none;stroke:#000000;stroke-opacity:1;stroke-width:0.75;stroke-linecap:round;stroke-linejoin:round;stroke-miterlimit:10;stroke-dasharray:none"
           id="path200" /><path
           d="m 352.45,73.44 0,-7.2"
           style="fill:none;stroke:#000000;stroke-opacity:1;stroke-width:0.75;stroke-linecap:round;stroke-linejoin:round;stroke-miterlimit:10;stroke-dasharray:none"
           id="path202" /><path
           d="m 380.14,73.44 0,-7.2"
           style="fill:none;stroke:#000000;stroke-opacity:1;stroke-width:0.75;stroke-linecap:round;stroke-linejoin:round;stroke-miterlimit:10;stroke-dasharray:none"
           id="path204" /><text
           transform="matrix(1,0,0,-1,266.04,47.52)"
           id="text206"><tspan
             style="fill:#000000;fill-opacity:1;fill-rule:nonzero;stroke:none;font-family:Helvetica;font-variant:normal;font-weight:normal;font-size:12;writing-mode:lr;-inkscape-font-specification:Helvetica"
             x="0"
             y="0"
             id="tspan208">0</tspan></text>
<text
           transform="matrix(1,0,0,-1,283.72,47.52)"
           id="text210"><tspan
             style="fill:#000000;fill-opacity:1;fill-rule:nonzero;stroke:none;font-family:Helvetica;font-variant:normal;font-weight:normal;font-size:12;writing-mode:lr;-inkscape-font-specification:Helvetica"
             x="0 6.672 13.344 20.016"
             y="0"
             sodipodi:role="line"
             id="tspan212">1000</tspan></text>
<text
           transform="matrix(1,0,0,-1,339.1,47.52)"
           id="text214"><tspan
             style="fill:#000000;fill-opacity:1;fill-rule:nonzero;stroke:none;font-family:Helvetica;font-variant:normal;font-weight:normal;font-size:12;writing-mode:lr;-inkscape-font-specification:Helvetica"
             x="0 6.672 13.344 20.016"
             y="0"
             sodipodi:role="line"
             id="tspan216">3000</tspan></text>
<path
           d="m 266.41,89.76 0,263.46"
           style="fill:none;stroke:#000000;stroke-opacity:1;stroke-width:0.75;stroke-linecap:round;stroke-linejoin:round;stroke-miterlimit:10;stroke-dasharray:none"
           id="path218" /><path
           d="m 266.41,89.76 -7.2,0"
           style="fill:none;stroke:#000000;stroke-opacity:1;stroke-width:0.75;stroke-linecap:round;stroke-linejoin:round;stroke-miterlimit:10;stroke-dasharray:none"
           id="path220" /><path
           d="m 266.41,155.62 -7.2,0"
           style="fill:none;stroke:#000000;stroke-opacity:1;stroke-width:0.75;stroke-linecap:round;stroke-linejoin:round;stroke-miterlimit:10;stroke-dasharray:none"
           id="path222" /><path
           d="m 266.41,221.49 -7.2,0"
           style="fill:none;stroke:#000000;stroke-opacity:1;stroke-width:0.75;stroke-linecap:round;stroke-linejoin:round;stroke-miterlimit:10;stroke-dasharray:none"
           id="path224" /><path
           d="m 266.41,287.35 -7.2,0"
           style="fill:none;stroke:#000000;stroke-opacity:1;stroke-width:0.75;stroke-linecap:round;stroke-linejoin:round;stroke-miterlimit:10;stroke-dasharray:none"
           id="path226" /><path
           d="m 266.41,353.22 -7.2,0"
           style="fill:none;stroke:#000000;stroke-opacity:1;stroke-width:0.75;stroke-linecap:round;stroke-linejoin:round;stroke-miterlimit:10;stroke-dasharray:none"
           id="path228" /><text
           transform="matrix(0,1,1,0,249.13,78.08)"
           id="text230"><tspan
             style="fill:#000000;fill-opacity:1;fill-rule:nonzero;stroke:none;font-family:Helvetica;font-variant:normal;font-weight:normal;font-size:12;writing-mode:lr;-inkscape-font-specification:Helvetica"
             x="0 6.672 10.008 16.68"
             y="0"
             sodipodi:role="line"
             id="tspan232">1.00</tspan></text>
<text
           transform="matrix(0,1,1,0,249.13,143.94)"
           id="text234"><tspan
             style="fill:#000000;fill-opacity:1;fill-rule:nonzero;stroke:none;font-family:Helvetica;font-variant:normal;font-weight:normal;font-size:12;writing-mode:lr;-inkscape-font-specification:Helvetica"
             x="0 6.672 10.008 16.68"
             y="0"
             sodipodi:role="line"
             id="tspan236">1.02</tspan></text>
<text
           transform="matrix(0,1,1,0,249.13,209.81)"
           id="text238"><tspan
             style="fill:#000000;fill-opacity:1;fill-rule:nonzero;stroke:none;font-family:Helvetica;font-variant:normal;font-weight:normal;font-size:12;writing-mode:lr;-inkscape-font-specification:Helvetica"
             x="0 6.672 10.008 16.68"
             y="0"
             sodipodi:role="line"
             id="tspan240">1.04</tspan></text>
<text
           transform="matrix(0,1,1,0,249.13,275.68)"
           id="text242"><tspan
             style="fill:#000000;fill-opacity:1;fill-rule:nonzero;stroke:none;font-family:Helvetica;font-variant:normal;font-weight:normal;font-size:12;writing-mode:lr;-inkscape-font-specification:Helvetica"
             x="0 6.672 10.008 16.68"
             y="0"
             sodipodi:role="line"
             id="tspan244">1.06</tspan></text>
<text
           transform="matrix(0,1,1,0,249.13,341.54)"
           id="text246"><tspan
             style="fill:#000000;fill-opacity:1;fill-rule:nonzero;stroke:none;font-family:Helvetica;font-variant:normal;font-weight:normal;font-size:12;writing-mode:lr;-inkscape-font-specification:Helvetica"
             x="0 6.672 10.008 16.68"
             y="0"
             sodipodi:role="line"
             id="tspan248">1.08</tspan></text>
<path
           d="m 266.41,73.44 118.1,0 0,281.52 -118.1,0 0,-281.52"
           style="fill:none;stroke:#000000;stroke-opacity:1;stroke-width:0.75;stroke-linecap:round;stroke-linejoin:round;stroke-miterlimit:10;stroke-dasharray:none"
           id="path250" /></g></g><g
       id="g252"><g
         id="g254"
         clip-path="url(#clipPath256)"><text
           transform="matrix(1,0,0,-1,302.51,18.72)"
           id="text260"><tspan
             style="fill:#000000;fill-opacity:1;fill-rule:nonzero;stroke:none;font-family:Helvetica;font-variant:normal;font-weight:normal;font-size:12;writing-mode:lr;-inkscape-font-specification:Helvetica"
             x="0 3.336 6.672 13.344 17.22 23.892 29.892 32.556 39.228"
             y="0"
             sodipodi:role="line"
             id="tspan262">Iteración</tspan></text>
<text
           transform="matrix(0,1,1,0,220.34,178.73)"
           id="text264"><tspan
             style="fill:#000000;fill-opacity:1;fill-rule:nonzero;stroke:none;font-family:Helvetica;font-variant:normal;font-weight:normal;font-size:12;writing-mode:lr;-inkscape-font-specification:Helvetica"
             x="0 8.004 14.676 18.852 21.516 28.188 34.188 37.524 44.256 50.928 56.928 60.264 66.936"
             y="0"
             sodipodi:role="line"
             id="tspan266">Shrink Factor</tspan></text>
</g></g><g
       id="g268"><g
         id="g270"
         clip-path="url(#clipPath272)"><path
           d="m 270.79,344.53 2.19,-171.87 2.18,-74.91 2.19,9.66 2.19,-5.25 2.19,-3.42 2.18,-14.34 2.19,4.3 2.19,8.68 2.19,-4.13 2.18,-2.79 2.19,3.02 2.19,-1.48 2.19,2.31 2.18,3.55 2.19,-1.76 2.19,0.63 2.19,-1.13 2.18,0.57 2.19,7.41 2.19,-0.96 2.19,2.19 2.18,7.23 2.19,-1.79 2.19,-3.54 2.19,5.37 2.18,-4.15 2.19,-1.3 2.19,-0.01 2.19,-0.92 2.18,-3.12 2.19,1.31 2.19,2.73 2.19,0.1 2.18,-2.69 2.19,-3.42 2.19,-3.26 2.19,-1.56 2.18,-4.27 2.19,0.06 2.19,1.18 2.19,0.07 2.18,1.03 2.19,1.34 2.19,0.05 2.19,1.55 2.18,1.39 2.19,-0.8 2.19,2.13 2.19,-0.59 2.16,1.6"
           style="fill:none;stroke:#ff0000;stroke-opacity:1;stroke-width:0.75;stroke-linecap:round;stroke-linejoin:round;stroke-miterlimit:10;stroke-dasharray:2.25,3.75;stroke-dashoffset:0"
           id="path276" /><path
           d="m 266.41,89.76 118.1,0"
           style="fill:none;stroke:#000000;stroke-opacity:1;stroke-width:0.75;stroke-linecap:round;stroke-linejoin:round;stroke-miterlimit:10;stroke-dasharray:none"
           id="path278" /><path
           d="m 303.34,330.13 21.6,0"
           style="fill:none;stroke:#000000;stroke-opacity:1;stroke-width:0.75;stroke-linecap:butt;stroke-linejoin:round;stroke-miterlimit:10;stroke-dasharray:none"
           id="path280" /><path
           d="m 303.34,315.73 21.6,0"
           style="fill:none;stroke:#ff0000;stroke-opacity:1;stroke-width:0.75;stroke-linecap:butt;stroke-linejoin:round;stroke-miterlimit:10;stroke-dasharray:3,3;stroke-dashoffset:0"
           id="path282" /><text
           transform="matrix(1,0,0,-1,335.74,325.83)"
           id="text284"><tspan
             style="fill:#000000;fill-opacity:1;fill-rule:nonzero;stroke:none;font-family:Helvetica;font-variant:normal;font-weight:normal;font-size:12;writing-mode:lr;-inkscape-font-specification:Helvetica"
             x="0 9.996 16.668 23.34 26.004 32.676"
             y="0"
             sodipodi:role="line"
             id="tspan286">median</tspan></text>
<text
           transform="matrix(1,0,0,-1,335.74,311.43)"
           id="text288"><tspan
             style="fill:#000000;fill-opacity:1;fill-rule:nonzero;stroke:none;font-family:Helvetica;font-variant:normal;font-weight:normal;font-size:12;writing-mode:lr;-inkscape-font-specification:Helvetica"
             x="0 6.672 13.344 16.68 23.352"
             y="0"
             sodipodi:role="line"
             id="tspan290">97.5%</tspan></text>
</g></g><g
       id="g292"><g
         id="g294"
         clip-path="url(#clipPath296)"><text
           transform="matrix(1,0,0,-1,313.58,379.45)"
           id="text300"><tspan
             style="fill:#000000;fill-opacity:1;fill-rule:nonzero;stroke:none;font-family:Helvetica;font-variant:normal;font-weight:bold;font-size:14;writing-mode:lr;-inkscape-font-specification:Helvetica-Bold"
             x="0 12.096 15.988"
             y="0"
             sodipodi:role="line"
             id="tspan302">W.2</tspan></text>
</g></g></g></svg>