<?xml version="1.0" encoding="UTF-8" standalone="no"?>
<!-- Created with Inkscape (http://www.inkscape.org/) -->

<svg
   xmlns:dc="http://purl.org/dc/elements/1.1/"
   xmlns:cc="http://creativecommons.org/ns#"
   xmlns:rdf="http://www.w3.org/1999/02/22-rdf-syntax-ns#"
   xmlns:svg="http://www.w3.org/2000/svg"
   xmlns="http://www.w3.org/2000/svg"
   xmlns:sodipodi="http://sodipodi.sourceforge.net/DTD/sodipodi-0.dtd"
   xmlns:inkscape="http://www.inkscape.org/namespaces/inkscape"
   id="svg2"
   version="1.1"
   inkscape:version="0.48.4 r9939"
   width="517.5"
   height="516.25"
   xml:space="preserve"
   sodipodi:docname="1b_betasFiltering.pdf"><metadata
     id="metadata8"><rdf:RDF><cc:Work
         rdf:about=""><dc:format>image/svg+xml</dc:format><dc:type
           rdf:resource="http://purl.org/dc/dcmitype/StillImage" /><dc:title></dc:title></cc:Work></rdf:RDF></metadata><defs
     id="defs6"><clipPath
       clipPathUnits="userSpaceOnUse"
       id="clipPath18"><path
         d="m 0,0 414.75,0 0,414 L 0,414 0,0 z"
         id="path20" /></clipPath><clipPath
       clipPathUnits="userSpaceOnUse"
       id="clipPath26"><path
         d="m 0,0 414.75,0 0,414 L 0,414 0,0 z"
         id="path28" /></clipPath><clipPath
       clipPathUnits="userSpaceOnUse"
       id="clipPath34"><path
         d="m 0,0 414.75,0 0,414 L 0,414 0,0 z"
         id="path36" /></clipPath><clipPath
       clipPathUnits="userSpaceOnUse"
       id="clipPath44"><path
         d="m 0,0 414.75,0 0,414 L 0,414 0,0 z"
         id="path46" /></clipPath><clipPath
       clipPathUnits="userSpaceOnUse"
       id="clipPath52"><path
         d="m 0,0 414.75,0 0,414 L 0,414 0,0 z"
         id="path54" /></clipPath><clipPath
       clipPathUnits="userSpaceOnUse"
       id="clipPath60"><path
         d="m 0,0 414.75,0 0,414 L 0,414 0,0 z"
         id="path62" /></clipPath><clipPath
       clipPathUnits="userSpaceOnUse"
       id="clipPath68"><path
         d="m 38.47,78.58 361.88,0 0,306.51 -361.88,0 0,-306.51 z"
         id="path70" /></clipPath><clipPath
       clipPathUnits="userSpaceOnUse"
       id="clipPath116"><path
         d="m 0,0 414.75,0 0,414 L 0,414 0,0 z"
         id="path118" /></clipPath><clipPath
       clipPathUnits="userSpaceOnUse"
       id="clipPath124"><path
         d="m 0,0 414.75,0 0,414 L 0,414 0,0 z"
         id="path126" /></clipPath><clipPath
       clipPathUnits="userSpaceOnUse"
       id="clipPath132"><path
         d="m 0,0 414.75,0 0,414 L 0,414 0,0 z"
         id="path134" /></clipPath><clipPath
       clipPathUnits="userSpaceOnUse"
       id="clipPath156"><path
         d="m 0,0 414.75,0 0,414 L 0,414 0,0 z"
         id="path158" /></clipPath><clipPath
       clipPathUnits="userSpaceOnUse"
       id="clipPath164"><path
         d="m 0,0 414.75,0 0,414 L 0,414 0,0 z"
         id="path166" /></clipPath><clipPath
       clipPathUnits="userSpaceOnUse"
       id="clipPath180"><path
         d="m 0,0 414.75,0 0,414 L 0,414 0,0 z"
         id="path182" /></clipPath><clipPath
       clipPathUnits="userSpaceOnUse"
       id="clipPath188"><path
         d="m 0,0 414.75,0 0,414 L 0,414 0,0 z"
         id="path190" /></clipPath><clipPath
       clipPathUnits="userSpaceOnUse"
       id="clipPath196"><path
         d="m 0,0 414.75,0 0,414 L 0,414 0,0 z"
         id="path198" /></clipPath><clipPath
       clipPathUnits="userSpaceOnUse"
       id="clipPath204"><path
         d="m 0,0 414.75,0 0,414 L 0,414 0,0 z"
         id="path206" /></clipPath><clipPath
       clipPathUnits="userSpaceOnUse"
       id="clipPath212"><path
         d="m 0,0 414.75,0 0,414 L 0,414 0,0 z"
         id="path214" /></clipPath><clipPath
       clipPathUnits="userSpaceOnUse"
       id="clipPath220"><path
         d="m 0,0 414.75,0 0,414 L 0,414 0,0 z"
         id="path222" /></clipPath><clipPath
       clipPathUnits="userSpaceOnUse"
       id="clipPath238"><path
         d="m 0,0 414.75,0 0,414 L 0,414 0,0 z"
         id="path240" /></clipPath><clipPath
       clipPathUnits="userSpaceOnUse"
       id="clipPath246"><path
         d="m 0,0 414.75,0 0,414 L 0,414 0,0 z"
         id="path248" /></clipPath><clipPath
       clipPathUnits="userSpaceOnUse"
       id="clipPath274"><path
         d="m 0,0 414.75,0 0,414 L 0,414 0,0 z"
         id="path276" /></clipPath><clipPath
       clipPathUnits="userSpaceOnUse"
       id="clipPath282"><path
         d="m 0,0 414.75,0 0,414 L 0,414 0,0 z"
         id="path284" /></clipPath><clipPath
       clipPathUnits="userSpaceOnUse"
       id="clipPath290"><path
         d="m 0,0 414.75,0 0,414 L 0,414 0,0 z"
         id="path292" /></clipPath><clipPath
       clipPathUnits="userSpaceOnUse"
       id="clipPath298"><path
         d="m 0,0 414.75,0 0,414 L 0,414 0,0 z"
         id="path300" /></clipPath><clipPath
       clipPathUnits="userSpaceOnUse"
       id="clipPath306"><path
         d="m 0,0 414.75,0 0,414 L 0,414 0,0 z"
         id="path308" /></clipPath><clipPath
       clipPathUnits="userSpaceOnUse"
       id="clipPath318"><path
         d="m 0,0 414.75,0 0,414 L 0,414 0,0 z"
         id="path320" /></clipPath><clipPath
       clipPathUnits="userSpaceOnUse"
       id="clipPath326"><path
         d="m 0,0 414.75,0 0,414 L 0,414 0,0 z"
         id="path328" /></clipPath><clipPath
       clipPathUnits="userSpaceOnUse"
       id="clipPath338"><path
         d="m 0,0 414.75,0 0,414 L 0,414 0,0 z"
         id="path340" /></clipPath><clipPath
       clipPathUnits="userSpaceOnUse"
       id="clipPath346"><path
         d="m 0,0 414.75,0 0,414 L 0,414 0,0 z"
         id="path348" /></clipPath><clipPath
       clipPathUnits="userSpaceOnUse"
       id="clipPath354"><path
         d="m 0,0 414.75,0 0,414 L 0,414 0,0 z"
         id="path356" /></clipPath><clipPath
       clipPathUnits="userSpaceOnUse"
       id="clipPath362"><path
         d="m 0,0 414.75,0 0,414 L 0,414 0,0 z"
         id="path364" /></clipPath><clipPath
       clipPathUnits="userSpaceOnUse"
       id="clipPath370"><path
         d="m 0,0 414.75,0 0,414 L 0,414 0,0 z"
         id="path372" /></clipPath><clipPath
       clipPathUnits="userSpaceOnUse"
       id="clipPath378"><path
         d="m 0,0 414.75,0 0,414 L 0,414 0,0 z"
         id="path380" /></clipPath><clipPath
       clipPathUnits="userSpaceOnUse"
       id="clipPath388"><path
         d="m 0,0 414.75,0 0,414 L 0,414 0,0 z"
         id="path390" /></clipPath><clipPath
       clipPathUnits="userSpaceOnUse"
       id="clipPath396"><path
         d="m 0,0 414.75,0 0,414 L 0,414 0,0 z"
         id="path398" /></clipPath><clipPath
       clipPathUnits="userSpaceOnUse"
       id="clipPath408"><path
         d="m 0,0 414.75,0 0,414 L 0,414 0,0 z"
         id="path410" /></clipPath><clipPath
       clipPathUnits="userSpaceOnUse"
       id="clipPath416"><path
         d="m 0,0 414.75,0 0,414 L 0,414 0,0 z"
         id="path418" /></clipPath><clipPath
       clipPathUnits="userSpaceOnUse"
       id="clipPath426"><path
         d="m 0,0 414.75,0 0,414 L 0,414 0,0 z"
         id="path428" /></clipPath><clipPath
       clipPathUnits="userSpaceOnUse"
       id="clipPath434"><path
         d="m 0,0 414.75,0 0,414 L 0,414 0,0 z"
         id="path436" /></clipPath><clipPath
       clipPathUnits="userSpaceOnUse"
       id="clipPath444"><path
         d="m 0,0 414.75,0 0,414 L 0,414 0,0 z"
         id="path446" /></clipPath><clipPath
       clipPathUnits="userSpaceOnUse"
       id="clipPath452"><path
         d="m 0,0 414.75,0 0,414 L 0,414 0,0 z"
         id="path454" /></clipPath><clipPath
       clipPathUnits="userSpaceOnUse"
       id="clipPath462"><path
         d="m 0,0 414.75,0 0,414 L 0,414 0,0 z"
         id="path464" /></clipPath><clipPath
       clipPathUnits="userSpaceOnUse"
       id="clipPath470"><path
         d="m 0,0 414.75,0 0,414 L 0,414 0,0 z"
         id="path472" /></clipPath><clipPath
       clipPathUnits="userSpaceOnUse"
       id="clipPath480"><path
         d="m 0,0 414.75,0 0,414 L 0,414 0,0 z"
         id="path482" /></clipPath><clipPath
       clipPathUnits="userSpaceOnUse"
       id="clipPath488"><path
         d="m 0,0 414.75,0 0,414 L 0,414 0,0 z"
         id="path490" /></clipPath><clipPath
       clipPathUnits="userSpaceOnUse"
       id="clipPath498"><path
         d="m 0,0 414.75,0 0,414 L 0,414 0,0 z"
         id="path500" /></clipPath><clipPath
       clipPathUnits="userSpaceOnUse"
       id="clipPath506"><path
         d="m 0,0 414.75,0 0,414 L 0,414 0,0 z"
         id="path508" /></clipPath><clipPath
       clipPathUnits="userSpaceOnUse"
       id="clipPath516"><path
         d="m 0,0 414.75,0 0,414 L 0,414 0,0 z"
         id="path518" /></clipPath><clipPath
       clipPathUnits="userSpaceOnUse"
       id="clipPath524"><path
         d="m 0,0 414.75,0 0,414 L 0,414 0,0 z"
         id="path526" /></clipPath><clipPath
       clipPathUnits="userSpaceOnUse"
       id="clipPath536"><path
         d="m 0,0 414.75,0 0,414 L 0,414 0,0 z"
         id="path538" /></clipPath><clipPath
       clipPathUnits="userSpaceOnUse"
       id="clipPath544"><path
         d="m 0,0 414.75,0 0,414 L 0,414 0,0 z"
         id="path546" /></clipPath><clipPath
       clipPathUnits="userSpaceOnUse"
       id="clipPath556"><path
         d="m 0,0 414.75,0 0,414 L 0,414 0,0 z"
         id="path558" /></clipPath><clipPath
       clipPathUnits="userSpaceOnUse"
       id="clipPath564"><path
         d="m 0,0 414.75,0 0,414 L 0,414 0,0 z"
         id="path566" /></clipPath><clipPath
       clipPathUnits="userSpaceOnUse"
       id="clipPath576"><path
         d="m 0,0 414.75,0 0,414 L 0,414 0,0 z"
         id="path578" /></clipPath><clipPath
       clipPathUnits="userSpaceOnUse"
       id="clipPath584"><path
         d="m 0,0 414.75,0 0,414 L 0,414 0,0 z"
         id="path586" /></clipPath><clipPath
       clipPathUnits="userSpaceOnUse"
       id="clipPath592"><path
         d="m 0,0 414.75,0 0,414 L 0,414 0,0 z"
         id="path594" /></clipPath><clipPath
       clipPathUnits="userSpaceOnUse"
       id="clipPath600"><path
         d="m 0,0 414.75,0 0,414 L 0,414 0,0 z"
         id="path602" /></clipPath><clipPath
       clipPathUnits="userSpaceOnUse"
       id="clipPath608"><path
         d="m 0,0 414.75,0 0,414 L 0,414 0,0 z"
         id="path610" /></clipPath><clipPath
       clipPathUnits="userSpaceOnUse"
       id="clipPath616"><path
         d="m 0,0 414.75,0 0,414 L 0,414 0,0 z"
         id="path618" /></clipPath><clipPath
       clipPathUnits="userSpaceOnUse"
       id="clipPath624"><path
         d="m 0,0 414.75,0 0,414 L 0,414 0,0 z"
         id="path626" /></clipPath><clipPath
       clipPathUnits="userSpaceOnUse"
       id="clipPath632"><path
         d="m 0,0 414.75,0 0,414 L 0,414 0,0 z"
         id="path634" /></clipPath><clipPath
       clipPathUnits="userSpaceOnUse"
       id="clipPath640"><path
         d="m 0,0 414.75,0 0,414 L 0,414 0,0 z"
         id="path642" /></clipPath><clipPath
       clipPathUnits="userSpaceOnUse"
       id="clipPath648"><path
         d="m 0,0 414.75,0 0,414 L 0,414 0,0 z"
         id="path650" /></clipPath><clipPath
       clipPathUnits="userSpaceOnUse"
       id="clipPath660"><path
         d="m 0,0 414.75,0 0,414 L 0,414 0,0 z"
         id="path662" /></clipPath><clipPath
       clipPathUnits="userSpaceOnUse"
       id="clipPath668"><path
         d="m 0,0 414.75,0 0,414 L 0,414 0,0 z"
         id="path670" /></clipPath></defs><sodipodi:namedview
     pagecolor="#ffffff"
     bordercolor="#666666"
     borderopacity="1"
     objecttolerance="10"
     gridtolerance="10"
     guidetolerance="10"
     inkscape:pageopacity="0"
     inkscape:pageshadow="2"
     inkscape:window-width="640"
     inkscape:window-height="480"
     id="namedview4"
     showgrid="false"
     inkscape:zoom="0.45714286"
     inkscape:cx="258.75"
     inkscape:cy="258.125"
     inkscape:window-x="0"
     inkscape:window-y="0"
     inkscape:window-maximized="0"
     inkscape:current-layer="g10" /><g
     id="g10"
     inkscape:groupmode="layer"
     inkscape:label="1b_betasFiltering"
     transform="matrix(1.25,0,0,-1.25,0,516.25)"><g
       id="g12" /><g
       id="g14"><g
         id="g16"
         clip-path="url(#clipPath18)" /></g><g
       id="g22"><g
         id="g24"
         clip-path="url(#clipPath26)" /></g><g
       id="g30"><g
         id="g32"
         clip-path="url(#clipPath34)"><path
           d="m 0,0 414.75,0 0,414 L 0,414 0,0 z"
           style="fill:#ffffff;fill-opacity:1;fill-rule:nonzero;stroke:#ffffff;stroke-opacity:1;stroke-width:1.06;stroke-linecap:round;stroke-linejoin:round;stroke-miterlimit:10;stroke-dasharray:none"
           id="path38" /></g></g><g
       id="g40"><g
         id="g42"
         clip-path="url(#clipPath44)" /></g><g
       id="g48"><g
         id="g50"
         clip-path="url(#clipPath52)" /></g><g
       id="g56"><g
         id="g58"
         clip-path="url(#clipPath60)" /></g><g
       id="g64"><g
         id="g66"
         clip-path="url(#clipPath68)"><path
           d="m 38.47,78.58 361.88,0 0,306.51 -361.88,0 0,-306.51 z"
           style="fill:#e5e5e5;fill-opacity:1;fill-rule:nonzero;stroke:none"
           id="path72" /><path
           d="m 38.47,136.32 361.88,0"
           style="fill:none;stroke:#f2f2f2;stroke-opacity:1;stroke-width:0.53;stroke-linecap:butt;stroke-linejoin:round;stroke-miterlimit:10;stroke-dasharray:none"
           id="path74" /><path
           d="m 38.47,221.87 361.88,0"
           style="fill:none;stroke:#f2f2f2;stroke-opacity:1;stroke-width:0.53;stroke-linecap:butt;stroke-linejoin:round;stroke-miterlimit:10;stroke-dasharray:none"
           id="path76" /><path
           d="m 38.47,307.41 361.88,0"
           style="fill:none;stroke:#f2f2f2;stroke-opacity:1;stroke-width:0.53;stroke-linecap:butt;stroke-linejoin:round;stroke-miterlimit:10;stroke-dasharray:none"
           id="path78" /><path
           d="m 94.34,78.58 0,306.51"
           style="fill:none;stroke:#f2f2f2;stroke-opacity:1;stroke-width:0.53;stroke-linecap:butt;stroke-linejoin:round;stroke-miterlimit:10;stroke-dasharray:none"
           id="path80" /><path
           d="m 176.81,78.58 0,306.51"
           style="fill:none;stroke:#f2f2f2;stroke-opacity:1;stroke-width:0.53;stroke-linecap:butt;stroke-linejoin:round;stroke-miterlimit:10;stroke-dasharray:none"
           id="path82" /><path
           d="m 259.74,78.58 0,306.51"
           style="fill:none;stroke:#f2f2f2;stroke-opacity:1;stroke-width:0.53;stroke-linecap:butt;stroke-linejoin:round;stroke-miterlimit:10;stroke-dasharray:none"
           id="path84" /><path
           d="m 343.12,78.58 0,306.51"
           style="fill:none;stroke:#f2f2f2;stroke-opacity:1;stroke-width:0.53;stroke-linecap:butt;stroke-linejoin:round;stroke-miterlimit:10;stroke-dasharray:none"
           id="path86" /><path
           d="m 38.47,93.55 361.88,0"
           style="fill:none;stroke:#ffffff;stroke-opacity:1;stroke-width:1.06;stroke-linecap:butt;stroke-linejoin:round;stroke-miterlimit:10;stroke-dasharray:none"
           id="path88" /><path
           d="m 38.47,179.09 361.88,0"
           style="fill:none;stroke:#ffffff;stroke-opacity:1;stroke-width:1.06;stroke-linecap:butt;stroke-linejoin:round;stroke-miterlimit:10;stroke-dasharray:none"
           id="path90" /><path
           d="m 38.47,264.64 361.88,0"
           style="fill:none;stroke:#ffffff;stroke-opacity:1;stroke-width:1.06;stroke-linecap:butt;stroke-linejoin:round;stroke-miterlimit:10;stroke-dasharray:none"
           id="path92" /><path
           d="m 38.47,350.18 361.88,0"
           style="fill:none;stroke:#ffffff;stroke-opacity:1;stroke-width:1.06;stroke-linecap:butt;stroke-linejoin:round;stroke-miterlimit:10;stroke-dasharray:none"
           id="path94" /><path
           d="m 53.11,78.58 0,306.51"
           style="fill:none;stroke:#ffffff;stroke-opacity:1;stroke-width:1.06;stroke-linecap:butt;stroke-linejoin:round;stroke-miterlimit:10;stroke-dasharray:none"
           id="path96" /><path
           d="m 135.58,78.58 0,306.51"
           style="fill:none;stroke:#ffffff;stroke-opacity:1;stroke-width:1.06;stroke-linecap:butt;stroke-linejoin:round;stroke-miterlimit:10;stroke-dasharray:none"
           id="path98" /><path
           d="m 218.05,78.58 0,306.51"
           style="fill:none;stroke:#ffffff;stroke-opacity:1;stroke-width:1.06;stroke-linecap:butt;stroke-linejoin:round;stroke-miterlimit:10;stroke-dasharray:none"
           id="path100" /><path
           d="m 301.43,78.58 0,306.51"
           style="fill:none;stroke:#ffffff;stroke-opacity:1;stroke-width:1.06;stroke-linecap:butt;stroke-linejoin:round;stroke-miterlimit:10;stroke-dasharray:none"
           id="path102" /><path
           d="m 384.81,78.58 0,306.51"
           style="fill:none;stroke:#ffffff;stroke-opacity:1;stroke-width:1.06;stroke-linecap:butt;stroke-linejoin:round;stroke-miterlimit:10;stroke-dasharray:none"
           id="path104" /><path
           d="m 54.92,179.1 0.9,-2.95 0.91,-12.45 0.91,-6.84 2.72,5.34 0.9,-2.21 0.91,8.99 0.9,3.18 0.91,14.8 3.63,5.39 0.9,12.48 0.91,-1.09 0.9,17 2.72,-14.92 0.91,22.2 0.91,57.2 0.9,-0.69 0.91,-3.06 2.72,-9.24 0.9,-0.93 0.91,-14.39 0.91,0.64 0.9,-7.98 2.72,-2.64 0.91,-0.87 0.9,-2.39 0.91,-8.14 0.91,2.46 2.72,3.21 0.9,-5.49 0.91,19.17 0.9,-4.18 0.91,-0.29 3.63,-6.84 0.9,3.89 0.91,1.12 0.9,0.16 2.72,0.55 0.91,0.13 0.91,-6.51 0.9,-1.61 0.91,1.09 2.72,13.87 0.9,-4.36 0.91,-2.11 0.91,3.57 0.9,0.33 2.72,-2.03 0.91,6.25 0.9,-11.87 0.91,1.93 0.91,4.6 2.72,-2.17 0.9,-0.18 0.91,3.83 0.9,0.99 0.91,0.65 2.72,0.82 0.91,-4.16 0.9,-1.88 0.91,3.68 0.9,0.72 2.72,3.19 0.91,-7.44 0.91,4.31 0.9,-3.59 3.63,-3.41 0.9,1.73 0.91,-1.98 0.91,-5.94 0.9,7.67 2.72,2.36 0.91,11.8 0.9,3.46 0.91,5.68 0.91,-0.96 2.72,-3.34 0.9,0.25 0.91,18.95 0.9,-0.67 0.91,0.81 2.72,4.13 0.91,-0.02 0.9,-1.1 0.91,-4.01 0.91,3.56 2.71,1.36 0.91,-0.35 0.91,-3.79 0.9,0.69 0.91,-2.85 2.72,4.81 0.9,0.63 0.91,0.68 0.91,-0.4 0.9,3.19 2.72,11.13 0.91,-1.57 0.9,1.97 0.91,-0.04 0.91,0.01 3.62,-0.05 0.91,-12.17 0.9,0.49 0.91,-0.96 2.72,0.26 0.91,-0.83 0.9,-5.91 0.91,0.34 0.91,0.72 2.71,-0.16 0.91,-1.08 0.91,-0.8 0.9,-2.31 0.91,-1.89 2.72,0.94 0.9,-1.69 0.91,0.1 0.91,-3.41 0.9,-0.64 2.72,2.58 0.91,-0.74 0.9,-0.17 0.91,0.96 0.91,-1.57 2.72,-0.14 0.9,0.37 1.81,-4.28 0.91,1.31 2.72,-0.57 0.91,2.19 0.9,1.62 0.91,2.15 0.91,-1.65 2.71,-1.51 0.91,-0.92 0.91,-1.31 0.9,-0.69 0.91,6.55 2.72,0.07 0.9,-4.56 0.91,3.73 0.91,-3.97 0.9,-0.84 2.72,-2.31 0.91,-5.14 0.9,2.18 0.91,-3.39 0.91,-1.44 2.72,-0.49 0.9,0.56 0.91,-0.38 0.91,-2.15 0.9,-6.29 2.72,-2.33 0.91,-1.38 0.9,1.09 0.91,0.22 0.91,-1.13 2.71,-2.51 0.91,3.07 0.91,-0.71 0.9,2.79 0.91,-0.12 2.72,-2.5 0.9,-0.11 0.91,1.96 0.91,2.11 0.9,-0.97 3.63,3.02 0.9,3.04 0.91,-1.31 0.91,2.15 2.72,3.72 0.9,0.67 0.91,1.11 0.91,0.24 0.9,-0.29 2.72,-4.22 0.91,2.07 0.9,0.18 0.91,-1.93 0.91,0.45 2.71,6.12 0.91,0.23 0.91,0.83 0.9,1.84 0.91,3.06 2.72,0.45 0.9,-0.24 0.91,0.46 0.91,-0.02 0.9,0.98 2.72,1.57 0.91,-3.01 0.91,-2.25 0.9,2.23 0.91,-2.89 2.72,-1.31 0.9,1.22 0.91,1.57 0.91,1.11 0.9,6.2 2.72,-2.62 0.91,12.58 0.9,-3 0.91,0.71 0.91,-0.21 4.53,-0.46 0.9,-1.27 0.91,3.47 2.72,-0.15 0.9,-0.16 0.91,2.43 0.91,0.9 0.9,-1.17 2.72,2.99 0.91,4.57 0.91,-4.25 0.9,1.39 0.91,-0.05 2.72,6.06 0.9,-1.02 0.91,-0.65 1.81,-0.25 2.72,-2.79 0.91,1.28 0.9,-0.74 0.91,0.33 0.91,0.28 2.71,-4.26 0.91,3.82 0.91,2.72 0.9,0.24 0.91,2.14 2.72,-1.28 0.9,-1.39 0.91,-1.68 0.91,-0.91 0.9,7.05 2.72,-0.16 0.91,-0.88 0.91,-1.87 0.9,-0.52 0.91,-7.86 2.72,2.13 1.81,-0.54 0.91,-2.1 0.9,-2.03 2.72,2.09"
           style="fill:none;stroke:#000000;stroke-opacity:1;stroke-width:2.13;stroke-linecap:butt;stroke-linejoin:round;stroke-miterlimit:1;stroke-dasharray:none"
           id="path106" /><path
           d="m 54.92,179.1 0.9,-86.59 0.91,21.83 0.91,13.57 2.72,14.95 0.9,-5.65 0.91,15.77 0.9,-1.42 0.91,-2.13 3.63,-2.72 0.9,-7.3 0.91,-1.98 0.9,-44.19 2.72,12.32 0.91,30.06 0.91,2.42 0.9,18.68 0.91,9.84 2.72,-5.37 0.9,1.36 0.91,10.45 0.91,0.27 0.9,6.88 2.72,2.16 0.91,0.03 0.9,-0.94 0.91,0.71 0.91,15.04 2.72,-1.56 0.9,3.51 0.91,6.98 0.9,24.42 0.91,0.11 3.63,-1.28 0.9,4.09 0.91,0.13 0.9,0.29 2.72,0.6 0.91,0.84 0.91,2.53 0.9,2.43 0.91,3.39 2.72,5.17 0.9,-2.45 0.91,0.52 0.91,-2.28 0.9,-0.17 2.72,-0.25 0.91,2.06 0.9,-0.93 0.91,0.88 0.91,3.68 2.72,1.63 0.9,3.22 0.91,1.18 0.9,-4.1 0.91,0.22 2.72,1.81 0.91,-0.28 0.9,2.25 0.91,0.73 0.9,0.28 2.72,-1.01 0.91,1.51 0.91,7.68 0.9,-2.12 3.63,1.24 0.9,2.02 0.91,-1.88 0.91,2.43 0.9,-2.22 2.72,0.28 0.91,-1.46 0.9,2.05 0.91,0.29 0.91,0.34 2.72,-0.69 0.9,0.1 0.91,-2.05 0.9,-0.78 0.91,0.27 2.72,0.31 0.91,-0.14 0.9,0 0.91,-2.54 0.91,3.16 2.71,0.37 0.91,-0.06 0.91,-2.85 0.9,0.16 0.91,-2.07 2.72,2.74 0.9,0.93 0.91,0.39 0.91,-3.18 0.9,2.32 2.72,0.43 0.91,-0.51 0.9,-1.26 0.91,0.15 0.91,-0.01 3.62,1.5 0.91,-4.01 0.9,0.17 0.91,0.31 2.72,0.27 0.91,-0.49 0.9,2.75 0.91,0.03 0.91,1.06 2.71,1.38 0.91,0.48 0.91,-0.42 0.9,-0.4 0.91,1.86 2.72,-0.34 0.9,2.56 0.91,0.11 0.91,0.12 0.9,0.89 2.72,2.37 0.91,-0.18 0.9,-0.28 0.91,0.37 0.91,-1.28 2.72,-0.44 0.9,0.04 1.81,-1.65 0.91,1.01 2.72,-0.4 0.91,0.89 0.9,0.31 0.91,1.08 0.91,1.71 2.71,-0.6 0.91,-0.05 0.91,1.5 0.9,-0.26 0.91,2.97 2.72,0.95 0.9,-2.06 0.91,1.8 0.91,-1.46 0.9,-0.16 2.72,-1.15 0.91,-2 0.9,0.9 0.91,-1.32 0.91,-0.29 2.72,-0.17 0.9,0.66 0.91,-0.12 0.91,-0.84 0.9,-2.72 2.72,-0.97 0.91,-0.59 0.9,0.47 0.91,0.64 0.91,-0.51 2.71,-0.99 0.91,0.97 0.91,-0.37 0.9,1.12 0.91,0.27 2.72,-1.06 0.9,-0.04 0.91,0.84 0.91,0.82 0.9,0.26 3.63,1.18 0.9,1.28 0.91,1.65 0.91,0.29 2.72,1.23 0.9,0.33 0.91,0.37 0.91,-1.38 0.9,-0.09 2.72,-1.7 0.91,0.88 0.9,0.05 0.91,-0.91 0.91,0.2 2.71,2.62 0.91,-0.27 0.91,0.27 0.9,-0.39 0.91,1.29 2.72,0.06 0.9,-0.04 0.91,0.15 0.91,0.24 0.9,0.4 2.72,0.42 0.91,-0.74 0.91,-0.61 0.9,0.97 0.91,-1.34 2.72,-0.4 0.9,-0.61 0.91,0.76 0.91,0.31 0.9,2.85 2.72,-1.05 0.91,2.89 0.9,-1.15 0.91,0.34 0.91,-0.17 4.53,-0.1 0.9,1.35 0.91,0.32 2.72,-0.1 0.9,0.16 0.91,0.05 0.91,-0.51 0.9,-0.62 2.72,1.08 0.91,2.41 0.91,-2.09 0.9,0.58 0.91,-0.38 2.72,-1.47 0.9,-0.39 0.91,-0.14 1.81,0.93 2.72,-1.01 0.91,0.62 0.9,0.09 0.91,-0.5 0.91,0.05 2.71,-1.68 0.91,1.57 0.91,1.77 0.9,-0.05 0.91,0.88 2.72,-0.36 0.9,-0.5 0.91,-0.71 0.91,-0.61 0.9,2.77 2.72,-0.24 0.91,-0.43 0.91,-0.86 0.9,0.15 0.91,-3.25 2.72,1.07 1.81,-0.27 0.91,-0.89 0.9,-0.64 2.72,-0.99"
           style="fill:none;stroke:#000000;stroke-opacity:1;stroke-width:2.13;stroke-linecap:butt;stroke-linejoin:round;stroke-miterlimit:1;stroke-dasharray:4.25,4.25;stroke-dashoffset:0"
           id="path108" /><path
           d="m 54.92,179.1 0.9,192.06 0.91,-34.1 0.91,-63.2 2.72,-5.21 0.9,14.86 0.91,-16.87 0.9,-6.9 0.91,-2.59 3.63,0.75 0.9,59.73 0.91,2.29 0.9,4.76 2.72,9.93 0.91,-14.12 0.91,-14.48 0.9,-20.81 0.91,-13.49 2.72,3.9 0.9,0 0.91,12.09 0.91,-0.44 0.9,-2.24 2.72,0.71 0.91,-0.2 0.9,1.05 0.91,-4.28 0.91,-22.5 2.72,-1.94 0.9,15.71 0.91,2.98 0.9,6.13 0.91,1.83 3.63,4.79 0.9,2.87 0.91,1.73 0.9,-1.2 2.72,-0.55 0.91,1.3 0.91,-3.99 0.9,0.92 0.91,1.92 2.72,-3.61 0.9,-10.24 0.91,2.37 0.91,-3.09 0.9,-0.32 2.72,1.57 0.91,-8.82 0.9,-1.94 0.91,-1.64 0.91,-7.16 2.72,0.66 0.9,-10.52 0.91,-3.67 0.9,-1.84 0.91,0.25 2.72,-0.16 0.91,2.25 0.9,0.99 0.91,-0.97 0.9,-0.55 2.72,1.56 0.91,6.25 0.91,-9.54 0.9,3.31 3.63,-5.17 0.9,-3.5 0.91,-2.36 0.91,0.67 0.9,0.88 2.72,-0.95 0.91,1.77 0.9,-6.84 0.91,-0.79 0.91,0.67 2.72,4.28 0.9,-1.49 0.91,-0.15 0.9,-1.28 0.91,-1.1 2.72,-1.54 0.91,-0.79 0.9,0.28 0.91,5.24 0.91,1.09 2.71,-0.9 0.91,-0.05 0.91,2.28 0.9,-0.26 0.91,3.25 2.72,-8.9 0.9,-0.13 0.91,-0.01 0.91,6.31 0.9,-6.98 2.72,-0.12 0.91,0.39 0.9,-0.23 0.91,-0.71 0.91,0 3.62,0.08 0.91,6.63 0.9,-0.41 0.91,1.52 2.72,0.37 0.91,-0.45 0.9,0.62 0.91,-0.32 0.91,1.59 2.71,1.89 0.91,0.23 0.91,0.83 0.9,-1.36 0.91,-0.76 2.72,0.34 0.9,0.66 0.91,-0.04 0.91,0.35 0.9,0.44 2.72,-2.04 0.91,-0.37 0.9,-0.03 0.91,-0.9 0.91,2.27 2.72,0.51 0.9,0.23 1.81,3.36 0.91,-1.42 2.72,0.66 0.91,-2.28 0.9,-1.62 0.91,-1.75 0.91,-1.65 2.71,1.29 0.91,-0.73 0.91,0.59 0.9,0.99 0.91,-6.4 2.72,-0.21 0.9,4.34 0.91,-4.23 0.91,2.04 0.9,1.31 2.72,2.1 0.91,4.18 0.9,-1.89 0.91,2.97 0.91,0.17 2.72,0.73 0.9,-0.48 0.91,0.24 0.91,1.74 0.9,3.96 2.72,1.99 0.91,1.15 0.9,-0.95 0.91,0.33 0.91,1.11 2.71,2.08 0.91,-2.44 0.91,0.66 0.9,-2.44 0.91,-0.27 2.72,2.19 0.9,0.06 0.91,-1.61 0.91,-1.26 0.9,0.41 3.63,-2.45 0.9,-2.55 0.91,-2.57 0.91,-1.64 2.72,-2.4 0.9,-0.7 0.91,-0.63 0.91,0.14 0.9,0.49 2.72,3.37 0.91,-2.03 0.9,-0.17 0.91,1.7 0.91,-0.37 2.71,-5.35 0.91,1.51 0.91,-0.51 0.9,0.72 0.91,-2.27 2.72,-1.01 0.9,0.31 0.91,0.36 0.91,-0.76 0.9,-0.78 2.72,-0.92 0.91,2.49 0.91,1.37 0.9,-1.99 0.91,2.42 2.72,0 0.9,0.2 0.91,-1.42 0.91,-0.55 0.9,-3.77 2.72,2.22 0.91,-15.5 0.9,2.54 0.91,-0.78 0.91,0.17 4.53,0.34 0.9,0.41 0.91,-2.7 2.72,0.52 0.9,-0.38 0.91,-1.63 0.91,0.55 0.9,1.24 2.72,-2.49 0.91,-4.26 0.91,2.86 0.9,-1.19 0.91,-0.21 2.72,1.64 0.9,0.73 0.91,0.63 1.81,0.32 2.72,2.13 0.91,-1.32 0.9,-0.26 0.91,-0.3 0.91,-0.34 2.71,3.7 0.91,-3.28 0.91,-3.34 0.9,0.43 0.91,-2.42 2.72,1.14 0.9,1.65 0.91,1.39 0.91,1.01 0.9,-5.8 2.72,-0.04 0.91,0.83 0.91,1.67 0.9,0.11 0.91,7.05 2.72,-2.11 1.81,0.69 0.91,1.75 0.9,1.55 2.72,0.74"
           style="fill:none;stroke:#000000;stroke-opacity:1;stroke-width:2.13;stroke-linecap:butt;stroke-linejoin:round;stroke-miterlimit:1;stroke-dasharray:8.5,4.25;stroke-dashoffset:0"
           id="path110" /></g></g><g
       id="g112"><g
         id="g114"
         clip-path="url(#clipPath116)" /></g><g
       id="g120"><g
         id="g122"
         clip-path="url(#clipPath124)" /></g><g
       id="g128"><g
         id="g130"
         clip-path="url(#clipPath132)"><text
           transform="matrix(1,0,0,-1,20.58,91.02)"
           id="text136"><tspan
             style="fill:#7f7f7f;fill-opacity:1;fill-rule:nonzero;stroke:none;font-family:Courier New;font-variant:normal;font-weight:bold;font-size:9;writing-mode:lr;-inkscape-font-specification:Courier-Bold"
             x="0 5.4"
             y="0"
             sodipodi:role="line"
             id="tspan138">−1</tspan></text>
<text
           transform="matrix(1,0,0,-1,25.98,176.57)"
           id="text140"><tspan
             style="fill:#7f7f7f;fill-opacity:1;fill-rule:nonzero;stroke:none;font-family:Courier New;font-variant:normal;font-weight:bold;font-size:9;writing-mode:lr;-inkscape-font-specification:Courier-Bold"
             x="0"
             y="0"
             id="tspan142">0</tspan></text>
<text
           transform="matrix(1,0,0,-1,25.98,262.11)"
           id="text144"><tspan
             style="fill:#7f7f7f;fill-opacity:1;fill-rule:nonzero;stroke:none;font-family:Courier New;font-variant:normal;font-weight:bold;font-size:9;writing-mode:lr;-inkscape-font-specification:Courier-Bold"
             x="0"
             y="0"
             id="tspan146">1</tspan></text>
<text
           transform="matrix(1,0,0,-1,25.98,347.65)"
           id="text148"><tspan
             style="fill:#7f7f7f;fill-opacity:1;fill-rule:nonzero;stroke:none;font-family:Courier New;font-variant:normal;font-weight:bold;font-size:9;writing-mode:lr;-inkscape-font-specification:Courier-Bold"
             x="0"
             y="0"
             id="tspan150">2</tspan></text>
</g></g><g
       id="g152"><g
         id="g154"
         clip-path="url(#clipPath156)" /></g><g
       id="g160"><g
         id="g162"
         clip-path="url(#clipPath164)"><path
           d="m 34.22,93.55 4.25,0"
           style="fill:none;stroke:#7f7f7f;stroke-opacity:1;stroke-width:1.06;stroke-linecap:butt;stroke-linejoin:round;stroke-miterlimit:10;stroke-dasharray:none"
           id="path168" /><path
           d="m 34.22,179.09 4.25,0"
           style="fill:none;stroke:#7f7f7f;stroke-opacity:1;stroke-width:1.06;stroke-linecap:butt;stroke-linejoin:round;stroke-miterlimit:10;stroke-dasharray:none"
           id="path170" /><path
           d="m 34.22,264.64 4.25,0"
           style="fill:none;stroke:#7f7f7f;stroke-opacity:1;stroke-width:1.06;stroke-linecap:butt;stroke-linejoin:round;stroke-miterlimit:10;stroke-dasharray:none"
           id="path172" /><path
           d="m 34.22,350.18 4.25,0"
           style="fill:none;stroke:#7f7f7f;stroke-opacity:1;stroke-width:1.06;stroke-linecap:butt;stroke-linejoin:round;stroke-miterlimit:10;stroke-dasharray:none"
           id="path174" /></g></g><g
       id="g176"><g
         id="g178"
         clip-path="url(#clipPath180)" /></g><g
       id="g184"><g
         id="g186"
         clip-path="url(#clipPath188)" /></g><g
       id="g192"><g
         id="g194"
         clip-path="url(#clipPath196)" /></g><g
       id="g200"><g
         id="g202"
         clip-path="url(#clipPath204)" /></g><g
       id="g208"><g
         id="g210"
         clip-path="url(#clipPath212)" /></g><g
       id="g216"><g
         id="g218"
         clip-path="url(#clipPath220)"><path
           d="m 53.11,74.33 0,4.25"
           style="fill:none;stroke:#7f7f7f;stroke-opacity:1;stroke-width:1.06;stroke-linecap:butt;stroke-linejoin:round;stroke-miterlimit:10;stroke-dasharray:none"
           id="path224" /><path
           d="m 135.58,74.33 0,4.25"
           style="fill:none;stroke:#7f7f7f;stroke-opacity:1;stroke-width:1.06;stroke-linecap:butt;stroke-linejoin:round;stroke-miterlimit:10;stroke-dasharray:none"
           id="path226" /><path
           d="m 218.05,74.33 0,4.25"
           style="fill:none;stroke:#7f7f7f;stroke-opacity:1;stroke-width:1.06;stroke-linecap:butt;stroke-linejoin:round;stroke-miterlimit:10;stroke-dasharray:none"
           id="path228" /><path
           d="m 301.43,74.33 0,4.25"
           style="fill:none;stroke:#7f7f7f;stroke-opacity:1;stroke-width:1.06;stroke-linecap:butt;stroke-linejoin:round;stroke-miterlimit:10;stroke-dasharray:none"
           id="path230" /><path
           d="m 384.81,74.33 0,4.25"
           style="fill:none;stroke:#7f7f7f;stroke-opacity:1;stroke-width:1.06;stroke-linecap:butt;stroke-linejoin:round;stroke-miterlimit:10;stroke-dasharray:none"
           id="path232" /></g></g><g
       id="g234"><g
         id="g236"
         clip-path="url(#clipPath238)" /></g><g
       id="g242"><g
         id="g244"
         clip-path="url(#clipPath246)"><text
           transform="matrix(1,0,0,-1,31.51,66.44)"
           id="text250"><tspan
             style="fill:#7f7f7f;fill-opacity:1;fill-rule:nonzero;stroke:none;font-family:Courier New;font-variant:normal;font-weight:bold;font-size:9;writing-mode:lr;-inkscape-font-specification:Courier-Bold"
             x="0 5.4 10.8 16.2 21.6 27 32.4 37.8"
             y="0"
             sodipodi:role="line"
             id="tspan252">ene 2012</tspan></text>
<text
           transform="matrix(1,0,0,-1,113.98,66.44)"
           id="text254"><tspan
             style="fill:#7f7f7f;fill-opacity:1;fill-rule:nonzero;stroke:none;font-family:Courier New;font-variant:normal;font-weight:bold;font-size:9;writing-mode:lr;-inkscape-font-specification:Courier-Bold"
             x="0 5.4 10.8 16.2 21.6 27 32.4 37.8"
             y="0"
             sodipodi:role="line"
             id="tspan256">abr 2012</tspan></text>
<text
           transform="matrix(1,0,0,-1,196.45,66.44)"
           id="text258"><tspan
             style="fill:#7f7f7f;fill-opacity:1;fill-rule:nonzero;stroke:none;font-family:Courier New;font-variant:normal;font-weight:bold;font-size:9;writing-mode:lr;-inkscape-font-specification:Courier-Bold"
             x="0 5.4 10.8 16.2 21.6 27 32.4 37.8"
             y="0"
             sodipodi:role="line"
             id="tspan260">jul 2012</tspan></text>
<text
           transform="matrix(1,0,0,-1,279.83,66.44)"
           id="text262"><tspan
             style="fill:#7f7f7f;fill-opacity:1;fill-rule:nonzero;stroke:none;font-family:Courier New;font-variant:normal;font-weight:bold;font-size:9;writing-mode:lr;-inkscape-font-specification:Courier-Bold"
             x="0 5.4 10.8 16.2 21.6 27 32.4 37.8"
             y="0"
             sodipodi:role="line"
             id="tspan264">oct 2012</tspan></text>
<text
           transform="matrix(1,0,0,-1,363.21,66.44)"
           id="text266"><tspan
             style="fill:#7f7f7f;fill-opacity:1;fill-rule:nonzero;stroke:none;font-family:Courier New;font-variant:normal;font-weight:bold;font-size:9;writing-mode:lr;-inkscape-font-specification:Courier-Bold"
             x="0 5.4 10.8 16.2 21.6 27 32.4 37.8"
             y="0"
             sodipodi:role="line"
             id="tspan268">ene 2013</tspan></text>
</g></g><g
       id="g270"><g
         id="g272"
         clip-path="url(#clipPath274)" /></g><g
       id="g278"><g
         id="g280"
         clip-path="url(#clipPath282)" /></g><g
       id="g286"><g
         id="g288"
         clip-path="url(#clipPath290)" /></g><g
       id="g294"><g
         id="g296"
         clip-path="url(#clipPath298)" /></g><g
       id="g302"><g
         id="g304"
         clip-path="url(#clipPath306)"><text
           transform="matrix(1,0,0,-1,202.91,56.65)"
           id="text310"><tspan
             style="fill:#000000;fill-opacity:1;fill-rule:nonzero;stroke:none;font-family:Courier New;font-variant:normal;font-weight:bold;font-size:11;writing-mode:lr;-inkscape-font-specification:Courier-Bold"
             x="0 6.6 13.2 19.8 26.4"
             y="0"
             sodipodi:role="line"
             id="tspan312">Fecha</tspan></text>
</g></g><g
       id="g314"><g
         id="g316"
         clip-path="url(#clipPath318)" /></g><g
       id="g322"><g
         id="g324"
         clip-path="url(#clipPath326)"><text
           transform="matrix(0,1,1,0,16.98,208.74)"
           id="text330"><tspan
             style="fill:#000000;fill-opacity:1;fill-rule:nonzero;stroke:none;font-family:Courier New;font-variant:normal;font-weight:bold;font-size:11;writing-mode:lr;-inkscape-font-specification:Courier-Bold"
             x="0 6.6 13.2 19.8 26.4 33 39.6"
             y="0"
             sodipodi:role="line"
             id="tspan332">Valores</tspan></text>
</g></g><g
       id="g334"><g
         id="g336"
         clip-path="url(#clipPath338)" /></g><g
       id="g342"><g
         id="g344"
         clip-path="url(#clipPath346)" /></g><g
       id="g350"><g
         id="g352"
         clip-path="url(#clipPath354)" /></g><g
       id="g358"><g
         id="g360"
         clip-path="url(#clipPath362)" /></g><g
       id="g366"><g
         id="g368"
         clip-path="url(#clipPath370)" /></g><g
       id="g374"><g
         id="g376"
         clip-path="url(#clipPath378)"><path
           d="m 127.68,17.23 183.46,0 0,25.78 -183.46,0 0,-25.78 z"
           style="fill:#ffffff;fill-opacity:1;fill-rule:nonzero;stroke:#000000;stroke-opacity:1;stroke-width:1.06;stroke-linecap:round;stroke-linejoin:round;stroke-miterlimit:10;stroke-dasharray:none"
           id="path382" /></g></g><g
       id="g384"><g
         id="g386"
         clip-path="url(#clipPath388)" /></g><g
       id="g392"><g
         id="g394"
         clip-path="url(#clipPath396)"><text
           transform="matrix(1,0,0,-1,131.93,27.6)"
           id="text400"><tspan
             style="fill:#000000;fill-opacity:1;fill-rule:nonzero;stroke:none;font-family:Courier New;font-variant:normal;font-weight:bold;font-size:9;writing-mode:lr;-inkscape-font-specification:Courier-Bold"
             x="0 5.4 10.8 16.2 21.6 27 32.4 37.8"
             y="0"
             sodipodi:role="line"
             id="tspan402">variable</tspan></text>
</g></g><g
       id="g404"><g
         id="g406"
         clip-path="url(#clipPath408)" /></g><g
       id="g412"><g
         id="g414"
         clip-path="url(#clipPath416)"><path
           d="m 179.45,21.49 17.28,0 0,17.28 -17.28,0 0,-17.28 z"
           style="fill:#f2f2f2;fill-opacity:1;fill-rule:nonzero;stroke:#ffffff;stroke-opacity:1;stroke-width:1.06;stroke-linecap:round;stroke-linejoin:round;stroke-miterlimit:10;stroke-dasharray:none"
           id="path420" /></g></g><g
       id="g422"><g
         id="g424"
         clip-path="url(#clipPath426)" /></g><g
       id="g430"><g
         id="g432"
         clip-path="url(#clipPath434)"><path
           d="m 181.18,30.13 13.82,0"
           style="fill:none;stroke:#000000;stroke-opacity:1;stroke-width:2.13;stroke-linecap:butt;stroke-linejoin:round;stroke-miterlimit:10;stroke-dasharray:none"
           id="path438" /></g></g><g
       id="g440"><g
         id="g442"
         clip-path="url(#clipPath444)" /></g><g
       id="g448"><g
         id="g450"
         clip-path="url(#clipPath452)"><path
           d="m 222.65,21.49 17.28,0 0,17.28 -17.28,0 0,-17.28 z"
           style="fill:#f2f2f2;fill-opacity:1;fill-rule:nonzero;stroke:#ffffff;stroke-opacity:1;stroke-width:1.06;stroke-linecap:round;stroke-linejoin:round;stroke-miterlimit:10;stroke-dasharray:none"
           id="path456" /></g></g><g
       id="g458"><g
         id="g460"
         clip-path="url(#clipPath462)" /></g><g
       id="g466"><g
         id="g468"
         clip-path="url(#clipPath470)"><path
           d="m 224.38,30.13 13.82,0"
           style="fill:none;stroke:#000000;stroke-opacity:1;stroke-width:2.13;stroke-linecap:butt;stroke-linejoin:round;stroke-miterlimit:10;stroke-dasharray:4.25,4.25;stroke-dashoffset:0"
           id="path474" /></g></g><g
       id="g476"><g
         id="g478"
         clip-path="url(#clipPath480)" /></g><g
       id="g484"><g
         id="g486"
         clip-path="url(#clipPath488)"><path
           d="m 265.85,21.49 17.28,0 0,17.28 -17.28,0 0,-17.28 z"
           style="fill:#f2f2f2;fill-opacity:1;fill-rule:nonzero;stroke:#ffffff;stroke-opacity:1;stroke-width:1.06;stroke-linecap:round;stroke-linejoin:round;stroke-miterlimit:10;stroke-dasharray:none"
           id="path492" /></g></g><g
       id="g494"><g
         id="g496"
         clip-path="url(#clipPath498)" /></g><g
       id="g502"><g
         id="g504"
         clip-path="url(#clipPath506)"><path
           d="m 267.58,30.13 13.82,0"
           style="fill:none;stroke:#000000;stroke-opacity:1;stroke-width:2.13;stroke-linecap:butt;stroke-linejoin:round;stroke-miterlimit:10;stroke-dasharray:8.5,4.25;stroke-dashoffset:0"
           id="path510" /></g></g><g
       id="g512"><g
         id="g514"
         clip-path="url(#clipPath516)" /></g><g
       id="g520"><g
         id="g522"
         clip-path="url(#clipPath524)"><text
           transform="matrix(1,0,0,-1,198.89,27.6)"
           id="text528"><tspan
             style="fill:#000000;fill-opacity:1;fill-rule:nonzero;stroke:none;font-family:Courier New;font-variant:normal;font-weight:bold;font-size:9;writing-mode:lr;-inkscape-font-specification:Courier-Bold"
             x="0 5.4 10.8 16.2"
             y="0"
             sodipodi:role="line"
             id="tspan530">AAPL</tspan></text>
</g></g><g
       id="g532"><g
         id="g534"
         clip-path="url(#clipPath536)" /></g><g
       id="g540"><g
         id="g542"
         clip-path="url(#clipPath544)"><text
           transform="matrix(1,0,0,-1,242.09,27.6)"
           id="text548"><tspan
             style="fill:#000000;fill-opacity:1;fill-rule:nonzero;stroke:none;font-family:Courier New;font-variant:normal;font-weight:bold;font-size:9;writing-mode:lr;-inkscape-font-specification:Courier-Bold"
             x="0 5.4 10.8 16.2"
             y="0"
             sodipodi:role="line"
             id="tspan550">MSFT</tspan></text>
</g></g><g
       id="g552"><g
         id="g554"
         clip-path="url(#clipPath556)" /></g><g
       id="g560"><g
         id="g562"
         clip-path="url(#clipPath564)"><text
           transform="matrix(1,0,0,-1,285.29,27.6)"
           id="text568"><tspan
             style="fill:#000000;fill-opacity:1;fill-rule:nonzero;stroke:none;font-family:Courier New;font-variant:normal;font-weight:bold;font-size:9;writing-mode:lr;-inkscape-font-specification:Courier-Bold"
             x="0 5.4 10.8 16.2"
             y="0"
             sodipodi:role="line"
             id="tspan570">YHOO</tspan></text>
</g></g><g
       id="g572"><g
         id="g574"
         clip-path="url(#clipPath576)" /></g><g
       id="g580"><g
         id="g582"
         clip-path="url(#clipPath584)" /></g><g
       id="g588"><g
         id="g590"
         clip-path="url(#clipPath592)" /></g><g
       id="g596"><g
         id="g598"
         clip-path="url(#clipPath600)" /></g><g
       id="g604"><g
         id="g606"
         clip-path="url(#clipPath608)" /></g><g
       id="g612"><g
         id="g614"
         clip-path="url(#clipPath616)" /></g><g
       id="g620"><g
         id="g622"
         clip-path="url(#clipPath624)" /></g><g
       id="g628"><g
         id="g630"
         clip-path="url(#clipPath632)" /></g><g
       id="g636"><g
         id="g638"
         clip-path="url(#clipPath640)" /></g><g
       id="g644"><g
         id="g646"
         clip-path="url(#clipPath648)"><text
           transform="matrix(1,0,0,-1,153.11,388.69)"
           id="text652"><tspan
             style="fill:#000000;fill-opacity:1;fill-rule:nonzero;stroke:none;font-family:Courier New;font-variant:normal;font-weight:bold;font-size:13;writing-mode:lr;-inkscape-font-specification:Courier-Bold"
             x="0 7.8 15.6 23.4 31.2 39 46.8 54.6 62.4 70.2 78 85.8 93.6 101.4 109.2 117 124.8"
             y="0"
             sodipodi:role="line"
             id="tspan654">Betas (Filtering)</tspan></text>
</g></g><g
       id="g656"><g
         id="g658"
         clip-path="url(#clipPath660)" /></g><g
       id="g664"><g
         id="g666"
         clip-path="url(#clipPath668)" /></g></g></svg>