<?xml version="1.0" encoding="UTF-8" standalone="no"?>
<!-- Created with Inkscape (http://www.inkscape.org/) -->

<svg
   xmlns:dc="http://purl.org/dc/elements/1.1/"
   xmlns:cc="http://creativecommons.org/ns#"
   xmlns:rdf="http://www.w3.org/1999/02/22-rdf-syntax-ns#"
   xmlns:svg="http://www.w3.org/2000/svg"
   xmlns="http://www.w3.org/2000/svg"
   xmlns:sodipodi="http://sodipodi.sourceforge.net/DTD/sodipodi-0.dtd"
   xmlns:inkscape="http://www.inkscape.org/namespaces/inkscape"
   id="svg2"
   version="1.1"
   inkscape:version="0.48.4 r9939"
   width="517.5"
   height="516.25"
   xml:space="preserve"
   sodipodi:docname="4a_alfaMleSmooth.pdf"><metadata
     id="metadata8"><rdf:RDF><cc:Work
         rdf:about=""><dc:format>image/svg+xml</dc:format><dc:type
           rdf:resource="http://purl.org/dc/dcmitype/StillImage" /><dc:title></dc:title></cc:Work></rdf:RDF></metadata><defs
     id="defs6"><clipPath
       clipPathUnits="userSpaceOnUse"
       id="clipPath18"><path
         d="m 0,0 414.75,0 0,414 L 0,414 0,0 z"
         id="path20" /></clipPath><clipPath
       clipPathUnits="userSpaceOnUse"
       id="clipPath26"><path
         d="m 0,0 414.75,0 0,414 L 0,414 0,0 z"
         id="path28" /></clipPath><clipPath
       clipPathUnits="userSpaceOnUse"
       id="clipPath34"><path
         d="m 0,0 414.75,0 0,414 L 0,414 0,0 z"
         id="path36" /></clipPath><clipPath
       clipPathUnits="userSpaceOnUse"
       id="clipPath44"><path
         d="m 0,0 414.75,0 0,414 L 0,414 0,0 z"
         id="path46" /></clipPath><clipPath
       clipPathUnits="userSpaceOnUse"
       id="clipPath52"><path
         d="m 0,0 414.75,0 0,414 L 0,414 0,0 z"
         id="path54" /></clipPath><clipPath
       clipPathUnits="userSpaceOnUse"
       id="clipPath60"><path
         d="m 0,0 414.75,0 0,414 L 0,414 0,0 z"
         id="path62" /></clipPath><clipPath
       clipPathUnits="userSpaceOnUse"
       id="clipPath68"><path
         d="m 60.07,78.58 340.28,0 0,306.51 -340.28,0 0,-306.51 z"
         id="path70" /></clipPath><clipPath
       clipPathUnits="userSpaceOnUse"
       id="clipPath118"><path
         d="m 0,0 414.75,0 0,414 L 0,414 0,0 z"
         id="path120" /></clipPath><clipPath
       clipPathUnits="userSpaceOnUse"
       id="clipPath126"><path
         d="m 0,0 414.75,0 0,414 L 0,414 0,0 z"
         id="path128" /></clipPath><clipPath
       clipPathUnits="userSpaceOnUse"
       id="clipPath134"><path
         d="m 0,0 414.75,0 0,414 L 0,414 0,0 z"
         id="path136" /></clipPath><clipPath
       clipPathUnits="userSpaceOnUse"
       id="clipPath158"><path
         d="m 0,0 414.75,0 0,414 L 0,414 0,0 z"
         id="path160" /></clipPath><clipPath
       clipPathUnits="userSpaceOnUse"
       id="clipPath166"><path
         d="m 0,0 414.75,0 0,414 L 0,414 0,0 z"
         id="path168" /></clipPath><clipPath
       clipPathUnits="userSpaceOnUse"
       id="clipPath182"><path
         d="m 0,0 414.75,0 0,414 L 0,414 0,0 z"
         id="path184" /></clipPath><clipPath
       clipPathUnits="userSpaceOnUse"
       id="clipPath190"><path
         d="m 0,0 414.75,0 0,414 L 0,414 0,0 z"
         id="path192" /></clipPath><clipPath
       clipPathUnits="userSpaceOnUse"
       id="clipPath198"><path
         d="m 0,0 414.75,0 0,414 L 0,414 0,0 z"
         id="path200" /></clipPath><clipPath
       clipPathUnits="userSpaceOnUse"
       id="clipPath206"><path
         d="m 0,0 414.75,0 0,414 L 0,414 0,0 z"
         id="path208" /></clipPath><clipPath
       clipPathUnits="userSpaceOnUse"
       id="clipPath214"><path
         d="m 0,0 414.75,0 0,414 L 0,414 0,0 z"
         id="path216" /></clipPath><clipPath
       clipPathUnits="userSpaceOnUse"
       id="clipPath222"><path
         d="m 0,0 414.75,0 0,414 L 0,414 0,0 z"
         id="path224" /></clipPath><clipPath
       clipPathUnits="userSpaceOnUse"
       id="clipPath240"><path
         d="m 0,0 414.75,0 0,414 L 0,414 0,0 z"
         id="path242" /></clipPath><clipPath
       clipPathUnits="userSpaceOnUse"
       id="clipPath248"><path
         d="m 0,0 414.75,0 0,414 L 0,414 0,0 z"
         id="path250" /></clipPath><clipPath
       clipPathUnits="userSpaceOnUse"
       id="clipPath276"><path
         d="m 0,0 414.75,0 0,414 L 0,414 0,0 z"
         id="path278" /></clipPath><clipPath
       clipPathUnits="userSpaceOnUse"
       id="clipPath284"><path
         d="m 0,0 414.75,0 0,414 L 0,414 0,0 z"
         id="path286" /></clipPath><clipPath
       clipPathUnits="userSpaceOnUse"
       id="clipPath292"><path
         d="m 0,0 414.75,0 0,414 L 0,414 0,0 z"
         id="path294" /></clipPath><clipPath
       clipPathUnits="userSpaceOnUse"
       id="clipPath300"><path
         d="m 0,0 414.75,0 0,414 L 0,414 0,0 z"
         id="path302" /></clipPath><clipPath
       clipPathUnits="userSpaceOnUse"
       id="clipPath308"><path
         d="m 0,0 414.75,0 0,414 L 0,414 0,0 z"
         id="path310" /></clipPath><clipPath
       clipPathUnits="userSpaceOnUse"
       id="clipPath320"><path
         d="m 0,0 414.75,0 0,414 L 0,414 0,0 z"
         id="path322" /></clipPath><clipPath
       clipPathUnits="userSpaceOnUse"
       id="clipPath328"><path
         d="m 0,0 414.75,0 0,414 L 0,414 0,0 z"
         id="path330" /></clipPath><clipPath
       clipPathUnits="userSpaceOnUse"
       id="clipPath340"><path
         d="m 0,0 414.75,0 0,414 L 0,414 0,0 z"
         id="path342" /></clipPath><clipPath
       clipPathUnits="userSpaceOnUse"
       id="clipPath348"><path
         d="m 0,0 414.75,0 0,414 L 0,414 0,0 z"
         id="path350" /></clipPath><clipPath
       clipPathUnits="userSpaceOnUse"
       id="clipPath356"><path
         d="m 0,0 414.75,0 0,414 L 0,414 0,0 z"
         id="path358" /></clipPath><clipPath
       clipPathUnits="userSpaceOnUse"
       id="clipPath364"><path
         d="m 0,0 414.75,0 0,414 L 0,414 0,0 z"
         id="path366" /></clipPath><clipPath
       clipPathUnits="userSpaceOnUse"
       id="clipPath372"><path
         d="m 0,0 414.75,0 0,414 L 0,414 0,0 z"
         id="path374" /></clipPath><clipPath
       clipPathUnits="userSpaceOnUse"
       id="clipPath380"><path
         d="m 0,0 414.75,0 0,414 L 0,414 0,0 z"
         id="path382" /></clipPath><clipPath
       clipPathUnits="userSpaceOnUse"
       id="clipPath390"><path
         d="m 0,0 414.75,0 0,414 L 0,414 0,0 z"
         id="path392" /></clipPath><clipPath
       clipPathUnits="userSpaceOnUse"
       id="clipPath398"><path
         d="m 0,0 414.75,0 0,414 L 0,414 0,0 z"
         id="path400" /></clipPath><clipPath
       clipPathUnits="userSpaceOnUse"
       id="clipPath406"><path
         d="m 0,0 414.75,0 0,414 L 0,414 0,0 z"
         id="path408" /></clipPath><clipPath
       clipPathUnits="userSpaceOnUse"
       id="clipPath414"><path
         d="m 0,0 414.75,0 0,414 L 0,414 0,0 z"
         id="path416" /></clipPath><clipPath
       clipPathUnits="userSpaceOnUse"
       id="clipPath424"><path
         d="m 0,0 414.75,0 0,414 L 0,414 0,0 z"
         id="path426" /></clipPath><clipPath
       clipPathUnits="userSpaceOnUse"
       id="clipPath432"><path
         d="m 0,0 414.75,0 0,414 L 0,414 0,0 z"
         id="path434" /></clipPath><clipPath
       clipPathUnits="userSpaceOnUse"
       id="clipPath442"><path
         d="m 0,0 414.75,0 0,414 L 0,414 0,0 z"
         id="path444" /></clipPath><clipPath
       clipPathUnits="userSpaceOnUse"
       id="clipPath450"><path
         d="m 0,0 414.75,0 0,414 L 0,414 0,0 z"
         id="path452" /></clipPath><clipPath
       clipPathUnits="userSpaceOnUse"
       id="clipPath460"><path
         d="m 0,0 414.75,0 0,414 L 0,414 0,0 z"
         id="path462" /></clipPath><clipPath
       clipPathUnits="userSpaceOnUse"
       id="clipPath468"><path
         d="m 0,0 414.75,0 0,414 L 0,414 0,0 z"
         id="path470" /></clipPath><clipPath
       clipPathUnits="userSpaceOnUse"
       id="clipPath478"><path
         d="m 0,0 414.75,0 0,414 L 0,414 0,0 z"
         id="path480" /></clipPath><clipPath
       clipPathUnits="userSpaceOnUse"
       id="clipPath486"><path
         d="m 0,0 414.75,0 0,414 L 0,414 0,0 z"
         id="path488" /></clipPath><clipPath
       clipPathUnits="userSpaceOnUse"
       id="clipPath496"><path
         d="m 0,0 414.75,0 0,414 L 0,414 0,0 z"
         id="path498" /></clipPath><clipPath
       clipPathUnits="userSpaceOnUse"
       id="clipPath504"><path
         d="m 0,0 414.75,0 0,414 L 0,414 0,0 z"
         id="path506" /></clipPath><clipPath
       clipPathUnits="userSpaceOnUse"
       id="clipPath514"><path
         d="m 0,0 414.75,0 0,414 L 0,414 0,0 z"
         id="path516" /></clipPath><clipPath
       clipPathUnits="userSpaceOnUse"
       id="clipPath522"><path
         d="m 0,0 414.75,0 0,414 L 0,414 0,0 z"
         id="path524" /></clipPath><clipPath
       clipPathUnits="userSpaceOnUse"
       id="clipPath532"><path
         d="m 0,0 414.75,0 0,414 L 0,414 0,0 z"
         id="path534" /></clipPath><clipPath
       clipPathUnits="userSpaceOnUse"
       id="clipPath540"><path
         d="m 0,0 414.75,0 0,414 L 0,414 0,0 z"
         id="path542" /></clipPath><clipPath
       clipPathUnits="userSpaceOnUse"
       id="clipPath550"><path
         d="m 0,0 414.75,0 0,414 L 0,414 0,0 z"
         id="path552" /></clipPath><clipPath
       clipPathUnits="userSpaceOnUse"
       id="clipPath558"><path
         d="m 0,0 414.75,0 0,414 L 0,414 0,0 z"
         id="path560" /></clipPath><clipPath
       clipPathUnits="userSpaceOnUse"
       id="clipPath570"><path
         d="m 0,0 414.75,0 0,414 L 0,414 0,0 z"
         id="path572" /></clipPath><clipPath
       clipPathUnits="userSpaceOnUse"
       id="clipPath578"><path
         d="m 0,0 414.75,0 0,414 L 0,414 0,0 z"
         id="path580" /></clipPath><clipPath
       clipPathUnits="userSpaceOnUse"
       id="clipPath590"><path
         d="m 0,0 414.75,0 0,414 L 0,414 0,0 z"
         id="path592" /></clipPath><clipPath
       clipPathUnits="userSpaceOnUse"
       id="clipPath598"><path
         d="m 0,0 414.75,0 0,414 L 0,414 0,0 z"
         id="path600" /></clipPath><clipPath
       clipPathUnits="userSpaceOnUse"
       id="clipPath606"><path
         d="m 0,0 414.75,0 0,414 L 0,414 0,0 z"
         id="path608" /></clipPath><clipPath
       clipPathUnits="userSpaceOnUse"
       id="clipPath614"><path
         d="m 0,0 414.75,0 0,414 L 0,414 0,0 z"
         id="path616" /></clipPath><clipPath
       clipPathUnits="userSpaceOnUse"
       id="clipPath622"><path
         d="m 0,0 414.75,0 0,414 L 0,414 0,0 z"
         id="path624" /></clipPath><clipPath
       clipPathUnits="userSpaceOnUse"
       id="clipPath630"><path
         d="m 0,0 414.75,0 0,414 L 0,414 0,0 z"
         id="path632" /></clipPath><clipPath
       clipPathUnits="userSpaceOnUse"
       id="clipPath638"><path
         d="m 0,0 414.75,0 0,414 L 0,414 0,0 z"
         id="path640" /></clipPath><clipPath
       clipPathUnits="userSpaceOnUse"
       id="clipPath646"><path
         d="m 0,0 414.75,0 0,414 L 0,414 0,0 z"
         id="path648" /></clipPath><clipPath
       clipPathUnits="userSpaceOnUse"
       id="clipPath654"><path
         d="m 0,0 414.75,0 0,414 L 0,414 0,0 z"
         id="path656" /></clipPath><clipPath
       clipPathUnits="userSpaceOnUse"
       id="clipPath662"><path
         d="m 0,0 414.75,0 0,414 L 0,414 0,0 z"
         id="path664" /></clipPath><clipPath
       clipPathUnits="userSpaceOnUse"
       id="clipPath674"><path
         d="m 0,0 414.75,0 0,414 L 0,414 0,0 z"
         id="path676" /></clipPath><clipPath
       clipPathUnits="userSpaceOnUse"
       id="clipPath682"><path
         d="m 0,0 414.75,0 0,414 L 0,414 0,0 z"
         id="path684" /></clipPath></defs><sodipodi:namedview
     pagecolor="#ffffff"
     bordercolor="#666666"
     borderopacity="1"
     objecttolerance="10"
     gridtolerance="10"
     guidetolerance="10"
     inkscape:pageopacity="0"
     inkscape:pageshadow="2"
     inkscape:window-width="640"
     inkscape:window-height="480"
     id="namedview4"
     showgrid="false"
     inkscape:zoom="0.45714286"
     inkscape:cx="258.75"
     inkscape:cy="258.125"
     inkscape:window-x="0"
     inkscape:window-y="0"
     inkscape:window-maximized="0"
     inkscape:current-layer="g10" /><g
     id="g10"
     inkscape:groupmode="layer"
     inkscape:label="4a_alfaMleSmooth"
     transform="matrix(1.25,0,0,-1.25,0,516.25)"><g
       id="g12" /><g
       id="g14"><g
         id="g16"
         clip-path="url(#clipPath18)" /></g><g
       id="g22"><g
         id="g24"
         clip-path="url(#clipPath26)" /></g><g
       id="g30"><g
         id="g32"
         clip-path="url(#clipPath34)"><path
           d="m 0,0 414.75,0 0,414 L 0,414 0,0 z"
           style="fill:#ffffff;fill-opacity:1;fill-rule:nonzero;stroke:#ffffff;stroke-opacity:1;stroke-width:1.06;stroke-linecap:round;stroke-linejoin:round;stroke-miterlimit:10;stroke-dasharray:none"
           id="path38" /></g></g><g
       id="g40"><g
         id="g42"
         clip-path="url(#clipPath44)" /></g><g
       id="g48"><g
         id="g50"
         clip-path="url(#clipPath52)" /></g><g
       id="g56"><g
         id="g58"
         clip-path="url(#clipPath60)" /></g><g
       id="g64"><g
         id="g66"
         clip-path="url(#clipPath68)"><path
           d="m 60.07,78.58 340.28,0 0,306.51 -340.28,0 0,-306.51 z"
           style="fill:#e5e5e5;fill-opacity:1;fill-rule:nonzero;stroke:none"
           id="path72" /><path
           d="m 60.07,144.99 340.28,0"
           style="fill:none;stroke:#f2f2f2;stroke-opacity:1;stroke-width:0.53;stroke-linecap:butt;stroke-linejoin:round;stroke-miterlimit:10;stroke-dasharray:none"
           id="path74" /><path
           d="m 60.07,222.4 340.28,0"
           style="fill:none;stroke:#f2f2f2;stroke-opacity:1;stroke-width:0.53;stroke-linecap:butt;stroke-linejoin:round;stroke-miterlimit:10;stroke-dasharray:none"
           id="path76" /><path
           d="m 60.07,299.82 340.28,0"
           style="fill:none;stroke:#f2f2f2;stroke-opacity:1;stroke-width:0.53;stroke-linecap:butt;stroke-linejoin:round;stroke-miterlimit:10;stroke-dasharray:none"
           id="path78" /><path
           d="m 60.07,377.23 340.28,0"
           style="fill:none;stroke:#f2f2f2;stroke-opacity:1;stroke-width:0.53;stroke-linecap:butt;stroke-linejoin:round;stroke-miterlimit:10;stroke-dasharray:none"
           id="path80" /><path
           d="m 112.61,78.58 0,306.51"
           style="fill:none;stroke:#f2f2f2;stroke-opacity:1;stroke-width:0.53;stroke-linecap:butt;stroke-linejoin:round;stroke-miterlimit:10;stroke-dasharray:none"
           id="path82" /><path
           d="m 190.16,78.58 0,306.51"
           style="fill:none;stroke:#f2f2f2;stroke-opacity:1;stroke-width:0.53;stroke-linecap:butt;stroke-linejoin:round;stroke-miterlimit:10;stroke-dasharray:none"
           id="path84" /><path
           d="m 268.13,78.58 0,306.51"
           style="fill:none;stroke:#f2f2f2;stroke-opacity:1;stroke-width:0.53;stroke-linecap:butt;stroke-linejoin:round;stroke-miterlimit:10;stroke-dasharray:none"
           id="path86" /><path
           d="m 346.53,78.58 0,306.51"
           style="fill:none;stroke:#f2f2f2;stroke-opacity:1;stroke-width:0.53;stroke-linecap:butt;stroke-linejoin:round;stroke-miterlimit:10;stroke-dasharray:none"
           id="path88" /><path
           d="m 60.07,106.28 340.28,0"
           style="fill:none;stroke:#ffffff;stroke-opacity:1;stroke-width:1.06;stroke-linecap:butt;stroke-linejoin:round;stroke-miterlimit:10;stroke-dasharray:none"
           id="path90" /><path
           d="m 60.07,183.7 340.28,0"
           style="fill:none;stroke:#ffffff;stroke-opacity:1;stroke-width:1.06;stroke-linecap:butt;stroke-linejoin:round;stroke-miterlimit:10;stroke-dasharray:none"
           id="path92" /><path
           d="m 60.07,261.11 340.28,0"
           style="fill:none;stroke:#ffffff;stroke-opacity:1;stroke-width:1.06;stroke-linecap:butt;stroke-linejoin:round;stroke-miterlimit:10;stroke-dasharray:none"
           id="path94" /><path
           d="m 60.07,338.52 340.28,0"
           style="fill:none;stroke:#ffffff;stroke-opacity:1;stroke-width:1.06;stroke-linecap:butt;stroke-linejoin:round;stroke-miterlimit:10;stroke-dasharray:none"
           id="path96" /><path
           d="m 73.83,78.58 0,306.51"
           style="fill:none;stroke:#ffffff;stroke-opacity:1;stroke-width:1.06;stroke-linecap:butt;stroke-linejoin:round;stroke-miterlimit:10;stroke-dasharray:none"
           id="path98" /><path
           d="m 151.38,78.58 0,306.51"
           style="fill:none;stroke:#ffffff;stroke-opacity:1;stroke-width:1.06;stroke-linecap:butt;stroke-linejoin:round;stroke-miterlimit:10;stroke-dasharray:none"
           id="path100" /><path
           d="m 228.93,78.58 0,306.51"
           style="fill:none;stroke:#ffffff;stroke-opacity:1;stroke-width:1.06;stroke-linecap:butt;stroke-linejoin:round;stroke-miterlimit:10;stroke-dasharray:none"
           id="path102" /><path
           d="m 307.33,78.58 0,306.51"
           style="fill:none;stroke:#ffffff;stroke-opacity:1;stroke-width:1.06;stroke-linecap:butt;stroke-linejoin:round;stroke-miterlimit:10;stroke-dasharray:none"
           id="path104" /><path
           d="m 385.73,78.58 0,306.51"
           style="fill:none;stroke:#ffffff;stroke-opacity:1;stroke-width:1.06;stroke-linecap:butt;stroke-linejoin:round;stroke-miterlimit:10;stroke-dasharray:none"
           id="path106" /><path
           d="m 75.54,231.84 0.85,0 0.85,0 0.85,0 2.56,0 0.85,0 0.85,0 0.86,0 0.85,0 3.41,0 0.85,0 0.85,0 0.85,0 2.56,0 0.85,0 0.85,0 0.86,0 0.85,0 2.56,0 0.85,0 0.85,0 0.85,0 0.85,0 2.56,0 0.85,0 0.85,0 0.86,0 0.85,0 2.56,0 0.85,0 0.85,0 0.85,0 0.85,0 3.41,0 0.86,0 0.85,0 0.85,0 2.56,0 0.85,0 0.85,0 0.85,0 0.86,0 2.55,0 0.85,0 0.86,0 0.85,0 0.85,0 2.56,0 0.85,0 0.85,0 0.85,0 0.86,0 2.55,0 0.85,0 0.86,0 0.85,0 0.85,0 2.56,0 0.85,0 0.85,0 0.85,0 0.86,0 2.55,0 0.86,0 0.85,0 0.85,0 3.41,0 0.85,0 0.85,0 0.86,0 0.85,0 2.55,0 0.86,0 0.85,0 0.85,0 0.85,0 2.56,0 0.85,0 0.85,0 0.86,0 0.85,0 2.55,0 0.86,0 0.85,0 0.85,0 0.85,0 2.56,0 0.85,0 0.85,0 0.86,0 0.85,0 2.56,0 0.85,0 0.85,0 0.85,0 0.85,0 2.56,0 0.85,0 0.86,0 0.85,0 0.85,0 3.41,0 0.85,0 0.85,0 0.86,0 2.55,0 0.85,0 0.86,0 0.85,0 0.85,0 2.56,0 0.85,0 0.85,0 0.85,0 0.86,0 2.55,0 0.85,0 0.86,0 0.85,0 0.85,0 2.56,0 0.85,0 0.85,0 0.85,0 0.86,0 2.55,0 0.86,0 1.7,0 0.85,0 2.56,0 0.85,0 0.85,0 0.86,0 0.85,0 2.55,0 0.86,0 0.85,0 0.85,0 0.85,0 2.56,0 0.85,0 0.85,0 0.86,0 0.85,0 2.55,0 0.86,0 0.85,0 0.85,0 0.85,0 2.56,0 0.85,0 0.85,0 0.86,0 0.85,0 2.56,0 0.85,0 0.85,0 0.85,0 0.85,0 2.56,0 0.85,0 0.86,0 0.85,0 0.85,0 2.56,0 0.85,0 0.85,0 0.85,0 0.85,0 3.41,0 0.86,0 0.85,0 0.85,0 2.56,0 0.85,0 0.85,0 0.85,0 0.86,0 2.55,0 0.85,0 0.86,0 0.85,0 0.85,0 2.56,0 0.85,0 0.85,0 0.85,0 0.86,0 2.55,0 0.86,0 0.85,0 0.85,0 0.85,0 2.56,0 0.85,0 0.85,0 0.85,0 0.86,0 2.55,0 0.86,0 0.85,0 0.85,0 0.85,0 2.56,0 0.85,0 0.85,0 0.86,0 0.85,0 4.26,0 0.85,0 0.85,0 2.56,0 0.85,0 0.85,0 0.86,0 0.85,0 2.56,0 0.85,0 0.85,0 0.85,0 0.85,0 2.56,0 0.85,0 0.85,0 1.71,0 2.56,0 0.85,0 0.85,0 0.85,0 0.85,0 2.56,0 0.85,0 0.86,0 0.85,0 0.85,0 2.56,0 0.85,0 0.85,0 0.85,0 0.86,0 2.55,0 0.85,0 0.86,0 0.85,0 0.85,0 2.56,0 1.7,0 0.85,0 0.86,0 2.55,0"
           style="fill:none;stroke:#2e2e2e;stroke-opacity:1;stroke-width:1.89;stroke-linecap:butt;stroke-linejoin:round;stroke-miterlimit:1;stroke-dasharray:none"
           id="path108" /><path
           d="m 75.54,371.16 0.85,0 0.85,0 0.85,0 2.56,0 0.85,0 0.85,0 0.86,0 0.85,0 3.41,0 0.85,0 0.85,0 0.85,0 2.56,0 0.85,0 0.85,0 0.86,0 0.85,0 2.56,0 0.85,0 0.85,0 0.85,0 0.85,0 2.56,0 0.85,0 0.85,0 0.86,0 0.85,0 2.56,0 0.85,0 0.85,0 0.85,0 0.85,0 3.41,0 0.86,0 0.85,0 0.85,0 2.56,0 0.85,0 0.85,0 0.85,0 0.86,0 2.55,0 0.85,0 0.86,0 0.85,0 0.85,0 2.56,0 0.85,0 0.85,0 0.85,0 0.86,0 2.55,0 0.85,0 0.86,0 0.85,0 0.85,0 2.56,0 0.85,0 0.85,0 0.85,0 0.86,0 2.55,0 0.86,0 0.85,0 0.85,0 3.41,0 0.85,0 0.85,0 0.86,0 0.85,0 2.55,0 0.86,0 0.85,0 0.85,0 0.85,0 2.56,0 0.85,0 0.85,0 0.86,0 0.85,0 2.55,0 0.86,0 0.85,0 0.85,0 0.85,0 2.56,0 0.85,0 0.85,0 0.86,0 0.85,0 2.56,0 0.85,0 0.85,0 0.85,0 0.85,0 2.56,0 0.85,0 0.86,0 0.85,0 0.85,0 3.41,0 0.85,0 0.85,0 0.86,0 2.55,0 0.85,0 0.86,0 0.85,0 0.85,0 2.56,0 0.85,0 0.85,0 0.85,0 0.86,0 2.55,0 0.85,0 0.86,0 0.85,0 0.85,0 2.56,0 0.85,0 0.85,0 0.85,0 0.86,0 2.55,0 0.86,0 1.7,0 0.85,0 2.56,0 0.85,0 0.85,0 0.86,0 0.85,0 2.55,0 0.86,0 0.85,0 0.85,0 0.85,0 2.56,0 0.85,0 0.85,0 0.86,0 0.85,0 2.55,0 0.86,0 0.85,0 0.85,0 0.85,0 2.56,0 0.85,0 0.85,0 0.86,0 0.85,0 2.56,0 0.85,0 0.85,0 0.85,0 0.85,0 2.56,0 0.85,0 0.86,0 0.85,0 0.85,0 2.56,0 0.85,0 0.85,0 0.85,0 0.85,0 3.41,0 0.86,0 0.85,0 0.85,0 2.56,0 0.85,0 0.85,0 0.85,0 0.86,0 2.55,0 0.85,0 0.86,0 0.85,0 0.85,0 2.56,0 0.85,0 0.85,0 0.85,0 0.86,0 2.55,0 0.86,0 0.85,0 0.85,0 0.85,0 2.56,0 0.85,0 0.85,0 0.85,0 0.86,0 2.55,0 0.86,0 0.85,0 0.85,0 0.85,0 2.56,0 0.85,0 0.85,0 0.86,0 0.85,0 4.26,0 0.85,0 0.85,0 2.56,0 0.85,0 0.85,0 0.86,0 0.85,0 2.56,0 0.85,0 0.85,0 0.85,0 0.85,0 2.56,0 0.85,0 0.85,0 1.71,0 2.56,0 0.85,0 0.85,0 0.85,0 0.85,0 2.56,0 0.85,0 0.86,0 0.85,0 0.85,0 2.56,0 0.85,0 0.85,0 0.85,0 0.86,0 2.55,0 0.85,0 0.86,0 0.85,0 0.85,0 2.56,0 1.7,0 0.85,0 0.86,0 2.55,0"
           style="fill:none;stroke:#b3b3b3;stroke-opacity:1;stroke-width:1.89;stroke-linecap:butt;stroke-linejoin:round;stroke-miterlimit:1;stroke-dasharray:13.24,5.68;stroke-dashoffset:0"
           id="path110" /><path
           d="m 75.54,92.51 0.85,0 0.85,0 0.85,0 2.56,0 0.85,0 0.85,0 0.86,0 0.85,0 3.41,0 0.85,0 0.85,0 0.85,0 2.56,0 0.85,0 0.85,0 0.86,0 0.85,0 2.56,0 0.85,0 0.85,0 0.85,0 0.85,0 2.56,0 0.85,0 0.85,0 0.86,0 0.85,0 2.56,0 0.85,0 0.85,0 0.85,0 0.85,0 3.41,0 0.86,0 0.85,0 0.85,0 2.56,0 0.85,0 0.85,0 0.85,0 0.86,0 2.55,0 0.85,0 0.86,0 0.85,0 0.85,0 2.56,0 0.85,0 0.85,0 0.85,0 0.86,0 2.55,0 0.85,0 0.86,0 0.85,0 0.85,0 2.56,0 0.85,0 0.85,0 0.85,0 0.86,0 2.55,0 0.86,0 0.85,0 0.85,0 3.41,0 0.85,0 0.85,0 0.86,0 0.85,0 2.55,0 0.86,0 0.85,0 0.85,0 0.85,0 2.56,0 0.85,0 0.85,0 0.86,0 0.85,0 2.55,0 0.86,0 0.85,0 0.85,0 0.85,0 2.56,0 0.85,0 0.85,0 0.86,0 0.85,0 2.56,0 0.85,0 0.85,0 0.85,0 0.85,0 2.56,0 0.85,0 0.86,0 0.85,0 0.85,0 3.41,0 0.85,0 0.85,0 0.86,0 2.55,0 0.85,0 0.86,0 0.85,0 0.85,0 2.56,0 0.85,0 0.85,0 0.85,0 0.86,0 2.55,0 0.85,0 0.86,0 0.85,0 0.85,0 2.56,0 0.85,0 0.85,0 0.85,0 0.86,0 2.55,0 0.86,0 1.7,0 0.85,0 2.56,0 0.85,0 0.85,0 0.86,0 0.85,0 2.55,0 0.86,0 0.85,0 0.85,0 0.85,0 2.56,0 0.85,0 0.85,0 0.86,0 0.85,0 2.55,0 0.86,0 0.85,0 0.85,0 0.85,0 2.56,0 0.85,0 0.85,0 0.86,0 0.85,0 2.56,0 0.85,0 0.85,0 0.85,0 0.85,0 2.56,0 0.85,0 0.86,0 0.85,0 0.85,0 2.56,0 0.85,0 0.85,0 0.85,0 0.85,0 3.41,0 0.86,0 0.85,0 0.85,0 2.56,0 0.85,0 0.85,0 0.85,0 0.86,0 2.55,0 0.85,0 0.86,0 0.85,0 0.85,0 2.56,0 0.85,0 0.85,0 0.85,0 0.86,0 2.55,0 0.86,0 0.85,0 0.85,0 0.85,0 2.56,0 0.85,0 0.85,0 0.85,0 0.86,0 2.55,0 0.86,0 0.85,0 0.85,0 0.85,0 2.56,0 0.85,0 0.85,0 0.86,0 0.85,0 4.26,0 0.85,0 0.85,0 2.56,0 0.85,0 0.85,0 0.86,0 0.85,0 2.56,0 0.85,0 0.85,0 0.85,0 0.85,0 2.56,0 0.85,0 0.85,0 1.71,0 2.56,0 0.85,0 0.85,0 0.85,0 0.85,0 2.56,0 0.85,0 0.86,0 0.85,0 0.85,0 2.56,0 0.85,0 0.85,0 0.85,0 0.86,0 2.55,0 0.85,0 0.86,0 0.85,0 0.85,0 2.56,0 1.7,0 0.85,0 0.86,0 2.55,0"
           style="fill:none;stroke:#b3b3b3;stroke-opacity:1;stroke-width:1.89;stroke-linecap:butt;stroke-linejoin:round;stroke-miterlimit:1;stroke-dasharray:13.24,5.68;stroke-dashoffset:0"
           id="path112" /></g></g><g
       id="g114"><g
         id="g116"
         clip-path="url(#clipPath118)" /></g><g
       id="g122"><g
         id="g124"
         clip-path="url(#clipPath126)" /></g><g
       id="g130"><g
         id="g132"
         clip-path="url(#clipPath134)"><text
           transform="matrix(1,0,0,-1,20.58,103.75)"
           id="text138"><tspan
             style="fill:#7f7f7f;fill-opacity:1;fill-rule:nonzero;stroke:none;font-family:Courier New;font-variant:normal;font-weight:bold;font-size:9;writing-mode:lr;-inkscape-font-specification:Courier-Bold"
             x="0 5.4 10.8 16.2 21.6 27"
             y="0"
             sodipodi:role="line"
             id="tspan140">0.0000</tspan></text>
<text
           transform="matrix(1,0,0,-1,20.58,181.17)"
           id="text142"><tspan
             style="fill:#7f7f7f;fill-opacity:1;fill-rule:nonzero;stroke:none;font-family:Courier New;font-variant:normal;font-weight:bold;font-size:9;writing-mode:lr;-inkscape-font-specification:Courier-Bold"
             x="0 5.4 10.8 16.2 21.6 27"
             y="0"
             sodipodi:role="line"
             id="tspan144">0.0025</tspan></text>
<text
           transform="matrix(1,0,0,-1,20.58,258.58)"
           id="text146"><tspan
             style="fill:#7f7f7f;fill-opacity:1;fill-rule:nonzero;stroke:none;font-family:Courier New;font-variant:normal;font-weight:bold;font-size:9;writing-mode:lr;-inkscape-font-specification:Courier-Bold"
             x="0 5.4 10.8 16.2 21.6 27"
             y="0"
             sodipodi:role="line"
             id="tspan148">0.0050</tspan></text>
<text
           transform="matrix(1,0,0,-1,20.58,336)"
           id="text150"><tspan
             style="fill:#7f7f7f;fill-opacity:1;fill-rule:nonzero;stroke:none;font-family:Courier New;font-variant:normal;font-weight:bold;font-size:9;writing-mode:lr;-inkscape-font-specification:Courier-Bold"
             x="0 5.4 10.8 16.2 21.6 27"
             y="0"
             sodipodi:role="line"
             id="tspan152">0.0075</tspan></text>
</g></g><g
       id="g154"><g
         id="g156"
         clip-path="url(#clipPath158)" /></g><g
       id="g162"><g
         id="g164"
         clip-path="url(#clipPath166)"><path
           d="m 55.82,106.28 4.25,0"
           style="fill:none;stroke:#7f7f7f;stroke-opacity:1;stroke-width:1.06;stroke-linecap:butt;stroke-linejoin:round;stroke-miterlimit:10;stroke-dasharray:none"
           id="path170" /><path
           d="m 55.82,183.7 4.25,0"
           style="fill:none;stroke:#7f7f7f;stroke-opacity:1;stroke-width:1.06;stroke-linecap:butt;stroke-linejoin:round;stroke-miterlimit:10;stroke-dasharray:none"
           id="path172" /><path
           d="m 55.82,261.11 4.25,0"
           style="fill:none;stroke:#7f7f7f;stroke-opacity:1;stroke-width:1.06;stroke-linecap:butt;stroke-linejoin:round;stroke-miterlimit:10;stroke-dasharray:none"
           id="path174" /><path
           d="m 55.82,338.52 4.25,0"
           style="fill:none;stroke:#7f7f7f;stroke-opacity:1;stroke-width:1.06;stroke-linecap:butt;stroke-linejoin:round;stroke-miterlimit:10;stroke-dasharray:none"
           id="path176" /></g></g><g
       id="g178"><g
         id="g180"
         clip-path="url(#clipPath182)" /></g><g
       id="g186"><g
         id="g188"
         clip-path="url(#clipPath190)" /></g><g
       id="g194"><g
         id="g196"
         clip-path="url(#clipPath198)" /></g><g
       id="g202"><g
         id="g204"
         clip-path="url(#clipPath206)" /></g><g
       id="g210"><g
         id="g212"
         clip-path="url(#clipPath214)" /></g><g
       id="g218"><g
         id="g220"
         clip-path="url(#clipPath222)"><path
           d="m 73.83,74.33 0,4.25"
           style="fill:none;stroke:#7f7f7f;stroke-opacity:1;stroke-width:1.06;stroke-linecap:butt;stroke-linejoin:round;stroke-miterlimit:10;stroke-dasharray:none"
           id="path226" /><path
           d="m 151.38,74.33 0,4.25"
           style="fill:none;stroke:#7f7f7f;stroke-opacity:1;stroke-width:1.06;stroke-linecap:butt;stroke-linejoin:round;stroke-miterlimit:10;stroke-dasharray:none"
           id="path228" /><path
           d="m 228.93,74.33 0,4.25"
           style="fill:none;stroke:#7f7f7f;stroke-opacity:1;stroke-width:1.06;stroke-linecap:butt;stroke-linejoin:round;stroke-miterlimit:10;stroke-dasharray:none"
           id="path230" /><path
           d="m 307.33,74.33 0,4.25"
           style="fill:none;stroke:#7f7f7f;stroke-opacity:1;stroke-width:1.06;stroke-linecap:butt;stroke-linejoin:round;stroke-miterlimit:10;stroke-dasharray:none"
           id="path232" /><path
           d="m 385.73,74.33 0,4.25"
           style="fill:none;stroke:#7f7f7f;stroke-opacity:1;stroke-width:1.06;stroke-linecap:butt;stroke-linejoin:round;stroke-miterlimit:10;stroke-dasharray:none"
           id="path234" /></g></g><g
       id="g236"><g
         id="g238"
         clip-path="url(#clipPath240)" /></g><g
       id="g244"><g
         id="g246"
         clip-path="url(#clipPath248)"><text
           transform="matrix(1,0,0,-1,52.23,66.44)"
           id="text252"><tspan
             style="fill:#7f7f7f;fill-opacity:1;fill-rule:nonzero;stroke:none;font-family:Courier New;font-variant:normal;font-weight:bold;font-size:9;writing-mode:lr;-inkscape-font-specification:Courier-Bold"
             x="0 5.4 10.8 16.2 21.6 27 32.4 37.8"
             y="0"
             sodipodi:role="line"
             id="tspan254">ene 2012</tspan></text>
<text
           transform="matrix(1,0,0,-1,129.78,66.44)"
           id="text256"><tspan
             style="fill:#7f7f7f;fill-opacity:1;fill-rule:nonzero;stroke:none;font-family:Courier New;font-variant:normal;font-weight:bold;font-size:9;writing-mode:lr;-inkscape-font-specification:Courier-Bold"
             x="0 5.4 10.8 16.2 21.6 27 32.4 37.8"
             y="0"
             sodipodi:role="line"
             id="tspan258">abr 2012</tspan></text>
<text
           transform="matrix(1,0,0,-1,207.33,66.44)"
           id="text260"><tspan
             style="fill:#7f7f7f;fill-opacity:1;fill-rule:nonzero;stroke:none;font-family:Courier New;font-variant:normal;font-weight:bold;font-size:9;writing-mode:lr;-inkscape-font-specification:Courier-Bold"
             x="0 5.4 10.8 16.2 21.6 27 32.4 37.8"
             y="0"
             sodipodi:role="line"
             id="tspan262">jul 2012</tspan></text>
<text
           transform="matrix(1,0,0,-1,285.73,66.44)"
           id="text264"><tspan
             style="fill:#7f7f7f;fill-opacity:1;fill-rule:nonzero;stroke:none;font-family:Courier New;font-variant:normal;font-weight:bold;font-size:9;writing-mode:lr;-inkscape-font-specification:Courier-Bold"
             x="0 5.4 10.8 16.2 21.6 27 32.4 37.8"
             y="0"
             sodipodi:role="line"
             id="tspan266">oct 2012</tspan></text>
<text
           transform="matrix(1,0,0,-1,364.13,66.44)"
           id="text268"><tspan
             style="fill:#7f7f7f;fill-opacity:1;fill-rule:nonzero;stroke:none;font-family:Courier New;font-variant:normal;font-weight:bold;font-size:9;writing-mode:lr;-inkscape-font-specification:Courier-Bold"
             x="0 5.4 10.8 16.2 21.6 27 32.4 37.8"
             y="0"
             sodipodi:role="line"
             id="tspan270">ene 2013</tspan></text>
</g></g><g
       id="g272"><g
         id="g274"
         clip-path="url(#clipPath276)" /></g><g
       id="g280"><g
         id="g282"
         clip-path="url(#clipPath284)" /></g><g
       id="g288"><g
         id="g290"
         clip-path="url(#clipPath292)" /></g><g
       id="g296"><g
         id="g298"
         clip-path="url(#clipPath300)" /></g><g
       id="g304"><g
         id="g306"
         clip-path="url(#clipPath308)"><text
           transform="matrix(1,0,0,-1,213.71,56.65)"
           id="text312"><tspan
             style="fill:#000000;fill-opacity:1;fill-rule:nonzero;stroke:none;font-family:Courier New;font-variant:normal;font-weight:bold;font-size:11;writing-mode:lr;-inkscape-font-specification:Courier-Bold"
             x="0 6.6 13.2 19.8 26.4"
             y="0"
             sodipodi:role="line"
             id="tspan314">Fecha</tspan></text>
</g></g><g
       id="g316"><g
         id="g318"
         clip-path="url(#clipPath320)" /></g><g
       id="g324"><g
         id="g326"
         clip-path="url(#clipPath328)"><text
           transform="matrix(0,1,1,0,16.98,208.74)"
           id="text332"><tspan
             style="fill:#000000;fill-opacity:1;fill-rule:nonzero;stroke:none;font-family:Courier New;font-variant:normal;font-weight:bold;font-size:11;writing-mode:lr;-inkscape-font-specification:Courier-Bold"
             x="0 6.6 13.2 19.8 26.4 33 39.6"
             y="0"
             sodipodi:role="line"
             id="tspan334">Valores</tspan></text>
</g></g><g
       id="g336"><g
         id="g338"
         clip-path="url(#clipPath340)" /></g><g
       id="g344"><g
         id="g346"
         clip-path="url(#clipPath348)" /></g><g
       id="g352"><g
         id="g354"
         clip-path="url(#clipPath356)" /></g><g
       id="g360"><g
         id="g362"
         clip-path="url(#clipPath364)" /></g><g
       id="g368"><g
         id="g370"
         clip-path="url(#clipPath372)" /></g><g
       id="g376"><g
         id="g378"
         clip-path="url(#clipPath380)"><path
           d="m 108.78,17.23 242.86,0 0,25.78 -242.86,0 0,-25.78 z"
           style="fill:#ffffff;fill-opacity:1;fill-rule:nonzero;stroke:#000000;stroke-opacity:1;stroke-width:1.06;stroke-linecap:round;stroke-linejoin:round;stroke-miterlimit:10;stroke-dasharray:none"
           id="path384" /></g></g><g
       id="g386"><g
         id="g388"
         clip-path="url(#clipPath390)" /></g><g
       id="g394"><g
         id="g396"
         clip-path="url(#clipPath398)" /></g><g
       id="g402"><g
         id="g404"
         clip-path="url(#clipPath406)" /></g><g
       id="g410"><g
         id="g412"
         clip-path="url(#clipPath414)"><path
           d="m 117.35,21.49 17.28,0 0,17.28 -17.28,0 0,-17.28 z"
           style="fill:#f2f2f2;fill-opacity:1;fill-rule:nonzero;stroke:#ffffff;stroke-opacity:1;stroke-width:1.06;stroke-linecap:round;stroke-linejoin:round;stroke-miterlimit:10;stroke-dasharray:none"
           id="path418" /></g></g><g
       id="g420"><g
         id="g422"
         clip-path="url(#clipPath424)" /></g><g
       id="g428"><g
         id="g430"
         clip-path="url(#clipPath432)"><path
           d="m 119.08,30.13 13.82,0"
           style="fill:none;stroke:#2e2e2e;stroke-opacity:1;stroke-width:1.89;stroke-linecap:butt;stroke-linejoin:round;stroke-miterlimit:10;stroke-dasharray:none"
           id="path436" /></g></g><g
       id="g438"><g
         id="g440"
         clip-path="url(#clipPath442)" /></g><g
       id="g446"><g
         id="g448"
         clip-path="url(#clipPath450)"><path
           d="m 119.08,30.13 13.82,0"
           style="fill:none;stroke:#2e2e2e;stroke-opacity:1;stroke-width:1.89;stroke-linecap:butt;stroke-linejoin:round;stroke-miterlimit:10;stroke-dasharray:13.24,5.68;stroke-dashoffset:0"
           id="path454" /></g></g><g
       id="g456"><g
         id="g458"
         clip-path="url(#clipPath460)" /></g><g
       id="g464"><g
         id="g466"
         clip-path="url(#clipPath468)"><path
           d="m 119.08,30.13 13.82,0"
           style="fill:none;stroke:#2e2e2e;stroke-opacity:1;stroke-width:1.89;stroke-linecap:butt;stroke-linejoin:round;stroke-miterlimit:10;stroke-dasharray:13.24,5.68;stroke-dashoffset:0"
           id="path472" /></g></g><g
       id="g474"><g
         id="g476"
         clip-path="url(#clipPath478)" /></g><g
       id="g482"><g
         id="g484"
         clip-path="url(#clipPath486)"><path
           d="m 160.55,21.49 17.28,0 0,17.28 -17.28,0 0,-17.28 z"
           style="fill:#f2f2f2;fill-opacity:1;fill-rule:nonzero;stroke:#ffffff;stroke-opacity:1;stroke-width:1.06;stroke-linecap:round;stroke-linejoin:round;stroke-miterlimit:10;stroke-dasharray:none"
           id="path490" /></g></g><g
       id="g492"><g
         id="g494"
         clip-path="url(#clipPath496)" /></g><g
       id="g500"><g
         id="g502"
         clip-path="url(#clipPath504)"><path
           d="m 162.28,30.13 13.82,0"
           style="fill:none;stroke:#b3b3b3;stroke-opacity:1;stroke-width:1.89;stroke-linecap:butt;stroke-linejoin:round;stroke-miterlimit:10;stroke-dasharray:none"
           id="path508" /></g></g><g
       id="g510"><g
         id="g512"
         clip-path="url(#clipPath514)" /></g><g
       id="g518"><g
         id="g520"
         clip-path="url(#clipPath522)"><path
           d="m 162.28,30.13 13.82,0"
           style="fill:none;stroke:#b3b3b3;stroke-opacity:1;stroke-width:1.89;stroke-linecap:butt;stroke-linejoin:round;stroke-miterlimit:10;stroke-dasharray:13.24,5.68;stroke-dashoffset:0"
           id="path526" /></g></g><g
       id="g528"><g
         id="g530"
         clip-path="url(#clipPath532)" /></g><g
       id="g536"><g
         id="g538"
         clip-path="url(#clipPath540)"><path
           d="m 162.28,30.13 13.82,0"
           style="fill:none;stroke:#b3b3b3;stroke-opacity:1;stroke-width:1.89;stroke-linecap:butt;stroke-linejoin:round;stroke-miterlimit:10;stroke-dasharray:13.24,5.68;stroke-dashoffset:0"
           id="path544" /></g></g><g
       id="g546"><g
         id="g548"
         clip-path="url(#clipPath550)" /></g><g
       id="g554"><g
         id="g556"
         clip-path="url(#clipPath558)"><text
           transform="matrix(1,0,0,-1,136.79,27.6)"
           id="text562"><tspan
             style="fill:#000000;fill-opacity:1;fill-rule:nonzero;stroke:none;font-family:Courier New;font-variant:normal;font-weight:bold;font-size:9;writing-mode:lr;-inkscape-font-specification:Courier-Bold"
             x="0 5.4 10.8 16.2"
             y="0"
             sodipodi:role="line"
             id="tspan564">Alfa</tspan></text>
</g></g><g
       id="g566"><g
         id="g568"
         clip-path="url(#clipPath570)" /></g><g
       id="g574"><g
         id="g576"
         clip-path="url(#clipPath578)"><text
           transform="matrix(1,0,0,-1,179.99,27.6)"
           id="text582"><tspan
             style="fill:#000000;fill-opacity:1;fill-rule:nonzero;stroke:none;font-family:Courier New;font-variant:normal;font-weight:bold;font-size:9;writing-mode:lr;-inkscape-font-specification:Courier-Bold"
             x="0 5.4 10.8 16.2 21.6 27 32.4 37.8 43.2 48.6 54 59.4 64.8 70.2 75.6 81 86.4 91.8 97.2 102.6 108 113.4 118.8 124.2 129.6 135 140.4 145.8 151.2 156.6 162"
             y="0"
             sodipodi:role="line"
             id="tspan584">intervalos de confianza del 95%</tspan></text>
</g></g><g
       id="g586"><g
         id="g588"
         clip-path="url(#clipPath590)" /></g><g
       id="g594"><g
         id="g596"
         clip-path="url(#clipPath598)" /></g><g
       id="g602"><g
         id="g604"
         clip-path="url(#clipPath606)" /></g><g
       id="g610"><g
         id="g612"
         clip-path="url(#clipPath614)" /></g><g
       id="g618"><g
         id="g620"
         clip-path="url(#clipPath622)" /></g><g
       id="g626"><g
         id="g628"
         clip-path="url(#clipPath630)" /></g><g
       id="g634"><g
         id="g636"
         clip-path="url(#clipPath638)" /></g><g
       id="g642"><g
         id="g644"
         clip-path="url(#clipPath646)" /></g><g
       id="g650"><g
         id="g652"
         clip-path="url(#clipPath654)" /></g><g
       id="g658"><g
         id="g660"
         clip-path="url(#clipPath662)"><text
           transform="matrix(1,0,0,-1,101.51,388.69)"
           id="text666"><tspan
             style="fill:#000000;fill-opacity:1;fill-rule:nonzero;stroke:none;font-family:Courier New;font-variant:normal;font-weight:bold;font-size:13;writing-mode:lr;-inkscape-font-specification:Courier-Bold"
             x="0 7.8 15.6 23.4 31.2 39 46.8 54.6 62.4 70.2 78 85.8 93.6 101.4 109.2 117 124.8 132.6 140.4 148.2 156 163.8 171.6 179.4 187.2 195 202.8 210.6 218.4 226.2 234 241.8 249.6"
             y="0"
             sodipodi:role="line"
             id="tspan668">Recorrido de alfa (Suavizamiento)</tspan></text>
</g></g><g
       id="g670"><g
         id="g672"
         clip-path="url(#clipPath674)" /></g><g
       id="g678"><g
         id="g680"
         clip-path="url(#clipPath682)" /></g></g></svg>