<?xml version="1.0" encoding="UTF-8" standalone="no"?>
<!-- Created with Inkscape (http://www.inkscape.org/) -->

<svg
   xmlns:dc="http://purl.org/dc/elements/1.1/"
   xmlns:cc="http://creativecommons.org/ns#"
   xmlns:rdf="http://www.w3.org/1999/02/22-rdf-syntax-ns#"
   xmlns:svg="http://www.w3.org/2000/svg"
   xmlns="http://www.w3.org/2000/svg"
   xmlns:sodipodi="http://sodipodi.sourceforge.net/DTD/sodipodi-0.dtd"
   xmlns:inkscape="http://www.inkscape.org/namespaces/inkscape"
   id="svg2"
   version="1.1"
   inkscape:version="0.48.4 r9939"
   width="517.5"
   height="516.25"
   xml:space="preserve"
   sodipodi:docname="4a_alfaBayesSmooth.pdf"><metadata
     id="metadata8"><rdf:RDF><cc:Work
         rdf:about=""><dc:format>image/svg+xml</dc:format><dc:type
           rdf:resource="http://purl.org/dc/dcmitype/StillImage" /><dc:title></dc:title></cc:Work></rdf:RDF></metadata><defs
     id="defs6"><clipPath
       clipPathUnits="userSpaceOnUse"
       id="clipPath18"><path
         d="m 0,0 414.75,0 0,414 L 0,414 0,0 z"
         id="path20" /></clipPath><clipPath
       clipPathUnits="userSpaceOnUse"
       id="clipPath26"><path
         d="m 0,0 414.75,0 0,414 L 0,414 0,0 z"
         id="path28" /></clipPath><clipPath
       clipPathUnits="userSpaceOnUse"
       id="clipPath34"><path
         d="m 0,0 414.75,0 0,414 L 0,414 0,0 z"
         id="path36" /></clipPath><clipPath
       clipPathUnits="userSpaceOnUse"
       id="clipPath44"><path
         d="m 0,0 414.75,0 0,414 L 0,414 0,0 z"
         id="path46" /></clipPath><clipPath
       clipPathUnits="userSpaceOnUse"
       id="clipPath52"><path
         d="m 0,0 414.75,0 0,414 L 0,414 0,0 z"
         id="path54" /></clipPath><clipPath
       clipPathUnits="userSpaceOnUse"
       id="clipPath60"><path
         d="m 0,0 414.75,0 0,414 L 0,414 0,0 z"
         id="path62" /></clipPath><clipPath
       clipPathUnits="userSpaceOnUse"
       id="clipPath68"><path
         d="m 60.07,78.58 340.28,0 0,306.51 -340.28,0 0,-306.51 z"
         id="path70" /></clipPath><clipPath
       clipPathUnits="userSpaceOnUse"
       id="clipPath120"><path
         d="m 0,0 414.75,0 0,414 L 0,414 0,0 z"
         id="path122" /></clipPath><clipPath
       clipPathUnits="userSpaceOnUse"
       id="clipPath128"><path
         d="m 0,0 414.75,0 0,414 L 0,414 0,0 z"
         id="path130" /></clipPath><clipPath
       clipPathUnits="userSpaceOnUse"
       id="clipPath136"><path
         d="m 0,0 414.75,0 0,414 L 0,414 0,0 z"
         id="path138" /></clipPath><clipPath
       clipPathUnits="userSpaceOnUse"
       id="clipPath160"><path
         d="m 0,0 414.75,0 0,414 L 0,414 0,0 z"
         id="path162" /></clipPath><clipPath
       clipPathUnits="userSpaceOnUse"
       id="clipPath168"><path
         d="m 0,0 414.75,0 0,414 L 0,414 0,0 z"
         id="path170" /></clipPath><clipPath
       clipPathUnits="userSpaceOnUse"
       id="clipPath184"><path
         d="m 0,0 414.75,0 0,414 L 0,414 0,0 z"
         id="path186" /></clipPath><clipPath
       clipPathUnits="userSpaceOnUse"
       id="clipPath192"><path
         d="m 0,0 414.75,0 0,414 L 0,414 0,0 z"
         id="path194" /></clipPath><clipPath
       clipPathUnits="userSpaceOnUse"
       id="clipPath200"><path
         d="m 0,0 414.75,0 0,414 L 0,414 0,0 z"
         id="path202" /></clipPath><clipPath
       clipPathUnits="userSpaceOnUse"
       id="clipPath208"><path
         d="m 0,0 414.75,0 0,414 L 0,414 0,0 z"
         id="path210" /></clipPath><clipPath
       clipPathUnits="userSpaceOnUse"
       id="clipPath216"><path
         d="m 0,0 414.75,0 0,414 L 0,414 0,0 z"
         id="path218" /></clipPath><clipPath
       clipPathUnits="userSpaceOnUse"
       id="clipPath224"><path
         d="m 0,0 414.75,0 0,414 L 0,414 0,0 z"
         id="path226" /></clipPath><clipPath
       clipPathUnits="userSpaceOnUse"
       id="clipPath242"><path
         d="m 0,0 414.75,0 0,414 L 0,414 0,0 z"
         id="path244" /></clipPath><clipPath
       clipPathUnits="userSpaceOnUse"
       id="clipPath250"><path
         d="m 0,0 414.75,0 0,414 L 0,414 0,0 z"
         id="path252" /></clipPath><clipPath
       clipPathUnits="userSpaceOnUse"
       id="clipPath278"><path
         d="m 0,0 414.75,0 0,414 L 0,414 0,0 z"
         id="path280" /></clipPath><clipPath
       clipPathUnits="userSpaceOnUse"
       id="clipPath286"><path
         d="m 0,0 414.75,0 0,414 L 0,414 0,0 z"
         id="path288" /></clipPath><clipPath
       clipPathUnits="userSpaceOnUse"
       id="clipPath294"><path
         d="m 0,0 414.75,0 0,414 L 0,414 0,0 z"
         id="path296" /></clipPath><clipPath
       clipPathUnits="userSpaceOnUse"
       id="clipPath302"><path
         d="m 0,0 414.75,0 0,414 L 0,414 0,0 z"
         id="path304" /></clipPath><clipPath
       clipPathUnits="userSpaceOnUse"
       id="clipPath310"><path
         d="m 0,0 414.75,0 0,414 L 0,414 0,0 z"
         id="path312" /></clipPath><clipPath
       clipPathUnits="userSpaceOnUse"
       id="clipPath322"><path
         d="m 0,0 414.75,0 0,414 L 0,414 0,0 z"
         id="path324" /></clipPath><clipPath
       clipPathUnits="userSpaceOnUse"
       id="clipPath330"><path
         d="m 0,0 414.75,0 0,414 L 0,414 0,0 z"
         id="path332" /></clipPath><clipPath
       clipPathUnits="userSpaceOnUse"
       id="clipPath342"><path
         d="m 0,0 414.75,0 0,414 L 0,414 0,0 z"
         id="path344" /></clipPath><clipPath
       clipPathUnits="userSpaceOnUse"
       id="clipPath350"><path
         d="m 0,0 414.75,0 0,414 L 0,414 0,0 z"
         id="path352" /></clipPath><clipPath
       clipPathUnits="userSpaceOnUse"
       id="clipPath358"><path
         d="m 0,0 414.75,0 0,414 L 0,414 0,0 z"
         id="path360" /></clipPath><clipPath
       clipPathUnits="userSpaceOnUse"
       id="clipPath366"><path
         d="m 0,0 414.75,0 0,414 L 0,414 0,0 z"
         id="path368" /></clipPath><clipPath
       clipPathUnits="userSpaceOnUse"
       id="clipPath374"><path
         d="m 0,0 414.75,0 0,414 L 0,414 0,0 z"
         id="path376" /></clipPath><clipPath
       clipPathUnits="userSpaceOnUse"
       id="clipPath382"><path
         d="m 0,0 414.75,0 0,414 L 0,414 0,0 z"
         id="path384" /></clipPath><clipPath
       clipPathUnits="userSpaceOnUse"
       id="clipPath392"><path
         d="m 0,0 414.75,0 0,414 L 0,414 0,0 z"
         id="path394" /></clipPath><clipPath
       clipPathUnits="userSpaceOnUse"
       id="clipPath400"><path
         d="m 0,0 414.75,0 0,414 L 0,414 0,0 z"
         id="path402" /></clipPath><clipPath
       clipPathUnits="userSpaceOnUse"
       id="clipPath408"><path
         d="m 0,0 414.75,0 0,414 L 0,414 0,0 z"
         id="path410" /></clipPath><clipPath
       clipPathUnits="userSpaceOnUse"
       id="clipPath416"><path
         d="m 0,0 414.75,0 0,414 L 0,414 0,0 z"
         id="path418" /></clipPath><clipPath
       clipPathUnits="userSpaceOnUse"
       id="clipPath426"><path
         d="m 0,0 414.75,0 0,414 L 0,414 0,0 z"
         id="path428" /></clipPath><clipPath
       clipPathUnits="userSpaceOnUse"
       id="clipPath434"><path
         d="m 0,0 414.75,0 0,414 L 0,414 0,0 z"
         id="path436" /></clipPath><clipPath
       clipPathUnits="userSpaceOnUse"
       id="clipPath444"><path
         d="m 0,0 414.75,0 0,414 L 0,414 0,0 z"
         id="path446" /></clipPath><clipPath
       clipPathUnits="userSpaceOnUse"
       id="clipPath452"><path
         d="m 0,0 414.75,0 0,414 L 0,414 0,0 z"
         id="path454" /></clipPath><clipPath
       clipPathUnits="userSpaceOnUse"
       id="clipPath462"><path
         d="m 0,0 414.75,0 0,414 L 0,414 0,0 z"
         id="path464" /></clipPath><clipPath
       clipPathUnits="userSpaceOnUse"
       id="clipPath470"><path
         d="m 0,0 414.75,0 0,414 L 0,414 0,0 z"
         id="path472" /></clipPath><clipPath
       clipPathUnits="userSpaceOnUse"
       id="clipPath480"><path
         d="m 0,0 414.75,0 0,414 L 0,414 0,0 z"
         id="path482" /></clipPath><clipPath
       clipPathUnits="userSpaceOnUse"
       id="clipPath488"><path
         d="m 0,0 414.75,0 0,414 L 0,414 0,0 z"
         id="path490" /></clipPath><clipPath
       clipPathUnits="userSpaceOnUse"
       id="clipPath498"><path
         d="m 0,0 414.75,0 0,414 L 0,414 0,0 z"
         id="path500" /></clipPath><clipPath
       clipPathUnits="userSpaceOnUse"
       id="clipPath506"><path
         d="m 0,0 414.75,0 0,414 L 0,414 0,0 z"
         id="path508" /></clipPath><clipPath
       clipPathUnits="userSpaceOnUse"
       id="clipPath516"><path
         d="m 0,0 414.75,0 0,414 L 0,414 0,0 z"
         id="path518" /></clipPath><clipPath
       clipPathUnits="userSpaceOnUse"
       id="clipPath524"><path
         d="m 0,0 414.75,0 0,414 L 0,414 0,0 z"
         id="path526" /></clipPath><clipPath
       clipPathUnits="userSpaceOnUse"
       id="clipPath534"><path
         d="m 0,0 414.75,0 0,414 L 0,414 0,0 z"
         id="path536" /></clipPath><clipPath
       clipPathUnits="userSpaceOnUse"
       id="clipPath542"><path
         d="m 0,0 414.75,0 0,414 L 0,414 0,0 z"
         id="path544" /></clipPath><clipPath
       clipPathUnits="userSpaceOnUse"
       id="clipPath552"><path
         d="m 0,0 414.75,0 0,414 L 0,414 0,0 z"
         id="path554" /></clipPath><clipPath
       clipPathUnits="userSpaceOnUse"
       id="clipPath560"><path
         d="m 0,0 414.75,0 0,414 L 0,414 0,0 z"
         id="path562" /></clipPath><clipPath
       clipPathUnits="userSpaceOnUse"
       id="clipPath572"><path
         d="m 0,0 414.75,0 0,414 L 0,414 0,0 z"
         id="path574" /></clipPath><clipPath
       clipPathUnits="userSpaceOnUse"
       id="clipPath580"><path
         d="m 0,0 414.75,0 0,414 L 0,414 0,0 z"
         id="path582" /></clipPath><clipPath
       clipPathUnits="userSpaceOnUse"
       id="clipPath592"><path
         d="m 0,0 414.75,0 0,414 L 0,414 0,0 z"
         id="path594" /></clipPath><clipPath
       clipPathUnits="userSpaceOnUse"
       id="clipPath600"><path
         d="m 0,0 414.75,0 0,414 L 0,414 0,0 z"
         id="path602" /></clipPath><clipPath
       clipPathUnits="userSpaceOnUse"
       id="clipPath608"><path
         d="m 0,0 414.75,0 0,414 L 0,414 0,0 z"
         id="path610" /></clipPath><clipPath
       clipPathUnits="userSpaceOnUse"
       id="clipPath616"><path
         d="m 0,0 414.75,0 0,414 L 0,414 0,0 z"
         id="path618" /></clipPath><clipPath
       clipPathUnits="userSpaceOnUse"
       id="clipPath624"><path
         d="m 0,0 414.75,0 0,414 L 0,414 0,0 z"
         id="path626" /></clipPath><clipPath
       clipPathUnits="userSpaceOnUse"
       id="clipPath632"><path
         d="m 0,0 414.75,0 0,414 L 0,414 0,0 z"
         id="path634" /></clipPath><clipPath
       clipPathUnits="userSpaceOnUse"
       id="clipPath640"><path
         d="m 0,0 414.75,0 0,414 L 0,414 0,0 z"
         id="path642" /></clipPath><clipPath
       clipPathUnits="userSpaceOnUse"
       id="clipPath648"><path
         d="m 0,0 414.75,0 0,414 L 0,414 0,0 z"
         id="path650" /></clipPath><clipPath
       clipPathUnits="userSpaceOnUse"
       id="clipPath656"><path
         d="m 0,0 414.75,0 0,414 L 0,414 0,0 z"
         id="path658" /></clipPath><clipPath
       clipPathUnits="userSpaceOnUse"
       id="clipPath664"><path
         d="m 0,0 414.75,0 0,414 L 0,414 0,0 z"
         id="path666" /></clipPath><clipPath
       clipPathUnits="userSpaceOnUse"
       id="clipPath676"><path
         d="m 0,0 414.75,0 0,414 L 0,414 0,0 z"
         id="path678" /></clipPath><clipPath
       clipPathUnits="userSpaceOnUse"
       id="clipPath684"><path
         d="m 0,0 414.75,0 0,414 L 0,414 0,0 z"
         id="path686" /></clipPath></defs><sodipodi:namedview
     pagecolor="#ffffff"
     bordercolor="#666666"
     borderopacity="1"
     objecttolerance="10"
     gridtolerance="10"
     guidetolerance="10"
     inkscape:pageopacity="0"
     inkscape:pageshadow="2"
     inkscape:window-width="640"
     inkscape:window-height="480"
     id="namedview4"
     showgrid="false"
     inkscape:zoom="0.45714286"
     inkscape:cx="258.75"
     inkscape:cy="258.125"
     inkscape:window-x="0"
     inkscape:window-y="0"
     inkscape:window-maximized="0"
     inkscape:current-layer="g10" /><g
     id="g10"
     inkscape:groupmode="layer"
     inkscape:label="4a_alfaBayesSmooth"
     transform="matrix(1.25,0,0,-1.25,0,516.25)"><g
       id="g12" /><g
       id="g14"><g
         id="g16"
         clip-path="url(#clipPath18)" /></g><g
       id="g22"><g
         id="g24"
         clip-path="url(#clipPath26)" /></g><g
       id="g30"><g
         id="g32"
         clip-path="url(#clipPath34)"><path
           d="m 0,0 414.75,0 0,414 L 0,414 0,0 z"
           style="fill:#ffffff;fill-opacity:1;fill-rule:nonzero;stroke:#ffffff;stroke-opacity:1;stroke-width:1.06;stroke-linecap:round;stroke-linejoin:round;stroke-miterlimit:10;stroke-dasharray:none"
           id="path38" /></g></g><g
       id="g40"><g
         id="g42"
         clip-path="url(#clipPath44)" /></g><g
       id="g48"><g
         id="g50"
         clip-path="url(#clipPath52)" /></g><g
       id="g56"><g
         id="g58"
         clip-path="url(#clipPath60)" /></g><g
       id="g64"><g
         id="g66"
         clip-path="url(#clipPath68)"><path
           d="m 60.07,78.58 340.28,0 0,306.51 -340.28,0 0,-306.51 z"
           style="fill:#e5e5e5;fill-opacity:1;fill-rule:nonzero;stroke:none"
           id="path72" /><path
           d="m 60.07,101.8 340.28,0"
           style="fill:none;stroke:#f2f2f2;stroke-opacity:1;stroke-width:0.53;stroke-linecap:butt;stroke-linejoin:round;stroke-miterlimit:10;stroke-dasharray:none"
           id="path74" /><path
           d="m 60.07,165.71 340.28,0"
           style="fill:none;stroke:#f2f2f2;stroke-opacity:1;stroke-width:0.53;stroke-linecap:butt;stroke-linejoin:round;stroke-miterlimit:10;stroke-dasharray:none"
           id="path76" /><path
           d="m 60.07,229.63 340.28,0"
           style="fill:none;stroke:#f2f2f2;stroke-opacity:1;stroke-width:0.53;stroke-linecap:butt;stroke-linejoin:round;stroke-miterlimit:10;stroke-dasharray:none"
           id="path78" /><path
           d="m 60.07,293.54 340.28,0"
           style="fill:none;stroke:#f2f2f2;stroke-opacity:1;stroke-width:0.53;stroke-linecap:butt;stroke-linejoin:round;stroke-miterlimit:10;stroke-dasharray:none"
           id="path80" /><path
           d="m 60.07,357.45 340.28,0"
           style="fill:none;stroke:#f2f2f2;stroke-opacity:1;stroke-width:0.53;stroke-linecap:butt;stroke-linejoin:round;stroke-miterlimit:10;stroke-dasharray:none"
           id="path82" /><path
           d="m 112.61,78.58 0,306.51"
           style="fill:none;stroke:#f2f2f2;stroke-opacity:1;stroke-width:0.53;stroke-linecap:butt;stroke-linejoin:round;stroke-miterlimit:10;stroke-dasharray:none"
           id="path84" /><path
           d="m 190.16,78.58 0,306.51"
           style="fill:none;stroke:#f2f2f2;stroke-opacity:1;stroke-width:0.53;stroke-linecap:butt;stroke-linejoin:round;stroke-miterlimit:10;stroke-dasharray:none"
           id="path86" /><path
           d="m 268.13,78.58 0,306.51"
           style="fill:none;stroke:#f2f2f2;stroke-opacity:1;stroke-width:0.53;stroke-linecap:butt;stroke-linejoin:round;stroke-miterlimit:10;stroke-dasharray:none"
           id="path88" /><path
           d="m 346.53,78.58 0,306.51"
           style="fill:none;stroke:#f2f2f2;stroke-opacity:1;stroke-width:0.53;stroke-linecap:butt;stroke-linejoin:round;stroke-miterlimit:10;stroke-dasharray:none"
           id="path90" /><path
           d="m 60.07,133.76 340.28,0"
           style="fill:none;stroke:#ffffff;stroke-opacity:1;stroke-width:1.06;stroke-linecap:butt;stroke-linejoin:round;stroke-miterlimit:10;stroke-dasharray:none"
           id="path92" /><path
           d="m 60.07,197.67 340.28,0"
           style="fill:none;stroke:#ffffff;stroke-opacity:1;stroke-width:1.06;stroke-linecap:butt;stroke-linejoin:round;stroke-miterlimit:10;stroke-dasharray:none"
           id="path94" /><path
           d="m 60.07,261.58 340.28,0"
           style="fill:none;stroke:#ffffff;stroke-opacity:1;stroke-width:1.06;stroke-linecap:butt;stroke-linejoin:round;stroke-miterlimit:10;stroke-dasharray:none"
           id="path96" /><path
           d="m 60.07,325.5 340.28,0"
           style="fill:none;stroke:#ffffff;stroke-opacity:1;stroke-width:1.06;stroke-linecap:butt;stroke-linejoin:round;stroke-miterlimit:10;stroke-dasharray:none"
           id="path98" /><path
           d="m 73.83,78.58 0,306.51"
           style="fill:none;stroke:#ffffff;stroke-opacity:1;stroke-width:1.06;stroke-linecap:butt;stroke-linejoin:round;stroke-miterlimit:10;stroke-dasharray:none"
           id="path100" /><path
           d="m 151.38,78.58 0,306.51"
           style="fill:none;stroke:#ffffff;stroke-opacity:1;stroke-width:1.06;stroke-linecap:butt;stroke-linejoin:round;stroke-miterlimit:10;stroke-dasharray:none"
           id="path102" /><path
           d="m 228.93,78.58 0,306.51"
           style="fill:none;stroke:#ffffff;stroke-opacity:1;stroke-width:1.06;stroke-linecap:butt;stroke-linejoin:round;stroke-miterlimit:10;stroke-dasharray:none"
           id="path104" /><path
           d="m 307.33,78.58 0,306.51"
           style="fill:none;stroke:#ffffff;stroke-opacity:1;stroke-width:1.06;stroke-linecap:butt;stroke-linejoin:round;stroke-miterlimit:10;stroke-dasharray:none"
           id="path106" /><path
           d="m 385.73,78.58 0,306.51"
           style="fill:none;stroke:#ffffff;stroke-opacity:1;stroke-width:1.06;stroke-linecap:butt;stroke-linejoin:round;stroke-miterlimit:10;stroke-dasharray:none"
           id="path108" /><path
           d="m 75.54,231.83 0.85,0 0.85,0 0.85,0 2.56,0 0.85,0 0.85,0 0.86,0 0.85,0 3.41,0 0.85,0 0.85,0 0.85,0 2.56,0 0.85,0 0.85,0 0.86,0 0.85,0 2.56,0 0.85,0 0.85,0 0.85,0 0.85,0 2.56,0 0.85,0 0.85,0 0.86,0 0.85,0 2.56,0 0.85,0 0.85,0 0.85,0 0.85,0 3.41,0 0.86,0 0.85,0 0.85,0 2.56,0 0.85,0 0.85,0 0.85,0 0.86,0 2.55,0 0.85,0 0.86,0 0.85,0 0.85,0 2.56,0 0.85,0 0.85,0 0.85,0 0.86,0 2.55,0 0.85,0 0.86,0 0.85,0 0.85,0 2.56,0 0.85,0 0.85,0 0.85,0 0.86,0 2.55,0 0.86,0 0.85,0 0.85,0 3.41,0 0.85,0 0.85,0 0.86,0 0.85,0 2.55,0 0.86,0 0.85,0 0.85,0 0.85,0 2.56,0 0.85,0 0.85,0 0.86,0 0.85,0 2.55,0 0.86,0 0.85,0 0.85,0 0.85,0 2.56,0 0.85,0 0.85,0 0.86,0 0.85,0 2.56,0 0.85,0 0.85,0 0.85,0 0.85,0 2.56,0 0.85,0 0.86,0 0.85,0 0.85,0 3.41,0 0.85,0 0.85,0 0.86,0 2.55,0 0.85,0 0.86,0 0.85,0 0.85,0 2.56,0 0.85,0 0.85,0 0.85,0 0.86,0 2.55,0 0.85,0 0.86,0 0.85,0 0.85,0 2.56,0 0.85,0 0.85,0 0.85,0 0.86,0 2.55,0 0.86,0 1.7,0 0.85,0 2.56,0 0.85,0 0.85,0 0.86,0 0.85,0 2.55,0 0.86,0 0.85,0 0.85,0 0.85,0 2.56,0 0.85,0 0.85,0 0.86,0 0.85,0 2.55,0 0.86,0 0.85,0 0.85,0 0.85,0 2.56,0 0.85,0 0.85,0 0.86,0 0.85,0 2.56,0 0.85,0 0.85,0 0.85,0 0.85,0 2.56,0 0.85,0 0.86,0 0.85,0 0.85,0 2.56,0.01 0.85,0 0.85,0 0.85,0 0.85,0 3.41,0 0.86,0 0.85,0 0.85,0 2.56,0 0.85,0 0.85,0 0.85,0 0.86,0 2.55,0 0.85,0 0.86,0 0.85,0 0.85,0 2.56,0 0.85,0 0.85,0 0.85,0 0.86,0 2.55,0 0.86,0 0.85,0 0.85,0 0.85,0 2.56,0 0.85,0 0.85,0 0.85,0 0.86,0 2.55,0 0.86,0 0.85,0 0.85,0.01 0.85,0 2.56,0 0.85,0 0.85,0 0.86,0 0.85,0 4.26,0 0.85,0 0.85,0 2.56,0 0.85,0 0.85,0 0.86,0 0.85,0 2.56,0 0.85,0 0.85,0 0.85,0 0.85,0 2.56,0 0.85,0 0.85,0 1.71,0 2.56,0 0.85,0 0.85,0 0.85,0 0.85,0 2.56,0 0.85,0 0.86,0 0.85,0 0.85,0 2.56,0 0.85,0 0.85,0 0.85,0 0.86,0 2.55,0 0.85,0 0.86,0 0.85,0.01 0.85,0 2.56,0 1.7,0 0.85,0 0.86,0 2.55,0"
           style="fill:none;stroke:#2e2e2e;stroke-opacity:1;stroke-width:1.89;stroke-linecap:butt;stroke-linejoin:round;stroke-miterlimit:1;stroke-dasharray:none"
           id="path110" /><path
           d="m 75.54,371.15 0.85,0 0.85,0 0.85,0 2.56,0 0.85,0 0.85,0 0.86,-0.01 0.85,0 3.41,0 0.85,0 0.85,0 0.85,0 2.56,0 0.85,0 0.85,0 0.86,0 0.85,0 2.56,0 0.85,0 0.85,0 0.85,0 0.85,0 2.56,0 0.85,0 0.85,0 0.86,0 0.85,0 2.56,0 0.85,0 0.85,-0.01 0.85,0 0.85,0 3.41,0 0.86,0 0.85,0 0.85,0 2.56,0 0.85,0 0.85,0 0.85,0 0.86,0 2.55,0 0.85,0 0.86,0 0.85,0 0.85,0 2.56,0 0.85,0 0.85,0 0.85,-0.01 0.86,0 2.55,0 0.85,0 0.86,0 0.85,0 0.85,0 2.56,0 0.85,0 0.85,0 0.85,0 0.86,0 2.55,0 0.86,0 0.85,0 0.85,0 3.41,0 0.85,-0.01 0.85,0 0.86,0 0.85,0 2.55,0 0.86,0 0.85,0 0.85,0 0.85,0 2.56,0 0.85,0 0.85,0 0.86,0 0.85,0 2.55,0 0.86,0 0.85,0 0.85,0 0.85,0 2.56,0 0.85,0 0.85,0 0.86,-0.01 0.85,0 2.56,0 0.85,0 0.85,0 0.85,0 0.85,0 2.56,0 0.85,0 0.86,0 0.85,0 0.85,0 3.41,0 0.85,0 0.85,0 0.86,0 2.55,0 0.85,0 0.86,0 0.85,0 0.85,0 2.56,-0.01 0.85,0 0.85,0 0.85,0 0.86,0 2.55,0 0.85,0 0.86,0 0.85,0 0.85,0 2.56,0 0.85,0 0.85,0 0.85,0 0.86,0 2.55,0 0.86,0 1.7,0 0.85,0 2.56,0 0.85,0 0.85,0 0.86,0 0.85,0 2.55,0 0.86,0 0.85,0 0.85,0 0.85,0 2.56,0 0.85,0 0.85,0 0.86,0 0.85,0 2.55,0 0.86,0 0.85,0 0.85,0.01 0.85,0 2.56,0 0.85,0 0.85,0 0.86,0 0.85,0 2.56,0 0.85,0 0.85,0 0.85,0 0.85,0 2.56,0 0.85,0 0.86,0 0.85,0 0.85,0 2.56,0 0.85,0 0.85,0 0.85,0 0.85,0.01 3.41,0 0.86,0 0.85,0 0.85,0 2.56,0 0.85,0 0.85,0 0.85,0 0.86,0 2.55,0 0.85,0 0.86,0 0.85,0 0.85,0 2.56,0 0.85,0 0.85,0 0.85,0.01 0.86,0 2.55,0 0.86,0 0.85,0 0.85,0 0.85,0 2.56,0 0.85,0 0.85,0 0.85,0 0.86,0 2.55,0 0.86,0 0.85,0.01 0.85,0 0.85,0 2.56,0 0.85,0 0.85,0 0.86,0 0.85,0 4.26,0 0.85,0 0.85,0 2.56,0 0.85,0 0.85,0 0.86,0.01 0.85,0 2.56,0 0.85,0 0.85,0 0.85,0 0.85,0 2.56,0 0.85,0 0.85,0 1.71,0 2.56,0 0.85,0 0.85,0 0.85,0.01 0.85,0 2.56,0 0.85,0 0.86,0 0.85,0 0.85,0 2.56,0 0.85,0 0.85,0 0.85,0 0.86,0 2.55,0 0.85,0 0.86,0.01 0.85,0 0.85,0 2.56,0 1.7,0 0.85,0 0.86,0 2.55,0"
           style="fill:none;stroke:#b3b3b3;stroke-opacity:1;stroke-width:1.89;stroke-linecap:butt;stroke-linejoin:round;stroke-miterlimit:1;stroke-dasharray:13.24,5.68;stroke-dashoffset:0"
           id="path112" /><path
           d="m 75.54,92.51 0.85,0 0.85,0 0.85,0 2.56,0 0.85,0.01 0.85,0 0.86,0 0.85,0 3.41,0 0.85,0 0.85,0 0.85,0 2.56,0 0.85,0 0.85,0 0.86,0 0.85,0.01 2.56,0 0.85,0 0.85,0 0.85,0 0.85,0 2.56,0 0.85,0 0.85,0 0.86,0 0.85,0 2.56,0 0.85,0 0.85,0 0.85,0 0.85,0 3.41,0.01 0.86,0 0.85,0 0.85,0 2.56,0 0.85,0 0.85,0 0.85,0 0.86,0 2.55,0 0.85,0 0.86,0 0.85,0 0.85,0 2.56,0 0.85,0 0.85,0 0.85,0 0.86,0 2.55,0.01 0.85,0 0.86,0 0.85,0 0.85,0 2.56,0 0.85,0 0.85,0 0.85,0 0.86,0 2.55,0 0.86,0 0.85,0 0.85,0 3.41,0 0.85,0 0.85,0 0.86,0 0.85,0 2.55,0 0.86,0 0.85,0 0.85,0 0.85,0 2.56,0 0.85,0 0.85,0 0.86,0 0.85,0 2.55,0 0.86,0.01 0.85,0 0.85,0 0.85,0 2.56,0 0.85,0 0.85,0 0.86,0 0.85,0 2.56,0 0.85,0 0.85,0 0.85,0 0.85,0 2.56,0 0.85,0 0.86,0 0.85,0 0.85,0 3.41,0 0.85,0 0.85,0 0.86,0 2.55,0 0.85,0 0.86,0 0.85,0 0.85,0 2.56,0 0.85,0 0.85,0 0.85,0 0.86,0 2.55,0 0.85,0 0.86,0 0.85,0 0.85,0 2.56,0 0.85,0 0.85,0 0.85,0 0.86,0 2.55,0 0.86,0 1.7,0 0.85,0 2.56,0 0.85,0 0.85,0 0.86,0 0.85,0 2.55,0 0.86,0 0.85,0 0.85,0 0.85,0 2.56,0 0.85,0 0.85,0 0.86,0 0.85,0 2.55,0 0.86,0 0.85,0 0.85,0 0.85,0 2.56,0 0.85,0 0.85,0 0.86,0.01 0.85,0 2.56,0 0.85,0 0.85,0 0.85,0 0.85,0 2.56,0 0.85,0 0.86,0 0.85,0 0.85,0 2.56,0 0.85,0 0.85,0 0.85,0 0.85,0 3.41,0 0.86,0 0.85,0 0.85,0 2.56,0 0.85,0 0.85,0 0.85,0 0.86,0 2.55,0 0.85,0 0.86,0 0.85,0 0.85,0 2.56,0 0.85,0 0.85,0 0.85,0 0.86,0 2.55,-0.01 0.86,0 0.85,0 0.85,0 0.85,0 2.56,0 0.85,0 0.85,0 0.85,0 0.86,0 2.55,0 0.86,0 0.85,0 0.85,0 0.85,0 2.56,0 0.85,0 0.85,0 0.86,0 0.85,0 4.26,0 0.85,0 0.85,0 2.56,0 0.85,0 0.85,0 0.86,0 0.85,0 2.56,0 0.85,0 0.85,0 0.85,0 0.85,0 2.56,0 0.85,0 0.85,0 1.71,0 2.56,0 0.85,0 0.85,0 0.85,0 0.85,0 2.56,0 0.85,0 0.86,0 0.85,0 0.85,0 2.56,0 0.85,0 0.85,0 0.85,0 0.86,0 2.55,0 0.85,-0.01 0.86,0 0.85,0 0.85,0 2.56,0 1.7,0 0.85,0 0.86,0 2.55,0"
           style="fill:none;stroke:#b3b3b3;stroke-opacity:1;stroke-width:1.89;stroke-linecap:butt;stroke-linejoin:round;stroke-miterlimit:1;stroke-dasharray:13.24,5.68;stroke-dashoffset:0"
           id="path114" /></g></g><g
       id="g116"><g
         id="g118"
         clip-path="url(#clipPath120)" /></g><g
       id="g124"><g
         id="g126"
         clip-path="url(#clipPath128)" /></g><g
       id="g132"><g
         id="g134"
         clip-path="url(#clipPath136)"><text
           transform="matrix(1,0,0,-1,20.58,131.23)"
           id="text140"><tspan
             style="fill:#7f7f7f;fill-opacity:1;fill-rule:nonzero;stroke:none;font-family:Courier New;font-variant:normal;font-weight:bold;font-size:9;writing-mode:lr;-inkscape-font-specification:Courier-Bold"
             x="0 5.4 10.8 16.2 21.6 27"
             y="0"
             sodipodi:role="line"
             id="tspan142">0.0000</tspan></text>
<text
           transform="matrix(1,0,0,-1,20.58,195.14)"
           id="text144"><tspan
             style="fill:#7f7f7f;fill-opacity:1;fill-rule:nonzero;stroke:none;font-family:Courier New;font-variant:normal;font-weight:bold;font-size:9;writing-mode:lr;-inkscape-font-specification:Courier-Bold"
             x="0 5.4 10.8 16.2 21.6 27"
             y="0"
             sodipodi:role="line"
             id="tspan146">0.0025</tspan></text>
<text
           transform="matrix(1,0,0,-1,20.58,259.05)"
           id="text148"><tspan
             style="fill:#7f7f7f;fill-opacity:1;fill-rule:nonzero;stroke:none;font-family:Courier New;font-variant:normal;font-weight:bold;font-size:9;writing-mode:lr;-inkscape-font-specification:Courier-Bold"
             x="0 5.4 10.8 16.2 21.6 27"
             y="0"
             sodipodi:role="line"
             id="tspan150">0.0050</tspan></text>
<text
           transform="matrix(1,0,0,-1,20.58,322.97)"
           id="text152"><tspan
             style="fill:#7f7f7f;fill-opacity:1;fill-rule:nonzero;stroke:none;font-family:Courier New;font-variant:normal;font-weight:bold;font-size:9;writing-mode:lr;-inkscape-font-specification:Courier-Bold"
             x="0 5.4 10.8 16.2 21.6 27"
             y="0"
             sodipodi:role="line"
             id="tspan154">0.0075</tspan></text>
</g></g><g
       id="g156"><g
         id="g158"
         clip-path="url(#clipPath160)" /></g><g
       id="g164"><g
         id="g166"
         clip-path="url(#clipPath168)"><path
           d="m 55.82,133.76 4.25,0"
           style="fill:none;stroke:#7f7f7f;stroke-opacity:1;stroke-width:1.06;stroke-linecap:butt;stroke-linejoin:round;stroke-miterlimit:10;stroke-dasharray:none"
           id="path172" /><path
           d="m 55.82,197.67 4.25,0"
           style="fill:none;stroke:#7f7f7f;stroke-opacity:1;stroke-width:1.06;stroke-linecap:butt;stroke-linejoin:round;stroke-miterlimit:10;stroke-dasharray:none"
           id="path174" /><path
           d="m 55.82,261.58 4.25,0"
           style="fill:none;stroke:#7f7f7f;stroke-opacity:1;stroke-width:1.06;stroke-linecap:butt;stroke-linejoin:round;stroke-miterlimit:10;stroke-dasharray:none"
           id="path176" /><path
           d="m 55.82,325.5 4.25,0"
           style="fill:none;stroke:#7f7f7f;stroke-opacity:1;stroke-width:1.06;stroke-linecap:butt;stroke-linejoin:round;stroke-miterlimit:10;stroke-dasharray:none"
           id="path178" /></g></g><g
       id="g180"><g
         id="g182"
         clip-path="url(#clipPath184)" /></g><g
       id="g188"><g
         id="g190"
         clip-path="url(#clipPath192)" /></g><g
       id="g196"><g
         id="g198"
         clip-path="url(#clipPath200)" /></g><g
       id="g204"><g
         id="g206"
         clip-path="url(#clipPath208)" /></g><g
       id="g212"><g
         id="g214"
         clip-path="url(#clipPath216)" /></g><g
       id="g220"><g
         id="g222"
         clip-path="url(#clipPath224)"><path
           d="m 73.83,74.33 0,4.25"
           style="fill:none;stroke:#7f7f7f;stroke-opacity:1;stroke-width:1.06;stroke-linecap:butt;stroke-linejoin:round;stroke-miterlimit:10;stroke-dasharray:none"
           id="path228" /><path
           d="m 151.38,74.33 0,4.25"
           style="fill:none;stroke:#7f7f7f;stroke-opacity:1;stroke-width:1.06;stroke-linecap:butt;stroke-linejoin:round;stroke-miterlimit:10;stroke-dasharray:none"
           id="path230" /><path
           d="m 228.93,74.33 0,4.25"
           style="fill:none;stroke:#7f7f7f;stroke-opacity:1;stroke-width:1.06;stroke-linecap:butt;stroke-linejoin:round;stroke-miterlimit:10;stroke-dasharray:none"
           id="path232" /><path
           d="m 307.33,74.33 0,4.25"
           style="fill:none;stroke:#7f7f7f;stroke-opacity:1;stroke-width:1.06;stroke-linecap:butt;stroke-linejoin:round;stroke-miterlimit:10;stroke-dasharray:none"
           id="path234" /><path
           d="m 385.73,74.33 0,4.25"
           style="fill:none;stroke:#7f7f7f;stroke-opacity:1;stroke-width:1.06;stroke-linecap:butt;stroke-linejoin:round;stroke-miterlimit:10;stroke-dasharray:none"
           id="path236" /></g></g><g
       id="g238"><g
         id="g240"
         clip-path="url(#clipPath242)" /></g><g
       id="g246"><g
         id="g248"
         clip-path="url(#clipPath250)"><text
           transform="matrix(1,0,0,-1,52.23,66.44)"
           id="text254"><tspan
             style="fill:#7f7f7f;fill-opacity:1;fill-rule:nonzero;stroke:none;font-family:Courier New;font-variant:normal;font-weight:bold;font-size:9;writing-mode:lr;-inkscape-font-specification:Courier-Bold"
             x="0 5.4 10.8 16.2 21.6 27 32.4 37.8"
             y="0"
             sodipodi:role="line"
             id="tspan256">ene 2012</tspan></text>
<text
           transform="matrix(1,0,0,-1,129.78,66.44)"
           id="text258"><tspan
             style="fill:#7f7f7f;fill-opacity:1;fill-rule:nonzero;stroke:none;font-family:Courier New;font-variant:normal;font-weight:bold;font-size:9;writing-mode:lr;-inkscape-font-specification:Courier-Bold"
             x="0 5.4 10.8 16.2 21.6 27 32.4 37.8"
             y="0"
             sodipodi:role="line"
             id="tspan260">abr 2012</tspan></text>
<text
           transform="matrix(1,0,0,-1,207.33,66.44)"
           id="text262"><tspan
             style="fill:#7f7f7f;fill-opacity:1;fill-rule:nonzero;stroke:none;font-family:Courier New;font-variant:normal;font-weight:bold;font-size:9;writing-mode:lr;-inkscape-font-specification:Courier-Bold"
             x="0 5.4 10.8 16.2 21.6 27 32.4 37.8"
             y="0"
             sodipodi:role="line"
             id="tspan264">jul 2012</tspan></text>
<text
           transform="matrix(1,0,0,-1,285.73,66.44)"
           id="text266"><tspan
             style="fill:#7f7f7f;fill-opacity:1;fill-rule:nonzero;stroke:none;font-family:Courier New;font-variant:normal;font-weight:bold;font-size:9;writing-mode:lr;-inkscape-font-specification:Courier-Bold"
             x="0 5.4 10.8 16.2 21.6 27 32.4 37.8"
             y="0"
             sodipodi:role="line"
             id="tspan268">oct 2012</tspan></text>
<text
           transform="matrix(1,0,0,-1,364.13,66.44)"
           id="text270"><tspan
             style="fill:#7f7f7f;fill-opacity:1;fill-rule:nonzero;stroke:none;font-family:Courier New;font-variant:normal;font-weight:bold;font-size:9;writing-mode:lr;-inkscape-font-specification:Courier-Bold"
             x="0 5.4 10.8 16.2 21.6 27 32.4 37.8"
             y="0"
             sodipodi:role="line"
             id="tspan272">ene 2013</tspan></text>
</g></g><g
       id="g274"><g
         id="g276"
         clip-path="url(#clipPath278)" /></g><g
       id="g282"><g
         id="g284"
         clip-path="url(#clipPath286)" /></g><g
       id="g290"><g
         id="g292"
         clip-path="url(#clipPath294)" /></g><g
       id="g298"><g
         id="g300"
         clip-path="url(#clipPath302)" /></g><g
       id="g306"><g
         id="g308"
         clip-path="url(#clipPath310)"><text
           transform="matrix(1,0,0,-1,213.71,56.65)"
           id="text314"><tspan
             style="fill:#000000;fill-opacity:1;fill-rule:nonzero;stroke:none;font-family:Courier New;font-variant:normal;font-weight:bold;font-size:11;writing-mode:lr;-inkscape-font-specification:Courier-Bold"
             x="0 6.6 13.2 19.8 26.4"
             y="0"
             sodipodi:role="line"
             id="tspan316">Fecha</tspan></text>
</g></g><g
       id="g318"><g
         id="g320"
         clip-path="url(#clipPath322)" /></g><g
       id="g326"><g
         id="g328"
         clip-path="url(#clipPath330)"><text
           transform="matrix(0,1,1,0,16.98,208.74)"
           id="text334"><tspan
             style="fill:#000000;fill-opacity:1;fill-rule:nonzero;stroke:none;font-family:Courier New;font-variant:normal;font-weight:bold;font-size:11;writing-mode:lr;-inkscape-font-specification:Courier-Bold"
             x="0 6.6 13.2 19.8 26.4 33 39.6"
             y="0"
             sodipodi:role="line"
             id="tspan336">Valores</tspan></text>
</g></g><g
       id="g338"><g
         id="g340"
         clip-path="url(#clipPath342)" /></g><g
       id="g346"><g
         id="g348"
         clip-path="url(#clipPath350)" /></g><g
       id="g354"><g
         id="g356"
         clip-path="url(#clipPath358)" /></g><g
       id="g362"><g
         id="g364"
         clip-path="url(#clipPath366)" /></g><g
       id="g370"><g
         id="g372"
         clip-path="url(#clipPath374)" /></g><g
       id="g378"><g
         id="g380"
         clip-path="url(#clipPath382)"><path
           d="m 108.78,17.23 242.86,0 0,25.78 -242.86,0 0,-25.78 z"
           style="fill:#ffffff;fill-opacity:1;fill-rule:nonzero;stroke:#000000;stroke-opacity:1;stroke-width:1.06;stroke-linecap:round;stroke-linejoin:round;stroke-miterlimit:10;stroke-dasharray:none"
           id="path386" /></g></g><g
       id="g388"><g
         id="g390"
         clip-path="url(#clipPath392)" /></g><g
       id="g396"><g
         id="g398"
         clip-path="url(#clipPath400)" /></g><g
       id="g404"><g
         id="g406"
         clip-path="url(#clipPath408)" /></g><g
       id="g412"><g
         id="g414"
         clip-path="url(#clipPath416)"><path
           d="m 117.35,21.49 17.28,0 0,17.28 -17.28,0 0,-17.28 z"
           style="fill:#f2f2f2;fill-opacity:1;fill-rule:nonzero;stroke:#ffffff;stroke-opacity:1;stroke-width:1.06;stroke-linecap:round;stroke-linejoin:round;stroke-miterlimit:10;stroke-dasharray:none"
           id="path420" /></g></g><g
       id="g422"><g
         id="g424"
         clip-path="url(#clipPath426)" /></g><g
       id="g430"><g
         id="g432"
         clip-path="url(#clipPath434)"><path
           d="m 119.08,30.13 13.82,0"
           style="fill:none;stroke:#2e2e2e;stroke-opacity:1;stroke-width:1.89;stroke-linecap:butt;stroke-linejoin:round;stroke-miterlimit:10;stroke-dasharray:none"
           id="path438" /></g></g><g
       id="g440"><g
         id="g442"
         clip-path="url(#clipPath444)" /></g><g
       id="g448"><g
         id="g450"
         clip-path="url(#clipPath452)"><path
           d="m 119.08,30.13 13.82,0"
           style="fill:none;stroke:#2e2e2e;stroke-opacity:1;stroke-width:1.89;stroke-linecap:butt;stroke-linejoin:round;stroke-miterlimit:10;stroke-dasharray:13.24,5.68;stroke-dashoffset:0"
           id="path456" /></g></g><g
       id="g458"><g
         id="g460"
         clip-path="url(#clipPath462)" /></g><g
       id="g466"><g
         id="g468"
         clip-path="url(#clipPath470)"><path
           d="m 119.08,30.13 13.82,0"
           style="fill:none;stroke:#2e2e2e;stroke-opacity:1;stroke-width:1.89;stroke-linecap:butt;stroke-linejoin:round;stroke-miterlimit:10;stroke-dasharray:13.24,5.68;stroke-dashoffset:0"
           id="path474" /></g></g><g
       id="g476"><g
         id="g478"
         clip-path="url(#clipPath480)" /></g><g
       id="g484"><g
         id="g486"
         clip-path="url(#clipPath488)"><path
           d="m 160.55,21.49 17.28,0 0,17.28 -17.28,0 0,-17.28 z"
           style="fill:#f2f2f2;fill-opacity:1;fill-rule:nonzero;stroke:#ffffff;stroke-opacity:1;stroke-width:1.06;stroke-linecap:round;stroke-linejoin:round;stroke-miterlimit:10;stroke-dasharray:none"
           id="path492" /></g></g><g
       id="g494"><g
         id="g496"
         clip-path="url(#clipPath498)" /></g><g
       id="g502"><g
         id="g504"
         clip-path="url(#clipPath506)"><path
           d="m 162.28,30.13 13.82,0"
           style="fill:none;stroke:#b3b3b3;stroke-opacity:1;stroke-width:1.89;stroke-linecap:butt;stroke-linejoin:round;stroke-miterlimit:10;stroke-dasharray:none"
           id="path510" /></g></g><g
       id="g512"><g
         id="g514"
         clip-path="url(#clipPath516)" /></g><g
       id="g520"><g
         id="g522"
         clip-path="url(#clipPath524)"><path
           d="m 162.28,30.13 13.82,0"
           style="fill:none;stroke:#b3b3b3;stroke-opacity:1;stroke-width:1.89;stroke-linecap:butt;stroke-linejoin:round;stroke-miterlimit:10;stroke-dasharray:13.24,5.68;stroke-dashoffset:0"
           id="path528" /></g></g><g
       id="g530"><g
         id="g532"
         clip-path="url(#clipPath534)" /></g><g
       id="g538"><g
         id="g540"
         clip-path="url(#clipPath542)"><path
           d="m 162.28,30.13 13.82,0"
           style="fill:none;stroke:#b3b3b3;stroke-opacity:1;stroke-width:1.89;stroke-linecap:butt;stroke-linejoin:round;stroke-miterlimit:10;stroke-dasharray:13.24,5.68;stroke-dashoffset:0"
           id="path546" /></g></g><g
       id="g548"><g
         id="g550"
         clip-path="url(#clipPath552)" /></g><g
       id="g556"><g
         id="g558"
         clip-path="url(#clipPath560)"><text
           transform="matrix(1,0,0,-1,136.79,27.6)"
           id="text564"><tspan
             style="fill:#000000;fill-opacity:1;fill-rule:nonzero;stroke:none;font-family:Courier New;font-variant:normal;font-weight:bold;font-size:9;writing-mode:lr;-inkscape-font-specification:Courier-Bold"
             x="0 5.4 10.8 16.2"
             y="0"
             sodipodi:role="line"
             id="tspan566">Alfa</tspan></text>
</g></g><g
       id="g568"><g
         id="g570"
         clip-path="url(#clipPath572)" /></g><g
       id="g576"><g
         id="g578"
         clip-path="url(#clipPath580)"><text
           transform="matrix(1,0,0,-1,179.99,27.6)"
           id="text584"><tspan
             style="fill:#000000;fill-opacity:1;fill-rule:nonzero;stroke:none;font-family:Courier New;font-variant:normal;font-weight:bold;font-size:9;writing-mode:lr;-inkscape-font-specification:Courier-Bold"
             x="0 5.4 10.8 16.2 21.6 27 32.4 37.8 43.2 48.6 54 59.4 64.8 70.2 75.6 81 86.4 91.8 97.2 102.6 108 113.4 118.8 124.2 129.6 135 140.4 145.8 151.2 156.6 162"
             y="0"
             sodipodi:role="line"
             id="tspan586">intervalos de confianza del 95%</tspan></text>
</g></g><g
       id="g588"><g
         id="g590"
         clip-path="url(#clipPath592)" /></g><g
       id="g596"><g
         id="g598"
         clip-path="url(#clipPath600)" /></g><g
       id="g604"><g
         id="g606"
         clip-path="url(#clipPath608)" /></g><g
       id="g612"><g
         id="g614"
         clip-path="url(#clipPath616)" /></g><g
       id="g620"><g
         id="g622"
         clip-path="url(#clipPath624)" /></g><g
       id="g628"><g
         id="g630"
         clip-path="url(#clipPath632)" /></g><g
       id="g636"><g
         id="g638"
         clip-path="url(#clipPath640)" /></g><g
       id="g644"><g
         id="g646"
         clip-path="url(#clipPath648)" /></g><g
       id="g652"><g
         id="g654"
         clip-path="url(#clipPath656)" /></g><g
       id="g660"><g
         id="g662"
         clip-path="url(#clipPath664)"><text
           transform="matrix(1,0,0,-1,101.51,388.69)"
           id="text668"><tspan
             style="fill:#000000;fill-opacity:1;fill-rule:nonzero;stroke:none;font-family:Courier New;font-variant:normal;font-weight:bold;font-size:13;writing-mode:lr;-inkscape-font-specification:Courier-Bold"
             x="0 7.8 15.6 23.4 31.2 39 46.8 54.6 62.4 70.2 78 85.8 93.6 101.4 109.2 117 124.8 132.6 140.4 148.2 156 163.8 171.6 179.4 187.2 195 202.8 210.6 218.4 226.2 234 241.8 249.6"
             y="0"
             sodipodi:role="line"
             id="tspan670">Recorrido de alfa (Suavizamiento)</tspan></text>
</g></g><g
       id="g672"><g
         id="g674"
         clip-path="url(#clipPath676)" /></g><g
       id="g680"><g
         id="g682"
         clip-path="url(#clipPath684)" /></g></g></svg>