<?xml version="1.0" encoding="UTF-8" standalone="no"?>
<!-- Created with Inkscape (http://www.inkscape.org/) -->

<svg
   xmlns:dc="http://purl.org/dc/elements/1.1/"
   xmlns:cc="http://creativecommons.org/ns#"
   xmlns:rdf="http://www.w3.org/1999/02/22-rdf-syntax-ns#"
   xmlns:svg="http://www.w3.org/2000/svg"
   xmlns="http://www.w3.org/2000/svg"
   xmlns:sodipodi="http://sodipodi.sourceforge.net/DTD/sodipodi-0.dtd"
   xmlns:inkscape="http://www.inkscape.org/namespaces/inkscape"
   id="svg2"
   version="1.1"
   inkscape:version="0.48.4 r9939"
   width="517.5"
   height="516.25"
   xml:space="preserve"
   sodipodi:docname="4a_betaMleFilt.pdf"><metadata
     id="metadata8"><rdf:RDF><cc:Work
         rdf:about=""><dc:format>image/svg+xml</dc:format><dc:type
           rdf:resource="http://purl.org/dc/dcmitype/StillImage" /><dc:title></dc:title></cc:Work></rdf:RDF></metadata><defs
     id="defs6"><clipPath
       clipPathUnits="userSpaceOnUse"
       id="clipPath18"><path
         d="m 0,0 414.75,0 0,414 L 0,414 0,0 z"
         id="path20" /></clipPath><clipPath
       clipPathUnits="userSpaceOnUse"
       id="clipPath26"><path
         d="m 0,0 414.75,0 0,414 L 0,414 0,0 z"
         id="path28" /></clipPath><clipPath
       clipPathUnits="userSpaceOnUse"
       id="clipPath34"><path
         d="m 0,0 414.75,0 0,414 L 0,414 0,0 z"
         id="path36" /></clipPath><clipPath
       clipPathUnits="userSpaceOnUse"
       id="clipPath44"><path
         d="m 0,0 414.75,0 0,414 L 0,414 0,0 z"
         id="path46" /></clipPath><clipPath
       clipPathUnits="userSpaceOnUse"
       id="clipPath52"><path
         d="m 0,0 414.75,0 0,414 L 0,414 0,0 z"
         id="path54" /></clipPath><clipPath
       clipPathUnits="userSpaceOnUse"
       id="clipPath60"><path
         d="m 0,0 414.75,0 0,414 L 0,414 0,0 z"
         id="path62" /></clipPath><clipPath
       clipPathUnits="userSpaceOnUse"
       id="clipPath68"><path
         d="m 38.47,78.58 361.88,0 0,306.51 -361.88,0 0,-306.51 z"
         id="path70" /></clipPath><clipPath
       clipPathUnits="userSpaceOnUse"
       id="clipPath128"><path
         d="m 0,0 414.75,0 0,414 L 0,414 0,0 z"
         id="path130" /></clipPath><clipPath
       clipPathUnits="userSpaceOnUse"
       id="clipPath136"><path
         d="m 0,0 414.75,0 0,414 L 0,414 0,0 z"
         id="path138" /></clipPath><clipPath
       clipPathUnits="userSpaceOnUse"
       id="clipPath144"><path
         d="m 0,0 414.75,0 0,414 L 0,414 0,0 z"
         id="path146" /></clipPath><clipPath
       clipPathUnits="userSpaceOnUse"
       id="clipPath180"><path
         d="m 0,0 414.75,0 0,414 L 0,414 0,0 z"
         id="path182" /></clipPath><clipPath
       clipPathUnits="userSpaceOnUse"
       id="clipPath188"><path
         d="m 0,0 414.75,0 0,414 L 0,414 0,0 z"
         id="path190" /></clipPath><clipPath
       clipPathUnits="userSpaceOnUse"
       id="clipPath210"><path
         d="m 0,0 414.75,0 0,414 L 0,414 0,0 z"
         id="path212" /></clipPath><clipPath
       clipPathUnits="userSpaceOnUse"
       id="clipPath218"><path
         d="m 0,0 414.75,0 0,414 L 0,414 0,0 z"
         id="path220" /></clipPath><clipPath
       clipPathUnits="userSpaceOnUse"
       id="clipPath226"><path
         d="m 0,0 414.75,0 0,414 L 0,414 0,0 z"
         id="path228" /></clipPath><clipPath
       clipPathUnits="userSpaceOnUse"
       id="clipPath234"><path
         d="m 0,0 414.75,0 0,414 L 0,414 0,0 z"
         id="path236" /></clipPath><clipPath
       clipPathUnits="userSpaceOnUse"
       id="clipPath242"><path
         d="m 0,0 414.75,0 0,414 L 0,414 0,0 z"
         id="path244" /></clipPath><clipPath
       clipPathUnits="userSpaceOnUse"
       id="clipPath250"><path
         d="m 0,0 414.75,0 0,414 L 0,414 0,0 z"
         id="path252" /></clipPath><clipPath
       clipPathUnits="userSpaceOnUse"
       id="clipPath268"><path
         d="m 0,0 414.75,0 0,414 L 0,414 0,0 z"
         id="path270" /></clipPath><clipPath
       clipPathUnits="userSpaceOnUse"
       id="clipPath276"><path
         d="m 0,0 414.75,0 0,414 L 0,414 0,0 z"
         id="path278" /></clipPath><clipPath
       clipPathUnits="userSpaceOnUse"
       id="clipPath304"><path
         d="m 0,0 414.75,0 0,414 L 0,414 0,0 z"
         id="path306" /></clipPath><clipPath
       clipPathUnits="userSpaceOnUse"
       id="clipPath312"><path
         d="m 0,0 414.75,0 0,414 L 0,414 0,0 z"
         id="path314" /></clipPath><clipPath
       clipPathUnits="userSpaceOnUse"
       id="clipPath320"><path
         d="m 0,0 414.75,0 0,414 L 0,414 0,0 z"
         id="path322" /></clipPath><clipPath
       clipPathUnits="userSpaceOnUse"
       id="clipPath328"><path
         d="m 0,0 414.75,0 0,414 L 0,414 0,0 z"
         id="path330" /></clipPath><clipPath
       clipPathUnits="userSpaceOnUse"
       id="clipPath336"><path
         d="m 0,0 414.75,0 0,414 L 0,414 0,0 z"
         id="path338" /></clipPath><clipPath
       clipPathUnits="userSpaceOnUse"
       id="clipPath348"><path
         d="m 0,0 414.75,0 0,414 L 0,414 0,0 z"
         id="path350" /></clipPath><clipPath
       clipPathUnits="userSpaceOnUse"
       id="clipPath356"><path
         d="m 0,0 414.75,0 0,414 L 0,414 0,0 z"
         id="path358" /></clipPath><clipPath
       clipPathUnits="userSpaceOnUse"
       id="clipPath368"><path
         d="m 0,0 414.75,0 0,414 L 0,414 0,0 z"
         id="path370" /></clipPath><clipPath
       clipPathUnits="userSpaceOnUse"
       id="clipPath376"><path
         d="m 0,0 414.75,0 0,414 L 0,414 0,0 z"
         id="path378" /></clipPath><clipPath
       clipPathUnits="userSpaceOnUse"
       id="clipPath384"><path
         d="m 0,0 414.75,0 0,414 L 0,414 0,0 z"
         id="path386" /></clipPath><clipPath
       clipPathUnits="userSpaceOnUse"
       id="clipPath392"><path
         d="m 0,0 414.75,0 0,414 L 0,414 0,0 z"
         id="path394" /></clipPath><clipPath
       clipPathUnits="userSpaceOnUse"
       id="clipPath400"><path
         d="m 0,0 414.75,0 0,414 L 0,414 0,0 z"
         id="path402" /></clipPath><clipPath
       clipPathUnits="userSpaceOnUse"
       id="clipPath408"><path
         d="m 0,0 414.75,0 0,414 L 0,414 0,0 z"
         id="path410" /></clipPath><clipPath
       clipPathUnits="userSpaceOnUse"
       id="clipPath418"><path
         d="m 0,0 414.75,0 0,414 L 0,414 0,0 z"
         id="path420" /></clipPath><clipPath
       clipPathUnits="userSpaceOnUse"
       id="clipPath426"><path
         d="m 0,0 414.75,0 0,414 L 0,414 0,0 z"
         id="path428" /></clipPath><clipPath
       clipPathUnits="userSpaceOnUse"
       id="clipPath434"><path
         d="m 0,0 414.75,0 0,414 L 0,414 0,0 z"
         id="path436" /></clipPath><clipPath
       clipPathUnits="userSpaceOnUse"
       id="clipPath442"><path
         d="m 0,0 414.75,0 0,414 L 0,414 0,0 z"
         id="path444" /></clipPath><clipPath
       clipPathUnits="userSpaceOnUse"
       id="clipPath452"><path
         d="m 0,0 414.75,0 0,414 L 0,414 0,0 z"
         id="path454" /></clipPath><clipPath
       clipPathUnits="userSpaceOnUse"
       id="clipPath460"><path
         d="m 0,0 414.75,0 0,414 L 0,414 0,0 z"
         id="path462" /></clipPath><clipPath
       clipPathUnits="userSpaceOnUse"
       id="clipPath470"><path
         d="m 0,0 414.75,0 0,414 L 0,414 0,0 z"
         id="path472" /></clipPath><clipPath
       clipPathUnits="userSpaceOnUse"
       id="clipPath478"><path
         d="m 0,0 414.75,0 0,414 L 0,414 0,0 z"
         id="path480" /></clipPath><clipPath
       clipPathUnits="userSpaceOnUse"
       id="clipPath488"><path
         d="m 0,0 414.75,0 0,414 L 0,414 0,0 z"
         id="path490" /></clipPath><clipPath
       clipPathUnits="userSpaceOnUse"
       id="clipPath496"><path
         d="m 0,0 414.75,0 0,414 L 0,414 0,0 z"
         id="path498" /></clipPath><clipPath
       clipPathUnits="userSpaceOnUse"
       id="clipPath506"><path
         d="m 0,0 414.75,0 0,414 L 0,414 0,0 z"
         id="path508" /></clipPath><clipPath
       clipPathUnits="userSpaceOnUse"
       id="clipPath514"><path
         d="m 0,0 414.75,0 0,414 L 0,414 0,0 z"
         id="path516" /></clipPath><clipPath
       clipPathUnits="userSpaceOnUse"
       id="clipPath524"><path
         d="m 0,0 414.75,0 0,414 L 0,414 0,0 z"
         id="path526" /></clipPath><clipPath
       clipPathUnits="userSpaceOnUse"
       id="clipPath532"><path
         d="m 0,0 414.75,0 0,414 L 0,414 0,0 z"
         id="path534" /></clipPath><clipPath
       clipPathUnits="userSpaceOnUse"
       id="clipPath542"><path
         d="m 0,0 414.75,0 0,414 L 0,414 0,0 z"
         id="path544" /></clipPath><clipPath
       clipPathUnits="userSpaceOnUse"
       id="clipPath550"><path
         d="m 0,0 414.75,0 0,414 L 0,414 0,0 z"
         id="path552" /></clipPath><clipPath
       clipPathUnits="userSpaceOnUse"
       id="clipPath560"><path
         d="m 0,0 414.75,0 0,414 L 0,414 0,0 z"
         id="path562" /></clipPath><clipPath
       clipPathUnits="userSpaceOnUse"
       id="clipPath568"><path
         d="m 0,0 414.75,0 0,414 L 0,414 0,0 z"
         id="path570" /></clipPath><clipPath
       clipPathUnits="userSpaceOnUse"
       id="clipPath578"><path
         d="m 0,0 414.75,0 0,414 L 0,414 0,0 z"
         id="path580" /></clipPath><clipPath
       clipPathUnits="userSpaceOnUse"
       id="clipPath586"><path
         d="m 0,0 414.75,0 0,414 L 0,414 0,0 z"
         id="path588" /></clipPath><clipPath
       clipPathUnits="userSpaceOnUse"
       id="clipPath598"><path
         d="m 0,0 414.75,0 0,414 L 0,414 0,0 z"
         id="path600" /></clipPath><clipPath
       clipPathUnits="userSpaceOnUse"
       id="clipPath606"><path
         d="m 0,0 414.75,0 0,414 L 0,414 0,0 z"
         id="path608" /></clipPath><clipPath
       clipPathUnits="userSpaceOnUse"
       id="clipPath618"><path
         d="m 0,0 414.75,0 0,414 L 0,414 0,0 z"
         id="path620" /></clipPath><clipPath
       clipPathUnits="userSpaceOnUse"
       id="clipPath626"><path
         d="m 0,0 414.75,0 0,414 L 0,414 0,0 z"
         id="path628" /></clipPath><clipPath
       clipPathUnits="userSpaceOnUse"
       id="clipPath634"><path
         d="m 0,0 414.75,0 0,414 L 0,414 0,0 z"
         id="path636" /></clipPath><clipPath
       clipPathUnits="userSpaceOnUse"
       id="clipPath642"><path
         d="m 0,0 414.75,0 0,414 L 0,414 0,0 z"
         id="path644" /></clipPath><clipPath
       clipPathUnits="userSpaceOnUse"
       id="clipPath650"><path
         d="m 0,0 414.75,0 0,414 L 0,414 0,0 z"
         id="path652" /></clipPath><clipPath
       clipPathUnits="userSpaceOnUse"
       id="clipPath658"><path
         d="m 0,0 414.75,0 0,414 L 0,414 0,0 z"
         id="path660" /></clipPath><clipPath
       clipPathUnits="userSpaceOnUse"
       id="clipPath666"><path
         d="m 0,0 414.75,0 0,414 L 0,414 0,0 z"
         id="path668" /></clipPath><clipPath
       clipPathUnits="userSpaceOnUse"
       id="clipPath674"><path
         d="m 0,0 414.75,0 0,414 L 0,414 0,0 z"
         id="path676" /></clipPath><clipPath
       clipPathUnits="userSpaceOnUse"
       id="clipPath682"><path
         d="m 0,0 414.75,0 0,414 L 0,414 0,0 z"
         id="path684" /></clipPath><clipPath
       clipPathUnits="userSpaceOnUse"
       id="clipPath690"><path
         d="m 0,0 414.75,0 0,414 L 0,414 0,0 z"
         id="path692" /></clipPath><clipPath
       clipPathUnits="userSpaceOnUse"
       id="clipPath702"><path
         d="m 0,0 414.75,0 0,414 L 0,414 0,0 z"
         id="path704" /></clipPath><clipPath
       clipPathUnits="userSpaceOnUse"
       id="clipPath710"><path
         d="m 0,0 414.75,0 0,414 L 0,414 0,0 z"
         id="path712" /></clipPath></defs><sodipodi:namedview
     pagecolor="#ffffff"
     bordercolor="#666666"
     borderopacity="1"
     objecttolerance="10"
     gridtolerance="10"
     guidetolerance="10"
     inkscape:pageopacity="0"
     inkscape:pageshadow="2"
     inkscape:window-width="640"
     inkscape:window-height="480"
     id="namedview4"
     showgrid="false"
     inkscape:zoom="0.45714286"
     inkscape:cx="258.75"
     inkscape:cy="258.125"
     inkscape:window-x="0"
     inkscape:window-y="0"
     inkscape:window-maximized="0"
     inkscape:current-layer="g10" /><g
     id="g10"
     inkscape:groupmode="layer"
     inkscape:label="4a_betaMleFilt"
     transform="matrix(1.25,0,0,-1.25,0,516.25)"><g
       id="g12" /><g
       id="g14"><g
         id="g16"
         clip-path="url(#clipPath18)" /></g><g
       id="g22"><g
         id="g24"
         clip-path="url(#clipPath26)" /></g><g
       id="g30"><g
         id="g32"
         clip-path="url(#clipPath34)"><path
           d="m 0,0 414.75,0 0,414 L 0,414 0,0 z"
           style="fill:#ffffff;fill-opacity:1;fill-rule:nonzero;stroke:#ffffff;stroke-opacity:1;stroke-width:1.06;stroke-linecap:round;stroke-linejoin:round;stroke-miterlimit:10;stroke-dasharray:none"
           id="path38" /></g></g><g
       id="g40"><g
         id="g42"
         clip-path="url(#clipPath44)" /></g><g
       id="g48"><g
         id="g50"
         clip-path="url(#clipPath52)" /></g><g
       id="g56"><g
         id="g58"
         clip-path="url(#clipPath60)" /></g><g
       id="g64"><g
         id="g66"
         clip-path="url(#clipPath68)"><path
           d="m 38.47,78.58 361.88,0 0,306.51 -361.88,0 0,-306.51 z"
           style="fill:#e5e5e5;fill-opacity:1;fill-rule:nonzero;stroke:none"
           id="path72" /><path
           d="m 38.47,112.93 361.88,0"
           style="fill:none;stroke:#f2f2f2;stroke-opacity:1;stroke-width:0.53;stroke-linecap:butt;stroke-linejoin:round;stroke-miterlimit:10;stroke-dasharray:none"
           id="path74" /><path
           d="m 38.47,161.15 361.88,0"
           style="fill:none;stroke:#f2f2f2;stroke-opacity:1;stroke-width:0.53;stroke-linecap:butt;stroke-linejoin:round;stroke-miterlimit:10;stroke-dasharray:none"
           id="path76" /><path
           d="m 38.47,209.38 361.88,0"
           style="fill:none;stroke:#f2f2f2;stroke-opacity:1;stroke-width:0.53;stroke-linecap:butt;stroke-linejoin:round;stroke-miterlimit:10;stroke-dasharray:none"
           id="path78" /><path
           d="m 38.47,257.61 361.88,0"
           style="fill:none;stroke:#f2f2f2;stroke-opacity:1;stroke-width:0.53;stroke-linecap:butt;stroke-linejoin:round;stroke-miterlimit:10;stroke-dasharray:none"
           id="path80" /><path
           d="m 38.47,305.83 361.88,0"
           style="fill:none;stroke:#f2f2f2;stroke-opacity:1;stroke-width:0.53;stroke-linecap:butt;stroke-linejoin:round;stroke-miterlimit:10;stroke-dasharray:none"
           id="path82" /><path
           d="m 38.47,354.06 361.88,0"
           style="fill:none;stroke:#f2f2f2;stroke-opacity:1;stroke-width:0.53;stroke-linecap:butt;stroke-linejoin:round;stroke-miterlimit:10;stroke-dasharray:none"
           id="path84" /><path
           d="m 93.54,78.58 0,306.51"
           style="fill:none;stroke:#f2f2f2;stroke-opacity:1;stroke-width:0.53;stroke-linecap:butt;stroke-linejoin:round;stroke-miterlimit:10;stroke-dasharray:none"
           id="path86" /><path
           d="m 176.24,78.58 0,306.51"
           style="fill:none;stroke:#f2f2f2;stroke-opacity:1;stroke-width:0.53;stroke-linecap:butt;stroke-linejoin:round;stroke-miterlimit:10;stroke-dasharray:none"
           id="path88" /><path
           d="m 259.4,78.58 0,306.51"
           style="fill:none;stroke:#f2f2f2;stroke-opacity:1;stroke-width:0.53;stroke-linecap:butt;stroke-linejoin:round;stroke-miterlimit:10;stroke-dasharray:none"
           id="path90" /><path
           d="m 343.01,78.58 0,306.51"
           style="fill:none;stroke:#f2f2f2;stroke-opacity:1;stroke-width:0.53;stroke-linecap:butt;stroke-linejoin:round;stroke-miterlimit:10;stroke-dasharray:none"
           id="path92" /><path
           d="m 38.47,88.81 361.88,0"
           style="fill:none;stroke:#ffffff;stroke-opacity:1;stroke-width:1.06;stroke-linecap:butt;stroke-linejoin:round;stroke-miterlimit:10;stroke-dasharray:none"
           id="path94" /><path
           d="m 38.47,137.04 361.88,0"
           style="fill:none;stroke:#ffffff;stroke-opacity:1;stroke-width:1.06;stroke-linecap:butt;stroke-linejoin:round;stroke-miterlimit:10;stroke-dasharray:none"
           id="path96" /><path
           d="m 38.47,185.27 361.88,0"
           style="fill:none;stroke:#ffffff;stroke-opacity:1;stroke-width:1.06;stroke-linecap:butt;stroke-linejoin:round;stroke-miterlimit:10;stroke-dasharray:none"
           id="path98" /><path
           d="m 38.47,233.49 361.88,0"
           style="fill:none;stroke:#ffffff;stroke-opacity:1;stroke-width:1.06;stroke-linecap:butt;stroke-linejoin:round;stroke-miterlimit:10;stroke-dasharray:none"
           id="path100" /><path
           d="m 38.47,281.72 361.88,0"
           style="fill:none;stroke:#ffffff;stroke-opacity:1;stroke-width:1.06;stroke-linecap:butt;stroke-linejoin:round;stroke-miterlimit:10;stroke-dasharray:none"
           id="path102" /><path
           d="m 38.47,329.95 361.88,0"
           style="fill:none;stroke:#ffffff;stroke-opacity:1;stroke-width:1.06;stroke-linecap:butt;stroke-linejoin:round;stroke-miterlimit:10;stroke-dasharray:none"
           id="path104" /><path
           d="m 38.47,378.18 361.88,0"
           style="fill:none;stroke:#ffffff;stroke-opacity:1;stroke-width:1.06;stroke-linecap:butt;stroke-linejoin:round;stroke-miterlimit:10;stroke-dasharray:none"
           id="path106" /><path
           d="m 52.19,78.58 0,306.51"
           style="fill:none;stroke:#ffffff;stroke-opacity:1;stroke-width:1.06;stroke-linecap:butt;stroke-linejoin:round;stroke-miterlimit:10;stroke-dasharray:none"
           id="path108" /><path
           d="m 134.89,78.58 0,306.51"
           style="fill:none;stroke:#ffffff;stroke-opacity:1;stroke-width:1.06;stroke-linecap:butt;stroke-linejoin:round;stroke-miterlimit:10;stroke-dasharray:none"
           id="path110" /><path
           d="m 217.59,78.58 0,306.51"
           style="fill:none;stroke:#ffffff;stroke-opacity:1;stroke-width:1.06;stroke-linecap:butt;stroke-linejoin:round;stroke-miterlimit:10;stroke-dasharray:none"
           id="path112" /><path
           d="m 301.2,78.58 0,306.51"
           style="fill:none;stroke:#ffffff;stroke-opacity:1;stroke-width:1.06;stroke-linecap:butt;stroke-linejoin:round;stroke-miterlimit:10;stroke-dasharray:none"
           id="path114" /><path
           d="m 384.81,78.58 0,306.51"
           style="fill:none;stroke:#ffffff;stroke-opacity:1;stroke-width:1.06;stroke-linecap:butt;stroke-linejoin:round;stroke-miterlimit:10;stroke-dasharray:none"
           id="path116" /><path
           d="m 54.92,231.84 0.91,-7.06 0.91,-3.85 2.72,2.87 0.91,-1.37 0.91,4.83 0.91,1.66 0.91,8.69 3.63,2.96 0.91,6.71 0.91,-1.08 0.91,10.79 2.72,-8.35 0.91,11.77 0.91,32.61 0.91,-0.71 0.91,-2.11 2.73,-4.7 0.91,-0.55 0.9,-8.44 0.91,0.21 0.91,-4.66 2.73,-1.46 0.91,-0.5 0.91,-0.99 0.9,-5.06 0.91,0.59 2.73,1.74 0.91,-1.65 0.91,10.79 0.91,-2.12 0.9,0.38 3.64,-3.09 0.91,2.03 0.91,-0.13 0.91,-0.33 2.72,-0.01 0.91,0.41 0.91,-3.97 0.91,-0.85 0.91,0.67 2.72,7.32 0.91,-1.99 0.91,-1.53 0.91,1.95 0.91,-0.02 2.73,-0.75 0.9,3.5 0.91,-6.79 0.91,0.1 0.91,1.1 2.73,-1.46 0.91,-0.81 0.9,2.29 0.91,1.86 0.91,0.65 2.73,0.22 0.91,-1.59 0.91,-0.66 0.91,2.19 0.9,0.66 2.73,1.25 0.91,-3.14 0.91,1.61 0.91,-0.9 3.63,-1.94 0.91,1.38 0.91,-1.3 0.91,-3.68 0.91,5.15 2.72,1.61 0.91,6.31 0.91,0.13 0.91,3.6 0.91,0.53 2.72,-0.82 0.91,-0.42 0.91,10.57 0.91,-0.67 0.91,0.12 2.73,2.66 0.91,-0.32 0.9,-0.78 0.91,-0.34 0.91,1.96 2.73,-0.17 0.91,-0.22 0.91,-1.07 0.9,0 0.91,0.24 2.73,0.25 0.91,0.23 0.91,0.56 0.91,1.88 0.9,-0.89 2.73,5.99 0.91,0.17 0.91,0.05 0.91,0.11 0.91,0.18 3.63,-0.01 0.91,-5.35 0.91,0.09 0.91,-0.28 2.72,0 0.91,-0.73 0.91,-3.64 0.91,0.04 0.91,0.14 2.73,0.29 0.9,-0.68 0.91,0.02 0.91,-1.26 0.91,-0.69 2.73,-0.29 0.91,-0.64 0.9,0.14 0.91,-2.58 0.91,-0.07 2.73,0.51 0.91,-0.04 0.91,-0.34 0.91,0.44 0.9,-0.67 2.73,-0.18 0.91,0.02 1.82,-1.75 0.91,-0.16 2.72,-0.59 0.91,0.33 0.91,0.3 0.91,0.46 0.91,-1.12 2.72,-0.19 0.91,-0.25 0.91,-0.2 0.91,-0.17 0.91,0.97 2.73,-0.79 0.9,-0.31 0.91,1.59 0.91,-2.07 0.91,-0.36 2.73,-0.86 0.91,-2.47 0.9,0.43 0.91,-0.76 0.91,-0.84 2.73,-0.23 0.91,0.19 0.91,0.26 0.9,0.07 0.91,0.12 2.73,-0.98 0.91,-0.04 0.91,0.35 0.91,0.01 0.9,-0.98 2.73,-1.99 0.91,1.59 0.91,-1.18 0.91,0.74 0.91,0.09 2.72,-1.16 0.91,0.3 0.91,0.36 0.91,1.35 0.91,0.07 3.63,-0.93 0.91,0.65 0.91,-1.45 0.91,0.01 2.73,2.94 0.9,0.38 0.91,-0.63 0.91,0.13 0.91,-0.37 2.73,-1.53 0.91,-0.15 0.91,0.27 0.9,0.61 0.91,0.03 2.73,1.32 0.91,2.63 0.91,0.85 0.91,0.22 0.9,1.79 2.73,0.62 0.91,-0.1 0.91,-0.39 0.91,0.14 0.91,1.73 2.72,1.94 0.91,-1.4 0.91,-1.86 0.91,1.3 0.91,-0.59 2.72,0 0.91,0.17 0.91,0.59 0.91,1.59 0.91,3.1 2.73,-2.87 0.9,2.53 0.91,-0.96 0.91,0.68 0.91,0.46 4.54,0.78 0.91,-0.17 0.91,2.59 2.73,-0.61 0.91,0.08 0.91,2.07 0.9,2.2 0.91,-0.68 2.73,0.23 0.91,-0.65 0.91,-1.42 0.91,0.94 0.91,-0.01 2.72,3.95 0.91,0.33 0.91,-0.06 1.82,0.06 2.72,-2.85 0.91,-0.1 0.91,0.04 0.91,-0.22 0.91,0.32 2.72,-0.99 0.91,1.01 0.91,3.17 0.91,-0.53 0.91,1.17 2.73,0.19 0.9,-0.33 0.91,0.07 0.91,0.49 0.91,2.83 2.73,0.07 0.91,0.07 0.91,-0.38 0.9,0.47 0.91,-2.15 2.73,-0.93 1.82,0.27 0.91,-0.79 0.9,-1.32 2.73,1.17"
           style="fill:none;stroke:#2e2e2e;stroke-opacity:1;stroke-width:1.89;stroke-linecap:butt;stroke-linejoin:round;stroke-miterlimit:1;stroke-dasharray:none"
           id="path118" /><path
           d="m 54.92,371.16 0.91,-14.98 0.91,-24.73 2.72,2.44 0.91,-8.48 0.91,2.44 0.91,1.41 0.91,-1.53 3.63,2.46 0.91,-3.14 0.91,-1.15 0.91,9.12 2.72,-10.17 0.91,9.12 0.91,30.35 0.91,-6.25 0.91,-2.97 2.73,-5.6 0.91,-0.59 0.9,-11.59 0.91,0.26 0.91,-10.8 2.73,-1.79 0.91,-0.51 0.91,-1 0.9,-5.26 0.91,-2.78 2.73,1.39 0.91,-1.95 0.91,9.1 0.91,-3.7 0.9,0.42 3.64,-3.26 0.91,1.06 0.91,-0.1 0.91,-0.3 2.72,0.03 0.91,0.47 0.91,-5.23 0.91,-0.92 0.91,-0.08 2.72,6.45 0.91,-6.73 0.91,-1.74 0.91,1.4 0.91,0.06 2.73,-0.79 0.9,1.37 0.91,-7.26 0.91,0.2 0.91,0.9 2.73,-1.47 0.91,-1.67 0.9,1.83 0.91,0.56 0.91,0.72 2.73,-0.28 0.91,-1.93 0.91,-1.25 0.91,2.05 0.9,0.75 2.73,1.3 0.91,-3.68 0.91,0.28 0.91,-0.92 3.63,-2.92 0.91,-0.22 0.91,-1.3 0.91,-4.09 0.91,4.39 2.72,1.71 0.91,5.82 0.91,0.09 0.91,3.48 0.91,0.66 2.72,-1.1 0.91,-0.29 0.91,10.29 0.91,-0.58 0.91,0.26 2.73,2.61 0.91,-0.2 0.9,-0.77 0.91,-0.63 0.91,0.94 2.73,-0.05 0.91,-0.21 0.91,-1.17 0.9,0.14 0.91,0.27 2.73,-0.11 0.91,0.21 0.91,0.6 0.91,1.31 0.9,-0.92 2.73,5.53 0.91,0.31 0.91,0.19 0.91,0.24 0.91,0.28 3.63,-0.1 0.91,-5.84 0.91,0.2 0.91,-1.53 2.72,0.16 0.91,-0.65 0.91,-4.45 0.91,0.18 0.91,0.23 2.73,-0.01 0.9,-0.68 0.91,-0.01 0.91,-1.23 0.91,-0.64 2.73,-0.14 0.91,-0.56 0.9,0.22 0.91,-3.76 0.91,0.08 2.73,0 0.91,0.12 0.91,-0.22 0.91,0.55 0.9,-1.2 2.73,-0.02 0.91,0.19 1.82,-1.76 0.91,-0.31 2.72,-0.49 0.91,0.25 0.91,0.44 0.91,0.49 0.91,-1.22 2.72,-0.09 0.91,-0.11 0.91,-0.04 0.91,-0.02 0.91,0.74 2.73,-0.93 0.9,-0.42 0.91,1.72 0.91,-2.17 0.91,-0.51 2.73,-0.75 0.91,-2.48 0.9,0.47 0.91,-0.89 0.91,-0.94 2.73,-0.1 0.91,0.35 0.91,0.34 0.9,0.13 0.91,0.24 2.73,-0.97 0.91,0 0.91,0.38 0.91,0.16 0.9,-0.92 2.73,-1.99 0.91,1.44 0.91,-1.14 0.91,0.45 0.91,0.25 2.72,-1.11 0.91,0.33 0.91,0.44 0.91,1.09 0.91,0.23 3.63,-0.89 0.91,0.69 0.91,-1.58 0.91,0.14 2.73,2.72 0.9,0.49 0.91,-0.56 0.91,0.19 0.91,-0.28 2.73,-1.71 0.91,-0.2 0.91,0.3 0.9,0.6 0.91,0.03 2.73,1.25 0.91,2.18 0.91,0.72 0.91,0.38 0.9,1.69 2.73,0.75 0.91,-0.01 0.91,-0.25 0.91,0.29 0.91,1.73 2.72,1.82 0.91,-1.84 0.91,-2.04 0.91,1.37 0.91,-0.62 2.72,0.17 0.91,0.33 0.91,0.7 0.91,1.48 0.91,2.19 2.73,-2.82 0.9,1.92 0.91,-0.97 0.91,0.79 0.91,0.52 4.54,0.86 0.91,0 0.91,2.29 2.73,-0.49 0.91,0.26 0.91,0.93 0.9,1.93 0.91,-0.54 2.73,0.36 0.91,-0.62 0.91,-1.75 0.91,1.03 0.91,0.18 2.72,3.95 0.91,0.45 0.91,0.06 1.82,0.23 2.72,-2.82 0.91,-0.16 0.91,0.22 0.91,-0.07 0.91,0.41 2.72,-1.06 0.91,1.04 0.91,3.29 0.91,-0.39 0.91,1.3 2.73,0.26 0.9,-0.16 0.91,0.11 0.91,0.27 0.91,2.72 2.73,0.25 0.91,0.24 0.91,-0.71 0.9,0.6 0.91,-2.52 2.73,-0.98 1.82,0.14 0.91,-0.78 0.9,-1.69 2.73,1.29"
           style="fill:none;stroke:#b3b3b3;stroke-opacity:1;stroke-width:1.89;stroke-linecap:butt;stroke-linejoin:round;stroke-miterlimit:1;stroke-dasharray:13.24,5.68;stroke-dashoffset:0"
           id="path120" /><path
           d="m 54.92,92.51 0.91,0.86 0.91,17.04 2.72,3.3 0.91,5.73 0.91,7.24 0.91,1.9 0.91,18.92 3.63,3.45 0.91,16.57 0.91,-1.01 0.91,12.46 2.72,-6.54 0.91,14.43 0.91,34.85 0.91,4.84 0.91,-1.25 2.73,-3.81 0.91,-0.5 0.9,-5.29 0.91,0.17 0.91,1.46 2.73,-1.12 0.91,-0.49 0.91,-0.98 0.9,-4.85 0.91,3.95 2.73,2.09 0.91,-1.35 0.91,12.47 0.91,-0.54 0.9,0.35 3.64,-2.93 0.91,3.01 0.91,-0.16 0.91,-0.36 2.72,-0.05 0.91,0.35 0.91,-2.72 0.91,-0.77 0.91,1.42 2.72,8.19 0.91,2.75 0.91,-1.31 0.91,2.49 0.91,-0.1 2.73,-0.72 0.9,5.64 0.91,-6.32 0.91,0.01 0.91,1.29 2.73,-1.46 0.91,0.06 0.9,2.76 0.91,3.15 0.91,0.59 2.73,0.7 0.91,-1.24 0.91,-0.07 0.91,2.34 0.9,0.56 2.73,1.2 0.91,-2.61 0.91,2.95 0.91,-0.88 3.63,-0.97 0.91,2.99 0.91,-1.3 0.91,-3.28 0.91,5.92 2.72,1.51 0.91,6.8 0.91,0.17 0.91,3.72 0.91,0.41 2.72,-0.55 0.91,-0.54 0.91,10.83 0.91,-0.76 0.91,0 2.73,2.69 0.91,-0.42 0.9,-0.79 0.91,-0.05 0.91,2.97 2.73,-0.29 0.91,-0.23 0.91,-0.96 0.9,-0.14 0.91,0.2 2.73,0.62 0.91,0.25 0.91,0.51 0.91,2.45 0.9,-0.86 2.73,6.45 0.91,0.03 0.91,-0.09 0.91,-0.03 0.91,0.09 3.63,0.07 0.91,-4.84 0.91,-0.04 0.91,0.98 2.72,-0.15 0.91,-0.82 0.91,-2.82 0.91,-0.11 0.91,0.05 2.73,0.59 0.9,-0.68 0.91,0.05 0.91,-1.29 0.91,-0.74 2.73,-0.44 0.91,-0.72 0.9,0.07 0.91,-1.42 0.91,-0.22 2.73,1.03 0.91,-0.21 0.91,-0.46 0.91,0.35 0.9,-0.15 2.73,-0.34 0.91,-0.14 1.82,-1.76 0.91,0.01 2.72,-0.71 0.91,0.42 0.91,0.16 0.91,0.43 0.91,-1.02 2.72,-0.28 0.91,-0.41 0.91,-0.35 0.91,-0.33 0.91,1.2 2.73,-0.65 0.9,-0.18 0.91,1.45 0.91,-1.96 0.91,-0.23 2.73,-0.96 0.91,-2.47 0.9,0.41 0.91,-0.64 0.91,-0.73 2.73,-0.38 0.91,0.03 0.91,0.19 0.9,0.01 0.91,0.01 2.73,-1.01 0.91,-0.06 0.91,0.3 0.91,-0.14 0.9,-1.03 2.73,-1.98 0.91,1.72 0.91,-1.22 0.91,1.04 0.91,-0.07 2.72,-1.2 0.91,0.25 0.91,0.29 0.91,1.61 0.91,-0.09 3.63,-0.98 0.91,0.61 0.91,-1.31 0.91,-0.12 2.73,3.16 0.9,0.27 0.91,-0.7 0.91,0.06 0.91,-0.44 2.73,-1.37 0.91,-0.08 0.91,0.22 0.9,0.64 0.91,0.03 2.73,1.37 0.91,3.09 0.91,0.99 0.91,0.06 0.9,1.87 2.73,0.5 0.91,-0.18 0.91,-0.53 0.91,-0.02 0.91,1.72 2.72,2.06 0.91,-0.95 0.91,-1.68 0.91,1.23 0.91,-0.56 2.72,-0.16 0.91,0 0.91,0.48 0.91,1.69 0.91,4.01 2.73,-2.92 0.9,3.14 0.91,-0.93 0.91,0.55 0.91,0.42 4.54,0.69 0.91,-0.34 0.91,2.88 2.73,-0.73 0.91,-0.09 0.91,3.22 0.9,2.47 0.91,-0.84 2.73,0.11 0.91,-0.68 0.91,-1.08 0.91,0.83 0.91,-0.18 2.72,3.93 0.91,0.23 0.91,-0.2 1.82,-0.1 2.72,-2.88 0.91,-0.04 0.91,-0.13 0.91,-0.38 0.91,0.23 2.72,-0.92 0.91,0.97 0.91,3.05 0.91,-0.67 0.91,1.04 2.73,0.12 0.9,-0.48 0.91,0.02 0.91,0.71 0.91,2.93 2.73,-0.09 0.91,-0.11 0.91,-0.04 0.9,0.33 0.91,-1.78 2.73,-0.87 1.82,0.39 0.91,-0.81 0.9,-0.94 2.73,1.05"
           style="fill:none;stroke:#b3b3b3;stroke-opacity:1;stroke-width:1.89;stroke-linecap:butt;stroke-linejoin:round;stroke-miterlimit:1;stroke-dasharray:13.24,5.68;stroke-dashoffset:0"
           id="path122" /></g></g><g
       id="g124"><g
         id="g126"
         clip-path="url(#clipPath128)" /></g><g
       id="g132"><g
         id="g134"
         clip-path="url(#clipPath136)" /></g><g
       id="g140"><g
         id="g142"
         clip-path="url(#clipPath144)"><text
           transform="matrix(1,0,0,-1,20.58,86.28)"
           id="text148"><tspan
             style="fill:#7f7f7f;fill-opacity:1;fill-rule:nonzero;stroke:none;font-family:Courier New;font-variant:normal;font-weight:bold;font-size:9;writing-mode:lr;-inkscape-font-specification:Courier-Bold"
             x="0 5.4"
             y="0"
             sodipodi:role="line"
             id="tspan150">−3</tspan></text>
<text
           transform="matrix(1,0,0,-1,20.58,134.51)"
           id="text152"><tspan
             style="fill:#7f7f7f;fill-opacity:1;fill-rule:nonzero;stroke:none;font-family:Courier New;font-variant:normal;font-weight:bold;font-size:9;writing-mode:lr;-inkscape-font-specification:Courier-Bold"
             x="0 5.4"
             y="0"
             sodipodi:role="line"
             id="tspan154">−2</tspan></text>
<text
           transform="matrix(1,0,0,-1,20.58,182.74)"
           id="text156"><tspan
             style="fill:#7f7f7f;fill-opacity:1;fill-rule:nonzero;stroke:none;font-family:Courier New;font-variant:normal;font-weight:bold;font-size:9;writing-mode:lr;-inkscape-font-specification:Courier-Bold"
             x="0 5.4"
             y="0"
             sodipodi:role="line"
             id="tspan158">−1</tspan></text>
<text
           transform="matrix(1,0,0,-1,25.98,230.97)"
           id="text160"><tspan
             style="fill:#7f7f7f;fill-opacity:1;fill-rule:nonzero;stroke:none;font-family:Courier New;font-variant:normal;font-weight:bold;font-size:9;writing-mode:lr;-inkscape-font-specification:Courier-Bold"
             x="0"
             y="0"
             id="tspan162">0</tspan></text>
<text
           transform="matrix(1,0,0,-1,25.98,279.19)"
           id="text164"><tspan
             style="fill:#7f7f7f;fill-opacity:1;fill-rule:nonzero;stroke:none;font-family:Courier New;font-variant:normal;font-weight:bold;font-size:9;writing-mode:lr;-inkscape-font-specification:Courier-Bold"
             x="0"
             y="0"
             id="tspan166">1</tspan></text>
<text
           transform="matrix(1,0,0,-1,25.98,327.42)"
           id="text168"><tspan
             style="fill:#7f7f7f;fill-opacity:1;fill-rule:nonzero;stroke:none;font-family:Courier New;font-variant:normal;font-weight:bold;font-size:9;writing-mode:lr;-inkscape-font-specification:Courier-Bold"
             x="0"
             y="0"
             id="tspan170">2</tspan></text>
<text
           transform="matrix(1,0,0,-1,25.98,375.65)"
           id="text172"><tspan
             style="fill:#7f7f7f;fill-opacity:1;fill-rule:nonzero;stroke:none;font-family:Courier New;font-variant:normal;font-weight:bold;font-size:9;writing-mode:lr;-inkscape-font-specification:Courier-Bold"
             x="0"
             y="0"
             id="tspan174">3</tspan></text>
</g></g><g
       id="g176"><g
         id="g178"
         clip-path="url(#clipPath180)" /></g><g
       id="g184"><g
         id="g186"
         clip-path="url(#clipPath188)"><path
           d="m 34.22,88.81 4.25,0"
           style="fill:none;stroke:#7f7f7f;stroke-opacity:1;stroke-width:1.06;stroke-linecap:butt;stroke-linejoin:round;stroke-miterlimit:10;stroke-dasharray:none"
           id="path192" /><path
           d="m 34.22,137.04 4.25,0"
           style="fill:none;stroke:#7f7f7f;stroke-opacity:1;stroke-width:1.06;stroke-linecap:butt;stroke-linejoin:round;stroke-miterlimit:10;stroke-dasharray:none"
           id="path194" /><path
           d="m 34.22,185.27 4.25,0"
           style="fill:none;stroke:#7f7f7f;stroke-opacity:1;stroke-width:1.06;stroke-linecap:butt;stroke-linejoin:round;stroke-miterlimit:10;stroke-dasharray:none"
           id="path196" /><path
           d="m 34.22,233.49 4.25,0"
           style="fill:none;stroke:#7f7f7f;stroke-opacity:1;stroke-width:1.06;stroke-linecap:butt;stroke-linejoin:round;stroke-miterlimit:10;stroke-dasharray:none"
           id="path198" /><path
           d="m 34.22,281.72 4.25,0"
           style="fill:none;stroke:#7f7f7f;stroke-opacity:1;stroke-width:1.06;stroke-linecap:butt;stroke-linejoin:round;stroke-miterlimit:10;stroke-dasharray:none"
           id="path200" /><path
           d="m 34.22,329.95 4.25,0"
           style="fill:none;stroke:#7f7f7f;stroke-opacity:1;stroke-width:1.06;stroke-linecap:butt;stroke-linejoin:round;stroke-miterlimit:10;stroke-dasharray:none"
           id="path202" /><path
           d="m 34.22,378.18 4.25,0"
           style="fill:none;stroke:#7f7f7f;stroke-opacity:1;stroke-width:1.06;stroke-linecap:butt;stroke-linejoin:round;stroke-miterlimit:10;stroke-dasharray:none"
           id="path204" /></g></g><g
       id="g206"><g
         id="g208"
         clip-path="url(#clipPath210)" /></g><g
       id="g214"><g
         id="g216"
         clip-path="url(#clipPath218)" /></g><g
       id="g222"><g
         id="g224"
         clip-path="url(#clipPath226)" /></g><g
       id="g230"><g
         id="g232"
         clip-path="url(#clipPath234)" /></g><g
       id="g238"><g
         id="g240"
         clip-path="url(#clipPath242)" /></g><g
       id="g246"><g
         id="g248"
         clip-path="url(#clipPath250)"><path
           d="m 52.19,74.33 0,4.25"
           style="fill:none;stroke:#7f7f7f;stroke-opacity:1;stroke-width:1.06;stroke-linecap:butt;stroke-linejoin:round;stroke-miterlimit:10;stroke-dasharray:none"
           id="path254" /><path
           d="m 134.89,74.33 0,4.25"
           style="fill:none;stroke:#7f7f7f;stroke-opacity:1;stroke-width:1.06;stroke-linecap:butt;stroke-linejoin:round;stroke-miterlimit:10;stroke-dasharray:none"
           id="path256" /><path
           d="m 217.59,74.33 0,4.25"
           style="fill:none;stroke:#7f7f7f;stroke-opacity:1;stroke-width:1.06;stroke-linecap:butt;stroke-linejoin:round;stroke-miterlimit:10;stroke-dasharray:none"
           id="path258" /><path
           d="m 301.2,74.33 0,4.25"
           style="fill:none;stroke:#7f7f7f;stroke-opacity:1;stroke-width:1.06;stroke-linecap:butt;stroke-linejoin:round;stroke-miterlimit:10;stroke-dasharray:none"
           id="path260" /><path
           d="m 384.81,74.33 0,4.25"
           style="fill:none;stroke:#7f7f7f;stroke-opacity:1;stroke-width:1.06;stroke-linecap:butt;stroke-linejoin:round;stroke-miterlimit:10;stroke-dasharray:none"
           id="path262" /></g></g><g
       id="g264"><g
         id="g266"
         clip-path="url(#clipPath268)" /></g><g
       id="g272"><g
         id="g274"
         clip-path="url(#clipPath276)"><text
           transform="matrix(1,0,0,-1,30.59,66.44)"
           id="text280"><tspan
             style="fill:#7f7f7f;fill-opacity:1;fill-rule:nonzero;stroke:none;font-family:Courier New;font-variant:normal;font-weight:bold;font-size:9;writing-mode:lr;-inkscape-font-specification:Courier-Bold"
             x="0 5.4 10.8 16.2 21.6 27 32.4 37.8"
             y="0"
             sodipodi:role="line"
             id="tspan282">ene 2012</tspan></text>
<text
           transform="matrix(1,0,0,-1,113.29,66.44)"
           id="text284"><tspan
             style="fill:#7f7f7f;fill-opacity:1;fill-rule:nonzero;stroke:none;font-family:Courier New;font-variant:normal;font-weight:bold;font-size:9;writing-mode:lr;-inkscape-font-specification:Courier-Bold"
             x="0 5.4 10.8 16.2 21.6 27 32.4 37.8"
             y="0"
             sodipodi:role="line"
             id="tspan286">abr 2012</tspan></text>
<text
           transform="matrix(1,0,0,-1,195.99,66.44)"
           id="text288"><tspan
             style="fill:#7f7f7f;fill-opacity:1;fill-rule:nonzero;stroke:none;font-family:Courier New;font-variant:normal;font-weight:bold;font-size:9;writing-mode:lr;-inkscape-font-specification:Courier-Bold"
             x="0 5.4 10.8 16.2 21.6 27 32.4 37.8"
             y="0"
             sodipodi:role="line"
             id="tspan290">jul 2012</tspan></text>
<text
           transform="matrix(1,0,0,-1,279.6,66.44)"
           id="text292"><tspan
             style="fill:#7f7f7f;fill-opacity:1;fill-rule:nonzero;stroke:none;font-family:Courier New;font-variant:normal;font-weight:bold;font-size:9;writing-mode:lr;-inkscape-font-specification:Courier-Bold"
             x="0 5.4 10.8 16.2 21.6 27 32.4 37.8"
             y="0"
             sodipodi:role="line"
             id="tspan294">oct 2012</tspan></text>
<text
           transform="matrix(1,0,0,-1,363.21,66.44)"
           id="text296"><tspan
             style="fill:#7f7f7f;fill-opacity:1;fill-rule:nonzero;stroke:none;font-family:Courier New;font-variant:normal;font-weight:bold;font-size:9;writing-mode:lr;-inkscape-font-specification:Courier-Bold"
             x="0 5.4 10.8 16.2 21.6 27 32.4 37.8"
             y="0"
             sodipodi:role="line"
             id="tspan298">ene 2013</tspan></text>
</g></g><g
       id="g300"><g
         id="g302"
         clip-path="url(#clipPath304)" /></g><g
       id="g308"><g
         id="g310"
         clip-path="url(#clipPath312)" /></g><g
       id="g316"><g
         id="g318"
         clip-path="url(#clipPath320)" /></g><g
       id="g324"><g
         id="g326"
         clip-path="url(#clipPath328)" /></g><g
       id="g332"><g
         id="g334"
         clip-path="url(#clipPath336)"><text
           transform="matrix(1,0,0,-1,202.91,56.65)"
           id="text340"><tspan
             style="fill:#000000;fill-opacity:1;fill-rule:nonzero;stroke:none;font-family:Courier New;font-variant:normal;font-weight:bold;font-size:11;writing-mode:lr;-inkscape-font-specification:Courier-Bold"
             x="0 6.6 13.2 19.8 26.4"
             y="0"
             sodipodi:role="line"
             id="tspan342">Fecha</tspan></text>
</g></g><g
       id="g344"><g
         id="g346"
         clip-path="url(#clipPath348)" /></g><g
       id="g352"><g
         id="g354"
         clip-path="url(#clipPath356)"><text
           transform="matrix(0,1,1,0,16.98,208.74)"
           id="text360"><tspan
             style="fill:#000000;fill-opacity:1;fill-rule:nonzero;stroke:none;font-family:Courier New;font-variant:normal;font-weight:bold;font-size:11;writing-mode:lr;-inkscape-font-specification:Courier-Bold"
             x="0 6.6 13.2 19.8 26.4 33 39.6"
             y="0"
             sodipodi:role="line"
             id="tspan362">Valores</tspan></text>
</g></g><g
       id="g364"><g
         id="g366"
         clip-path="url(#clipPath368)" /></g><g
       id="g372"><g
         id="g374"
         clip-path="url(#clipPath376)" /></g><g
       id="g380"><g
         id="g382"
         clip-path="url(#clipPath384)" /></g><g
       id="g388"><g
         id="g390"
         clip-path="url(#clipPath392)" /></g><g
       id="g396"><g
         id="g398"
         clip-path="url(#clipPath400)" /></g><g
       id="g404"><g
         id="g406"
         clip-path="url(#clipPath408)"><path
           d="m 97.98,17.23 242.86,0 0,25.78 -242.86,0 0,-25.78 z"
           style="fill:#ffffff;fill-opacity:1;fill-rule:nonzero;stroke:#000000;stroke-opacity:1;stroke-width:1.06;stroke-linecap:round;stroke-linejoin:round;stroke-miterlimit:10;stroke-dasharray:none"
           id="path412" /></g></g><g
       id="g414"><g
         id="g416"
         clip-path="url(#clipPath418)" /></g><g
       id="g422"><g
         id="g424"
         clip-path="url(#clipPath426)" /></g><g
       id="g430"><g
         id="g432"
         clip-path="url(#clipPath434)" /></g><g
       id="g438"><g
         id="g440"
         clip-path="url(#clipPath442)"><path
           d="m 106.55,21.49 17.28,0 0,17.28 -17.28,0 0,-17.28 z"
           style="fill:#f2f2f2;fill-opacity:1;fill-rule:nonzero;stroke:#ffffff;stroke-opacity:1;stroke-width:1.06;stroke-linecap:round;stroke-linejoin:round;stroke-miterlimit:10;stroke-dasharray:none"
           id="path446" /></g></g><g
       id="g448"><g
         id="g450"
         clip-path="url(#clipPath452)" /></g><g
       id="g456"><g
         id="g458"
         clip-path="url(#clipPath460)"><path
           d="m 108.28,30.13 13.82,0"
           style="fill:none;stroke:#2e2e2e;stroke-opacity:1;stroke-width:1.89;stroke-linecap:butt;stroke-linejoin:round;stroke-miterlimit:10;stroke-dasharray:none"
           id="path464" /></g></g><g
       id="g466"><g
         id="g468"
         clip-path="url(#clipPath470)" /></g><g
       id="g474"><g
         id="g476"
         clip-path="url(#clipPath478)"><path
           d="m 108.28,30.13 13.82,0"
           style="fill:none;stroke:#2e2e2e;stroke-opacity:1;stroke-width:1.89;stroke-linecap:butt;stroke-linejoin:round;stroke-miterlimit:10;stroke-dasharray:13.24,5.68;stroke-dashoffset:0"
           id="path482" /></g></g><g
       id="g484"><g
         id="g486"
         clip-path="url(#clipPath488)" /></g><g
       id="g492"><g
         id="g494"
         clip-path="url(#clipPath496)"><path
           d="m 108.28,30.13 13.82,0"
           style="fill:none;stroke:#2e2e2e;stroke-opacity:1;stroke-width:1.89;stroke-linecap:butt;stroke-linejoin:round;stroke-miterlimit:10;stroke-dasharray:13.24,5.68;stroke-dashoffset:0"
           id="path500" /></g></g><g
       id="g502"><g
         id="g504"
         clip-path="url(#clipPath506)" /></g><g
       id="g510"><g
         id="g512"
         clip-path="url(#clipPath514)"><path
           d="m 149.75,21.49 17.28,0 0,17.28 -17.28,0 0,-17.28 z"
           style="fill:#f2f2f2;fill-opacity:1;fill-rule:nonzero;stroke:#ffffff;stroke-opacity:1;stroke-width:1.06;stroke-linecap:round;stroke-linejoin:round;stroke-miterlimit:10;stroke-dasharray:none"
           id="path518" /></g></g><g
       id="g520"><g
         id="g522"
         clip-path="url(#clipPath524)" /></g><g
       id="g528"><g
         id="g530"
         clip-path="url(#clipPath532)"><path
           d="m 151.48,30.13 13.82,0"
           style="fill:none;stroke:#b3b3b3;stroke-opacity:1;stroke-width:1.89;stroke-linecap:butt;stroke-linejoin:round;stroke-miterlimit:10;stroke-dasharray:none"
           id="path536" /></g></g><g
       id="g538"><g
         id="g540"
         clip-path="url(#clipPath542)" /></g><g
       id="g546"><g
         id="g548"
         clip-path="url(#clipPath550)"><path
           d="m 151.48,30.13 13.82,0"
           style="fill:none;stroke:#b3b3b3;stroke-opacity:1;stroke-width:1.89;stroke-linecap:butt;stroke-linejoin:round;stroke-miterlimit:10;stroke-dasharray:13.24,5.68;stroke-dashoffset:0"
           id="path554" /></g></g><g
       id="g556"><g
         id="g558"
         clip-path="url(#clipPath560)" /></g><g
       id="g564"><g
         id="g566"
         clip-path="url(#clipPath568)"><path
           d="m 151.48,30.13 13.82,0"
           style="fill:none;stroke:#b3b3b3;stroke-opacity:1;stroke-width:1.89;stroke-linecap:butt;stroke-linejoin:round;stroke-miterlimit:10;stroke-dasharray:13.24,5.68;stroke-dashoffset:0"
           id="path572" /></g></g><g
       id="g574"><g
         id="g576"
         clip-path="url(#clipPath578)" /></g><g
       id="g582"><g
         id="g584"
         clip-path="url(#clipPath586)"><text
           transform="matrix(1,0,0,-1,125.99,27.6)"
           id="text590"><tspan
             style="fill:#000000;fill-opacity:1;fill-rule:nonzero;stroke:none;font-family:Courier New;font-variant:normal;font-weight:bold;font-size:9;writing-mode:lr;-inkscape-font-specification:Courier-Bold"
             x="0 5.4 10.8 16.2"
             y="0"
             sodipodi:role="line"
             id="tspan592">Beta</tspan></text>
</g></g><g
       id="g594"><g
         id="g596"
         clip-path="url(#clipPath598)" /></g><g
       id="g602"><g
         id="g604"
         clip-path="url(#clipPath606)"><text
           transform="matrix(1,0,0,-1,169.19,27.6)"
           id="text610"><tspan
             style="fill:#000000;fill-opacity:1;fill-rule:nonzero;stroke:none;font-family:Courier New;font-variant:normal;font-weight:bold;font-size:9;writing-mode:lr;-inkscape-font-specification:Courier-Bold"
             x="0 5.4 10.8 16.2 21.6 27 32.4 37.8 43.2 48.6 54 59.4 64.8 70.2 75.6 81 86.4 91.8 97.2 102.6 108 113.4 118.8 124.2 129.6 135 140.4 145.8 151.2 156.6 162"
             y="0"
             sodipodi:role="line"
             id="tspan612">intervalos de confianza del 95%</tspan></text>
</g></g><g
       id="g614"><g
         id="g616"
         clip-path="url(#clipPath618)" /></g><g
       id="g622"><g
         id="g624"
         clip-path="url(#clipPath626)" /></g><g
       id="g630"><g
         id="g632"
         clip-path="url(#clipPath634)" /></g><g
       id="g638"><g
         id="g640"
         clip-path="url(#clipPath642)" /></g><g
       id="g646"><g
         id="g648"
         clip-path="url(#clipPath650)" /></g><g
       id="g654"><g
         id="g656"
         clip-path="url(#clipPath658)" /></g><g
       id="g662"><g
         id="g664"
         clip-path="url(#clipPath666)" /></g><g
       id="g670"><g
         id="g672"
         clip-path="url(#clipPath674)" /></g><g
       id="g678"><g
         id="g680"
         clip-path="url(#clipPath682)" /></g><g
       id="g686"><g
         id="g688"
         clip-path="url(#clipPath690)"><text
           transform="matrix(1,0,0,-1,102.41,388.69)"
           id="text694"><tspan
             style="fill:#000000;fill-opacity:1;fill-rule:nonzero;stroke:none;font-family:Courier New;font-variant:normal;font-weight:bold;font-size:13;writing-mode:lr;-inkscape-font-specification:Courier-Bold"
             x="0 7.8 15.6 23.4 31.2 39 46.8 54.6 62.4 70.2 78 85.8 93.6 101.4 109.2 117 124.8 132.6 140.4 148.2 156 163.8 171.6 179.4 187.2 195 202.8 210.6 218.4 226.2"
             y="0"
             sodipodi:role="line"
             id="tspan696">Recorrido de beta (Filtración)</tspan></text>
</g></g><g
       id="g698"><g
         id="g700"
         clip-path="url(#clipPath702)" /></g><g
       id="g706"><g
         id="g708"
         clip-path="url(#clipPath710)" /></g></g></svg>