<?xml version="1.0" encoding="UTF-8" standalone="no"?>
<!-- Created with Inkscape (http://www.inkscape.org/) -->

<svg
   xmlns:dc="http://purl.org/dc/elements/1.1/"
   xmlns:cc="http://creativecommons.org/ns#"
   xmlns:rdf="http://www.w3.org/1999/02/22-rdf-syntax-ns#"
   xmlns:svg="http://www.w3.org/2000/svg"
   xmlns="http://www.w3.org/2000/svg"
   xmlns:sodipodi="http://sodipodi.sourceforge.net/DTD/sodipodi-0.dtd"
   xmlns:inkscape="http://www.inkscape.org/namespaces/inkscape"
   id="svg2"
   version="1.1"
   inkscape:version="0.48.4 r9939"
   width="517.5"
   height="516.25"
   xml:space="preserve"
   sodipodi:docname="4a_betaMleSmooth.pdf"><metadata
     id="metadata8"><rdf:RDF><cc:Work
         rdf:about=""><dc:format>image/svg+xml</dc:format><dc:type
           rdf:resource="http://purl.org/dc/dcmitype/StillImage" /><dc:title></dc:title></cc:Work></rdf:RDF></metadata><defs
     id="defs6"><clipPath
       clipPathUnits="userSpaceOnUse"
       id="clipPath18"><path
         d="m 0,0 414.75,0 0,414 L 0,414 0,0 z"
         id="path20" /></clipPath><clipPath
       clipPathUnits="userSpaceOnUse"
       id="clipPath26"><path
         d="m 0,0 414.75,0 0,414 L 0,414 0,0 z"
         id="path28" /></clipPath><clipPath
       clipPathUnits="userSpaceOnUse"
       id="clipPath34"><path
         d="m 0,0 414.75,0 0,414 L 0,414 0,0 z"
         id="path36" /></clipPath><clipPath
       clipPathUnits="userSpaceOnUse"
       id="clipPath44"><path
         d="m 0,0 414.75,0 0,414 L 0,414 0,0 z"
         id="path46" /></clipPath><clipPath
       clipPathUnits="userSpaceOnUse"
       id="clipPath52"><path
         d="m 0,0 414.75,0 0,414 L 0,414 0,0 z"
         id="path54" /></clipPath><clipPath
       clipPathUnits="userSpaceOnUse"
       id="clipPath60"><path
         d="m 0,0 414.75,0 0,414 L 0,414 0,0 z"
         id="path62" /></clipPath><clipPath
       clipPathUnits="userSpaceOnUse"
       id="clipPath68"><path
         d="m 43.87,78.58 356.48,0 0,306.51 -356.48,0 0,-306.51 z"
         id="path70" /></clipPath><clipPath
       clipPathUnits="userSpaceOnUse"
       id="clipPath120"><path
         d="m 0,0 414.75,0 0,414 L 0,414 0,0 z"
         id="path122" /></clipPath><clipPath
       clipPathUnits="userSpaceOnUse"
       id="clipPath128"><path
         d="m 0,0 414.75,0 0,414 L 0,414 0,0 z"
         id="path130" /></clipPath><clipPath
       clipPathUnits="userSpaceOnUse"
       id="clipPath136"><path
         d="m 0,0 414.75,0 0,414 L 0,414 0,0 z"
         id="path138" /></clipPath><clipPath
       clipPathUnits="userSpaceOnUse"
       id="clipPath164"><path
         d="m 0,0 414.75,0 0,414 L 0,414 0,0 z"
         id="path166" /></clipPath><clipPath
       clipPathUnits="userSpaceOnUse"
       id="clipPath172"><path
         d="m 0,0 414.75,0 0,414 L 0,414 0,0 z"
         id="path174" /></clipPath><clipPath
       clipPathUnits="userSpaceOnUse"
       id="clipPath190"><path
         d="m 0,0 414.75,0 0,414 L 0,414 0,0 z"
         id="path192" /></clipPath><clipPath
       clipPathUnits="userSpaceOnUse"
       id="clipPath198"><path
         d="m 0,0 414.75,0 0,414 L 0,414 0,0 z"
         id="path200" /></clipPath><clipPath
       clipPathUnits="userSpaceOnUse"
       id="clipPath206"><path
         d="m 0,0 414.75,0 0,414 L 0,414 0,0 z"
         id="path208" /></clipPath><clipPath
       clipPathUnits="userSpaceOnUse"
       id="clipPath214"><path
         d="m 0,0 414.75,0 0,414 L 0,414 0,0 z"
         id="path216" /></clipPath><clipPath
       clipPathUnits="userSpaceOnUse"
       id="clipPath222"><path
         d="m 0,0 414.75,0 0,414 L 0,414 0,0 z"
         id="path224" /></clipPath><clipPath
       clipPathUnits="userSpaceOnUse"
       id="clipPath230"><path
         d="m 0,0 414.75,0 0,414 L 0,414 0,0 z"
         id="path232" /></clipPath><clipPath
       clipPathUnits="userSpaceOnUse"
       id="clipPath248"><path
         d="m 0,0 414.75,0 0,414 L 0,414 0,0 z"
         id="path250" /></clipPath><clipPath
       clipPathUnits="userSpaceOnUse"
       id="clipPath256"><path
         d="m 0,0 414.75,0 0,414 L 0,414 0,0 z"
         id="path258" /></clipPath><clipPath
       clipPathUnits="userSpaceOnUse"
       id="clipPath284"><path
         d="m 0,0 414.75,0 0,414 L 0,414 0,0 z"
         id="path286" /></clipPath><clipPath
       clipPathUnits="userSpaceOnUse"
       id="clipPath292"><path
         d="m 0,0 414.75,0 0,414 L 0,414 0,0 z"
         id="path294" /></clipPath><clipPath
       clipPathUnits="userSpaceOnUse"
       id="clipPath300"><path
         d="m 0,0 414.75,0 0,414 L 0,414 0,0 z"
         id="path302" /></clipPath><clipPath
       clipPathUnits="userSpaceOnUse"
       id="clipPath308"><path
         d="m 0,0 414.75,0 0,414 L 0,414 0,0 z"
         id="path310" /></clipPath><clipPath
       clipPathUnits="userSpaceOnUse"
       id="clipPath316"><path
         d="m 0,0 414.75,0 0,414 L 0,414 0,0 z"
         id="path318" /></clipPath><clipPath
       clipPathUnits="userSpaceOnUse"
       id="clipPath328"><path
         d="m 0,0 414.75,0 0,414 L 0,414 0,0 z"
         id="path330" /></clipPath><clipPath
       clipPathUnits="userSpaceOnUse"
       id="clipPath336"><path
         d="m 0,0 414.75,0 0,414 L 0,414 0,0 z"
         id="path338" /></clipPath><clipPath
       clipPathUnits="userSpaceOnUse"
       id="clipPath348"><path
         d="m 0,0 414.75,0 0,414 L 0,414 0,0 z"
         id="path350" /></clipPath><clipPath
       clipPathUnits="userSpaceOnUse"
       id="clipPath356"><path
         d="m 0,0 414.75,0 0,414 L 0,414 0,0 z"
         id="path358" /></clipPath><clipPath
       clipPathUnits="userSpaceOnUse"
       id="clipPath364"><path
         d="m 0,0 414.75,0 0,414 L 0,414 0,0 z"
         id="path366" /></clipPath><clipPath
       clipPathUnits="userSpaceOnUse"
       id="clipPath372"><path
         d="m 0,0 414.75,0 0,414 L 0,414 0,0 z"
         id="path374" /></clipPath><clipPath
       clipPathUnits="userSpaceOnUse"
       id="clipPath380"><path
         d="m 0,0 414.75,0 0,414 L 0,414 0,0 z"
         id="path382" /></clipPath><clipPath
       clipPathUnits="userSpaceOnUse"
       id="clipPath388"><path
         d="m 0,0 414.75,0 0,414 L 0,414 0,0 z"
         id="path390" /></clipPath><clipPath
       clipPathUnits="userSpaceOnUse"
       id="clipPath398"><path
         d="m 0,0 414.75,0 0,414 L 0,414 0,0 z"
         id="path400" /></clipPath><clipPath
       clipPathUnits="userSpaceOnUse"
       id="clipPath406"><path
         d="m 0,0 414.75,0 0,414 L 0,414 0,0 z"
         id="path408" /></clipPath><clipPath
       clipPathUnits="userSpaceOnUse"
       id="clipPath414"><path
         d="m 0,0 414.75,0 0,414 L 0,414 0,0 z"
         id="path416" /></clipPath><clipPath
       clipPathUnits="userSpaceOnUse"
       id="clipPath422"><path
         d="m 0,0 414.75,0 0,414 L 0,414 0,0 z"
         id="path424" /></clipPath><clipPath
       clipPathUnits="userSpaceOnUse"
       id="clipPath432"><path
         d="m 0,0 414.75,0 0,414 L 0,414 0,0 z"
         id="path434" /></clipPath><clipPath
       clipPathUnits="userSpaceOnUse"
       id="clipPath440"><path
         d="m 0,0 414.75,0 0,414 L 0,414 0,0 z"
         id="path442" /></clipPath><clipPath
       clipPathUnits="userSpaceOnUse"
       id="clipPath450"><path
         d="m 0,0 414.75,0 0,414 L 0,414 0,0 z"
         id="path452" /></clipPath><clipPath
       clipPathUnits="userSpaceOnUse"
       id="clipPath458"><path
         d="m 0,0 414.75,0 0,414 L 0,414 0,0 z"
         id="path460" /></clipPath><clipPath
       clipPathUnits="userSpaceOnUse"
       id="clipPath468"><path
         d="m 0,0 414.75,0 0,414 L 0,414 0,0 z"
         id="path470" /></clipPath><clipPath
       clipPathUnits="userSpaceOnUse"
       id="clipPath476"><path
         d="m 0,0 414.75,0 0,414 L 0,414 0,0 z"
         id="path478" /></clipPath><clipPath
       clipPathUnits="userSpaceOnUse"
       id="clipPath486"><path
         d="m 0,0 414.75,0 0,414 L 0,414 0,0 z"
         id="path488" /></clipPath><clipPath
       clipPathUnits="userSpaceOnUse"
       id="clipPath494"><path
         d="m 0,0 414.75,0 0,414 L 0,414 0,0 z"
         id="path496" /></clipPath><clipPath
       clipPathUnits="userSpaceOnUse"
       id="clipPath504"><path
         d="m 0,0 414.75,0 0,414 L 0,414 0,0 z"
         id="path506" /></clipPath><clipPath
       clipPathUnits="userSpaceOnUse"
       id="clipPath512"><path
         d="m 0,0 414.75,0 0,414 L 0,414 0,0 z"
         id="path514" /></clipPath><clipPath
       clipPathUnits="userSpaceOnUse"
       id="clipPath522"><path
         d="m 0,0 414.75,0 0,414 L 0,414 0,0 z"
         id="path524" /></clipPath><clipPath
       clipPathUnits="userSpaceOnUse"
       id="clipPath530"><path
         d="m 0,0 414.75,0 0,414 L 0,414 0,0 z"
         id="path532" /></clipPath><clipPath
       clipPathUnits="userSpaceOnUse"
       id="clipPath540"><path
         d="m 0,0 414.75,0 0,414 L 0,414 0,0 z"
         id="path542" /></clipPath><clipPath
       clipPathUnits="userSpaceOnUse"
       id="clipPath548"><path
         d="m 0,0 414.75,0 0,414 L 0,414 0,0 z"
         id="path550" /></clipPath><clipPath
       clipPathUnits="userSpaceOnUse"
       id="clipPath558"><path
         d="m 0,0 414.75,0 0,414 L 0,414 0,0 z"
         id="path560" /></clipPath><clipPath
       clipPathUnits="userSpaceOnUse"
       id="clipPath566"><path
         d="m 0,0 414.75,0 0,414 L 0,414 0,0 z"
         id="path568" /></clipPath><clipPath
       clipPathUnits="userSpaceOnUse"
       id="clipPath578"><path
         d="m 0,0 414.75,0 0,414 L 0,414 0,0 z"
         id="path580" /></clipPath><clipPath
       clipPathUnits="userSpaceOnUse"
       id="clipPath586"><path
         d="m 0,0 414.75,0 0,414 L 0,414 0,0 z"
         id="path588" /></clipPath><clipPath
       clipPathUnits="userSpaceOnUse"
       id="clipPath598"><path
         d="m 0,0 414.75,0 0,414 L 0,414 0,0 z"
         id="path600" /></clipPath><clipPath
       clipPathUnits="userSpaceOnUse"
       id="clipPath606"><path
         d="m 0,0 414.75,0 0,414 L 0,414 0,0 z"
         id="path608" /></clipPath><clipPath
       clipPathUnits="userSpaceOnUse"
       id="clipPath614"><path
         d="m 0,0 414.75,0 0,414 L 0,414 0,0 z"
         id="path616" /></clipPath><clipPath
       clipPathUnits="userSpaceOnUse"
       id="clipPath622"><path
         d="m 0,0 414.75,0 0,414 L 0,414 0,0 z"
         id="path624" /></clipPath><clipPath
       clipPathUnits="userSpaceOnUse"
       id="clipPath630"><path
         d="m 0,0 414.75,0 0,414 L 0,414 0,0 z"
         id="path632" /></clipPath><clipPath
       clipPathUnits="userSpaceOnUse"
       id="clipPath638"><path
         d="m 0,0 414.75,0 0,414 L 0,414 0,0 z"
         id="path640" /></clipPath><clipPath
       clipPathUnits="userSpaceOnUse"
       id="clipPath646"><path
         d="m 0,0 414.75,0 0,414 L 0,414 0,0 z"
         id="path648" /></clipPath><clipPath
       clipPathUnits="userSpaceOnUse"
       id="clipPath654"><path
         d="m 0,0 414.75,0 0,414 L 0,414 0,0 z"
         id="path656" /></clipPath><clipPath
       clipPathUnits="userSpaceOnUse"
       id="clipPath662"><path
         d="m 0,0 414.75,0 0,414 L 0,414 0,0 z"
         id="path664" /></clipPath><clipPath
       clipPathUnits="userSpaceOnUse"
       id="clipPath670"><path
         d="m 0,0 414.75,0 0,414 L 0,414 0,0 z"
         id="path672" /></clipPath><clipPath
       clipPathUnits="userSpaceOnUse"
       id="clipPath682"><path
         d="m 0,0 414.75,0 0,414 L 0,414 0,0 z"
         id="path684" /></clipPath><clipPath
       clipPathUnits="userSpaceOnUse"
       id="clipPath690"><path
         d="m 0,0 414.75,0 0,414 L 0,414 0,0 z"
         id="path692" /></clipPath></defs><sodipodi:namedview
     pagecolor="#ffffff"
     bordercolor="#666666"
     borderopacity="1"
     objecttolerance="10"
     gridtolerance="10"
     guidetolerance="10"
     inkscape:pageopacity="0"
     inkscape:pageshadow="2"
     inkscape:window-width="640"
     inkscape:window-height="480"
     id="namedview4"
     showgrid="false"
     inkscape:zoom="0.45714286"
     inkscape:cx="258.75"
     inkscape:cy="258.125"
     inkscape:window-x="0"
     inkscape:window-y="0"
     inkscape:window-maximized="0"
     inkscape:current-layer="g10" /><g
     id="g10"
     inkscape:groupmode="layer"
     inkscape:label="4a_betaMleSmooth"
     transform="matrix(1.25,0,0,-1.25,0,516.25)"><g
       id="g12" /><g
       id="g14"><g
         id="g16"
         clip-path="url(#clipPath18)" /></g><g
       id="g22"><g
         id="g24"
         clip-path="url(#clipPath26)" /></g><g
       id="g30"><g
         id="g32"
         clip-path="url(#clipPath34)"><path
           d="m 0,0 414.75,0 0,414 L 0,414 0,0 z"
           style="fill:#ffffff;fill-opacity:1;fill-rule:nonzero;stroke:#ffffff;stroke-opacity:1;stroke-width:1.06;stroke-linecap:round;stroke-linejoin:round;stroke-miterlimit:10;stroke-dasharray:none"
           id="path38" /></g></g><g
       id="g40"><g
         id="g42"
         clip-path="url(#clipPath44)" /></g><g
       id="g48"><g
         id="g50"
         clip-path="url(#clipPath52)" /></g><g
       id="g56"><g
         id="g58"
         clip-path="url(#clipPath60)" /></g><g
       id="g64"><g
         id="g66"
         clip-path="url(#clipPath68)"><path
           d="m 43.87,78.58 356.48,0 0,306.51 -356.48,0 0,-306.51 z"
           style="fill:#e5e5e5;fill-opacity:1;fill-rule:nonzero;stroke:none"
           id="path72" /><path
           d="m 43.87,118.46 356.48,0"
           style="fill:none;stroke:#f2f2f2;stroke-opacity:1;stroke-width:0.53;stroke-linecap:butt;stroke-linejoin:round;stroke-miterlimit:10;stroke-dasharray:none"
           id="path74" /><path
           d="m 43.87,190.58 356.48,0"
           style="fill:none;stroke:#f2f2f2;stroke-opacity:1;stroke-width:0.53;stroke-linecap:butt;stroke-linejoin:round;stroke-miterlimit:10;stroke-dasharray:none"
           id="path76" /><path
           d="m 43.87,262.7 356.48,0"
           style="fill:none;stroke:#f2f2f2;stroke-opacity:1;stroke-width:0.53;stroke-linecap:butt;stroke-linejoin:round;stroke-miterlimit:10;stroke-dasharray:none"
           id="path78" /><path
           d="m 43.87,334.81 356.48,0"
           style="fill:none;stroke:#f2f2f2;stroke-opacity:1;stroke-width:0.53;stroke-linecap:butt;stroke-linejoin:round;stroke-miterlimit:10;stroke-dasharray:none"
           id="path80" /><path
           d="m 98.91,78.58 0,306.51"
           style="fill:none;stroke:#f2f2f2;stroke-opacity:1;stroke-width:0.53;stroke-linecap:butt;stroke-linejoin:round;stroke-miterlimit:10;stroke-dasharray:none"
           id="path82" /><path
           d="m 180.15,78.58 0,306.51"
           style="fill:none;stroke:#f2f2f2;stroke-opacity:1;stroke-width:0.53;stroke-linecap:butt;stroke-linejoin:round;stroke-miterlimit:10;stroke-dasharray:none"
           id="path84" /><path
           d="m 261.84,78.58 0,306.51"
           style="fill:none;stroke:#f2f2f2;stroke-opacity:1;stroke-width:0.53;stroke-linecap:butt;stroke-linejoin:round;stroke-miterlimit:10;stroke-dasharray:none"
           id="path86" /><path
           d="m 343.97,78.58 0,306.51"
           style="fill:none;stroke:#f2f2f2;stroke-opacity:1;stroke-width:0.53;stroke-linecap:butt;stroke-linejoin:round;stroke-miterlimit:10;stroke-dasharray:none"
           id="path88" /><path
           d="m 43.87,82.4 356.48,0"
           style="fill:none;stroke:#ffffff;stroke-opacity:1;stroke-width:1.06;stroke-linecap:butt;stroke-linejoin:round;stroke-miterlimit:10;stroke-dasharray:none"
           id="path90" /><path
           d="m 43.87,154.52 356.48,0"
           style="fill:none;stroke:#ffffff;stroke-opacity:1;stroke-width:1.06;stroke-linecap:butt;stroke-linejoin:round;stroke-miterlimit:10;stroke-dasharray:none"
           id="path92" /><path
           d="m 43.87,226.64 356.48,0"
           style="fill:none;stroke:#ffffff;stroke-opacity:1;stroke-width:1.06;stroke-linecap:butt;stroke-linejoin:round;stroke-miterlimit:10;stroke-dasharray:none"
           id="path94" /><path
           d="m 43.87,298.75 356.48,0"
           style="fill:none;stroke:#ffffff;stroke-opacity:1;stroke-width:1.06;stroke-linecap:butt;stroke-linejoin:round;stroke-miterlimit:10;stroke-dasharray:none"
           id="path96" /><path
           d="m 43.87,370.87 356.48,0"
           style="fill:none;stroke:#ffffff;stroke-opacity:1;stroke-width:1.06;stroke-linecap:butt;stroke-linejoin:round;stroke-miterlimit:10;stroke-dasharray:none"
           id="path98" /><path
           d="m 58.29,78.58 0,306.51"
           style="fill:none;stroke:#ffffff;stroke-opacity:1;stroke-width:1.06;stroke-linecap:butt;stroke-linejoin:round;stroke-miterlimit:10;stroke-dasharray:none"
           id="path100" /><path
           d="m 139.53,78.58 0,306.51"
           style="fill:none;stroke:#ffffff;stroke-opacity:1;stroke-width:1.06;stroke-linecap:butt;stroke-linejoin:round;stroke-miterlimit:10;stroke-dasharray:none"
           id="path102" /><path
           d="m 220.77,78.58 0,306.51"
           style="fill:none;stroke:#ffffff;stroke-opacity:1;stroke-width:1.06;stroke-linecap:butt;stroke-linejoin:round;stroke-miterlimit:10;stroke-dasharray:none"
           id="path104" /><path
           d="m 302.9,78.58 0,306.51"
           style="fill:none;stroke:#ffffff;stroke-opacity:1;stroke-width:1.06;stroke-linecap:butt;stroke-linejoin:round;stroke-miterlimit:10;stroke-dasharray:none"
           id="path106" /><path
           d="m 385.04,78.58 0,306.51"
           style="fill:none;stroke:#ffffff;stroke-opacity:1;stroke-width:1.06;stroke-linecap:butt;stroke-linejoin:round;stroke-miterlimit:10;stroke-dasharray:none"
           id="path108" /><path
           d="m 60.07,181.58 0.9,-0.05 0.89,-0.04 0.89,0.02 2.68,0.18 0.89,0.07 0.89,0 0.9,-0.08 0.89,-0.19 3.57,-0.24 0.89,-0.18 0.9,-0.22 0.89,-0.35 2.68,-0.66 0.89,-0.48 0.89,-0.78 0.9,-0.37 0.89,-0.42 2.68,-0.37 0.89,-0.2 0.89,-0.14 0.9,-0.24 0.89,-0.33 2.68,-0.37 0.89,-0.29 0.89,-0.23 0.89,-0.1 0.9,0.3 2.68,0.36 0.89,0.44 0.89,0.59 0.89,0.19 0.9,0.15 3.57,0.06 0.89,0.37 0.89,0.29 0.9,0.26 2.67,0.35 0.9,0.36 0.89,0.49 0.89,0.74 0.9,0.68 2.67,0.68 0.9,0.31 0.89,0.46 0.89,0.37 0.89,0.43 2.68,0.41 0.9,0.54 0.89,0.55 0.89,1.18 0.89,0.98 2.68,0.91 0.9,1.19 0.89,1.35 0.89,1.23 0.89,1.22 2.68,1.05 0.89,1.06 0.9,1.3 0.89,1.45 0.89,1.23 2.68,0.91 0.89,1.14 0.9,1.53 0.89,1.57 3.57,1.79 0.89,2.15 0.9,2.29 0.89,2.16 0.89,2.05 2.68,1.7 0.89,1.07 0.9,1.19 0.89,1.21 0.89,0.69 2.68,0.33 0.89,0.47 0.89,0.18 0.9,0.5 0.89,0.39 2.68,0.26 0.89,-0.22 0.89,-0.32 0.9,-0.17 0.89,-0.15 2.68,-0.41 0.89,-0.32 0.89,-0.29 0.9,-0.13 0.89,-0.14 2.68,-0.2 0.89,-0.27 0.89,-0.32 0.9,-0.45 0.89,-0.77 2.68,-0.62 0.89,-0.58 0.89,-0.7 0.9,-0.46 0.89,-0.61 3.57,-0.67 0.89,-0.65 0.89,-0.04 0.9,-0.07 2.68,-0.15 0.89,-0.1 0.89,-0.18 0.89,-0.11 0.9,-0.13 2.67,-0.11 0.9,-0.17 0.89,-0.19 0.89,-0.21 0.9,-0.26 2.67,-0.3 0.9,-0.12 0.89,-0.18 0.89,-0.2 0.9,0.06 2.67,0.06 0.9,-0.03 0.89,-0.06 0.89,-0.11 0.89,-0.22 2.68,-0.2 0.9,-0.1 1.78,-0.09 0.89,0.24 2.68,0.27 0.9,0.44 0.89,0.4 0.89,0.31 0.89,0.24 2.68,0.24 0.89,0.29 0.9,0.24 0.89,0.17 0.89,0.25 2.68,0.13 0.89,0.25 0.9,0.32 0.89,-0.16 0.89,-0.12 2.68,-0.11 0.89,0.07 0.9,0.49 0.89,0.42 0.89,0.56 2.68,0.59 0.89,0.65 0.9,0.57 0.89,0.53 0.89,0.52 2.68,0.5 0.89,0.67 0.89,0.7 0.9,0.66 0.89,0.64 2.68,0.84 0.89,1.18 0.89,1.01 0.9,1.25 0.89,1.24 2.68,1.18 0.89,1.42 0.89,1.41 0.9,1.36 0.89,1.28 3.57,1.24 0.89,1.44 0.9,1.36 0.89,1.41 2.68,1.42 0.89,1.12 0.89,1.05 0.89,1.18 0.9,1.19 2.68,1.27 0.89,1.55 0.89,1.64 0.89,1.63 0.9,1.6 2.68,1.64 0.89,1.51 0.89,1.32 0.89,1.26 0.9,1.33 2.67,1.12 0.9,0.99 0.89,1.02 0.89,1.14 0.9,1.03 2.67,0.79 0.9,0.56 0.89,0.8 0.89,1.12 0.89,0.9 2.68,1.03 0.9,1.02 0.89,1.09 0.89,0.97 0.89,0.79 2.68,0.55 0.9,1.09 0.89,0.87 0.89,1.07 0.89,0.94 4.47,0.87 0.89,0.73 0.89,0.68 2.68,0.36 0.89,0.5 0.9,0.43 0.89,0.27 0.89,-0.07 2.68,0.13 0.89,0.06 0.9,0.2 0.89,0.44 0.89,0.25 2.68,0.24 0.89,0.11 0.9,0.05 1.78,0.05 2.68,0.07 0.89,0.58 0.89,0.62 0.9,0.55 0.89,0.62 2.68,0.58 0.89,0.76 0.89,0.61 0.9,-0.07 0.89,0.07 2.68,-0.2 0.89,-0.23 0.89,-0.12 0.9,-0.14 0.89,-0.21 2.68,-0.64 0.89,-0.63 0.89,-0.54 0.9,-0.53 0.89,-0.64 2.68,-0.4 1.78,-0.26 0.9,-0.32 0.89,-0.19 2.68,-0.01"
           style="fill:none;stroke:#2e2e2e;stroke-opacity:1;stroke-width:1.89;stroke-linecap:butt;stroke-linejoin:round;stroke-miterlimit:1;stroke-dasharray:none"
           id="path110" /><path
           d="m 60.07,270.65 0.9,-0.95 0.89,-0.88 0.89,-0.79 2.68,-0.57 0.89,-0.64 0.89,-0.71 0.9,-0.76 0.89,-0.85 3.57,-0.82 0.89,-0.77 0.9,-0.81 0.89,-0.94 2.68,-1.23 0.89,-1 0.89,-1.27 0.9,-0.87 0.89,-0.85 2.68,-0.76 0.89,-0.56 0.89,-0.5 0.9,-0.61 0.89,-0.71 2.68,-0.77 0.89,-0.68 0.89,-0.62 0.89,-0.49 0.9,-0.07 2.68,0.06 0.89,0.1 0.89,0.28 0.89,-0.08 0.9,-0.15 3.57,-0.25 0.89,0.06 0.89,0.02 0.9,-0.02 2.67,0.05 0.9,0.06 0.89,0.17 0.89,0.46 0.9,0.36 2.67,0.4 0.9,0.04 0.89,0.33 0.89,0.21 0.89,0.23 2.68,0.19 0.9,0.31 0.89,0.29 0.89,0.93 0.89,0.7 2.68,0.65 0.9,0.91 0.89,1.11 0.89,1.02 0.89,1.07 2.68,0.9 0.89,0.85 0.9,1.11 0.89,1.3 0.89,1.08 2.68,0.75 0.89,0.94 0.9,1.36 0.89,1.48 3.57,1.7 0.89,2.14 0.9,2.41 0.89,2.25 0.89,2.08 2.68,1.81 0.89,1.18 0.9,1.23 0.89,1.28 0.89,0.77 2.68,0.39 0.89,0.58 0.89,0.25 0.9,0.53 0.89,0.37 2.68,0.2 0.89,-0.25 0.89,-0.4 0.9,-0.26 0.89,-0.19 2.68,-0.34 0.89,-0.27 0.89,-0.24 0.9,-0.05 0.89,-0.1 2.68,-0.16 0.89,-0.16 0.89,-0.2 0.9,-0.35 0.89,-0.56 2.68,-0.4 0.89,-0.4 0.89,-0.55 0.9,-0.34 0.89,-0.51 3.57,-0.57 0.89,-0.61 0.89,0.07 0.9,0.04 2.68,0.15 0.89,0.17 0.89,0.04 0.89,0.09 0.9,0.06 2.67,0.04 0.9,0.04 0.89,-0.03 0.89,-0.01 0.9,-0.12 2.67,-0.2 0.9,-0.05 0.89,-0.14 0.89,-0.18 0.9,0.28 2.67,0.22 0.9,0.26 0.89,0.18 0.89,0.11 0.89,-0.03 2.68,0 0.9,0.07 1.78,0.05 0.89,0.38 2.68,0.47 0.9,0.61 0.89,0.61 0.89,0.5 0.89,0.43 2.68,0.41 0.89,0.46 0.9,0.35 0.89,0.26 0.89,0.3 2.68,0.23 0.89,0.4 0.9,0.48 0.89,0 0.89,0 2.68,0 0.89,0.16 0.9,0.58 0.89,0.53 0.89,0.69 2.68,0.69 0.89,0.74 0.9,0.63 0.89,0.57 0.89,0.56 2.68,0.52 0.89,0.69 0.89,0.71 0.9,0.66 0.89,0.63 2.68,0.8 0.89,1.15 0.89,1.01 0.9,1.23 0.89,1.28 2.68,1.19 0.89,1.41 0.89,1.4 0.9,1.34 0.89,1.3 3.57,1.23 0.89,1.42 0.9,1.34 0.89,1.37 2.68,1.35 0.89,1.08 0.89,0.99 0.89,1.12 0.9,1.08 2.68,1.15 0.89,1.44 0.89,1.54 0.89,1.52 0.9,1.49 2.68,1.53 0.89,1.4 0.89,1.28 0.89,1.25 0.9,1.27 2.67,1.08 0.9,0.91 0.89,0.94 0.89,1.02 0.9,0.88 2.67,0.63 0.9,0.42 0.89,0.72 0.89,1.06 0.89,0.83 2.68,0.97 0.9,0.92 0.89,0.93 0.89,0.81 0.89,0.63 2.68,0.52 0.9,1.06 0.89,0.96 0.89,1.17 0.89,1.01 4.47,0.94 0.89,0.78 0.89,0.7 2.68,0.43 0.89,0.56 0.9,0.45 0.89,0.51 0.89,0.26 2.68,0.43 0.89,0.36 0.9,0.5 0.89,0.85 0.89,0.65 2.68,0.62 0.89,0.47 0.9,0.4 1.78,0.4 2.68,0.37 0.89,0.9 0.89,0.98 0.9,0.88 0.89,0.94 2.68,0.88 0.89,1.11 0.89,0.96 0.9,0.29 0.89,0.41 2.68,0.14 0.89,0.1 0.89,0.2 0.9,0.2 0.89,0.19 2.68,-0.2 0.89,-0.2 0.89,-0.14 0.9,-0.02 0.89,-0.15 2.68,0.22 1.78,0.39 0.9,0.42 0.89,0.58 2.68,0.9"
           style="fill:none;stroke:#b3b3b3;stroke-opacity:1;stroke-width:1.89;stroke-linecap:butt;stroke-linejoin:round;stroke-miterlimit:1;stroke-dasharray:13.24,5.68;stroke-dashoffset:0"
           id="path112" /><path
           d="m 60.07,92.51 0.9,0.85 0.89,0.81 0.89,0.83 2.68,0.91 0.89,0.78 0.89,0.72 0.9,0.6 0.89,0.47 3.57,0.35 0.89,0.39 0.9,0.38 0.89,0.25 2.68,-0.1 0.89,0.05 0.89,-0.3 0.9,0.13 0.89,0 2.68,0.03 0.89,0.17 0.89,0.21 0.9,0.14 0.89,0.03 2.68,0.04 0.89,0.1 0.89,0.16 0.89,0.28 0.9,0.68 2.68,0.67 0.89,0.76 0.89,0.91 0.89,0.46 0.9,0.45 3.57,0.38 0.89,0.66 0.89,0.56 0.9,0.56 2.67,0.64 0.9,0.66 0.89,0.81 0.89,1.03 0.9,0.98 2.67,0.98 0.9,0.56 0.89,0.6 0.89,0.53 0.89,0.63 2.68,0.63 0.9,0.77 0.89,0.82 0.89,1.43 0.89,1.25 2.68,1.18 0.9,1.46 0.89,1.58 0.89,1.45 0.89,1.36 2.68,1.21 0.89,1.27 0.9,1.49 0.89,1.6 0.89,1.37 2.68,1.08 0.89,1.35 0.9,1.7 0.89,1.66 3.57,1.88 0.89,2.15 0.9,2.16 0.89,2.08 0.89,2.03 2.68,1.58 0.89,0.97 0.9,1.14 0.89,1.15 0.89,0.61 2.68,0.26 0.89,0.36 0.89,0.11 0.9,0.48 0.89,0.41 2.68,0.3 0.89,-0.17 0.89,-0.24 0.9,-0.1 0.89,-0.1 2.68,-0.48 0.89,-0.37 0.89,-0.35 0.9,-0.2 0.89,-0.19 2.68,-0.24 0.89,-0.36 0.89,-0.44 0.9,-0.57 0.89,-0.96 2.68,-0.85 0.89,-0.75 0.89,-0.86 0.9,-0.59 0.89,-0.7 3.57,-0.76 0.89,-0.69 0.89,-0.17 0.9,-0.18 2.68,-0.43 0.89,-0.37 0.89,-0.4 0.89,-0.33 0.9,-0.31 2.67,-0.25 0.9,-0.39 0.89,-0.36 0.89,-0.39 0.9,-0.41 2.67,-0.4 0.9,-0.2 0.89,-0.2 0.89,-0.23 0.9,-0.15 2.67,-0.12 0.9,-0.3 0.89,-0.32 0.89,-0.31 0.89,-0.42 2.68,-0.4 0.9,-0.27 1.78,-0.22 0.89,0.09 2.68,0.08 0.9,0.26 0.89,0.19 0.89,0.12 0.89,0.04 2.68,0.08 0.89,0.13 0.9,0.12 0.89,0.08 0.89,0.19 2.68,0.03 0.89,0.12 0.9,0.14 0.89,-0.31 0.89,-0.24 2.68,-0.22 0.89,-0.02 0.9,0.39 0.89,0.32 0.89,0.43 2.68,0.48 0.89,0.57 0.9,0.51 0.89,0.49 0.89,0.48 2.68,0.48 0.89,0.66 0.89,0.68 0.9,0.65 0.89,0.67 2.68,0.87 0.89,1.2 0.89,1.03 0.9,1.26 0.89,1.2 2.68,1.18 0.89,1.42 0.89,1.42 0.9,1.38 0.89,1.26 3.57,1.25 0.89,1.46 0.9,1.38 0.89,1.46 2.68,1.48 0.89,1.16 0.89,1.1 0.89,1.26 0.9,1.29 2.68,1.4 0.89,1.65 0.89,1.73 0.89,1.74 0.9,1.71 2.68,1.75 0.89,1.63 0.89,1.36 0.89,1.28 0.9,1.38 2.67,1.17 0.9,1.05 0.89,1.11 0.89,1.25 0.9,1.19 2.67,0.95 0.9,0.71 0.89,0.88 0.89,1.17 0.89,0.97 2.68,1.09 0.9,1.13 0.89,1.23 0.89,1.14 0.89,0.96 2.68,0.56 0.9,1.12 0.89,0.79 0.89,0.98 0.89,0.86 4.47,0.8 0.89,0.67 0.89,0.67 2.68,0.28 0.89,0.45 0.9,0.42 0.89,0.02 0.89,-0.39 2.68,-0.19 0.89,-0.22 0.9,-0.12 0.89,0.05 0.89,-0.16 2.68,-0.14 0.89,-0.24 0.9,-0.31 1.78,-0.29 2.68,-0.25 0.89,0.26 0.89,0.27 0.9,0.22 0.89,0.31 2.68,0.27 0.89,0.41 0.89,0.25 0.9,-0.42 0.89,-0.27 2.68,-0.53 0.89,-0.57 0.89,-0.44 0.9,-0.47 0.89,-0.61 2.68,-1.09 0.89,-1.06 0.89,-0.95 0.9,-1.02 0.89,-1.15 2.68,-1.01 1.78,-0.92 0.9,-1.05 0.89,-0.96 2.68,-0.93"
           style="fill:none;stroke:#b3b3b3;stroke-opacity:1;stroke-width:1.89;stroke-linecap:butt;stroke-linejoin:round;stroke-miterlimit:1;stroke-dasharray:13.24,5.68;stroke-dashoffset:0"
           id="path114" /></g></g><g
       id="g116"><g
         id="g118"
         clip-path="url(#clipPath120)" /></g><g
       id="g124"><g
         id="g126"
         clip-path="url(#clipPath128)" /></g><g
       id="g132"><g
         id="g134"
         clip-path="url(#clipPath136)"><text
           transform="matrix(1,0,0,-1,20.58,79.88)"
           id="text140"><tspan
             style="fill:#7f7f7f;fill-opacity:1;fill-rule:nonzero;stroke:none;font-family:Courier New;font-variant:normal;font-weight:bold;font-size:9;writing-mode:lr;-inkscape-font-specification:Courier-Bold"
             x="0 5.4 10.8"
             y="0"
             sodipodi:role="line"
             id="tspan142">0.6</tspan></text>
<text
           transform="matrix(1,0,0,-1,20.58,151.99)"
           id="text144"><tspan
             style="fill:#7f7f7f;fill-opacity:1;fill-rule:nonzero;stroke:none;font-family:Courier New;font-variant:normal;font-weight:bold;font-size:9;writing-mode:lr;-inkscape-font-specification:Courier-Bold"
             x="0 5.4 10.8"
             y="0"
             sodipodi:role="line"
             id="tspan146">0.9</tspan></text>
<text
           transform="matrix(1,0,0,-1,20.58,224.11)"
           id="text148"><tspan
             style="fill:#7f7f7f;fill-opacity:1;fill-rule:nonzero;stroke:none;font-family:Courier New;font-variant:normal;font-weight:bold;font-size:9;writing-mode:lr;-inkscape-font-specification:Courier-Bold"
             x="0 5.4 10.8"
             y="0"
             sodipodi:role="line"
             id="tspan150">1.2</tspan></text>
<text
           transform="matrix(1,0,0,-1,20.58,296.23)"
           id="text152"><tspan
             style="fill:#7f7f7f;fill-opacity:1;fill-rule:nonzero;stroke:none;font-family:Courier New;font-variant:normal;font-weight:bold;font-size:9;writing-mode:lr;-inkscape-font-specification:Courier-Bold"
             x="0 5.4 10.8"
             y="0"
             sodipodi:role="line"
             id="tspan154">1.5</tspan></text>
<text
           transform="matrix(1,0,0,-1,20.58,368.34)"
           id="text156"><tspan
             style="fill:#7f7f7f;fill-opacity:1;fill-rule:nonzero;stroke:none;font-family:Courier New;font-variant:normal;font-weight:bold;font-size:9;writing-mode:lr;-inkscape-font-specification:Courier-Bold"
             x="0 5.4 10.8"
             y="0"
             sodipodi:role="line"
             id="tspan158">1.8</tspan></text>
</g></g><g
       id="g160"><g
         id="g162"
         clip-path="url(#clipPath164)" /></g><g
       id="g168"><g
         id="g170"
         clip-path="url(#clipPath172)"><path
           d="m 39.62,82.4 4.25,0"
           style="fill:none;stroke:#7f7f7f;stroke-opacity:1;stroke-width:1.06;stroke-linecap:butt;stroke-linejoin:round;stroke-miterlimit:10;stroke-dasharray:none"
           id="path176" /><path
           d="m 39.62,154.52 4.25,0"
           style="fill:none;stroke:#7f7f7f;stroke-opacity:1;stroke-width:1.06;stroke-linecap:butt;stroke-linejoin:round;stroke-miterlimit:10;stroke-dasharray:none"
           id="path178" /><path
           d="m 39.62,226.64 4.25,0"
           style="fill:none;stroke:#7f7f7f;stroke-opacity:1;stroke-width:1.06;stroke-linecap:butt;stroke-linejoin:round;stroke-miterlimit:10;stroke-dasharray:none"
           id="path180" /><path
           d="m 39.62,298.75 4.25,0"
           style="fill:none;stroke:#7f7f7f;stroke-opacity:1;stroke-width:1.06;stroke-linecap:butt;stroke-linejoin:round;stroke-miterlimit:10;stroke-dasharray:none"
           id="path182" /><path
           d="m 39.62,370.87 4.25,0"
           style="fill:none;stroke:#7f7f7f;stroke-opacity:1;stroke-width:1.06;stroke-linecap:butt;stroke-linejoin:round;stroke-miterlimit:10;stroke-dasharray:none"
           id="path184" /></g></g><g
       id="g186"><g
         id="g188"
         clip-path="url(#clipPath190)" /></g><g
       id="g194"><g
         id="g196"
         clip-path="url(#clipPath198)" /></g><g
       id="g202"><g
         id="g204"
         clip-path="url(#clipPath206)" /></g><g
       id="g210"><g
         id="g212"
         clip-path="url(#clipPath214)" /></g><g
       id="g218"><g
         id="g220"
         clip-path="url(#clipPath222)" /></g><g
       id="g226"><g
         id="g228"
         clip-path="url(#clipPath230)"><path
           d="m 58.29,74.33 0,4.25"
           style="fill:none;stroke:#7f7f7f;stroke-opacity:1;stroke-width:1.06;stroke-linecap:butt;stroke-linejoin:round;stroke-miterlimit:10;stroke-dasharray:none"
           id="path234" /><path
           d="m 139.53,74.33 0,4.25"
           style="fill:none;stroke:#7f7f7f;stroke-opacity:1;stroke-width:1.06;stroke-linecap:butt;stroke-linejoin:round;stroke-miterlimit:10;stroke-dasharray:none"
           id="path236" /><path
           d="m 220.77,74.33 0,4.25"
           style="fill:none;stroke:#7f7f7f;stroke-opacity:1;stroke-width:1.06;stroke-linecap:butt;stroke-linejoin:round;stroke-miterlimit:10;stroke-dasharray:none"
           id="path238" /><path
           d="m 302.9,74.33 0,4.25"
           style="fill:none;stroke:#7f7f7f;stroke-opacity:1;stroke-width:1.06;stroke-linecap:butt;stroke-linejoin:round;stroke-miterlimit:10;stroke-dasharray:none"
           id="path240" /><path
           d="m 385.04,74.33 0,4.25"
           style="fill:none;stroke:#7f7f7f;stroke-opacity:1;stroke-width:1.06;stroke-linecap:butt;stroke-linejoin:round;stroke-miterlimit:10;stroke-dasharray:none"
           id="path242" /></g></g><g
       id="g244"><g
         id="g246"
         clip-path="url(#clipPath248)" /></g><g
       id="g252"><g
         id="g254"
         clip-path="url(#clipPath256)"><text
           transform="matrix(1,0,0,-1,36.69,66.44)"
           id="text260"><tspan
             style="fill:#7f7f7f;fill-opacity:1;fill-rule:nonzero;stroke:none;font-family:Courier New;font-variant:normal;font-weight:bold;font-size:9;writing-mode:lr;-inkscape-font-specification:Courier-Bold"
             x="0 5.4 10.8 16.2 21.6 27 32.4 37.8"
             y="0"
             sodipodi:role="line"
             id="tspan262">ene 2012</tspan></text>
<text
           transform="matrix(1,0,0,-1,117.93,66.44)"
           id="text264"><tspan
             style="fill:#7f7f7f;fill-opacity:1;fill-rule:nonzero;stroke:none;font-family:Courier New;font-variant:normal;font-weight:bold;font-size:9;writing-mode:lr;-inkscape-font-specification:Courier-Bold"
             x="0 5.4 10.8 16.2 21.6 27 32.4 37.8"
             y="0"
             sodipodi:role="line"
             id="tspan266">abr 2012</tspan></text>
<text
           transform="matrix(1,0,0,-1,199.17,66.44)"
           id="text268"><tspan
             style="fill:#7f7f7f;fill-opacity:1;fill-rule:nonzero;stroke:none;font-family:Courier New;font-variant:normal;font-weight:bold;font-size:9;writing-mode:lr;-inkscape-font-specification:Courier-Bold"
             x="0 5.4 10.8 16.2 21.6 27 32.4 37.8"
             y="0"
             sodipodi:role="line"
             id="tspan270">jul 2012</tspan></text>
<text
           transform="matrix(1,0,0,-1,281.3,66.44)"
           id="text272"><tspan
             style="fill:#7f7f7f;fill-opacity:1;fill-rule:nonzero;stroke:none;font-family:Courier New;font-variant:normal;font-weight:bold;font-size:9;writing-mode:lr;-inkscape-font-specification:Courier-Bold"
             x="0 5.4 10.8 16.2 21.6 27 32.4 37.8"
             y="0"
             sodipodi:role="line"
             id="tspan274">oct 2012</tspan></text>
<text
           transform="matrix(1,0,0,-1,363.44,66.44)"
           id="text276"><tspan
             style="fill:#7f7f7f;fill-opacity:1;fill-rule:nonzero;stroke:none;font-family:Courier New;font-variant:normal;font-weight:bold;font-size:9;writing-mode:lr;-inkscape-font-specification:Courier-Bold"
             x="0 5.4 10.8 16.2 21.6 27 32.4 37.8"
             y="0"
             sodipodi:role="line"
             id="tspan278">ene 2013</tspan></text>
</g></g><g
       id="g280"><g
         id="g282"
         clip-path="url(#clipPath284)" /></g><g
       id="g288"><g
         id="g290"
         clip-path="url(#clipPath292)" /></g><g
       id="g296"><g
         id="g298"
         clip-path="url(#clipPath300)" /></g><g
       id="g304"><g
         id="g306"
         clip-path="url(#clipPath308)" /></g><g
       id="g312"><g
         id="g314"
         clip-path="url(#clipPath316)"><text
           transform="matrix(1,0,0,-1,205.61,56.65)"
           id="text320"><tspan
             style="fill:#000000;fill-opacity:1;fill-rule:nonzero;stroke:none;font-family:Courier New;font-variant:normal;font-weight:bold;font-size:11;writing-mode:lr;-inkscape-font-specification:Courier-Bold"
             x="0 6.6 13.2 19.8 26.4"
             y="0"
             sodipodi:role="line"
             id="tspan322">Fecha</tspan></text>
</g></g><g
       id="g324"><g
         id="g326"
         clip-path="url(#clipPath328)" /></g><g
       id="g332"><g
         id="g334"
         clip-path="url(#clipPath336)"><text
           transform="matrix(0,1,1,0,16.98,208.74)"
           id="text340"><tspan
             style="fill:#000000;fill-opacity:1;fill-rule:nonzero;stroke:none;font-family:Courier New;font-variant:normal;font-weight:bold;font-size:11;writing-mode:lr;-inkscape-font-specification:Courier-Bold"
             x="0 6.6 13.2 19.8 26.4 33 39.6"
             y="0"
             sodipodi:role="line"
             id="tspan342">Valores</tspan></text>
</g></g><g
       id="g344"><g
         id="g346"
         clip-path="url(#clipPath348)" /></g><g
       id="g352"><g
         id="g354"
         clip-path="url(#clipPath356)" /></g><g
       id="g360"><g
         id="g362"
         clip-path="url(#clipPath364)" /></g><g
       id="g368"><g
         id="g370"
         clip-path="url(#clipPath372)" /></g><g
       id="g376"><g
         id="g378"
         clip-path="url(#clipPath380)" /></g><g
       id="g384"><g
         id="g386"
         clip-path="url(#clipPath388)"><path
           d="m 100.68,17.23 242.86,0 0,25.78 -242.86,0 0,-25.78 z"
           style="fill:#ffffff;fill-opacity:1;fill-rule:nonzero;stroke:#000000;stroke-opacity:1;stroke-width:1.06;stroke-linecap:round;stroke-linejoin:round;stroke-miterlimit:10;stroke-dasharray:none"
           id="path392" /></g></g><g
       id="g394"><g
         id="g396"
         clip-path="url(#clipPath398)" /></g><g
       id="g402"><g
         id="g404"
         clip-path="url(#clipPath406)" /></g><g
       id="g410"><g
         id="g412"
         clip-path="url(#clipPath414)" /></g><g
       id="g418"><g
         id="g420"
         clip-path="url(#clipPath422)"><path
           d="m 109.25,21.49 17.28,0 0,17.28 -17.28,0 0,-17.28 z"
           style="fill:#f2f2f2;fill-opacity:1;fill-rule:nonzero;stroke:#ffffff;stroke-opacity:1;stroke-width:1.06;stroke-linecap:round;stroke-linejoin:round;stroke-miterlimit:10;stroke-dasharray:none"
           id="path426" /></g></g><g
       id="g428"><g
         id="g430"
         clip-path="url(#clipPath432)" /></g><g
       id="g436"><g
         id="g438"
         clip-path="url(#clipPath440)"><path
           d="m 110.98,30.13 13.82,0"
           style="fill:none;stroke:#2e2e2e;stroke-opacity:1;stroke-width:1.89;stroke-linecap:butt;stroke-linejoin:round;stroke-miterlimit:10;stroke-dasharray:none"
           id="path444" /></g></g><g
       id="g446"><g
         id="g448"
         clip-path="url(#clipPath450)" /></g><g
       id="g454"><g
         id="g456"
         clip-path="url(#clipPath458)"><path
           d="m 110.98,30.13 13.82,0"
           style="fill:none;stroke:#2e2e2e;stroke-opacity:1;stroke-width:1.89;stroke-linecap:butt;stroke-linejoin:round;stroke-miterlimit:10;stroke-dasharray:13.24,5.68;stroke-dashoffset:0"
           id="path462" /></g></g><g
       id="g464"><g
         id="g466"
         clip-path="url(#clipPath468)" /></g><g
       id="g472"><g
         id="g474"
         clip-path="url(#clipPath476)"><path
           d="m 110.98,30.13 13.82,0"
           style="fill:none;stroke:#2e2e2e;stroke-opacity:1;stroke-width:1.89;stroke-linecap:butt;stroke-linejoin:round;stroke-miterlimit:10;stroke-dasharray:13.24,5.68;stroke-dashoffset:0"
           id="path480" /></g></g><g
       id="g482"><g
         id="g484"
         clip-path="url(#clipPath486)" /></g><g
       id="g490"><g
         id="g492"
         clip-path="url(#clipPath494)"><path
           d="m 152.45,21.49 17.28,0 0,17.28 -17.28,0 0,-17.28 z"
           style="fill:#f2f2f2;fill-opacity:1;fill-rule:nonzero;stroke:#ffffff;stroke-opacity:1;stroke-width:1.06;stroke-linecap:round;stroke-linejoin:round;stroke-miterlimit:10;stroke-dasharray:none"
           id="path498" /></g></g><g
       id="g500"><g
         id="g502"
         clip-path="url(#clipPath504)" /></g><g
       id="g508"><g
         id="g510"
         clip-path="url(#clipPath512)"><path
           d="m 154.18,30.13 13.82,0"
           style="fill:none;stroke:#b3b3b3;stroke-opacity:1;stroke-width:1.89;stroke-linecap:butt;stroke-linejoin:round;stroke-miterlimit:10;stroke-dasharray:none"
           id="path516" /></g></g><g
       id="g518"><g
         id="g520"
         clip-path="url(#clipPath522)" /></g><g
       id="g526"><g
         id="g528"
         clip-path="url(#clipPath530)"><path
           d="m 154.18,30.13 13.82,0"
           style="fill:none;stroke:#b3b3b3;stroke-opacity:1;stroke-width:1.89;stroke-linecap:butt;stroke-linejoin:round;stroke-miterlimit:10;stroke-dasharray:13.24,5.68;stroke-dashoffset:0"
           id="path534" /></g></g><g
       id="g536"><g
         id="g538"
         clip-path="url(#clipPath540)" /></g><g
       id="g544"><g
         id="g546"
         clip-path="url(#clipPath548)"><path
           d="m 154.18,30.13 13.82,0"
           style="fill:none;stroke:#b3b3b3;stroke-opacity:1;stroke-width:1.89;stroke-linecap:butt;stroke-linejoin:round;stroke-miterlimit:10;stroke-dasharray:13.24,5.68;stroke-dashoffset:0"
           id="path552" /></g></g><g
       id="g554"><g
         id="g556"
         clip-path="url(#clipPath558)" /></g><g
       id="g562"><g
         id="g564"
         clip-path="url(#clipPath566)"><text
           transform="matrix(1,0,0,-1,128.69,27.6)"
           id="text570"><tspan
             style="fill:#000000;fill-opacity:1;fill-rule:nonzero;stroke:none;font-family:Courier New;font-variant:normal;font-weight:bold;font-size:9;writing-mode:lr;-inkscape-font-specification:Courier-Bold"
             x="0 5.4 10.8 16.2"
             y="0"
             sodipodi:role="line"
             id="tspan572">Beta</tspan></text>
</g></g><g
       id="g574"><g
         id="g576"
         clip-path="url(#clipPath578)" /></g><g
       id="g582"><g
         id="g584"
         clip-path="url(#clipPath586)"><text
           transform="matrix(1,0,0,-1,171.89,27.6)"
           id="text590"><tspan
             style="fill:#000000;fill-opacity:1;fill-rule:nonzero;stroke:none;font-family:Courier New;font-variant:normal;font-weight:bold;font-size:9;writing-mode:lr;-inkscape-font-specification:Courier-Bold"
             x="0 5.4 10.8 16.2 21.6 27 32.4 37.8 43.2 48.6 54 59.4 64.8 70.2 75.6 81 86.4 91.8 97.2 102.6 108 113.4 118.8 124.2 129.6 135 140.4 145.8 151.2 156.6 162"
             y="0"
             sodipodi:role="line"
             id="tspan592">intervalos de confianza del 95%</tspan></text>
</g></g><g
       id="g594"><g
         id="g596"
         clip-path="url(#clipPath598)" /></g><g
       id="g602"><g
         id="g604"
         clip-path="url(#clipPath606)" /></g><g
       id="g610"><g
         id="g612"
         clip-path="url(#clipPath614)" /></g><g
       id="g618"><g
         id="g620"
         clip-path="url(#clipPath622)" /></g><g
       id="g626"><g
         id="g628"
         clip-path="url(#clipPath630)" /></g><g
       id="g634"><g
         id="g636"
         clip-path="url(#clipPath638)" /></g><g
       id="g642"><g
         id="g644"
         clip-path="url(#clipPath646)" /></g><g
       id="g650"><g
         id="g652"
         clip-path="url(#clipPath654)" /></g><g
       id="g658"><g
         id="g660"
         clip-path="url(#clipPath662)" /></g><g
       id="g666"><g
         id="g668"
         clip-path="url(#clipPath670)"><text
           transform="matrix(1,0,0,-1,93.41,388.69)"
           id="text674"><tspan
             style="fill:#000000;fill-opacity:1;fill-rule:nonzero;stroke:none;font-family:Courier New;font-variant:normal;font-weight:bold;font-size:13;writing-mode:lr;-inkscape-font-specification:Courier-Bold"
             x="0 7.8 15.6 23.4 31.2 39 46.8 54.6 62.4 70.2 78 85.8 93.6 101.4 109.2 117 124.8 132.6 140.4 148.2 156 163.8 171.6 179.4 187.2 195 202.8 210.6 218.4 226.2 234 241.8 249.6"
             y="0"
             sodipodi:role="line"
             id="tspan676">Recorrido de beta (Suavizamiento)</tspan></text>
</g></g><g
       id="g678"><g
         id="g680"
         clip-path="url(#clipPath682)" /></g><g
       id="g686"><g
         id="g688"
         clip-path="url(#clipPath690)" /></g></g></svg>