<?xml version="1.0" encoding="UTF-8" standalone="no"?>
<!-- Created with Inkscape (http://www.inkscape.org/) -->

<svg
   xmlns:dc="http://purl.org/dc/elements/1.1/"
   xmlns:cc="http://creativecommons.org/ns#"
   xmlns:rdf="http://www.w3.org/1999/02/22-rdf-syntax-ns#"
   xmlns:svg="http://www.w3.org/2000/svg"
   xmlns="http://www.w3.org/2000/svg"
   xmlns:sodipodi="http://sodipodi.sourceforge.net/DTD/sodipodi-0.dtd"
   xmlns:inkscape="http://www.inkscape.org/namespaces/inkscape"
   id="svg2"
   version="1.1"
   inkscape:version="0.48.4 r9939"
   width="517.5"
   height="516.25"
   xml:space="preserve"
   sodipodi:docname="4a_betaBayesFilt.pdf"><metadata
     id="metadata8"><rdf:RDF><cc:Work
         rdf:about=""><dc:format>image/svg+xml</dc:format><dc:type
           rdf:resource="http://purl.org/dc/dcmitype/StillImage" /><dc:title></dc:title></cc:Work></rdf:RDF></metadata><defs
     id="defs6"><clipPath
       clipPathUnits="userSpaceOnUse"
       id="clipPath18"><path
         d="m 0,0 414.75,0 0,414 L 0,414 0,0 z"
         id="path20" /></clipPath><clipPath
       clipPathUnits="userSpaceOnUse"
       id="clipPath26"><path
         d="m 0,0 414.75,0 0,414 L 0,414 0,0 z"
         id="path28" /></clipPath><clipPath
       clipPathUnits="userSpaceOnUse"
       id="clipPath34"><path
         d="m 0,0 414.75,0 0,414 L 0,414 0,0 z"
         id="path36" /></clipPath><clipPath
       clipPathUnits="userSpaceOnUse"
       id="clipPath44"><path
         d="m 0,0 414.75,0 0,414 L 0,414 0,0 z"
         id="path46" /></clipPath><clipPath
       clipPathUnits="userSpaceOnUse"
       id="clipPath52"><path
         d="m 0,0 414.75,0 0,414 L 0,414 0,0 z"
         id="path54" /></clipPath><clipPath
       clipPathUnits="userSpaceOnUse"
       id="clipPath60"><path
         d="m 0,0 414.75,0 0,414 L 0,414 0,0 z"
         id="path62" /></clipPath><clipPath
       clipPathUnits="userSpaceOnUse"
       id="clipPath68"><path
         d="m 38.47,78.58 361.88,0 0,306.51 -361.88,0 0,-306.51 z"
         id="path70" /></clipPath><clipPath
       clipPathUnits="userSpaceOnUse"
       id="clipPath116"><path
         d="m 0,0 414.75,0 0,414 L 0,414 0,0 z"
         id="path118" /></clipPath><clipPath
       clipPathUnits="userSpaceOnUse"
       id="clipPath124"><path
         d="m 0,0 414.75,0 0,414 L 0,414 0,0 z"
         id="path126" /></clipPath><clipPath
       clipPathUnits="userSpaceOnUse"
       id="clipPath132"><path
         d="m 0,0 414.75,0 0,414 L 0,414 0,0 z"
         id="path134" /></clipPath><clipPath
       clipPathUnits="userSpaceOnUse"
       id="clipPath152"><path
         d="m 0,0 414.75,0 0,414 L 0,414 0,0 z"
         id="path154" /></clipPath><clipPath
       clipPathUnits="userSpaceOnUse"
       id="clipPath160"><path
         d="m 0,0 414.75,0 0,414 L 0,414 0,0 z"
         id="path162" /></clipPath><clipPath
       clipPathUnits="userSpaceOnUse"
       id="clipPath174"><path
         d="m 0,0 414.75,0 0,414 L 0,414 0,0 z"
         id="path176" /></clipPath><clipPath
       clipPathUnits="userSpaceOnUse"
       id="clipPath182"><path
         d="m 0,0 414.75,0 0,414 L 0,414 0,0 z"
         id="path184" /></clipPath><clipPath
       clipPathUnits="userSpaceOnUse"
       id="clipPath190"><path
         d="m 0,0 414.75,0 0,414 L 0,414 0,0 z"
         id="path192" /></clipPath><clipPath
       clipPathUnits="userSpaceOnUse"
       id="clipPath198"><path
         d="m 0,0 414.75,0 0,414 L 0,414 0,0 z"
         id="path200" /></clipPath><clipPath
       clipPathUnits="userSpaceOnUse"
       id="clipPath206"><path
         d="m 0,0 414.75,0 0,414 L 0,414 0,0 z"
         id="path208" /></clipPath><clipPath
       clipPathUnits="userSpaceOnUse"
       id="clipPath214"><path
         d="m 0,0 414.75,0 0,414 L 0,414 0,0 z"
         id="path216" /></clipPath><clipPath
       clipPathUnits="userSpaceOnUse"
       id="clipPath232"><path
         d="m 0,0 414.75,0 0,414 L 0,414 0,0 z"
         id="path234" /></clipPath><clipPath
       clipPathUnits="userSpaceOnUse"
       id="clipPath240"><path
         d="m 0,0 414.75,0 0,414 L 0,414 0,0 z"
         id="path242" /></clipPath><clipPath
       clipPathUnits="userSpaceOnUse"
       id="clipPath268"><path
         d="m 0,0 414.75,0 0,414 L 0,414 0,0 z"
         id="path270" /></clipPath><clipPath
       clipPathUnits="userSpaceOnUse"
       id="clipPath276"><path
         d="m 0,0 414.75,0 0,414 L 0,414 0,0 z"
         id="path278" /></clipPath><clipPath
       clipPathUnits="userSpaceOnUse"
       id="clipPath284"><path
         d="m 0,0 414.75,0 0,414 L 0,414 0,0 z"
         id="path286" /></clipPath><clipPath
       clipPathUnits="userSpaceOnUse"
       id="clipPath292"><path
         d="m 0,0 414.75,0 0,414 L 0,414 0,0 z"
         id="path294" /></clipPath><clipPath
       clipPathUnits="userSpaceOnUse"
       id="clipPath300"><path
         d="m 0,0 414.75,0 0,414 L 0,414 0,0 z"
         id="path302" /></clipPath><clipPath
       clipPathUnits="userSpaceOnUse"
       id="clipPath312"><path
         d="m 0,0 414.75,0 0,414 L 0,414 0,0 z"
         id="path314" /></clipPath><clipPath
       clipPathUnits="userSpaceOnUse"
       id="clipPath320"><path
         d="m 0,0 414.75,0 0,414 L 0,414 0,0 z"
         id="path322" /></clipPath><clipPath
       clipPathUnits="userSpaceOnUse"
       id="clipPath332"><path
         d="m 0,0 414.75,0 0,414 L 0,414 0,0 z"
         id="path334" /></clipPath><clipPath
       clipPathUnits="userSpaceOnUse"
       id="clipPath340"><path
         d="m 0,0 414.75,0 0,414 L 0,414 0,0 z"
         id="path342" /></clipPath><clipPath
       clipPathUnits="userSpaceOnUse"
       id="clipPath348"><path
         d="m 0,0 414.75,0 0,414 L 0,414 0,0 z"
         id="path350" /></clipPath><clipPath
       clipPathUnits="userSpaceOnUse"
       id="clipPath356"><path
         d="m 0,0 414.75,0 0,414 L 0,414 0,0 z"
         id="path358" /></clipPath><clipPath
       clipPathUnits="userSpaceOnUse"
       id="clipPath364"><path
         d="m 0,0 414.75,0 0,414 L 0,414 0,0 z"
         id="path366" /></clipPath><clipPath
       clipPathUnits="userSpaceOnUse"
       id="clipPath372"><path
         d="m 0,0 414.75,0 0,414 L 0,414 0,0 z"
         id="path374" /></clipPath><clipPath
       clipPathUnits="userSpaceOnUse"
       id="clipPath382"><path
         d="m 0,0 414.75,0 0,414 L 0,414 0,0 z"
         id="path384" /></clipPath><clipPath
       clipPathUnits="userSpaceOnUse"
       id="clipPath390"><path
         d="m 0,0 414.75,0 0,414 L 0,414 0,0 z"
         id="path392" /></clipPath><clipPath
       clipPathUnits="userSpaceOnUse"
       id="clipPath398"><path
         d="m 0,0 414.75,0 0,414 L 0,414 0,0 z"
         id="path400" /></clipPath><clipPath
       clipPathUnits="userSpaceOnUse"
       id="clipPath406"><path
         d="m 0,0 414.75,0 0,414 L 0,414 0,0 z"
         id="path408" /></clipPath><clipPath
       clipPathUnits="userSpaceOnUse"
       id="clipPath416"><path
         d="m 0,0 414.75,0 0,414 L 0,414 0,0 z"
         id="path418" /></clipPath><clipPath
       clipPathUnits="userSpaceOnUse"
       id="clipPath424"><path
         d="m 0,0 414.75,0 0,414 L 0,414 0,0 z"
         id="path426" /></clipPath><clipPath
       clipPathUnits="userSpaceOnUse"
       id="clipPath434"><path
         d="m 0,0 414.75,0 0,414 L 0,414 0,0 z"
         id="path436" /></clipPath><clipPath
       clipPathUnits="userSpaceOnUse"
       id="clipPath442"><path
         d="m 0,0 414.75,0 0,414 L 0,414 0,0 z"
         id="path444" /></clipPath><clipPath
       clipPathUnits="userSpaceOnUse"
       id="clipPath452"><path
         d="m 0,0 414.75,0 0,414 L 0,414 0,0 z"
         id="path454" /></clipPath><clipPath
       clipPathUnits="userSpaceOnUse"
       id="clipPath460"><path
         d="m 0,0 414.75,0 0,414 L 0,414 0,0 z"
         id="path462" /></clipPath><clipPath
       clipPathUnits="userSpaceOnUse"
       id="clipPath470"><path
         d="m 0,0 414.75,0 0,414 L 0,414 0,0 z"
         id="path472" /></clipPath><clipPath
       clipPathUnits="userSpaceOnUse"
       id="clipPath478"><path
         d="m 0,0 414.75,0 0,414 L 0,414 0,0 z"
         id="path480" /></clipPath><clipPath
       clipPathUnits="userSpaceOnUse"
       id="clipPath488"><path
         d="m 0,0 414.75,0 0,414 L 0,414 0,0 z"
         id="path490" /></clipPath><clipPath
       clipPathUnits="userSpaceOnUse"
       id="clipPath496"><path
         d="m 0,0 414.75,0 0,414 L 0,414 0,0 z"
         id="path498" /></clipPath><clipPath
       clipPathUnits="userSpaceOnUse"
       id="clipPath506"><path
         d="m 0,0 414.75,0 0,414 L 0,414 0,0 z"
         id="path508" /></clipPath><clipPath
       clipPathUnits="userSpaceOnUse"
       id="clipPath514"><path
         d="m 0,0 414.75,0 0,414 L 0,414 0,0 z"
         id="path516" /></clipPath><clipPath
       clipPathUnits="userSpaceOnUse"
       id="clipPath524"><path
         d="m 0,0 414.75,0 0,414 L 0,414 0,0 z"
         id="path526" /></clipPath><clipPath
       clipPathUnits="userSpaceOnUse"
       id="clipPath532"><path
         d="m 0,0 414.75,0 0,414 L 0,414 0,0 z"
         id="path534" /></clipPath><clipPath
       clipPathUnits="userSpaceOnUse"
       id="clipPath542"><path
         d="m 0,0 414.75,0 0,414 L 0,414 0,0 z"
         id="path544" /></clipPath><clipPath
       clipPathUnits="userSpaceOnUse"
       id="clipPath550"><path
         d="m 0,0 414.75,0 0,414 L 0,414 0,0 z"
         id="path552" /></clipPath><clipPath
       clipPathUnits="userSpaceOnUse"
       id="clipPath562"><path
         d="m 0,0 414.75,0 0,414 L 0,414 0,0 z"
         id="path564" /></clipPath><clipPath
       clipPathUnits="userSpaceOnUse"
       id="clipPath570"><path
         d="m 0,0 414.75,0 0,414 L 0,414 0,0 z"
         id="path572" /></clipPath><clipPath
       clipPathUnits="userSpaceOnUse"
       id="clipPath582"><path
         d="m 0,0 414.75,0 0,414 L 0,414 0,0 z"
         id="path584" /></clipPath><clipPath
       clipPathUnits="userSpaceOnUse"
       id="clipPath590"><path
         d="m 0,0 414.75,0 0,414 L 0,414 0,0 z"
         id="path592" /></clipPath><clipPath
       clipPathUnits="userSpaceOnUse"
       id="clipPath598"><path
         d="m 0,0 414.75,0 0,414 L 0,414 0,0 z"
         id="path600" /></clipPath><clipPath
       clipPathUnits="userSpaceOnUse"
       id="clipPath606"><path
         d="m 0,0 414.75,0 0,414 L 0,414 0,0 z"
         id="path608" /></clipPath><clipPath
       clipPathUnits="userSpaceOnUse"
       id="clipPath614"><path
         d="m 0,0 414.75,0 0,414 L 0,414 0,0 z"
         id="path616" /></clipPath><clipPath
       clipPathUnits="userSpaceOnUse"
       id="clipPath622"><path
         d="m 0,0 414.75,0 0,414 L 0,414 0,0 z"
         id="path624" /></clipPath><clipPath
       clipPathUnits="userSpaceOnUse"
       id="clipPath630"><path
         d="m 0,0 414.75,0 0,414 L 0,414 0,0 z"
         id="path632" /></clipPath><clipPath
       clipPathUnits="userSpaceOnUse"
       id="clipPath638"><path
         d="m 0,0 414.75,0 0,414 L 0,414 0,0 z"
         id="path640" /></clipPath><clipPath
       clipPathUnits="userSpaceOnUse"
       id="clipPath646"><path
         d="m 0,0 414.75,0 0,414 L 0,414 0,0 z"
         id="path648" /></clipPath><clipPath
       clipPathUnits="userSpaceOnUse"
       id="clipPath654"><path
         d="m 0,0 414.75,0 0,414 L 0,414 0,0 z"
         id="path656" /></clipPath><clipPath
       clipPathUnits="userSpaceOnUse"
       id="clipPath666"><path
         d="m 0,0 414.75,0 0,414 L 0,414 0,0 z"
         id="path668" /></clipPath><clipPath
       clipPathUnits="userSpaceOnUse"
       id="clipPath674"><path
         d="m 0,0 414.75,0 0,414 L 0,414 0,0 z"
         id="path676" /></clipPath></defs><sodipodi:namedview
     pagecolor="#ffffff"
     bordercolor="#666666"
     borderopacity="1"
     objecttolerance="10"
     gridtolerance="10"
     guidetolerance="10"
     inkscape:pageopacity="0"
     inkscape:pageshadow="2"
     inkscape:window-width="640"
     inkscape:window-height="480"
     id="namedview4"
     showgrid="false"
     inkscape:zoom="0.45714286"
     inkscape:cx="258.75"
     inkscape:cy="258.125"
     inkscape:window-x="0"
     inkscape:window-y="0"
     inkscape:window-maximized="0"
     inkscape:current-layer="g10" /><g
     id="g10"
     inkscape:groupmode="layer"
     inkscape:label="4a_betaBayesFilt"
     transform="matrix(1.25,0,0,-1.25,0,516.25)"><g
       id="g12" /><g
       id="g14"><g
         id="g16"
         clip-path="url(#clipPath18)" /></g><g
       id="g22"><g
         id="g24"
         clip-path="url(#clipPath26)" /></g><g
       id="g30"><g
         id="g32"
         clip-path="url(#clipPath34)"><path
           d="m 0,0 414.75,0 0,414 L 0,414 0,0 z"
           style="fill:#ffffff;fill-opacity:1;fill-rule:nonzero;stroke:#ffffff;stroke-opacity:1;stroke-width:1.06;stroke-linecap:round;stroke-linejoin:round;stroke-miterlimit:10;stroke-dasharray:none"
           id="path38" /></g></g><g
       id="g40"><g
         id="g42"
         clip-path="url(#clipPath44)" /></g><g
       id="g48"><g
         id="g50"
         clip-path="url(#clipPath52)" /></g><g
       id="g56"><g
         id="g58"
         clip-path="url(#clipPath60)" /></g><g
       id="g64"><g
         id="g66"
         clip-path="url(#clipPath68)"><path
           d="m 38.47,78.58 361.88,0 0,306.51 -361.88,0 0,-306.51 z"
           style="fill:#e5e5e5;fill-opacity:1;fill-rule:nonzero;stroke:none"
           id="path72" /><path
           d="m 38.47,112.2 361.88,0"
           style="fill:none;stroke:#f2f2f2;stroke-opacity:1;stroke-width:0.53;stroke-linecap:butt;stroke-linejoin:round;stroke-miterlimit:10;stroke-dasharray:none"
           id="path74" /><path
           d="m 38.47,192.88 361.88,0"
           style="fill:none;stroke:#f2f2f2;stroke-opacity:1;stroke-width:0.53;stroke-linecap:butt;stroke-linejoin:round;stroke-miterlimit:10;stroke-dasharray:none"
           id="path76" /><path
           d="m 38.47,273.57 361.88,0"
           style="fill:none;stroke:#f2f2f2;stroke-opacity:1;stroke-width:0.53;stroke-linecap:butt;stroke-linejoin:round;stroke-miterlimit:10;stroke-dasharray:none"
           id="path78" /><path
           d="m 38.47,354.25 361.88,0"
           style="fill:none;stroke:#f2f2f2;stroke-opacity:1;stroke-width:0.53;stroke-linecap:butt;stroke-linejoin:round;stroke-miterlimit:10;stroke-dasharray:none"
           id="path80" /><path
           d="m 93.54,78.58 0,306.51"
           style="fill:none;stroke:#f2f2f2;stroke-opacity:1;stroke-width:0.53;stroke-linecap:butt;stroke-linejoin:round;stroke-miterlimit:10;stroke-dasharray:none"
           id="path82" /><path
           d="m 176.24,78.58 0,306.51"
           style="fill:none;stroke:#f2f2f2;stroke-opacity:1;stroke-width:0.53;stroke-linecap:butt;stroke-linejoin:round;stroke-miterlimit:10;stroke-dasharray:none"
           id="path84" /><path
           d="m 259.4,78.58 0,306.51"
           style="fill:none;stroke:#f2f2f2;stroke-opacity:1;stroke-width:0.53;stroke-linecap:butt;stroke-linejoin:round;stroke-miterlimit:10;stroke-dasharray:none"
           id="path86" /><path
           d="m 343.01,78.58 0,306.51"
           style="fill:none;stroke:#f2f2f2;stroke-opacity:1;stroke-width:0.53;stroke-linecap:butt;stroke-linejoin:round;stroke-miterlimit:10;stroke-dasharray:none"
           id="path88" /><path
           d="m 38.47,152.54 361.88,0"
           style="fill:none;stroke:#ffffff;stroke-opacity:1;stroke-width:1.06;stroke-linecap:butt;stroke-linejoin:round;stroke-miterlimit:10;stroke-dasharray:none"
           id="path90" /><path
           d="m 38.47,233.22 361.88,0"
           style="fill:none;stroke:#ffffff;stroke-opacity:1;stroke-width:1.06;stroke-linecap:butt;stroke-linejoin:round;stroke-miterlimit:10;stroke-dasharray:none"
           id="path92" /><path
           d="m 38.47,313.91 361.88,0"
           style="fill:none;stroke:#ffffff;stroke-opacity:1;stroke-width:1.06;stroke-linecap:butt;stroke-linejoin:round;stroke-miterlimit:10;stroke-dasharray:none"
           id="path94" /><path
           d="m 52.19,78.58 0,306.51"
           style="fill:none;stroke:#ffffff;stroke-opacity:1;stroke-width:1.06;stroke-linecap:butt;stroke-linejoin:round;stroke-miterlimit:10;stroke-dasharray:none"
           id="path96" /><path
           d="m 134.89,78.58 0,306.51"
           style="fill:none;stroke:#ffffff;stroke-opacity:1;stroke-width:1.06;stroke-linecap:butt;stroke-linejoin:round;stroke-miterlimit:10;stroke-dasharray:none"
           id="path98" /><path
           d="m 217.59,78.58 0,306.51"
           style="fill:none;stroke:#ffffff;stroke-opacity:1;stroke-width:1.06;stroke-linecap:butt;stroke-linejoin:round;stroke-miterlimit:10;stroke-dasharray:none"
           id="path100" /><path
           d="m 301.2,78.58 0,306.51"
           style="fill:none;stroke:#ffffff;stroke-opacity:1;stroke-width:1.06;stroke-linecap:butt;stroke-linejoin:round;stroke-miterlimit:10;stroke-dasharray:none"
           id="path102" /><path
           d="m 384.81,78.58 0,306.51"
           style="fill:none;stroke:#ffffff;stroke-opacity:1;stroke-width:1.06;stroke-linecap:butt;stroke-linejoin:round;stroke-miterlimit:10;stroke-dasharray:none"
           id="path104" /><path
           d="m 54.92,231.84 0.91,-5.93 0.91,-3.21 2.72,2.48 0.91,-1.12 0.91,4.16 0.91,1.52 0.91,7.18 3.63,2.34 0.91,5.58 0.91,-0.62 0.91,9.84 2.72,-7.83 0.91,10.33 0.91,25.98 0.91,-0.4 0.91,-1.86 2.73,-4.18 0.91,-0.54 0.9,-6.95 0.91,0.52 0.91,-3.92 2.73,-1.62 0.91,-0.72 0.91,-1.49 0.9,-6.03 0.91,1.8 2.73,0.98 0.91,-1.53 0.91,11.26 0.91,-1.73 0.9,0.78 3.64,-3.87 0.91,2.45 0.91,0 0.91,-0.56 2.72,0.04 0.91,-0.31 0.91,-3.83 0.91,-0.37 0.91,1.08 2.72,8.08 0.91,-2.17 0.91,-0.97 0.91,1.37 0.91,0.09 2.73,-1.16 0.9,2.75 0.91,-8.41 0.91,1.4 0.91,1.73 2.73,-2.37 0.91,-0.47 0.9,3.04 0.91,2.17 0.91,1.27 2.73,0.15 0.91,-2.07 0.91,-0.72 0.91,2.96 0.9,1.92 2.73,0.01 0.91,-4.08 0.91,1.84 0.91,-1.32 3.63,-2.01 0.91,1.66 0.91,-0.64 0.91,-2.61 0.91,5.84 2.72,3.56 0.91,4.84 0.91,-0.24 0.91,4.97 0.91,1.9 2.72,-2.36 0.91,0.9 0.91,7.36 0.91,0.2 0.91,0.83 2.73,4.38 0.91,0.3 0.9,-2.53 0.91,-1.78 0.91,0.88 2.73,-0.81 0.91,-0.84 0.91,-2.24 0.9,0.03 0.91,0.21 2.73,-0.16 0.91,0.12 0.91,0.86 0.91,1.92 0.9,-1.82 2.73,4.96 0.91,0.7 0.91,-1.32 0.91,0.95 0.91,0.33 3.63,0.03 0.91,-8.95 0.91,0.35 0.91,0.17 2.72,-0.09 0.91,-0.12 0.91,-3.45 0.91,0.2 0.91,0.01 2.73,0.71 0.9,-0.38 0.91,0.09 0.91,-0.64 0.91,-0.29 2.73,-1.64 0.91,-0.14 0.9,0.43 0.91,-3.76 0.91,0.06 2.73,1.19 0.91,0.22 0.91,-0.03 0.91,1.13 0.9,-0.69 2.73,-0.88 0.91,-0.13 1.82,-3.75 0.91,0.13 2.72,-1.38 0.91,1.03 0.91,1 0.91,1.15 0.91,-1.04 2.72,-0.39 0.91,0.21 0.91,0.32 0.91,-0.78 0.91,2.11 2.73,-1.48 0.9,-0.45 0.91,4.55 0.91,-2.07 0.91,-0.38 2.73,-2.32 0.91,-5.34 0.9,1.19 0.91,-1.19 0.91,-0.82 2.73,-0.61 0.91,0.88 0.91,0.79 0.9,0.29 0.91,0.4 2.73,-2.05 0.91,0.12 0.91,0.92 0.91,0.07 0.9,-2.13 2.73,-3.94 0.91,3.59 0.91,-2.3 0.91,1.93 0.91,0.53 2.72,-2.25 0.91,0.84 0.91,0.97 0.91,2.71 0.91,0.35 3.63,-1.9 0.91,1.46 0.91,-1.51 0.91,0.06 2.73,5.51 0.9,0.86 0.91,-1.52 0.91,0.12 0.91,-0.94 2.73,-2.95 0.91,-0.18 0.91,0.6 0.9,1.25 0.91,0.05 2.73,2.44 0.91,4 0.91,1.12 0.91,-0.22 0.9,2.84 2.73,1.33 0.91,-0.46 0.91,-1.19 0.91,0.82 0.91,3.16 2.72,2.91 0.91,-3.51 0.91,-3.66 0.91,2.35 0.91,-1.39 2.72,-0.02 0.91,-0.31 0.91,1.27 0.91,2.56 0.91,3.39 2.73,-5.61 0.9,3.18 0.91,-1.86 0.91,1.25 0.91,0.65 4.54,1.34 0.91,0.11 0.91,3.59 2.73,-1.6 0.91,0.47 0.91,1.45 0.9,2.59 0.91,-1.66 2.73,0.27 0.91,-1.54 0.91,-2.81 0.91,1.68 0.91,-0.08 2.72,4.06 0.91,0.56 0.91,-0.34 1.82,0.01 2.72,-6.37 0.91,-0.19 0.91,0.57 0.91,-0.7 0.91,0.74 2.72,-1.99 0.91,2.19 0.91,7.66 0.91,-1.64 0.91,2.87 2.73,0.08 0.9,-1.38 0.91,-0.17 0.91,0.31 0.91,4.92 2.73,-0.12 0.91,-0.66 0.91,-1.61 0.9,1.02 0.91,-4.56 2.73,-1.92 1.82,0.31 0.91,-1.59 0.9,-2.2 2.73,0.94"
           style="fill:none;stroke:#2e2e2e;stroke-opacity:1;stroke-width:1.89;stroke-linecap:butt;stroke-linejoin:round;stroke-miterlimit:1;stroke-dasharray:none"
           id="path106" /><path
           d="m 54.92,371.16 0.91,-13.8 0.91,-24.12 2.72,2.13 0.91,-7.96 0.91,1.72 0.91,1.33 0.91,-3.31 3.63,2.07 0.91,-3.84 0.91,-0.47 0.91,7.97 2.72,-9.82 0.91,7.47 0.91,24.16 0.91,-6.42 0.91,-2.71 2.73,-5.07 0.91,-0.44 0.9,-9.59 0.91,0.73 0.91,-9.44 2.73,-2.07 0.91,-0.66 0.91,-1.42 0.9,-6.3 0.91,-2.37 2.73,1.06 0.91,-1.88 0.91,9.18 0.91,-2.72 0.9,0.96 3.64,-4.05 0.91,1.14 0.91,0.35 0.91,-0.39 2.72,0.22 0.91,0.03 0.91,-5.65 0.91,-0.04 0.91,-0.01 2.72,6.9 0.91,-7.78 0.91,-0.71 0.91,1.37 0.91,0.48 2.73,-1.11 0.9,1.27 0.91,-9.2 0.91,1.76 0.91,1.42 2.73,-2.32 0.91,-1.82 0.9,2.4 0.91,0.42 0.91,1.6 2.73,0.27 0.91,-2.57 0.91,-1.56 0.91,2.87 0.9,2.31 2.73,0.51 0.91,-4.95 0.91,-0.11 0.91,-1.16 3.63,-3.32 0.91,-0.35 0.91,-0.08 0.91,-2.37 0.91,4.7 2.72,4 0.91,5.01 0.91,-0.25 0.91,4.79 0.91,2.36 2.72,-2.88 0.91,1.46 0.91,7.72 0.91,0.77 0.91,1.24 2.73,4.14 0.91,0.83 0.9,-2.65 0.91,-2.62 0.91,-1.26 2.73,-0.36 0.91,-0.77 0.91,-2.43 0.9,0.55 0.91,0.32 2.73,-0.97 0.91,0.14 0.91,1.02 0.91,0.78 0.9,-1.77 2.73,5.1 0.91,1.17 0.91,-0.79 0.91,1.42 0.91,0.52 3.63,0.53 0.91,-10.43 0.91,0.69 0.91,-2.58 2.72,0.52 0.91,0.55 0.91,-3.87 0.91,0.62 0.91,0.66 2.73,-0.33 0.9,0.23 0.91,-0.17 0.91,-0.03 0.91,0.32 2.73,-1.25 0.91,0.46 0.9,0.41 0.91,-7.24 0.91,0.73 2.73,-0.19 0.91,0.87 0.91,0.65 0.91,1.36 0.9,-0.92 2.73,-0.4 0.91,0.45 1.82,-3.99 0.91,-0.58 2.72,-1.12 0.91,0.65 0.91,1.4 0.91,1.12 0.91,-0.65 2.72,-0.22 0.91,0.84 0.91,0.93 0.91,-0.39 0.91,1.03 2.73,-2.12 0.9,-0.94 0.91,4.94 0.91,-1.72 0.91,-0.11 2.73,-2.16 0.91,-5.57 0.9,1.1 0.91,-1.74 0.91,-0.49 2.73,-0.25 0.91,1.35 0.91,0.87 0.9,0.3 0.91,0.62 2.73,-2.19 0.91,0.03 0.91,0.92 0.91,0.51 0.9,-2.12 2.73,-4.13 0.91,3 0.91,-2.27 0.91,0.97 0.91,1.09 2.72,-2.18 0.91,0.88 0.91,1.15 0.91,1.89 0.91,0.9 3.63,-1.83 0.91,1.51 0.91,-1.25 0.91,0.43 2.73,4.68 0.9,1.17 0.91,-1.38 0.91,0.68 0.91,-0.8 2.73,-3.64 0.91,-0.48 0.91,0.65 0.9,1.11 0.91,0.01 2.73,2.21 0.91,2.75 0.91,0.82 0.91,0.45 0.9,2.59 2.73,1.74 0.91,-0.21 0.91,-0.76 0.91,1.38 0.91,3.07 2.72,2.44 0.91,-4.74 0.91,-4.11 0.91,2.6 0.91,-1.43 2.72,0.62 0.91,0.33 0.91,1.58 0.91,2.15 0.91,1.05 2.73,-5.37 0.9,1.82 0.91,-1.74 0.91,1.71 0.91,0.9 4.54,1.65 0.91,0.82 0.91,2.78 2.73,-1.17 0.91,1.1 0.91,-1.39 0.9,2.11 0.91,-1.08 2.73,0.74 0.91,-1.37 0.91,-3.59 0.91,2.07 0.91,0.59 2.72,4.6 0.91,0.87 0.91,0.05 1.82,0.71 2.72,-6.44 0.91,-0.54 0.91,1.19 0.91,-0.25 0.91,0.87 2.72,-2.42 0.91,2.18 0.91,7.95 0.91,-1.25 0.91,3.17 2.73,0.16 0.9,-0.88 0.91,-0.22 0.91,-0.63 0.91,4.48 2.73,0.54 0.91,-0.04 0.91,-2.84 0.9,1.42 0.91,-5.78 2.73,-2.08 1.82,-0.05 0.91,-1.51 0.9,-3.19 2.73,1.63"
           style="fill:none;stroke:#b3b3b3;stroke-opacity:1;stroke-width:1.89;stroke-linecap:butt;stroke-linejoin:round;stroke-miterlimit:1;stroke-dasharray:13.24,5.68;stroke-dashoffset:0"
           id="path108" /><path
           d="m 54.92,92.51 0.91,1.96 0.91,17.7 2.72,2.81 0.91,5.72 0.91,6.62 0.91,1.7 0.91,17.67 3.63,2.62 0.91,14.99 0.91,-0.78 0.91,11.72 2.72,-5.84 0.91,13.19 0.91,27.8 0.91,5.62 0.91,-1 2.73,-3.3 0.91,-0.63 0.9,-4.32 0.91,0.31 0.91,1.6 2.73,-1.17 0.91,-0.78 0.91,-1.55 0.9,-5.76 0.91,5.95 2.73,0.9 0.91,-1.17 0.91,13.34 0.91,-0.74 0.9,0.59 3.64,-3.67 0.91,3.75 0.91,-0.36 0.91,-0.72 2.72,-0.15 0.91,-0.64 0.91,-2.02 0.91,-0.7 0.91,2.18 2.72,9.26 0.91,3.44 0.91,-1.23 0.91,1.36 0.91,-0.3 2.73,-1.19 0.9,4.22 0.91,-7.62 0.91,1.04 0.91,2.04 2.73,-2.43 0.91,0.88 0.9,3.7 0.91,3.91 0.91,0.93 2.73,0.03 0.91,-1.56 0.91,0.12 0.91,3.05 0.9,1.54 2.73,-0.5 0.91,-3.21 0.91,3.78 0.91,-1.48 3.63,-0.69 0.91,3.67 0.91,-1.21 0.91,-2.85 0.91,6.98 2.72,3.13 0.91,4.67 0.91,-0.24 0.91,5.15 0.91,1.46 2.72,-1.85 0.91,0.34 0.91,6.99 0.91,-0.37 0.91,0.43 2.73,4.62 0.91,-0.23 0.9,-2.42 0.91,-0.92 0.91,3 2.73,-1.25 0.91,-0.91 0.91,-2.04 0.9,-0.51 0.91,0.11 2.73,0.65 0.91,0.11 0.91,0.7 0.91,3.05 0.9,-1.86 2.73,4.8 0.91,0.23 0.91,-1.85 0.91,0.49 0.91,0.15 3.63,-0.49 0.91,-7.45 0.91,0 0.91,2.92 2.72,-0.71 0.91,-0.77 0.91,-3.04 0.91,-0.22 0.91,-0.63 2.73,1.74 0.9,-0.98 0.91,0.34 0.91,-1.25 0.91,-0.9 2.73,-2.03 0.91,-0.75 0.9,0.46 0.91,-0.29 0.91,-0.61 2.73,2.59 0.91,-0.44 0.91,-0.72 0.91,0.9 0.9,-0.45 2.73,-1.35 0.91,-0.73 1.82,-3.5 0.91,0.84 2.72,-1.65 0.91,1.43 0.91,0.6 0.91,1.16 0.91,-1.43 2.72,-0.55 0.91,-0.43 0.91,-0.27 0.91,-1.18 0.91,3.19 2.73,-0.84 0.9,0.05 0.91,4.16 0.91,-2.43 0.91,-0.65 2.73,-2.49 0.91,-5.11 0.9,1.29 0.91,-0.65 0.91,-1.15 2.73,-0.96 0.91,0.42 0.91,0.71 0.9,0.27 0.91,0.18 2.73,-1.91 0.91,0.2 0.91,0.93 0.91,-0.38 0.9,-2.14 2.73,-3.75 0.91,4.19 0.91,-2.33 0.91,2.88 0.91,-0.02 2.72,-2.31 0.91,0.79 0.91,0.78 0.91,3.53 0.91,-0.19 3.63,-1.96 0.91,1.4 0.91,-1.77 0.91,-0.3 2.73,6.32 0.9,0.56 0.91,-1.67 0.91,-0.44 0.91,-1.07 2.73,-2.26 0.91,0.11 0.91,0.56 0.9,1.38 0.91,0.1 2.73,2.67 0.91,5.26 0.91,1.42 0.91,-0.9 0.9,3.09 2.73,0.92 0.91,-0.72 0.91,-1.61 0.91,0.26 0.91,3.25 2.72,3.37 0.91,-2.27 0.91,-3.21 0.91,2.1 0.91,-1.35 2.72,-0.65 0.91,-0.97 0.91,0.97 0.91,2.97 0.91,5.73 2.73,-5.84 0.9,4.52 0.91,-1.97 0.91,0.78 0.91,0.41 4.54,1.02 0.91,-0.59 0.91,4.41 2.73,-2.03 0.91,-0.16 0.91,4.28 0.9,3.08 0.91,-2.26 2.73,-0.2 0.91,-1.71 0.91,-2.01 0.91,1.28 0.91,-0.75 2.72,3.53 0.91,0.24 0.91,-0.72 1.82,-0.69 2.72,-6.31 0.91,0.17 0.91,-0.07 0.91,-1.14 0.91,0.62 2.72,-1.58 0.91,2.21 0.91,7.37 0.91,-2.04 0.91,2.57 2.73,0.01 0.9,-1.88 0.91,-0.11 0.91,1.24 0.91,5.36 2.73,-0.77 0.91,-1.29 0.91,-0.39 0.9,0.63 0.91,-3.34 2.73,-1.77 1.82,0.68 0.91,-1.67 0.9,-1.21 2.73,0.25"
           style="fill:none;stroke:#b3b3b3;stroke-opacity:1;stroke-width:1.89;stroke-linecap:butt;stroke-linejoin:round;stroke-miterlimit:1;stroke-dasharray:13.24,5.68;stroke-dashoffset:0"
           id="path110" /></g></g><g
       id="g112"><g
         id="g114"
         clip-path="url(#clipPath116)" /></g><g
       id="g120"><g
         id="g122"
         clip-path="url(#clipPath124)" /></g><g
       id="g128"><g
         id="g130"
         clip-path="url(#clipPath132)"><text
           transform="matrix(1,0,0,-1,20.58,150.01)"
           id="text136"><tspan
             style="fill:#7f7f7f;fill-opacity:1;fill-rule:nonzero;stroke:none;font-family:Courier New;font-variant:normal;font-weight:bold;font-size:9;writing-mode:lr;-inkscape-font-specification:Courier-Bold"
             x="0 5.4"
             y="0"
             sodipodi:role="line"
             id="tspan138">−2</tspan></text>
<text
           transform="matrix(1,0,0,-1,25.98,230.69)"
           id="text140"><tspan
             style="fill:#7f7f7f;fill-opacity:1;fill-rule:nonzero;stroke:none;font-family:Courier New;font-variant:normal;font-weight:bold;font-size:9;writing-mode:lr;-inkscape-font-specification:Courier-Bold"
             x="0"
             y="0"
             id="tspan142">0</tspan></text>
<text
           transform="matrix(1,0,0,-1,25.98,311.38)"
           id="text144"><tspan
             style="fill:#7f7f7f;fill-opacity:1;fill-rule:nonzero;stroke:none;font-family:Courier New;font-variant:normal;font-weight:bold;font-size:9;writing-mode:lr;-inkscape-font-specification:Courier-Bold"
             x="0"
             y="0"
             id="tspan146">2</tspan></text>
</g></g><g
       id="g148"><g
         id="g150"
         clip-path="url(#clipPath152)" /></g><g
       id="g156"><g
         id="g158"
         clip-path="url(#clipPath160)"><path
           d="m 34.22,152.54 4.25,0"
           style="fill:none;stroke:#7f7f7f;stroke-opacity:1;stroke-width:1.06;stroke-linecap:butt;stroke-linejoin:round;stroke-miterlimit:10;stroke-dasharray:none"
           id="path164" /><path
           d="m 34.22,233.22 4.25,0"
           style="fill:none;stroke:#7f7f7f;stroke-opacity:1;stroke-width:1.06;stroke-linecap:butt;stroke-linejoin:round;stroke-miterlimit:10;stroke-dasharray:none"
           id="path166" /><path
           d="m 34.22,313.91 4.25,0"
           style="fill:none;stroke:#7f7f7f;stroke-opacity:1;stroke-width:1.06;stroke-linecap:butt;stroke-linejoin:round;stroke-miterlimit:10;stroke-dasharray:none"
           id="path168" /></g></g><g
       id="g170"><g
         id="g172"
         clip-path="url(#clipPath174)" /></g><g
       id="g178"><g
         id="g180"
         clip-path="url(#clipPath182)" /></g><g
       id="g186"><g
         id="g188"
         clip-path="url(#clipPath190)" /></g><g
       id="g194"><g
         id="g196"
         clip-path="url(#clipPath198)" /></g><g
       id="g202"><g
         id="g204"
         clip-path="url(#clipPath206)" /></g><g
       id="g210"><g
         id="g212"
         clip-path="url(#clipPath214)"><path
           d="m 52.19,74.33 0,4.25"
           style="fill:none;stroke:#7f7f7f;stroke-opacity:1;stroke-width:1.06;stroke-linecap:butt;stroke-linejoin:round;stroke-miterlimit:10;stroke-dasharray:none"
           id="path218" /><path
           d="m 134.89,74.33 0,4.25"
           style="fill:none;stroke:#7f7f7f;stroke-opacity:1;stroke-width:1.06;stroke-linecap:butt;stroke-linejoin:round;stroke-miterlimit:10;stroke-dasharray:none"
           id="path220" /><path
           d="m 217.59,74.33 0,4.25"
           style="fill:none;stroke:#7f7f7f;stroke-opacity:1;stroke-width:1.06;stroke-linecap:butt;stroke-linejoin:round;stroke-miterlimit:10;stroke-dasharray:none"
           id="path222" /><path
           d="m 301.2,74.33 0,4.25"
           style="fill:none;stroke:#7f7f7f;stroke-opacity:1;stroke-width:1.06;stroke-linecap:butt;stroke-linejoin:round;stroke-miterlimit:10;stroke-dasharray:none"
           id="path224" /><path
           d="m 384.81,74.33 0,4.25"
           style="fill:none;stroke:#7f7f7f;stroke-opacity:1;stroke-width:1.06;stroke-linecap:butt;stroke-linejoin:round;stroke-miterlimit:10;stroke-dasharray:none"
           id="path226" /></g></g><g
       id="g228"><g
         id="g230"
         clip-path="url(#clipPath232)" /></g><g
       id="g236"><g
         id="g238"
         clip-path="url(#clipPath240)"><text
           transform="matrix(1,0,0,-1,30.59,66.44)"
           id="text244"><tspan
             style="fill:#7f7f7f;fill-opacity:1;fill-rule:nonzero;stroke:none;font-family:Courier New;font-variant:normal;font-weight:bold;font-size:9;writing-mode:lr;-inkscape-font-specification:Courier-Bold"
             x="0 5.4 10.8 16.2 21.6 27 32.4 37.8"
             y="0"
             sodipodi:role="line"
             id="tspan246">ene 2012</tspan></text>
<text
           transform="matrix(1,0,0,-1,113.29,66.44)"
           id="text248"><tspan
             style="fill:#7f7f7f;fill-opacity:1;fill-rule:nonzero;stroke:none;font-family:Courier New;font-variant:normal;font-weight:bold;font-size:9;writing-mode:lr;-inkscape-font-specification:Courier-Bold"
             x="0 5.4 10.8 16.2 21.6 27 32.4 37.8"
             y="0"
             sodipodi:role="line"
             id="tspan250">abr 2012</tspan></text>
<text
           transform="matrix(1,0,0,-1,195.99,66.44)"
           id="text252"><tspan
             style="fill:#7f7f7f;fill-opacity:1;fill-rule:nonzero;stroke:none;font-family:Courier New;font-variant:normal;font-weight:bold;font-size:9;writing-mode:lr;-inkscape-font-specification:Courier-Bold"
             x="0 5.4 10.8 16.2 21.6 27 32.4 37.8"
             y="0"
             sodipodi:role="line"
             id="tspan254">jul 2012</tspan></text>
<text
           transform="matrix(1,0,0,-1,279.6,66.44)"
           id="text256"><tspan
             style="fill:#7f7f7f;fill-opacity:1;fill-rule:nonzero;stroke:none;font-family:Courier New;font-variant:normal;font-weight:bold;font-size:9;writing-mode:lr;-inkscape-font-specification:Courier-Bold"
             x="0 5.4 10.8 16.2 21.6 27 32.4 37.8"
             y="0"
             sodipodi:role="line"
             id="tspan258">oct 2012</tspan></text>
<text
           transform="matrix(1,0,0,-1,363.21,66.44)"
           id="text260"><tspan
             style="fill:#7f7f7f;fill-opacity:1;fill-rule:nonzero;stroke:none;font-family:Courier New;font-variant:normal;font-weight:bold;font-size:9;writing-mode:lr;-inkscape-font-specification:Courier-Bold"
             x="0 5.4 10.8 16.2 21.6 27 32.4 37.8"
             y="0"
             sodipodi:role="line"
             id="tspan262">ene 2013</tspan></text>
</g></g><g
       id="g264"><g
         id="g266"
         clip-path="url(#clipPath268)" /></g><g
       id="g272"><g
         id="g274"
         clip-path="url(#clipPath276)" /></g><g
       id="g280"><g
         id="g282"
         clip-path="url(#clipPath284)" /></g><g
       id="g288"><g
         id="g290"
         clip-path="url(#clipPath292)" /></g><g
       id="g296"><g
         id="g298"
         clip-path="url(#clipPath300)"><text
           transform="matrix(1,0,0,-1,202.91,56.65)"
           id="text304"><tspan
             style="fill:#000000;fill-opacity:1;fill-rule:nonzero;stroke:none;font-family:Courier New;font-variant:normal;font-weight:bold;font-size:11;writing-mode:lr;-inkscape-font-specification:Courier-Bold"
             x="0 6.6 13.2 19.8 26.4"
             y="0"
             sodipodi:role="line"
             id="tspan306">Fecha</tspan></text>
</g></g><g
       id="g308"><g
         id="g310"
         clip-path="url(#clipPath312)" /></g><g
       id="g316"><g
         id="g318"
         clip-path="url(#clipPath320)"><text
           transform="matrix(0,1,1,0,16.98,208.74)"
           id="text324"><tspan
             style="fill:#000000;fill-opacity:1;fill-rule:nonzero;stroke:none;font-family:Courier New;font-variant:normal;font-weight:bold;font-size:11;writing-mode:lr;-inkscape-font-specification:Courier-Bold"
             x="0 6.6 13.2 19.8 26.4 33 39.6"
             y="0"
             sodipodi:role="line"
             id="tspan326">Valores</tspan></text>
</g></g><g
       id="g328"><g
         id="g330"
         clip-path="url(#clipPath332)" /></g><g
       id="g336"><g
         id="g338"
         clip-path="url(#clipPath340)" /></g><g
       id="g344"><g
         id="g346"
         clip-path="url(#clipPath348)" /></g><g
       id="g352"><g
         id="g354"
         clip-path="url(#clipPath356)" /></g><g
       id="g360"><g
         id="g362"
         clip-path="url(#clipPath364)" /></g><g
       id="g368"><g
         id="g370"
         clip-path="url(#clipPath372)"><path
           d="m 97.98,17.23 242.86,0 0,25.78 -242.86,0 0,-25.78 z"
           style="fill:#ffffff;fill-opacity:1;fill-rule:nonzero;stroke:#000000;stroke-opacity:1;stroke-width:1.06;stroke-linecap:round;stroke-linejoin:round;stroke-miterlimit:10;stroke-dasharray:none"
           id="path376" /></g></g><g
       id="g378"><g
         id="g380"
         clip-path="url(#clipPath382)" /></g><g
       id="g386"><g
         id="g388"
         clip-path="url(#clipPath390)" /></g><g
       id="g394"><g
         id="g396"
         clip-path="url(#clipPath398)" /></g><g
       id="g402"><g
         id="g404"
         clip-path="url(#clipPath406)"><path
           d="m 106.55,21.49 17.28,0 0,17.28 -17.28,0 0,-17.28 z"
           style="fill:#f2f2f2;fill-opacity:1;fill-rule:nonzero;stroke:#ffffff;stroke-opacity:1;stroke-width:1.06;stroke-linecap:round;stroke-linejoin:round;stroke-miterlimit:10;stroke-dasharray:none"
           id="path410" /></g></g><g
       id="g412"><g
         id="g414"
         clip-path="url(#clipPath416)" /></g><g
       id="g420"><g
         id="g422"
         clip-path="url(#clipPath424)"><path
           d="m 108.28,30.13 13.82,0"
           style="fill:none;stroke:#2e2e2e;stroke-opacity:1;stroke-width:1.89;stroke-linecap:butt;stroke-linejoin:round;stroke-miterlimit:10;stroke-dasharray:none"
           id="path428" /></g></g><g
       id="g430"><g
         id="g432"
         clip-path="url(#clipPath434)" /></g><g
       id="g438"><g
         id="g440"
         clip-path="url(#clipPath442)"><path
           d="m 108.28,30.13 13.82,0"
           style="fill:none;stroke:#2e2e2e;stroke-opacity:1;stroke-width:1.89;stroke-linecap:butt;stroke-linejoin:round;stroke-miterlimit:10;stroke-dasharray:13.24,5.68;stroke-dashoffset:0"
           id="path446" /></g></g><g
       id="g448"><g
         id="g450"
         clip-path="url(#clipPath452)" /></g><g
       id="g456"><g
         id="g458"
         clip-path="url(#clipPath460)"><path
           d="m 108.28,30.13 13.82,0"
           style="fill:none;stroke:#2e2e2e;stroke-opacity:1;stroke-width:1.89;stroke-linecap:butt;stroke-linejoin:round;stroke-miterlimit:10;stroke-dasharray:13.24,5.68;stroke-dashoffset:0"
           id="path464" /></g></g><g
       id="g466"><g
         id="g468"
         clip-path="url(#clipPath470)" /></g><g
       id="g474"><g
         id="g476"
         clip-path="url(#clipPath478)"><path
           d="m 149.75,21.49 17.28,0 0,17.28 -17.28,0 0,-17.28 z"
           style="fill:#f2f2f2;fill-opacity:1;fill-rule:nonzero;stroke:#ffffff;stroke-opacity:1;stroke-width:1.06;stroke-linecap:round;stroke-linejoin:round;stroke-miterlimit:10;stroke-dasharray:none"
           id="path482" /></g></g><g
       id="g484"><g
         id="g486"
         clip-path="url(#clipPath488)" /></g><g
       id="g492"><g
         id="g494"
         clip-path="url(#clipPath496)"><path
           d="m 151.48,30.13 13.82,0"
           style="fill:none;stroke:#b3b3b3;stroke-opacity:1;stroke-width:1.89;stroke-linecap:butt;stroke-linejoin:round;stroke-miterlimit:10;stroke-dasharray:none"
           id="path500" /></g></g><g
       id="g502"><g
         id="g504"
         clip-path="url(#clipPath506)" /></g><g
       id="g510"><g
         id="g512"
         clip-path="url(#clipPath514)"><path
           d="m 151.48,30.13 13.82,0"
           style="fill:none;stroke:#b3b3b3;stroke-opacity:1;stroke-width:1.89;stroke-linecap:butt;stroke-linejoin:round;stroke-miterlimit:10;stroke-dasharray:13.24,5.68;stroke-dashoffset:0"
           id="path518" /></g></g><g
       id="g520"><g
         id="g522"
         clip-path="url(#clipPath524)" /></g><g
       id="g528"><g
         id="g530"
         clip-path="url(#clipPath532)"><path
           d="m 151.48,30.13 13.82,0"
           style="fill:none;stroke:#b3b3b3;stroke-opacity:1;stroke-width:1.89;stroke-linecap:butt;stroke-linejoin:round;stroke-miterlimit:10;stroke-dasharray:13.24,5.68;stroke-dashoffset:0"
           id="path536" /></g></g><g
       id="g538"><g
         id="g540"
         clip-path="url(#clipPath542)" /></g><g
       id="g546"><g
         id="g548"
         clip-path="url(#clipPath550)"><text
           transform="matrix(1,0,0,-1,125.99,27.6)"
           id="text554"><tspan
             style="fill:#000000;fill-opacity:1;fill-rule:nonzero;stroke:none;font-family:Courier New;font-variant:normal;font-weight:bold;font-size:9;writing-mode:lr;-inkscape-font-specification:Courier-Bold"
             x="0 5.4 10.8 16.2"
             y="0"
             sodipodi:role="line"
             id="tspan556">Beta</tspan></text>
</g></g><g
       id="g558"><g
         id="g560"
         clip-path="url(#clipPath562)" /></g><g
       id="g566"><g
         id="g568"
         clip-path="url(#clipPath570)"><text
           transform="matrix(1,0,0,-1,169.19,27.6)"
           id="text574"><tspan
             style="fill:#000000;fill-opacity:1;fill-rule:nonzero;stroke:none;font-family:Courier New;font-variant:normal;font-weight:bold;font-size:9;writing-mode:lr;-inkscape-font-specification:Courier-Bold"
             x="0 5.4 10.8 16.2 21.6 27 32.4 37.8 43.2 48.6 54 59.4 64.8 70.2 75.6 81 86.4 91.8 97.2 102.6 108 113.4 118.8 124.2 129.6 135 140.4 145.8 151.2 156.6 162"
             y="0"
             sodipodi:role="line"
             id="tspan576">intervalos de confianza del 95%</tspan></text>
</g></g><g
       id="g578"><g
         id="g580"
         clip-path="url(#clipPath582)" /></g><g
       id="g586"><g
         id="g588"
         clip-path="url(#clipPath590)" /></g><g
       id="g594"><g
         id="g596"
         clip-path="url(#clipPath598)" /></g><g
       id="g602"><g
         id="g604"
         clip-path="url(#clipPath606)" /></g><g
       id="g610"><g
         id="g612"
         clip-path="url(#clipPath614)" /></g><g
       id="g618"><g
         id="g620"
         clip-path="url(#clipPath622)" /></g><g
       id="g626"><g
         id="g628"
         clip-path="url(#clipPath630)" /></g><g
       id="g634"><g
         id="g636"
         clip-path="url(#clipPath638)" /></g><g
       id="g642"><g
         id="g644"
         clip-path="url(#clipPath646)" /></g><g
       id="g650"><g
         id="g652"
         clip-path="url(#clipPath654)"><text
           transform="matrix(1,0,0,-1,102.41,388.69)"
           id="text658"><tspan
             style="fill:#000000;fill-opacity:1;fill-rule:nonzero;stroke:none;font-family:Courier New;font-variant:normal;font-weight:bold;font-size:13;writing-mode:lr;-inkscape-font-specification:Courier-Bold"
             x="0 7.8 15.6 23.4 31.2 39 46.8 54.6 62.4 70.2 78 85.8 93.6 101.4 109.2 117 124.8 132.6 140.4 148.2 156 163.8 171.6 179.4 187.2 195 202.8 210.6 218.4 226.2"
             y="0"
             sodipodi:role="line"
             id="tspan660">Recorrido de beta (Filtración)</tspan></text>
</g></g><g
       id="g662"><g
         id="g664"
         clip-path="url(#clipPath666)" /></g><g
       id="g670"><g
         id="g672"
         clip-path="url(#clipPath674)" /></g></g></svg>